<?xml version="1.0" encoding="UTF-8"?>
<svg id="Layer_1" xmlns="http://www.w3.org/2000/svg" version="1.1" xmlns:xlink="http://www.w3.org/1999/xlink" viewBox="0 0 1152 998.6">
  <!-- Generator: Adobe Illustrator 29.0.0, SVG Export Plug-In . SVG Version: 2.1.0 Build 186)  -->
  <defs>
    <style>
      .st0 {
        font-size: 30px;
      }

      .st0, .st1, .st2, .st3 {
        isolation: isolate;
      }

      .st0, .st2 {
        font-family: ImperialSansDisplay-Regular, 'Imperial Sans Display';
      }

      .st4 {
        clip-path: url(#clippath-6);
      }

      .st5 {
        clip-path: url(#clippath-7);
      }

      .st6 {
        clip-path: url(#clippath-17);
      }

      .st7 {
        clip-path: url(#clippath-15);
      }

      .st8 {
        clip-path: url(#clippath-4);
      }

      .st9, .st10, .st11, .st12, .st13, .st14, .st15 {
        fill: none;
      }

      .st9, .st10, .st12, .st13, .st14, .st15 {
        stroke-linecap: square;
      }

      .st9, .st13, .st16 {
        stroke: #000;
      }

      .st1 {
        opacity: .8;
        stroke: #ccc;
      }

      .st1, .st17 {
        fill: #fff;
      }

      .st18 {
        clip-path: url(#clippath-9);
      }

      .st19 {
        clip-path: url(#clippath-10);
      }

      .st10 {
        stroke: #366239;
      }

      .st10, .st12, .st14 {
        stroke-width: 2px;
      }

      .st10, .st12, .st14, .st15, .st16 {
        stroke-linejoin: round;
      }

      .st2 {
        font-size: 36px;
      }

      .st20 {
        clip-path: url(#clippath-11);
      }

      .st21 {
        clip-path: url(#clippath-1);
      }

      .st12 {
        stroke: #ef6a54;
      }

      .st22 {
        clip-path: url(#clippath-5);
      }

      .st23 {
        clip-path: url(#clippath-8);
      }

      .st13, .st15, .st16 {
        stroke-width: .8px;
      }

      .st24 {
        clip-path: url(#clippath-3);
      }

      .st25 {
        clip-path: url(#clippath-12);
      }

      .st14 {
        stroke: #44419a;
      }

      .st26 {
        clip-path: url(#clippath-14);
      }

      .st15 {
        stroke: #b0b0b0;
      }

      .st27 {
        clip-path: url(#clippath-16);
      }

      .st28 {
        clip-path: url(#clippath-2);
      }

      .st29 {
        clip-path: url(#clippath-13);
      }

      .st30 {
        clip-path: url(#clippath);
      }
    </style>
    <clipPath id="clippath">
      <rect class="st11" x="144" y="119.8" width="892.8" height="769"/>
    </clipPath>
    <clipPath id="clippath-1">
      <rect class="st11" x="144" y="119.8" width="892.8" height="769"/>
    </clipPath>
    <clipPath id="clippath-2">
      <rect class="st11" x="144" y="119.8" width="892.8" height="769"/>
    </clipPath>
    <clipPath id="clippath-3">
      <rect class="st11" x="144" y="119.8" width="892.8" height="769"/>
    </clipPath>
    <clipPath id="clippath-4">
      <rect class="st11" x="144" y="119.8" width="892.8" height="769"/>
    </clipPath>
    <clipPath id="clippath-5">
      <rect class="st11" x="144" y="119.8" width="892.8" height="769"/>
    </clipPath>
    <clipPath id="clippath-6">
      <rect class="st11" x="144" y="119.8" width="892.8" height="769"/>
    </clipPath>
    <clipPath id="clippath-7">
      <rect class="st11" x="144" y="119.8" width="892.8" height="769"/>
    </clipPath>
    <clipPath id="clippath-8">
      <rect class="st11" x="144" y="119.8" width="892.8" height="769"/>
    </clipPath>
    <clipPath id="clippath-9">
      <rect class="st11" x="144" y="119.8" width="892.8" height="769"/>
    </clipPath>
    <clipPath id="clippath-10">
      <rect class="st11" x="144" y="119.8" width="892.8" height="769"/>
    </clipPath>
    <clipPath id="clippath-11">
      <rect class="st11" x="144" y="119.8" width="892.8" height="769"/>
    </clipPath>
    <clipPath id="clippath-12">
      <rect class="st11" x="144" y="119.8" width="892.8" height="769"/>
    </clipPath>
    <clipPath id="clippath-13">
      <rect class="st11" x="144" y="119.8" width="892.8" height="769"/>
    </clipPath>
    <clipPath id="clippath-14">
      <rect class="st11" x="144" y="119.8" width="892.8" height="769"/>
    </clipPath>
    <clipPath id="clippath-15">
      <rect class="st11" x="144" y="119.8" width="892.8" height="769"/>
    </clipPath>
    <clipPath id="clippath-16">
      <rect class="st11" x="144" y="119.8" width="892.8" height="769"/>
    </clipPath>
    <clipPath id="clippath-17">
      <rect class="st11" x="144" y="119.8" width="892.8" height="769"/>
    </clipPath>
  </defs>
  <g id="figure_1">
    <g id="patch_1">
      <path class="st17" d="M0,998.6h1152V0H0v998.6Z"/>
    </g>
    <g id="axes_1">
      <g id="patch_2">
        <path class="st17" d="M144,888.8h892.8V119.8H144v769Z"/>
      </g>
      <g id="matplotlib.axis_1">
        <g id="xtick_1">
          <g id="line2d_1">
            <g class="st30">
              <path class="st15" d="M184.6,888.8V119.8"/>
            </g>
          </g>
          <g id="line2d_2">
            <path id="m69f19e8157" class="st16" d="M184.6,888.8v3.5"/>
          </g>
          <g id="text_1">
            <path id="DejaVuSans-30" d="M184.6,897.9c-1.1,0-2,.5-2.5,1.6-.6,1.1-.8,2.7-.8,5s.3,3.8.8,4.9c.6,1.1,1.4,1.6,2.5,1.6s2-.5,2.5-1.6c.6-1.1.8-2.7.8-4.9s-.3-3.9-.8-5c-.6-1.1-1.4-1.6-2.5-1.6ZM184.6,896.2c1.8,0,3.2.7,4.1,2.1.9,1.4,1.4,3.5,1.4,6.2s-.5,4.8-1.4,6.2c-.9,1.4-2.3,2.1-4.1,2.1s-3.2-.7-4.1-2.1c-.9-1.4-1.4-3.5-1.4-6.2s.5-4.8,1.4-6.2c.9-1.4,2.3-2.1,4.1-2.1Z"/>
          </g>
        </g>
        <g id="xtick_2">
          <g id="line2d_3">
            <g class="st21">
              <path class="st15" d="M319.9,888.8V119.8"/>
            </g>
          </g>
          <g id="line2d_4">
            <path id="m69f19e81571" data-name="m69f19e8157" class="st16" d="M319.9,888.8v3.5"/>
          </g>
          <g id="text_2">
            <path id="DejaVuSans-31" d="M315.6,910.7h3.5v-12.2l-3.9.8v-2l3.8-.8h2.2v14.2h3.5v1.8h-9.2v-1.8Z"/>
          </g>
        </g>
        <g id="xtick_3">
          <g id="line2d_5">
            <g class="st28">
              <path class="st15" d="M455.1,888.8V119.8"/>
            </g>
          </g>
          <g id="line2d_6">
            <path id="m69f19e81572" data-name="m69f19e8157" class="st16" d="M455.1,888.8v3.5"/>
          </g>
          <g id="text_3">
            <path id="DejaVuSans-32" d="M452.3,910.7h7.6v1.8h-10.2v-1.8c.8-.9,1.9-2,3.4-3.4,1.4-1.4,2.3-2.4,2.7-2.8.7-.8,1.2-1.4,1.5-2,.3-.5.4-1.1.4-1.6,0-.9-.3-1.5-.9-2.1-.6-.5-1.4-.8-2.3-.8s-1.4.1-2.2.4c-.8.2-1.6.6-2.4,1.1v-2.2c.9-.4,1.7-.6,2.4-.8.8-.2,1.5-.3,2.1-.3,1.7,0,3,.4,4,1.2,1,.8,1.5,1.9,1.5,3.3s-.1,1.3-.4,1.9c-.2.6-.7,1.3-1.3,2.1-.2.2-.7.8-1.7,1.8-1,1-2.3,2.4-4.1,4.2Z"/>
          </g>
        </g>
        <g id="xtick_4">
          <g id="line2d_7">
            <g class="st24">
              <path class="st15" d="M590.4,888.8V119.8"/>
            </g>
          </g>
          <g id="line2d_8">
            <path id="m69f19e81573" data-name="m69f19e8157" class="st16" d="M590.4,888.8v3.5"/>
          </g>
          <g id="text_4">
            <path id="DejaVuSans-33" d="M592.3,903.9c1,.2,1.8.7,2.4,1.4.6.7.9,1.6.9,2.6,0,1.6-.5,2.8-1.6,3.7-1.1.9-2.6,1.3-4.6,1.3s-1.4,0-2.1-.2c-.7-.1-1.4-.3-2.2-.6v-2.1c.6.4,1.3.6,2,.8.7.2,1.5.3,2.2.3,1.4,0,2.4-.3,3.1-.8s1.1-1.3,1.1-2.3-.3-1.7-1-2.2c-.7-.5-1.6-.8-2.8-.8h-1.9v-1.8h2c1.1,0,1.9-.2,2.4-.6s.8-1,.8-1.8-.3-1.5-.9-1.9c-.6-.4-1.4-.7-2.5-.7s-1.2,0-1.9.2c-.7.1-1.4.3-2.2.6v-1.9c.8-.2,1.6-.4,2.3-.5s1.4-.2,2-.2c1.6,0,3,.4,3.9,1.1,1,.7,1.4,1.8,1.4,3s-.3,1.6-.8,2.3-1.2,1-2.2,1.3Z"/>
          </g>
        </g>
        <g id="xtick_5">
          <g id="line2d_9">
            <g class="st8">
              <path class="st15" d="M725.7,888.8V119.8"/>
            </g>
          </g>
          <g id="line2d_10">
            <path id="m69f19e81574" data-name="m69f19e8157" class="st16" d="M725.7,888.8v3.5"/>
          </g>
          <g id="text_5">
            <path id="DejaVuSans-34" d="M727,898.4l-5.5,8.6h5.5v-8.6ZM726.4,896.5h2.7v10.5h2.3v1.8h-2.3v3.8h-2.2v-3.8h-7.2v-2.1l6.7-10.2Z"/>
          </g>
        </g>
        <g id="xtick_6">
          <g id="line2d_11">
            <g class="st22">
              <path class="st15" d="M860.9,888.8V119.8"/>
            </g>
          </g>
          <g id="line2d_12">
            <path id="m69f19e81575" data-name="m69f19e8157" class="st16" d="M860.9,888.8v3.5"/>
          </g>
          <g id="text_6">
            <path id="DejaVuSans-35" d="M856.3,896.5h8.5v1.8h-6.5v3.9c.3-.1.6-.2.9-.2.3,0,.6,0,.9,0,1.8,0,3.2.5,4.3,1.5,1,1,1.6,2.3,1.6,4s-.5,3.1-1.6,4c-1.1,1-2.6,1.4-4.5,1.4s-1.4,0-2.1-.2c-.7-.1-1.4-.3-2.2-.5v-2.2c.6.4,1.3.6,2,.8s1.4.3,2.2.3c1.2,0,2.2-.3,2.9-1,.7-.7,1.1-1.5,1.1-2.7s-.4-2-1.1-2.7c-.7-.7-1.7-1-2.9-1s-1.2,0-1.7.2c-.6.1-1.2.3-1.8.6v-8.1Z"/>
          </g>
        </g>
        <g id="xtick_7">
          <g id="line2d_13">
            <g class="st4">
              <path class="st15" d="M996.2,888.8V119.8"/>
            </g>
          </g>
          <g id="line2d_14">
            <path id="m69f19e81576" data-name="m69f19e8157" class="st16" d="M996.2,888.8v3.5"/>
          </g>
          <g id="text_7">
            <path id="DejaVuSans-36" d="M996.5,903.6c-1,0-1.7.3-2.3,1-.6.7-.9,1.6-.9,2.7s.3,2.1.9,2.7c.6.7,1.3,1,2.3,1s1.7-.3,2.3-1c.6-.7.9-1.6.9-2.7s-.3-2.1-.9-2.7c-.6-.7-1.3-1-2.3-1ZM1000.8,896.8v2c-.5-.3-1.1-.5-1.6-.6-.6-.1-1.1-.2-1.6-.2-1.4,0-2.5.5-3.3,1.5-.8,1-1.2,2.4-1.3,4.4.4-.6,1-1.1,1.6-1.4.6-.3,1.3-.5,2.1-.5,1.6,0,2.9.5,3.8,1.5.9,1,1.4,2.3,1.4,4s-.5,3-1.5,4c-1,1-2.3,1.5-3.9,1.5s-3.3-.7-4.3-2.1c-1-1.4-1.5-3.5-1.5-6.2s.6-4.6,1.8-6.1c1.2-1.5,2.8-2.3,4.8-2.3s1.1,0,1.6.2,1.1.3,1.7.5Z"/>
          </g>
        </g>
        <g class="st3">
          <text class="st2" transform="translate(322.8 949.2)"><tspan x="0" y="0">Iteration step of local search algorithm</tspan></text>
        </g>
      </g>
      <g id="matplotlib.axis_2">
        <g id="ytick_1">
          <g id="line2d_15">
            <g class="st5">
              <path class="st15" d="M144,853.8h892.8"/>
            </g>
          </g>
          <g id="line2d_16">
            <path id="ma18ac6bec2" class="st16" d="M144,853.8h-3.5"/>
          </g>
          <g id="text_9">
            <path id="DejaVuSans-301" data-name="DejaVuSans-30" d="M130,847.6c-1.1,0-2,.5-2.5,1.6-.6,1.1-.8,2.7-.8,5s.3,3.8.8,4.9c.6,1.1,1.4,1.6,2.5,1.6s2-.5,2.5-1.6c.6-1.1.8-2.7.8-4.9s-.3-3.9-.8-5c-.6-1.1-1.4-1.6-2.5-1.6ZM130,845.9c1.8,0,3.2.7,4.1,2.1.9,1.4,1.4,3.5,1.4,6.2s-.5,4.8-1.4,6.2c-.9,1.4-2.3,2.1-4.1,2.1s-3.2-.7-4.1-2.1c-.9-1.4-1.4-3.5-1.4-6.2s.5-4.8,1.4-6.2c.9-1.4,2.3-2.1,4.1-2.1Z"/>
          </g>
        </g>
        <g id="ytick_2">
          <g id="line2d_17">
            <g class="st23">
              <path class="st15" d="M144,749.3h892.8"/>
            </g>
          </g>
          <g id="line2d_18">
            <path id="ma18ac6bec21" data-name="ma18ac6bec2" class="st16" d="M144,749.3h-3.5"/>
          </g>
          <g id="text_10">
            <g>
              <path id="DejaVuSans-311" data-name="DejaVuSans-31" d="M111.7,755.8h3.5v-12.2l-3.9.8v-2l3.8-.8h2.2v14.2h3.5v1.8h-9.2v-1.8Z"/>
              <path id="DejaVuSans-302" data-name="DejaVuSans-30" d="M130,743.1c-1.1,0-2,.5-2.5,1.6-.6,1.1-.8,2.7-.8,5s.3,3.8.8,4.9c.6,1.1,1.4,1.6,2.5,1.6s2-.5,2.5-1.6c.6-1.1.8-2.7.8-4.9s-.3-3.9-.8-5c-.6-1.1-1.4-1.6-2.5-1.6ZM130,741.3c1.8,0,3.2.7,4.1,2.1.9,1.4,1.4,3.5,1.4,6.2s-.5,4.8-1.4,6.2c-.9,1.4-2.3,2.1-4.1,2.1s-3.2-.7-4.1-2.1c-.9-1.4-1.4-3.5-1.4-6.2s.5-4.8,1.4-6.2c.9-1.4,2.3-2.1,4.1-2.1Z"/>
            </g>
          </g>
        </g>
        <g id="ytick_3">
          <g id="line2d_19">
            <g class="st18">
              <path class="st15" d="M144,644.8h892.8"/>
            </g>
          </g>
          <g id="line2d_20">
            <path id="ma18ac6bec22" data-name="ma18ac6bec2" class="st16" d="M144,644.8h-3.5"/>
          </g>
          <g id="text_11">
            <g>
              <path id="DejaVuSans-321" data-name="DejaVuSans-32" d="M113.2,651.3h7.6v1.8h-10.2v-1.8c.8-.9,1.9-2,3.4-3.4,1.4-1.4,2.3-2.4,2.7-2.8.7-.8,1.2-1.4,1.5-2,.3-.5.4-1.1.4-1.6,0-.9-.3-1.5-.9-2.1-.6-.5-1.4-.8-2.3-.8s-1.4.1-2.2.4c-.8.2-1.6.6-2.4,1.1v-2.2c.9-.4,1.7-.6,2.4-.8.8-.2,1.5-.3,2.1-.3,1.7,0,3,.4,4,1.2,1,.8,1.5,1.9,1.5,3.3s-.1,1.3-.4,1.9c-.2.6-.7,1.3-1.3,2.1-.2.2-.7.8-1.7,1.8-1,1-2.3,2.4-4.1,4.2Z"/>
              <path id="DejaVuSans-303" data-name="DejaVuSans-30" d="M130,638.5c-1.1,0-2,.5-2.5,1.6-.6,1.1-.8,2.7-.8,5s.3,3.8.8,4.9c.6,1.1,1.4,1.6,2.5,1.6s2-.5,2.5-1.6c.6-1.1.8-2.7.8-4.9s-.3-3.9-.8-5c-.6-1.1-1.4-1.6-2.5-1.6ZM130,636.8c1.8,0,3.2.7,4.1,2.1.9,1.4,1.4,3.5,1.4,6.2s-.5,4.8-1.4,6.2c-.9,1.4-2.3,2.1-4.1,2.1s-3.2-.7-4.1-2.1c-.9-1.4-1.4-3.5-1.4-6.2s.5-4.8,1.4-6.2c.9-1.4,2.3-2.1,4.1-2.1Z"/>
            </g>
          </g>
        </g>
        <g id="ytick_4">
          <g id="line2d_21">
            <g class="st19">
              <path class="st15" d="M144,540.2h892.8"/>
            </g>
          </g>
          <g id="line2d_22">
            <path id="ma18ac6bec23" data-name="ma18ac6bec2" class="st16" d="M144,540.2h-3.5"/>
          </g>
          <g id="text_12">
            <g>
              <path id="DejaVuSans-331" data-name="DejaVuSans-33" d="M117.9,540c1,.2,1.8.7,2.4,1.4.6.7.9,1.6.9,2.6,0,1.6-.5,2.8-1.6,3.7-1.1.9-2.6,1.3-4.6,1.3s-1.4,0-2.1-.2c-.7-.1-1.4-.3-2.2-.6v-2.1c.6.4,1.3.6,2,.8.7.2,1.5.3,2.2.3,1.4,0,2.4-.3,3.1-.8s1.1-1.3,1.1-2.3-.3-1.7-1-2.2c-.7-.5-1.6-.8-2.8-.8h-1.9v-1.8h2c1.1,0,1.9-.2,2.4-.6s.8-1,.8-1.8-.3-1.5-.9-1.9c-.6-.4-1.4-.7-2.5-.7s-1.2,0-1.9.2c-.7.1-1.4.3-2.2.6v-1.9c.8-.2,1.6-.4,2.3-.5s1.4-.2,2-.2c1.6,0,3,.4,3.9,1.1,1,.7,1.4,1.8,1.4,3s-.3,1.6-.8,2.3-1.2,1-2.2,1.3Z"/>
              <path id="DejaVuSans-304" data-name="DejaVuSans-30" d="M130,534c-1.1,0-2,.5-2.5,1.6-.6,1.1-.8,2.7-.8,5s.3,3.8.8,4.9c.6,1.1,1.4,1.6,2.5,1.6s2-.5,2.5-1.6c.6-1.1.8-2.7.8-4.9s-.3-3.9-.8-5c-.6-1.1-1.4-1.6-2.5-1.6ZM130,532.3c1.8,0,3.2.7,4.1,2.1.9,1.4,1.4,3.5,1.4,6.2s-.5,4.8-1.4,6.2c-.9,1.4-2.3,2.1-4.1,2.1s-3.2-.7-4.1-2.1c-.9-1.4-1.4-3.5-1.4-6.2s.5-4.8,1.4-6.2c.9-1.4,2.3-2.1,4.1-2.1Z"/>
            </g>
          </g>
        </g>
        <g id="ytick_5">
          <g id="line2d_23">
            <g class="st20">
              <path class="st15" d="M144,435.7h892.8"/>
            </g>
          </g>
          <g id="line2d_24">
            <path id="ma18ac6bec24" data-name="ma18ac6bec2" class="st16" d="M144,435.7h-3.5"/>
          </g>
          <g id="text_13">
            <g>
              <path id="DejaVuSans-341" data-name="DejaVuSans-34" d="M117.3,429.9l-5.5,8.6h5.5v-8.6ZM116.7,428h2.7v10.5h2.3v1.8h-2.3v3.8h-2.2v-3.8h-7.2v-2.1l6.7-10.2Z"/>
              <path id="DejaVuSans-305" data-name="DejaVuSans-30" d="M130,429.5c-1.1,0-2,.5-2.5,1.6-.6,1.1-.8,2.7-.8,5s.3,3.8.8,4.9c.6,1.1,1.4,1.6,2.5,1.6s2-.5,2.5-1.6c.6-1.1.8-2.7.8-4.9s-.3-3.9-.8-5c-.6-1.1-1.4-1.6-2.5-1.6ZM130,427.7c1.8,0,3.2.7,4.1,2.1.9,1.4,1.4,3.5,1.4,6.2s-.5,4.8-1.4,6.2c-.9,1.4-2.3,2.1-4.1,2.1s-3.2-.7-4.1-2.1c-.9-1.4-1.4-3.5-1.4-6.2s.5-4.8,1.4-6.2c.9-1.4,2.3-2.1,4.1-2.1Z"/>
            </g>
          </g>
        </g>
        <g id="ytick_6">
          <g id="line2d_25">
            <g class="st25">
              <path class="st15" d="M144,331.2h892.8"/>
            </g>
          </g>
          <g id="line2d_26">
            <path id="ma18ac6bec25" data-name="ma18ac6bec2" class="st16" d="M144,331.2h-3.5"/>
          </g>
          <g id="text_14">
            <g>
              <path id="DejaVuSans-351" data-name="DejaVuSans-35" d="M111.4,323.5h8.5v1.8h-6.5v3.9c.3-.1.6-.2.9-.2.3,0,.6,0,.9,0,1.8,0,3.2.5,4.3,1.5,1,1,1.6,2.3,1.6,4s-.5,3.1-1.6,4c-1.1,1-2.6,1.4-4.5,1.4s-1.4,0-2.1-.2c-.7-.1-1.4-.3-2.2-.5v-2.2c.6.4,1.3.6,2,.8s1.4.3,2.2.3c1.2,0,2.2-.3,2.9-1,.7-.7,1.1-1.5,1.1-2.7s-.4-2-1.1-2.7c-.7-.7-1.7-1-2.9-1s-1.2,0-1.7.2c-.6.1-1.2.3-1.8.6v-8.1Z"/>
              <path id="DejaVuSans-306" data-name="DejaVuSans-30" d="M130,324.9c-1.1,0-2,.5-2.5,1.6-.6,1.1-.8,2.7-.8,5s.3,3.8.8,4.9c.6,1.1,1.4,1.6,2.5,1.6s2-.5,2.5-1.6c.6-1.1.8-2.7.8-4.9s-.3-3.9-.8-5c-.6-1.1-1.4-1.6-2.5-1.6ZM130,323.2c1.8,0,3.2.7,4.1,2.1.9,1.4,1.4,3.5,1.4,6.2s-.5,4.8-1.4,6.2c-.9,1.4-2.3,2.1-4.1,2.1s-3.2-.7-4.1-2.1c-.9-1.4-1.4-3.5-1.4-6.2s.5-4.8,1.4-6.2c.9-1.4,2.3-2.1,4.1-2.1Z"/>
            </g>
          </g>
        </g>
        <g id="ytick_7">
          <g id="line2d_27">
            <g class="st29">
              <path class="st15" d="M144,226.7h892.8"/>
            </g>
          </g>
          <g id="line2d_28">
            <path id="ma18ac6bec26" data-name="ma18ac6bec2" class="st16" d="M144,226.7h-3.5"/>
          </g>
          <g id="text_15">
            <g>
              <path id="DejaVuSans-361" data-name="DejaVuSans-36" d="M116.3,226.1c-1,0-1.7.3-2.3,1-.6.7-.9,1.6-.9,2.7s.3,2.1.9,2.7c.6.7,1.3,1,2.3,1s1.7-.3,2.3-1c.6-.7.9-1.6.9-2.7s-.3-2.1-.9-2.7c-.6-.7-1.3-1-2.3-1ZM120.6,219.3v2c-.5-.3-1.1-.5-1.6-.6-.6-.1-1.1-.2-1.6-.2-1.4,0-2.5.5-3.3,1.5-.8,1-1.2,2.4-1.3,4.4.4-.6,1-1.1,1.6-1.4.6-.3,1.3-.5,2.1-.5,1.6,0,2.9.5,3.8,1.5.9,1,1.4,2.3,1.4,4s-.5,3-1.5,4c-1,1-2.3,1.5-3.9,1.5s-3.3-.7-4.3-2.1c-1-1.4-1.5-3.5-1.5-6.2s.6-4.6,1.8-6.1c1.2-1.5,2.8-2.3,4.8-2.3s1.1,0,1.6.2,1.1.3,1.7.5Z"/>
              <path id="DejaVuSans-307" data-name="DejaVuSans-30" d="M130,220.4c-1.1,0-2,.5-2.5,1.6-.6,1.1-.8,2.7-.8,5s.3,3.8.8,4.9c.6,1.1,1.4,1.6,2.5,1.6s2-.5,2.5-1.6c.6-1.1.8-2.7.8-4.9s-.3-3.9-.8-5c-.6-1.1-1.4-1.6-2.5-1.6ZM130,218.7c1.8,0,3.2.7,4.1,2.1.9,1.4,1.4,3.5,1.4,6.2s-.5,4.8-1.4,6.2c-.9,1.4-2.3,2.1-4.1,2.1s-3.2-.7-4.1-2.1c-.9-1.4-1.4-3.5-1.4-6.2s.5-4.8,1.4-6.2c.9-1.4,2.3-2.1,4.1-2.1Z"/>
            </g>
          </g>
        </g>
        <g id="ytick_8">
          <g id="line2d_29">
            <g class="st26">
              <path class="st15" d="M144,122.1h892.8"/>
            </g>
          </g>
          <g id="line2d_30">
            <path id="ma18ac6bec27" data-name="ma18ac6bec2" class="st16" d="M144,122.1h-3.5"/>
          </g>
          <g id="text_16">
            <g>
              <path id="DejaVuSans-37" d="M110.8,114.4h10.3v.9l-5.8,15.1h-2.3l5.5-14.2h-7.7v-1.8Z"/>
              <path id="DejaVuSans-308" data-name="DejaVuSans-30" d="M130,115.9c-1.1,0-2,.5-2.5,1.6-.6,1.1-.8,2.7-.8,5s.3,3.8.8,4.9c.6,1.1,1.4,1.6,2.5,1.6s2-.5,2.5-1.6c.6-1.1.8-2.7.8-4.9s-.3-3.9-.8-5c-.6-1.1-1.4-1.6-2.5-1.6ZM130,114.1c1.8,0,3.2.7,4.1,2.1.9,1.4,1.4,3.5,1.4,6.2s-.5,4.8-1.4,6.2c-.9,1.4-2.3,2.1-4.1,2.1s-3.2-.7-4.1-2.1c-.9-1.4-1.4-3.5-1.4-6.2s.5-4.8,1.4-6.2c.9-1.4,2.3-2.1,4.1-2.1Z"/>
            </g>
          </g>
        </g>
        <g class="st3">
          <text class="st2" transform="translate(88.8 608.1) rotate(-90)"><tspan x="0" y="0">Success rate (%)</tspan></text>
        </g>
      </g>
      <g id="line2d_31">
        <g class="st7">
          <path class="st14" d="M184.6,853.8l135.3-53.4,135.3-234.8,135.3-209.3,135.3-162.5,135.3-39.1h135.3"/>
        </g>
      </g>
      <g id="line2d_32">
        <g class="st27">
          <path class="st12" d="M184.6,853.8l135.3-47.4,135.3-222.6,135.3-219.1,135.3-165.4,135.3-44.5h135.3"/>
        </g>
      </g>
      <g id="line2d_33">
        <g class="st6">
          <path class="st10" d="M184.6,853.8l135.3-49.3,135.3-231.8,135.3-215.6,135.3-157,135.3-32.4h135.3"/>
        </g>
      </g>
      <g id="patch_3">
        <path class="st13" d="M144,888.8V119.8"/>
      </g>
      <g id="patch_4">
        <path class="st9" d="M1036.8,888.8V119.8"/>
      </g>
      <g id="patch_5">
        <path class="st9" d="M144,888.8h892.8"/>
      </g>
      <g id="patch_6">
        <path class="st9" d="M144,119.8h892.8"/>
      </g>
      <g id="legend_1">
        <g id="patch_7">
          <path class="st1" d="M159.4,234.3h503.1c2.9,0,4.4-1.5,4.4-4.4v-94.7c0-2.9-1.5-4.4-4.4-4.4H159.4c-2.9,0-4.4,1.5-4.4,4.4v94.7c0,2.9,1.5,4.4,4.4,4.4Z"/>
        </g>
        <g id="line2d_34">
          <path class="st14" d="M163.8,148.7h44"/>
        </g>
        <g id="line2d_35">
          <path class="st12" d="M163.8,180.9h44"/>
        </g>
        <g id="line2d_36">
          <path class="st10" d="M163.8,213.2h44"/>
        </g>
        <g class="st3">
          <text class="st0" transform="translate(235.5 220.4)"><tspan x="0" y="0">Total loss=50%</tspan></text>
        </g>
        <g class="st3">
          <text class="st0" transform="translate(233.9 188.7)"><tspan x="0" y="0">Total loss=30%</tspan></text>
        </g>
        <g class="st3">
          <text class="st0" transform="translate(235.5 159.6)"><tspan x="0" y="0">Lossless </tspan></text>
        </g>
      </g>
    </g>
  </g>
</svg>