<?xml version="1.0" encoding="utf-8" standalone="no"?>
<!DOCTYPE svg PUBLIC "-//W3C//DTD SVG 1.1//EN"
  "http://www.w3.org/Graphics/SVG/1.1/DTD/svg11.dtd">
<svg xmlns:xlink="http://www.w3.org/1999/xlink" width="1296pt" height="432pt" viewBox="0 0 1296 432" xmlns="http://www.w3.org/2000/svg" version="1.1">
 <metadata>
  <rdf:RDF xmlns:dc="http://purl.org/dc/elements/1.1/" xmlns:cc="http://creativecommons.org/ns#" xmlns:rdf="http://www.w3.org/1999/02/22-rdf-syntax-ns#">
   <cc:Work>
    <dc:type rdf:resource="http://purl.org/dc/dcmitype/StillImage"/>
    <dc:date>2025-01-31T12:24:43.226899</dc:date>
    <dc:format>image/svg+xml</dc:format>
    <dc:creator>
     <cc:Agent>
      <dc:title>Matplotlib v3.9.4, https://matplotlib.org/</dc:title>
     </cc:Agent>
    </dc:creator>
   </cc:Work>
  </rdf:RDF>
 </metadata>
 <defs>
  <style type="text/css">*{stroke-linejoin: round; stroke-linecap: butt}</style>
 </defs>
 <g id="figure_1">
  <g id="patch_1">
   <path d="M 0 432 
L 1296 432 
L 1296 0 
L 0 0 
z
" style="fill: #ffffff"/>
  </g>
  <g id="axes_1">
   <g id="patch_2">
    <path d="M 162 384.48 
L 457.411765 384.48 
L 457.411765 51.84 
L 162 51.84 
z
" style="fill: #ffffff"/>
   </g>
   <g id="matplotlib.axis_1">
    <g id="xtick_1">
     <g id="line2d_1">
      <path d="M 354.465241 384.48 
L 354.465241 51.84 
" clip-path="url(#p61898aacce)" style="fill: none; stroke: #b0b0b0; stroke-width: 0.8; stroke-linecap: square"/>
     </g>
     <g id="line2d_2">
      <defs>
       <path id="mb3199dc300" d="M 0 0 
L 0 3.5 
" style="stroke: #000000; stroke-width: 0.8"/>
      </defs>
      <g>
       <use xlink:href="#mb3199dc300" x="354.465241" y="384.48" style="stroke: #000000; stroke-width: 0.8"/>
      </g>
     </g>
     <g id="text_1">
      <!-- 12 -->
      <g transform="translate(346.830241 400.598125) scale(0.12 -0.12)">
       <defs>
        <path id="DejaVuSans-31" d="M 794 531 
L 1825 531 
L 1825 4091 
L 703 3866 
L 703 4441 
L 1819 4666 
L 2450 4666 
L 2450 531 
L 3481 531 
L 3481 0 
L 794 0 
L 794 531 
z
" transform="scale(0.015625)"/>
        <path id="DejaVuSans-32" d="M 1228 531 
L 3431 531 
L 3431 0 
L 469 0 
L 469 531 
Q 828 903 1448 1529 
Q 2069 2156 2228 2338 
Q 2531 2678 2651 2914 
Q 2772 3150 2772 3378 
Q 2772 3750 2511 3984 
Q 2250 4219 1831 4219 
Q 1534 4219 1204 4116 
Q 875 4013 500 3803 
L 500 4441 
Q 881 4594 1212 4672 
Q 1544 4750 1819 4750 
Q 2544 4750 2975 4387 
Q 3406 4025 3406 3419 
Q 3406 3131 3298 2873 
Q 3191 2616 2906 2266 
Q 2828 2175 2409 1742 
Q 1991 1309 1228 531 
z
" transform="scale(0.015625)"/>
       </defs>
       <use xlink:href="#DejaVuSans-31"/>
       <use xlink:href="#DejaVuSans-32" x="63.623047"/>
      </g>
     </g>
    </g>
    <g id="xtick_2">
     <g id="line2d_3">
      <path d="M 443.983957 384.48 
L 443.983957 51.84 
" clip-path="url(#p61898aacce)" style="fill: none; stroke: #b0b0b0; stroke-width: 0.8; stroke-linecap: square"/>
     </g>
     <g id="line2d_4">
      <g>
       <use xlink:href="#mb3199dc300" x="443.983957" y="384.48" style="stroke: #000000; stroke-width: 0.8"/>
      </g>
     </g>
     <g id="text_2">
      <!-- 13 -->
      <g transform="translate(436.348957 400.598125) scale(0.12 -0.12)">
       <defs>
        <path id="DejaVuSans-33" d="M 2597 2516 
Q 3050 2419 3304 2112 
Q 3559 1806 3559 1356 
Q 3559 666 3084 287 
Q 2609 -91 1734 -91 
Q 1441 -91 1130 -33 
Q 819 25 488 141 
L 488 750 
Q 750 597 1062 519 
Q 1375 441 1716 441 
Q 2309 441 2620 675 
Q 2931 909 2931 1356 
Q 2931 1769 2642 2001 
Q 2353 2234 1838 2234 
L 1294 2234 
L 1294 2753 
L 1863 2753 
Q 2328 2753 2575 2939 
Q 2822 3125 2822 3475 
Q 2822 3834 2567 4026 
Q 2313 4219 1838 4219 
Q 1578 4219 1281 4162 
Q 984 4106 628 3988 
L 628 4550 
Q 988 4650 1302 4700 
Q 1616 4750 1894 4750 
Q 2613 4750 3031 4423 
Q 3450 4097 3450 3541 
Q 3450 3153 3228 2886 
Q 3006 2619 2597 2516 
z
" transform="scale(0.015625)"/>
       </defs>
       <use xlink:href="#DejaVuSans-31"/>
       <use xlink:href="#DejaVuSans-33" x="63.623047"/>
      </g>
     </g>
    </g>
    <g id="text_3">
     <!-- M -->
     <g transform="translate(301.94057 420.770938) scale(0.18 -0.18)">
      <defs>
       <path id="DejaVuSans-4d" d="M 628 4666 
L 1569 4666 
L 2759 1491 
L 3956 4666 
L 4897 4666 
L 4897 0 
L 4281 0 
L 4281 4097 
L 3078 897 
L 2444 897 
L 1241 4097 
L 1241 0 
L 628 0 
L 628 4666 
z
" transform="scale(0.015625)"/>
      </defs>
      <use xlink:href="#DejaVuSans-4d"/>
     </g>
    </g>
   </g>
   <g id="matplotlib.axis_2">
    <g id="ytick_1">
     <g id="line2d_5">
      <path d="M 162 361.985037 
L 457.411765 361.985037 
" clip-path="url(#p61898aacce)" style="fill: none; stroke: #b0b0b0; stroke-width: 0.8; stroke-linecap: square"/>
     </g>
     <g id="line2d_6">
      <defs>
       <path id="m9802d898f8" d="M 0 0 
L -3.5 0 
" style="stroke: #000000; stroke-width: 0.8"/>
      </defs>
      <g>
       <use xlink:href="#m9802d898f8" x="162" y="361.985037" style="stroke: #000000; stroke-width: 0.8"/>
      </g>
     </g>
     <g id="text_4">
      <!-- 30 -->
      <g transform="translate(139.73 366.5441) scale(0.12 -0.12)">
       <defs>
        <path id="DejaVuSans-30" d="M 2034 4250 
Q 1547 4250 1301 3770 
Q 1056 3291 1056 2328 
Q 1056 1369 1301 889 
Q 1547 409 2034 409 
Q 2525 409 2770 889 
Q 3016 1369 3016 2328 
Q 3016 3291 2770 3770 
Q 2525 4250 2034 4250 
z
M 2034 4750 
Q 2819 4750 3233 4129 
Q 3647 3509 3647 2328 
Q 3647 1150 3233 529 
Q 2819 -91 2034 -91 
Q 1250 -91 836 529 
Q 422 1150 422 2328 
Q 422 3509 836 4129 
Q 1250 4750 2034 4750 
z
" transform="scale(0.015625)"/>
       </defs>
       <use xlink:href="#DejaVuSans-33"/>
       <use xlink:href="#DejaVuSans-30" x="63.623047"/>
      </g>
     </g>
    </g>
    <g id="ytick_2">
     <g id="line2d_7">
      <path d="M 162 316.994988 
L 457.411765 316.994988 
" clip-path="url(#p61898aacce)" style="fill: none; stroke: #b0b0b0; stroke-width: 0.8; stroke-linecap: square"/>
     </g>
     <g id="line2d_8">
      <g>
       <use xlink:href="#m9802d898f8" x="162" y="316.994988" style="stroke: #000000; stroke-width: 0.8"/>
      </g>
     </g>
     <g id="text_5">
      <!-- 40 -->
      <g transform="translate(139.73 321.55405) scale(0.12 -0.12)">
       <defs>
        <path id="DejaVuSans-34" d="M 2419 4116 
L 825 1625 
L 2419 1625 
L 2419 4116 
z
M 2253 4666 
L 3047 4666 
L 3047 1625 
L 3713 1625 
L 3713 1100 
L 3047 1100 
L 3047 0 
L 2419 0 
L 2419 1100 
L 313 1100 
L 313 1709 
L 2253 4666 
z
" transform="scale(0.015625)"/>
       </defs>
       <use xlink:href="#DejaVuSans-34"/>
       <use xlink:href="#DejaVuSans-30" x="63.623047"/>
      </g>
     </g>
    </g>
    <g id="ytick_3">
     <g id="line2d_9">
      <path d="M 162 272.004938 
L 457.411765 272.004938 
" clip-path="url(#p61898aacce)" style="fill: none; stroke: #b0b0b0; stroke-width: 0.8; stroke-linecap: square"/>
     </g>
     <g id="line2d_10">
      <g>
       <use xlink:href="#m9802d898f8" x="162" y="272.004938" style="stroke: #000000; stroke-width: 0.8"/>
      </g>
     </g>
     <g id="text_6">
      <!-- 50 -->
      <g transform="translate(139.73 276.564) scale(0.12 -0.12)">
       <defs>
        <path id="DejaVuSans-35" d="M 691 4666 
L 3169 4666 
L 3169 4134 
L 1269 4134 
L 1269 2991 
Q 1406 3038 1543 3061 
Q 1681 3084 1819 3084 
Q 2600 3084 3056 2656 
Q 3513 2228 3513 1497 
Q 3513 744 3044 326 
Q 2575 -91 1722 -91 
Q 1428 -91 1123 -41 
Q 819 9 494 109 
L 494 744 
Q 775 591 1075 516 
Q 1375 441 1709 441 
Q 2250 441 2565 725 
Q 2881 1009 2881 1497 
Q 2881 1984 2565 2268 
Q 2250 2553 1709 2553 
Q 1456 2553 1204 2497 
Q 953 2441 691 2322 
L 691 4666 
z
" transform="scale(0.015625)"/>
       </defs>
       <use xlink:href="#DejaVuSans-35"/>
       <use xlink:href="#DejaVuSans-30" x="63.623047"/>
      </g>
     </g>
    </g>
    <g id="ytick_4">
     <g id="line2d_11">
      <path d="M 162 227.014888 
L 457.411765 227.014888 
" clip-path="url(#p61898aacce)" style="fill: none; stroke: #b0b0b0; stroke-width: 0.8; stroke-linecap: square"/>
     </g>
     <g id="line2d_12">
      <g>
       <use xlink:href="#m9802d898f8" x="162" y="227.014888" style="stroke: #000000; stroke-width: 0.8"/>
      </g>
     </g>
     <g id="text_7">
      <!-- 60 -->
      <g transform="translate(139.73 231.573951) scale(0.12 -0.12)">
       <defs>
        <path id="DejaVuSans-36" d="M 2113 2584 
Q 1688 2584 1439 2293 
Q 1191 2003 1191 1497 
Q 1191 994 1439 701 
Q 1688 409 2113 409 
Q 2538 409 2786 701 
Q 3034 994 3034 1497 
Q 3034 2003 2786 2293 
Q 2538 2584 2113 2584 
z
M 3366 4563 
L 3366 3988 
Q 3128 4100 2886 4159 
Q 2644 4219 2406 4219 
Q 1781 4219 1451 3797 
Q 1122 3375 1075 2522 
Q 1259 2794 1537 2939 
Q 1816 3084 2150 3084 
Q 2853 3084 3261 2657 
Q 3669 2231 3669 1497 
Q 3669 778 3244 343 
Q 2819 -91 2113 -91 
Q 1303 -91 875 529 
Q 447 1150 447 2328 
Q 447 3434 972 4092 
Q 1497 4750 2381 4750 
Q 2619 4750 2861 4703 
Q 3103 4656 3366 4563 
z
" transform="scale(0.015625)"/>
       </defs>
       <use xlink:href="#DejaVuSans-36"/>
       <use xlink:href="#DejaVuSans-30" x="63.623047"/>
      </g>
     </g>
    </g>
    <g id="ytick_5">
     <g id="line2d_13">
      <path d="M 162 182.024839 
L 457.411765 182.024839 
" clip-path="url(#p61898aacce)" style="fill: none; stroke: #b0b0b0; stroke-width: 0.8; stroke-linecap: square"/>
     </g>
     <g id="line2d_14">
      <g>
       <use xlink:href="#m9802d898f8" x="162" y="182.024839" style="stroke: #000000; stroke-width: 0.8"/>
      </g>
     </g>
     <g id="text_8">
      <!-- 70 -->
      <g transform="translate(139.73 186.583901) scale(0.12 -0.12)">
       <defs>
        <path id="DejaVuSans-37" d="M 525 4666 
L 3525 4666 
L 3525 4397 
L 1831 0 
L 1172 0 
L 2766 4134 
L 525 4134 
L 525 4666 
z
" transform="scale(0.015625)"/>
       </defs>
       <use xlink:href="#DejaVuSans-37"/>
       <use xlink:href="#DejaVuSans-30" x="63.623047"/>
      </g>
     </g>
    </g>
    <g id="ytick_6">
     <g id="line2d_15">
      <path d="M 162 137.034789 
L 457.411765 137.034789 
" clip-path="url(#p61898aacce)" style="fill: none; stroke: #b0b0b0; stroke-width: 0.8; stroke-linecap: square"/>
     </g>
     <g id="line2d_16">
      <g>
       <use xlink:href="#m9802d898f8" x="162" y="137.034789" style="stroke: #000000; stroke-width: 0.8"/>
      </g>
     </g>
     <g id="text_9">
      <!-- 80 -->
      <g transform="translate(139.73 141.593851) scale(0.12 -0.12)">
       <defs>
        <path id="DejaVuSans-38" d="M 2034 2216 
Q 1584 2216 1326 1975 
Q 1069 1734 1069 1313 
Q 1069 891 1326 650 
Q 1584 409 2034 409 
Q 2484 409 2743 651 
Q 3003 894 3003 1313 
Q 3003 1734 2745 1975 
Q 2488 2216 2034 2216 
z
M 1403 2484 
Q 997 2584 770 2862 
Q 544 3141 544 3541 
Q 544 4100 942 4425 
Q 1341 4750 2034 4750 
Q 2731 4750 3128 4425 
Q 3525 4100 3525 3541 
Q 3525 3141 3298 2862 
Q 3072 2584 2669 2484 
Q 3125 2378 3379 2068 
Q 3634 1759 3634 1313 
Q 3634 634 3220 271 
Q 2806 -91 2034 -91 
Q 1263 -91 848 271 
Q 434 634 434 1313 
Q 434 1759 690 2068 
Q 947 2378 1403 2484 
z
M 1172 3481 
Q 1172 3119 1398 2916 
Q 1625 2713 2034 2713 
Q 2441 2713 2670 2916 
Q 2900 3119 2900 3481 
Q 2900 3844 2670 4047 
Q 2441 4250 2034 4250 
Q 1625 4250 1398 4047 
Q 1172 3844 1172 3481 
z
" transform="scale(0.015625)"/>
       </defs>
       <use xlink:href="#DejaVuSans-38"/>
       <use xlink:href="#DejaVuSans-30" x="63.623047"/>
      </g>
     </g>
    </g>
    <g id="ytick_7">
     <g id="line2d_17">
      <path d="M 162 92.044739 
L 457.411765 92.044739 
" clip-path="url(#p61898aacce)" style="fill: none; stroke: #b0b0b0; stroke-width: 0.8; stroke-linecap: square"/>
     </g>
     <g id="line2d_18">
      <g>
       <use xlink:href="#m9802d898f8" x="162" y="92.044739" style="stroke: #000000; stroke-width: 0.8"/>
      </g>
     </g>
     <g id="text_10">
      <!-- 90 -->
      <g transform="translate(139.73 96.603802) scale(0.12 -0.12)">
       <defs>
        <path id="DejaVuSans-39" d="M 703 97 
L 703 672 
Q 941 559 1184 500 
Q 1428 441 1663 441 
Q 2288 441 2617 861 
Q 2947 1281 2994 2138 
Q 2813 1869 2534 1725 
Q 2256 1581 1919 1581 
Q 1219 1581 811 2004 
Q 403 2428 403 3163 
Q 403 3881 828 4315 
Q 1253 4750 1959 4750 
Q 2769 4750 3195 4129 
Q 3622 3509 3622 2328 
Q 3622 1225 3098 567 
Q 2575 -91 1691 -91 
Q 1453 -91 1209 -44 
Q 966 3 703 97 
z
M 1959 2075 
Q 2384 2075 2632 2365 
Q 2881 2656 2881 3163 
Q 2881 3666 2632 3958 
Q 2384 4250 1959 4250 
Q 1534 4250 1286 3958 
Q 1038 3666 1038 3163 
Q 1038 2656 1286 2365 
Q 1534 2075 1959 2075 
z
" transform="scale(0.015625)"/>
       </defs>
       <use xlink:href="#DejaVuSans-39"/>
       <use xlink:href="#DejaVuSans-30" x="63.623047"/>
      </g>
     </g>
    </g>
    <g id="text_11">
     <!-- Advantage -->
     <g transform="translate(131.986562 266.713594) rotate(-90) scale(0.18 -0.18)">
      <defs>
       <path id="DejaVuSans-41" d="M 2188 4044 
L 1331 1722 
L 3047 1722 
L 2188 4044 
z
M 1831 4666 
L 2547 4666 
L 4325 0 
L 3669 0 
L 3244 1197 
L 1141 1197 
L 716 0 
L 50 0 
L 1831 4666 
z
" transform="scale(0.015625)"/>
       <path id="DejaVuSans-64" d="M 2906 2969 
L 2906 4863 
L 3481 4863 
L 3481 0 
L 2906 0 
L 2906 525 
Q 2725 213 2448 61 
Q 2172 -91 1784 -91 
Q 1150 -91 751 415 
Q 353 922 353 1747 
Q 353 2572 751 3078 
Q 1150 3584 1784 3584 
Q 2172 3584 2448 3432 
Q 2725 3281 2906 2969 
z
M 947 1747 
Q 947 1113 1208 752 
Q 1469 391 1925 391 
Q 2381 391 2643 752 
Q 2906 1113 2906 1747 
Q 2906 2381 2643 2742 
Q 2381 3103 1925 3103 
Q 1469 3103 1208 2742 
Q 947 2381 947 1747 
z
" transform="scale(0.015625)"/>
       <path id="DejaVuSans-76" d="M 191 3500 
L 800 3500 
L 1894 563 
L 2988 3500 
L 3597 3500 
L 2284 0 
L 1503 0 
L 191 3500 
z
" transform="scale(0.015625)"/>
       <path id="DejaVuSans-61" d="M 2194 1759 
Q 1497 1759 1228 1600 
Q 959 1441 959 1056 
Q 959 750 1161 570 
Q 1363 391 1709 391 
Q 2188 391 2477 730 
Q 2766 1069 2766 1631 
L 2766 1759 
L 2194 1759 
z
M 3341 1997 
L 3341 0 
L 2766 0 
L 2766 531 
Q 2569 213 2275 61 
Q 1981 -91 1556 -91 
Q 1019 -91 701 211 
Q 384 513 384 1019 
Q 384 1609 779 1909 
Q 1175 2209 1959 2209 
L 2766 2209 
L 2766 2266 
Q 2766 2663 2505 2880 
Q 2244 3097 1772 3097 
Q 1472 3097 1187 3025 
Q 903 2953 641 2809 
L 641 3341 
Q 956 3463 1253 3523 
Q 1550 3584 1831 3584 
Q 2591 3584 2966 3190 
Q 3341 2797 3341 1997 
z
" transform="scale(0.015625)"/>
       <path id="DejaVuSans-6e" d="M 3513 2113 
L 3513 0 
L 2938 0 
L 2938 2094 
Q 2938 2591 2744 2837 
Q 2550 3084 2163 3084 
Q 1697 3084 1428 2787 
Q 1159 2491 1159 1978 
L 1159 0 
L 581 0 
L 581 3500 
L 1159 3500 
L 1159 2956 
Q 1366 3272 1645 3428 
Q 1925 3584 2291 3584 
Q 2894 3584 3203 3211 
Q 3513 2838 3513 2113 
z
" transform="scale(0.015625)"/>
       <path id="DejaVuSans-74" d="M 1172 4494 
L 1172 3500 
L 2356 3500 
L 2356 3053 
L 1172 3053 
L 1172 1153 
Q 1172 725 1289 603 
Q 1406 481 1766 481 
L 2356 481 
L 2356 0 
L 1766 0 
Q 1100 0 847 248 
Q 594 497 594 1153 
L 594 3053 
L 172 3053 
L 172 3500 
L 594 3500 
L 594 4494 
L 1172 4494 
z
" transform="scale(0.015625)"/>
       <path id="DejaVuSans-67" d="M 2906 1791 
Q 2906 2416 2648 2759 
Q 2391 3103 1925 3103 
Q 1463 3103 1205 2759 
Q 947 2416 947 1791 
Q 947 1169 1205 825 
Q 1463 481 1925 481 
Q 2391 481 2648 825 
Q 2906 1169 2906 1791 
z
M 3481 434 
Q 3481 -459 3084 -895 
Q 2688 -1331 1869 -1331 
Q 1566 -1331 1297 -1286 
Q 1028 -1241 775 -1147 
L 775 -588 
Q 1028 -725 1275 -790 
Q 1522 -856 1778 -856 
Q 2344 -856 2625 -561 
Q 2906 -266 2906 331 
L 2906 616 
Q 2728 306 2450 153 
Q 2172 0 1784 0 
Q 1141 0 747 490 
Q 353 981 353 1791 
Q 353 2603 747 3093 
Q 1141 3584 1784 3584 
Q 2172 3584 2450 3431 
Q 2728 3278 2906 2969 
L 2906 3500 
L 3481 3500 
L 3481 434 
z
" transform="scale(0.015625)"/>
       <path id="DejaVuSans-65" d="M 3597 1894 
L 3597 1613 
L 953 1613 
Q 991 1019 1311 708 
Q 1631 397 2203 397 
Q 2534 397 2845 478 
Q 3156 559 3463 722 
L 3463 178 
Q 3153 47 2828 -22 
Q 2503 -91 2169 -91 
Q 1331 -91 842 396 
Q 353 884 353 1716 
Q 353 2575 817 3079 
Q 1281 3584 2069 3584 
Q 2775 3584 3186 3129 
Q 3597 2675 3597 1894 
z
M 3022 2063 
Q 3016 2534 2758 2815 
Q 2500 3097 2075 3097 
Q 1594 3097 1305 2825 
Q 1016 2553 972 2059 
L 3022 2063 
z
" transform="scale(0.015625)"/>
      </defs>
      <use xlink:href="#DejaVuSans-41"/>
      <use xlink:href="#DejaVuSans-64" x="66.658203"/>
      <use xlink:href="#DejaVuSans-76" x="130.134766"/>
      <use xlink:href="#DejaVuSans-61" x="189.314453"/>
      <use xlink:href="#DejaVuSans-6e" x="250.59375"/>
      <use xlink:href="#DejaVuSans-74" x="313.972656"/>
      <use xlink:href="#DejaVuSans-61" x="353.181641"/>
      <use xlink:href="#DejaVuSans-67" x="414.460938"/>
      <use xlink:href="#DejaVuSans-65" x="477.9375"/>
     </g>
    </g>
   </g>
   <g id="LineCollection_1">
    <path d="M 175.427807 369.36 
L 175.427807 364.485547 
" clip-path="url(#p61898aacce)" style="fill: none; stroke: #0000ff; stroke-width: 1.5"/>
    <path clip-path="url(#p61898aacce)" style="fill: none; stroke: #0000ff; stroke-width: 1.5"/>
    <path clip-path="url(#p61898aacce)" style="fill: none; stroke: #0000ff; stroke-width: 1.5"/>
    <path d="M 443.983957 131.861798 
L 443.983957 66.96 
" clip-path="url(#p61898aacce)" style="fill: none; stroke: #0000ff; stroke-width: 1.5"/>
   </g>
   <g id="line2d_19">
    <defs>
     <path id="m16fe0d46b4" d="M 5 0 
L -5 -0 
" style="stroke: #0000ff"/>
    </defs>
    <g clip-path="url(#p61898aacce)">
     <use xlink:href="#m16fe0d46b4" x="175.427807" y="369.36" style="fill: #0000ff; stroke: #0000ff"/>
     <use xlink:href="#m16fe0d46b4" x="443.983957" y="131.861798" style="fill: #0000ff; stroke: #0000ff"/>
    </g>
   </g>
   <g id="line2d_20">
    <g clip-path="url(#p61898aacce)">
     <use xlink:href="#m16fe0d46b4" x="175.427807" y="364.485547" style="fill: #0000ff; stroke: #0000ff"/>
     <use xlink:href="#m16fe0d46b4" x="443.983957" y="66.96" style="fill: #0000ff; stroke: #0000ff"/>
    </g>
   </g>
   <g id="line2d_21">
    <path d="M 175.427807 366.922773 
M 443.983957 99.410899 
" clip-path="url(#p61898aacce)" style="fill: none; stroke: #0000ff; stroke-width: 1.5; stroke-linecap: square"/>
    <defs>
     <path id="mdd335e364d" d="M 0 3 
C 0.795609 3 1.55874 2.683901 2.12132 2.12132 
C 2.683901 1.55874 3 0.795609 3 0 
C 3 -0.795609 2.683901 -1.55874 2.12132 -2.12132 
C 1.55874 -2.683901 0.795609 -3 0 -3 
C -0.795609 -3 -1.55874 -2.683901 -2.12132 -2.12132 
C -2.683901 -1.55874 -3 -0.795609 -3 0 
C -3 0.795609 -2.683901 1.55874 -2.12132 2.12132 
C -1.55874 2.683901 -0.795609 3 0 3 
z
" style="stroke: #0000ff"/>
    </defs>
    <g clip-path="url(#p61898aacce)">
     <use xlink:href="#mdd335e364d" x="175.427807" y="366.922773" style="fill: #0000ff; stroke: #0000ff"/>
     <use xlink:href="#mdd335e364d" x="443.983957" y="99.410899" style="fill: #0000ff; stroke: #0000ff"/>
    </g>
   </g>
   <g id="patch_3">
    <path d="M 162 384.48 
L 162 51.84 
" style="fill: none; stroke: #000000; stroke-width: 0.8; stroke-linejoin: miter; stroke-linecap: square"/>
   </g>
   <g id="patch_4">
    <path d="M 457.411765 384.48 
L 457.411765 51.84 
" style="fill: none; stroke: #000000; stroke-width: 0.8; stroke-linejoin: miter; stroke-linecap: square"/>
   </g>
   <g id="patch_5">
    <path d="M 162 384.48 
L 457.411765 384.48 
" style="fill: none; stroke: #000000; stroke-width: 0.8; stroke-linejoin: miter; stroke-linecap: square"/>
   </g>
   <g id="patch_6">
    <path d="M 162 51.84 
L 457.411765 51.84 
" style="fill: none; stroke: #000000; stroke-width: 0.8; stroke-linejoin: miter; stroke-linecap: square"/>
   </g>
   <g id="legend_1">
    <g id="patch_7">
     <path d="M 170.4 79.05375 
L 302.161875 79.05375 
Q 304.561875 79.05375 304.561875 76.65375 
L 304.561875 60.24 
Q 304.561875 57.84 302.161875 57.84 
L 170.4 57.84 
Q 168 57.84 168 60.24 
L 168 76.65375 
Q 168 79.05375 170.4 79.05375 
z
" style="fill: #ffffff; opacity: 0.8; stroke: #cccccc; stroke-linejoin: miter"/>
    </g>
    <g id="LineCollection_2">
     <path d="M 184.8 73.558125 
L 184.8 61.558125 
" style="fill: none; stroke: #0000ff; stroke-width: 1.5"/>
    </g>
    <g id="line2d_22">
     <g>
      <use xlink:href="#m16fe0d46b4" x="184.8" y="73.558125" style="fill: #0000ff; stroke: #0000ff"/>
     </g>
    </g>
    <g id="line2d_23">
     <g>
      <use xlink:href="#m16fe0d46b4" x="184.8" y="61.558125" style="fill: #0000ff; stroke: #0000ff"/>
     </g>
    </g>
    <g id="line2d_24">
     <path d="M 172.8 67.558125 
L 196.8 67.558125 
" style="fill: none; stroke: #0000ff; stroke-width: 1.5; stroke-linecap: square"/>
    </g>
    <g id="line2d_25">
     <g>
      <use xlink:href="#mdd335e364d" x="184.8" y="67.558125" style="fill: #0000ff; stroke: #0000ff"/>
     </g>
    </g>
    <g id="text_12">
     <!-- Max Advantage -->
     <g transform="translate(206.4 71.758125) scale(0.12 -0.12)">
      <defs>
       <path id="DejaVuSans-78" d="M 3513 3500 
L 2247 1797 
L 3578 0 
L 2900 0 
L 1881 1375 
L 863 0 
L 184 0 
L 1544 1831 
L 300 3500 
L 978 3500 
L 1906 2253 
L 2834 3500 
L 3513 3500 
z
" transform="scale(0.015625)"/>
       <path id="DejaVuSans-20" transform="scale(0.015625)"/>
      </defs>
      <use xlink:href="#DejaVuSans-4d"/>
      <use xlink:href="#DejaVuSans-61" x="86.279297"/>
      <use xlink:href="#DejaVuSans-78" x="147.558594"/>
      <use xlink:href="#DejaVuSans-20" x="206.738281"/>
      <use xlink:href="#DejaVuSans-41" x="238.525391"/>
      <use xlink:href="#DejaVuSans-64" x="305.183594"/>
      <use xlink:href="#DejaVuSans-76" x="368.660156"/>
      <use xlink:href="#DejaVuSans-61" x="427.839844"/>
      <use xlink:href="#DejaVuSans-6e" x="489.119141"/>
      <use xlink:href="#DejaVuSans-74" x="552.498047"/>
      <use xlink:href="#DejaVuSans-61" x="591.707031"/>
      <use xlink:href="#DejaVuSans-67" x="652.986328"/>
      <use xlink:href="#DejaVuSans-65" x="716.462891"/>
     </g>
    </g>
   </g>
  </g>
  <g id="axes_2">
   <g id="patch_8">
    <path d="M 516.494118 384.48 
L 811.905882 384.48 
L 811.905882 51.84 
L 516.494118 51.84 
z
" style="fill: #ffffff"/>
   </g>
   <g id="matplotlib.axis_3">
    <g id="xtick_3">
     <g id="line2d_26">
      <path d="M 708.959358 384.48 
L 708.959358 51.84 
" clip-path="url(#p66c5630bfc)" style="fill: none; stroke: #b0b0b0; stroke-width: 0.8; stroke-linecap: square"/>
     </g>
     <g id="line2d_27">
      <g>
       <use xlink:href="#mb3199dc300" x="708.959358" y="384.48" style="stroke: #000000; stroke-width: 0.8"/>
      </g>
     </g>
     <g id="text_13">
      <!-- 12 -->
      <g transform="translate(701.324358 400.598125) scale(0.12 -0.12)">
       <use xlink:href="#DejaVuSans-31"/>
       <use xlink:href="#DejaVuSans-32" x="63.623047"/>
      </g>
     </g>
    </g>
    <g id="xtick_4">
     <g id="line2d_28">
      <path d="M 798.478075 384.48 
L 798.478075 51.84 
" clip-path="url(#p66c5630bfc)" style="fill: none; stroke: #b0b0b0; stroke-width: 0.8; stroke-linecap: square"/>
     </g>
     <g id="line2d_29">
      <g>
       <use xlink:href="#mb3199dc300" x="798.478075" y="384.48" style="stroke: #000000; stroke-width: 0.8"/>
      </g>
     </g>
     <g id="text_14">
      <!-- 13 -->
      <g transform="translate(790.843075 400.598125) scale(0.12 -0.12)">
       <use xlink:href="#DejaVuSans-31"/>
       <use xlink:href="#DejaVuSans-33" x="63.623047"/>
      </g>
     </g>
    </g>
    <g id="text_15">
     <!-- M -->
     <g transform="translate(656.434687 420.770938) scale(0.18 -0.18)">
      <use xlink:href="#DejaVuSans-4d"/>
     </g>
    </g>
   </g>
   <g id="matplotlib.axis_4">
    <g id="ytick_8">
     <g id="line2d_30">
      <path d="M 516.494118 375.350185 
L 811.905882 375.350185 
" clip-path="url(#p66c5630bfc)" style="fill: none; stroke: #b0b0b0; stroke-width: 0.8; stroke-linecap: square"/>
     </g>
     <g id="line2d_31">
      <g>
       <use xlink:href="#m9802d898f8" x="516.494118" y="375.350185" style="stroke: #000000; stroke-width: 0.8"/>
      </g>
     </g>
     <g id="text_16">
      <!-- 0.0 -->
      <g transform="translate(490.410368 379.909248) scale(0.12 -0.12)">
       <defs>
        <path id="DejaVuSans-2e" d="M 684 794 
L 1344 794 
L 1344 0 
L 684 0 
L 684 794 
z
" transform="scale(0.015625)"/>
       </defs>
       <use xlink:href="#DejaVuSans-30"/>
       <use xlink:href="#DejaVuSans-2e" x="63.623047"/>
       <use xlink:href="#DejaVuSans-30" x="95.410156"/>
      </g>
     </g>
    </g>
    <g id="ytick_9">
     <g id="line2d_32">
      <path d="M 516.494118 336.653024 
L 811.905882 336.653024 
" clip-path="url(#p66c5630bfc)" style="fill: none; stroke: #b0b0b0; stroke-width: 0.8; stroke-linecap: square"/>
     </g>
     <g id="line2d_33">
      <g>
       <use xlink:href="#m9802d898f8" x="516.494118" y="336.653024" style="stroke: #000000; stroke-width: 0.8"/>
      </g>
     </g>
     <g id="text_17">
      <!-- 2.5 -->
      <g transform="translate(490.410368 341.212086) scale(0.12 -0.12)">
       <use xlink:href="#DejaVuSans-32"/>
       <use xlink:href="#DejaVuSans-2e" x="63.623047"/>
       <use xlink:href="#DejaVuSans-35" x="95.410156"/>
      </g>
     </g>
    </g>
    <g id="ytick_10">
     <g id="line2d_34">
      <path d="M 516.494118 297.955862 
L 811.905882 297.955862 
" clip-path="url(#p66c5630bfc)" style="fill: none; stroke: #b0b0b0; stroke-width: 0.8; stroke-linecap: square"/>
     </g>
     <g id="line2d_35">
      <g>
       <use xlink:href="#m9802d898f8" x="516.494118" y="297.955862" style="stroke: #000000; stroke-width: 0.8"/>
      </g>
     </g>
     <g id="text_18">
      <!-- 5.0 -->
      <g transform="translate(490.410368 302.514925) scale(0.12 -0.12)">
       <use xlink:href="#DejaVuSans-35"/>
       <use xlink:href="#DejaVuSans-2e" x="63.623047"/>
       <use xlink:href="#DejaVuSans-30" x="95.410156"/>
      </g>
     </g>
    </g>
    <g id="ytick_11">
     <g id="line2d_36">
      <path d="M 516.494118 259.258701 
L 811.905882 259.258701 
" clip-path="url(#p66c5630bfc)" style="fill: none; stroke: #b0b0b0; stroke-width: 0.8; stroke-linecap: square"/>
     </g>
     <g id="line2d_37">
      <g>
       <use xlink:href="#m9802d898f8" x="516.494118" y="259.258701" style="stroke: #000000; stroke-width: 0.8"/>
      </g>
     </g>
     <g id="text_19">
      <!-- 7.5 -->
      <g transform="translate(490.410368 263.817764) scale(0.12 -0.12)">
       <use xlink:href="#DejaVuSans-37"/>
       <use xlink:href="#DejaVuSans-2e" x="63.623047"/>
       <use xlink:href="#DejaVuSans-35" x="95.410156"/>
      </g>
     </g>
    </g>
    <g id="ytick_12">
     <g id="line2d_38">
      <path d="M 516.494118 220.56154 
L 811.905882 220.56154 
" clip-path="url(#p66c5630bfc)" style="fill: none; stroke: #b0b0b0; stroke-width: 0.8; stroke-linecap: square"/>
     </g>
     <g id="line2d_39">
      <g>
       <use xlink:href="#m9802d898f8" x="516.494118" y="220.56154" style="stroke: #000000; stroke-width: 0.8"/>
      </g>
     </g>
     <g id="text_20">
      <!-- 10.0 -->
      <g transform="translate(482.775368 225.120602) scale(0.12 -0.12)">
       <use xlink:href="#DejaVuSans-31"/>
       <use xlink:href="#DejaVuSans-30" x="63.623047"/>
       <use xlink:href="#DejaVuSans-2e" x="127.246094"/>
       <use xlink:href="#DejaVuSans-30" x="159.033203"/>
      </g>
     </g>
    </g>
    <g id="ytick_13">
     <g id="line2d_40">
      <path d="M 516.494118 181.864379 
L 811.905882 181.864379 
" clip-path="url(#p66c5630bfc)" style="fill: none; stroke: #b0b0b0; stroke-width: 0.8; stroke-linecap: square"/>
     </g>
     <g id="line2d_41">
      <g>
       <use xlink:href="#m9802d898f8" x="516.494118" y="181.864379" style="stroke: #000000; stroke-width: 0.8"/>
      </g>
     </g>
     <g id="text_21">
      <!-- 12.5 -->
      <g transform="translate(482.775368 186.423441) scale(0.12 -0.12)">
       <use xlink:href="#DejaVuSans-31"/>
       <use xlink:href="#DejaVuSans-32" x="63.623047"/>
       <use xlink:href="#DejaVuSans-2e" x="127.246094"/>
       <use xlink:href="#DejaVuSans-35" x="159.033203"/>
      </g>
     </g>
    </g>
    <g id="ytick_14">
     <g id="line2d_42">
      <path d="M 516.494118 143.167217 
L 811.905882 143.167217 
" clip-path="url(#p66c5630bfc)" style="fill: none; stroke: #b0b0b0; stroke-width: 0.8; stroke-linecap: square"/>
     </g>
     <g id="line2d_43">
      <g>
       <use xlink:href="#m9802d898f8" x="516.494118" y="143.167217" style="stroke: #000000; stroke-width: 0.8"/>
      </g>
     </g>
     <g id="text_22">
      <!-- 15.0 -->
      <g transform="translate(482.775368 147.72628) scale(0.12 -0.12)">
       <use xlink:href="#DejaVuSans-31"/>
       <use xlink:href="#DejaVuSans-35" x="63.623047"/>
       <use xlink:href="#DejaVuSans-2e" x="127.246094"/>
       <use xlink:href="#DejaVuSans-30" x="159.033203"/>
      </g>
     </g>
    </g>
    <g id="ytick_15">
     <g id="line2d_44">
      <path d="M 516.494118 104.470056 
L 811.905882 104.470056 
" clip-path="url(#p66c5630bfc)" style="fill: none; stroke: #b0b0b0; stroke-width: 0.8; stroke-linecap: square"/>
     </g>
     <g id="line2d_45">
      <g>
       <use xlink:href="#m9802d898f8" x="516.494118" y="104.470056" style="stroke: #000000; stroke-width: 0.8"/>
      </g>
     </g>
     <g id="text_23">
      <!-- 17.5 -->
      <g transform="translate(482.775368 109.029118) scale(0.12 -0.12)">
       <use xlink:href="#DejaVuSans-31"/>
       <use xlink:href="#DejaVuSans-37" x="63.623047"/>
       <use xlink:href="#DejaVuSans-2e" x="127.246094"/>
       <use xlink:href="#DejaVuSans-35" x="159.033203"/>
      </g>
     </g>
    </g>
    <g id="ytick_16">
     <g id="line2d_46">
      <path d="M 516.494118 65.772895 
L 811.905882 65.772895 
" clip-path="url(#p66c5630bfc)" style="fill: none; stroke: #b0b0b0; stroke-width: 0.8; stroke-linecap: square"/>
     </g>
     <g id="line2d_47">
      <g>
       <use xlink:href="#m9802d898f8" x="516.494118" y="65.772895" style="stroke: #000000; stroke-width: 0.8"/>
      </g>
     </g>
     <g id="text_24">
      <!-- 20.0 -->
      <g transform="translate(482.775368 70.331957) scale(0.12 -0.12)">
       <use xlink:href="#DejaVuSans-32"/>
       <use xlink:href="#DejaVuSans-30" x="63.623047"/>
       <use xlink:href="#DejaVuSans-2e" x="127.246094"/>
       <use xlink:href="#DejaVuSans-30" x="159.033203"/>
      </g>
     </g>
    </g>
    <g id="text_25">
     <!-- Values -->
     <g transform="translate(475.03193 247.564687) rotate(-90) scale(0.18 -0.18)">
      <defs>
       <path id="DejaVuSans-56" d="M 1831 0 
L 50 4666 
L 709 4666 
L 2188 738 
L 3669 4666 
L 4325 4666 
L 2547 0 
L 1831 0 
z
" transform="scale(0.015625)"/>
       <path id="DejaVuSans-6c" d="M 603 4863 
L 1178 4863 
L 1178 0 
L 603 0 
L 603 4863 
z
" transform="scale(0.015625)"/>
       <path id="DejaVuSans-75" d="M 544 1381 
L 544 3500 
L 1119 3500 
L 1119 1403 
Q 1119 906 1312 657 
Q 1506 409 1894 409 
Q 2359 409 2629 706 
Q 2900 1003 2900 1516 
L 2900 3500 
L 3475 3500 
L 3475 0 
L 2900 0 
L 2900 538 
Q 2691 219 2414 64 
Q 2138 -91 1772 -91 
Q 1169 -91 856 284 
Q 544 659 544 1381 
z
M 1991 3584 
L 1991 3584 
z
" transform="scale(0.015625)"/>
       <path id="DejaVuSans-73" d="M 2834 3397 
L 2834 2853 
Q 2591 2978 2328 3040 
Q 2066 3103 1784 3103 
Q 1356 3103 1142 2972 
Q 928 2841 928 2578 
Q 928 2378 1081 2264 
Q 1234 2150 1697 2047 
L 1894 2003 
Q 2506 1872 2764 1633 
Q 3022 1394 3022 966 
Q 3022 478 2636 193 
Q 2250 -91 1575 -91 
Q 1294 -91 989 -36 
Q 684 19 347 128 
L 347 722 
Q 666 556 975 473 
Q 1284 391 1588 391 
Q 1994 391 2212 530 
Q 2431 669 2431 922 
Q 2431 1156 2273 1281 
Q 2116 1406 1581 1522 
L 1381 1569 
Q 847 1681 609 1914 
Q 372 2147 372 2553 
Q 372 3047 722 3315 
Q 1072 3584 1716 3584 
Q 2034 3584 2315 3537 
Q 2597 3491 2834 3397 
z
" transform="scale(0.015625)"/>
      </defs>
      <use xlink:href="#DejaVuSans-56"/>
      <use xlink:href="#DejaVuSans-61" x="60.658203"/>
      <use xlink:href="#DejaVuSans-6c" x="121.9375"/>
      <use xlink:href="#DejaVuSans-75" x="149.720703"/>
      <use xlink:href="#DejaVuSans-65" x="213.099609"/>
      <use xlink:href="#DejaVuSans-73" x="274.623047"/>
     </g>
    </g>
   </g>
   <g id="line2d_48">
    <defs>
     <path id="m89d2bb8087" d="M 0 3 
C 0.795609 3 1.55874 2.683901 2.12132 2.12132 
C 2.683901 1.55874 3 0.795609 3 0 
C 3 -0.795609 2.683901 -1.55874 2.12132 -2.12132 
C 1.55874 -2.683901 0.795609 -3 0 -3 
C -0.795609 -3 -1.55874 -2.683901 -2.12132 -2.12132 
C -2.683901 -1.55874 -3 -0.795609 -3 0 
C -3 0.795609 -2.683901 1.55874 -2.12132 2.12132 
C -1.55874 2.683901 -0.795609 3 0 3 
z
" style="stroke: #bfbf00"/>
    </defs>
    <g clip-path="url(#p66c5630bfc)">
     <use xlink:href="#m89d2bb8087" x="529.921925" y="280.239343" style="fill: #bfbf00; stroke: #bfbf00"/>
     <use xlink:href="#m89d2bb8087" x="619.440642" y="272.49821" style="fill: #bfbf00; stroke: #bfbf00"/>
     <use xlink:href="#m89d2bb8087" x="708.959358" y="263.108238" style="fill: #bfbf00; stroke: #bfbf00"/>
     <use xlink:href="#m89d2bb8087" x="798.478075" y="254.694816" style="fill: #bfbf00; stroke: #bfbf00"/>
    </g>
   </g>
   <g id="line2d_49">
    <defs>
     <path id="me810dead69" d="M 0 3 
C 0.795609 3 1.55874 2.683901 2.12132 2.12132 
C 2.683901 1.55874 3 0.795609 3 0 
C 3 -0.795609 2.683901 -1.55874 2.12132 -2.12132 
C 1.55874 -2.683901 0.795609 -3 0 -3 
C -0.795609 -3 -1.55874 -2.683901 -2.12132 -2.12132 
C -2.683901 -1.55874 -3 -0.795609 -3 0 
C -3 0.795609 -2.683901 1.55874 -2.12132 2.12132 
C -1.55874 2.683901 -0.795609 3 0 3 
z
" style="stroke: #ff0000"/>
    </defs>
    <g clip-path="url(#p66c5630bfc)">
     <use xlink:href="#me810dead69" x="529.921925" y="134.470029" style="fill: #ff0000; stroke: #ff0000"/>
     <use xlink:href="#me810dead69" x="619.440642" y="116.689121" style="fill: #ff0000; stroke: #ff0000"/>
     <use xlink:href="#me810dead69" x="708.959358" y="85.583364" style="fill: #ff0000; stroke: #ff0000"/>
     <use xlink:href="#me810dead69" x="798.478075" y="66.96" style="fill: #ff0000; stroke: #ff0000"/>
    </g>
   </g>
   <g id="LineCollection_3">
    <path d="M 529.921925 369.240307 
L 529.921925 369.236492 
" clip-path="url(#p66c5630bfc)" style="fill: none; stroke: #008000; stroke-width: 1.5"/>
    <path d="M 619.440642 369.213286 
L 619.440642 369.177293 
" clip-path="url(#p66c5630bfc)" style="fill: none; stroke: #008000; stroke-width: 1.5"/>
    <path d="M 708.959358 369.36 
L 708.959358 369.348812 
" clip-path="url(#p66c5630bfc)" style="fill: none; stroke: #008000; stroke-width: 1.5"/>
    <path d="M 798.478075 369.295604 
L 798.478075 369.292785 
" clip-path="url(#p66c5630bfc)" style="fill: none; stroke: #008000; stroke-width: 1.5"/>
   </g>
   <g id="line2d_50">
    <defs>
     <path id="mac0a30e717" d="M 5 0 
L -5 -0 
" style="stroke: #008000"/>
    </defs>
    <g clip-path="url(#p66c5630bfc)">
     <use xlink:href="#mac0a30e717" x="529.921925" y="369.240307" style="fill: #008000; stroke: #008000"/>
     <use xlink:href="#mac0a30e717" x="619.440642" y="369.213286" style="fill: #008000; stroke: #008000"/>
     <use xlink:href="#mac0a30e717" x="708.959358" y="369.36" style="fill: #008000; stroke: #008000"/>
     <use xlink:href="#mac0a30e717" x="798.478075" y="369.295604" style="fill: #008000; stroke: #008000"/>
    </g>
   </g>
   <g id="line2d_51">
    <g clip-path="url(#p66c5630bfc)">
     <use xlink:href="#mac0a30e717" x="529.921925" y="369.236492" style="fill: #008000; stroke: #008000"/>
     <use xlink:href="#mac0a30e717" x="619.440642" y="369.177293" style="fill: #008000; stroke: #008000"/>
     <use xlink:href="#mac0a30e717" x="708.959358" y="369.348812" style="fill: #008000; stroke: #008000"/>
     <use xlink:href="#mac0a30e717" x="798.478075" y="369.292785" style="fill: #008000; stroke: #008000"/>
    </g>
   </g>
   <g id="line2d_52">
    <path d="M 529.921925 369.2384 
L 619.440642 369.19529 
L 708.959358 369.354406 
L 798.478075 369.294194 
" clip-path="url(#p66c5630bfc)" style="fill: none; stroke: #008000; stroke-width: 1.5; stroke-linecap: square"/>
    <defs>
     <path id="m2fe783075f" d="M 0 3 
C 0.795609 3 1.55874 2.683901 2.12132 2.12132 
C 2.683901 1.55874 3 0.795609 3 0 
C 3 -0.795609 2.683901 -1.55874 2.12132 -2.12132 
C 1.55874 -2.683901 0.795609 -3 0 -3 
C -0.795609 -3 -1.55874 -2.683901 -2.12132 -2.12132 
C -2.683901 -1.55874 -3 -0.795609 -3 0 
C -3 0.795609 -2.683901 1.55874 -2.12132 2.12132 
C -1.55874 2.683901 -0.795609 3 0 3 
z
" style="stroke: #008000"/>
    </defs>
    <g clip-path="url(#p66c5630bfc)">
     <use xlink:href="#m2fe783075f" x="529.921925" y="369.2384" style="fill: #008000; stroke: #008000"/>
     <use xlink:href="#m2fe783075f" x="619.440642" y="369.19529" style="fill: #008000; stroke: #008000"/>
     <use xlink:href="#m2fe783075f" x="708.959358" y="369.354406" style="fill: #008000; stroke: #008000"/>
     <use xlink:href="#m2fe783075f" x="798.478075" y="369.294194" style="fill: #008000; stroke: #008000"/>
    </g>
   </g>
   <g id="patch_9">
    <path d="M 516.494118 384.48 
L 516.494118 51.84 
" style="fill: none; stroke: #000000; stroke-width: 0.8; stroke-linejoin: miter; stroke-linecap: square"/>
   </g>
   <g id="patch_10">
    <path d="M 811.905882 384.48 
L 811.905882 51.84 
" style="fill: none; stroke: #000000; stroke-width: 0.8; stroke-linejoin: miter; stroke-linecap: square"/>
   </g>
   <g id="patch_11">
    <path d="M 516.494118 384.48 
L 811.905882 384.48 
" style="fill: none; stroke: #000000; stroke-width: 0.8; stroke-linejoin: miter; stroke-linecap: square"/>
   </g>
   <g id="patch_12">
    <path d="M 516.494118 51.84 
L 811.905882 51.84 
" style="fill: none; stroke: #000000; stroke-width: 0.8; stroke-linejoin: miter; stroke-linecap: square"/>
   </g>
   <g id="legend_2">
    <g id="patch_13">
     <path d="M 646.101507 246.380625 
L 803.505882 246.380625 
Q 805.905882 246.380625 805.905882 243.980625 
L 805.905882 192.339375 
Q 805.905882 189.939375 803.505882 189.939375 
L 646.101507 189.939375 
Q 643.701507 189.939375 643.701507 192.339375 
L 643.701507 243.980625 
Q 643.701507 246.380625 646.101507 246.380625 
z
" style="fill: #ffffff; opacity: 0.8; stroke: #cccccc; stroke-linejoin: miter"/>
    </g>
    <g id="line2d_53">
     <g>
      <use xlink:href="#m89d2bb8087" x="660.501507" y="199.6575" style="fill: #bfbf00; stroke: #bfbf00"/>
     </g>
    </g>
    <g id="text_26">
     <!-- Mean Displacement -->
     <g transform="translate(682.101507 203.8575) scale(0.12 -0.12)">
      <defs>
       <path id="DejaVuSans-44" d="M 1259 4147 
L 1259 519 
L 2022 519 
Q 2988 519 3436 956 
Q 3884 1394 3884 2338 
Q 3884 3275 3436 3711 
Q 2988 4147 2022 4147 
L 1259 4147 
z
M 628 4666 
L 1925 4666 
Q 3281 4666 3915 4102 
Q 4550 3538 4550 2338 
Q 4550 1131 3912 565 
Q 3275 0 1925 0 
L 628 0 
L 628 4666 
z
" transform="scale(0.015625)"/>
       <path id="DejaVuSans-69" d="M 603 3500 
L 1178 3500 
L 1178 0 
L 603 0 
L 603 3500 
z
M 603 4863 
L 1178 4863 
L 1178 4134 
L 603 4134 
L 603 4863 
z
" transform="scale(0.015625)"/>
       <path id="DejaVuSans-70" d="M 1159 525 
L 1159 -1331 
L 581 -1331 
L 581 3500 
L 1159 3500 
L 1159 2969 
Q 1341 3281 1617 3432 
Q 1894 3584 2278 3584 
Q 2916 3584 3314 3078 
Q 3713 2572 3713 1747 
Q 3713 922 3314 415 
Q 2916 -91 2278 -91 
Q 1894 -91 1617 61 
Q 1341 213 1159 525 
z
M 3116 1747 
Q 3116 2381 2855 2742 
Q 2594 3103 2138 3103 
Q 1681 3103 1420 2742 
Q 1159 2381 1159 1747 
Q 1159 1113 1420 752 
Q 1681 391 2138 391 
Q 2594 391 2855 752 
Q 3116 1113 3116 1747 
z
" transform="scale(0.015625)"/>
       <path id="DejaVuSans-63" d="M 3122 3366 
L 3122 2828 
Q 2878 2963 2633 3030 
Q 2388 3097 2138 3097 
Q 1578 3097 1268 2742 
Q 959 2388 959 1747 
Q 959 1106 1268 751 
Q 1578 397 2138 397 
Q 2388 397 2633 464 
Q 2878 531 3122 666 
L 3122 134 
Q 2881 22 2623 -34 
Q 2366 -91 2075 -91 
Q 1284 -91 818 406 
Q 353 903 353 1747 
Q 353 2603 823 3093 
Q 1294 3584 2113 3584 
Q 2378 3584 2631 3529 
Q 2884 3475 3122 3366 
z
" transform="scale(0.015625)"/>
       <path id="DejaVuSans-6d" d="M 3328 2828 
Q 3544 3216 3844 3400 
Q 4144 3584 4550 3584 
Q 5097 3584 5394 3201 
Q 5691 2819 5691 2113 
L 5691 0 
L 5113 0 
L 5113 2094 
Q 5113 2597 4934 2840 
Q 4756 3084 4391 3084 
Q 3944 3084 3684 2787 
Q 3425 2491 3425 1978 
L 3425 0 
L 2847 0 
L 2847 2094 
Q 2847 2600 2669 2842 
Q 2491 3084 2119 3084 
Q 1678 3084 1418 2786 
Q 1159 2488 1159 1978 
L 1159 0 
L 581 0 
L 581 3500 
L 1159 3500 
L 1159 2956 
Q 1356 3278 1631 3431 
Q 1906 3584 2284 3584 
Q 2666 3584 2933 3390 
Q 3200 3197 3328 2828 
z
" transform="scale(0.015625)"/>
      </defs>
      <use xlink:href="#DejaVuSans-4d"/>
      <use xlink:href="#DejaVuSans-65" x="86.279297"/>
      <use xlink:href="#DejaVuSans-61" x="147.802734"/>
      <use xlink:href="#DejaVuSans-6e" x="209.082031"/>
      <use xlink:href="#DejaVuSans-20" x="272.460938"/>
      <use xlink:href="#DejaVuSans-44" x="304.248047"/>
      <use xlink:href="#DejaVuSans-69" x="381.25"/>
      <use xlink:href="#DejaVuSans-73" x="409.033203"/>
      <use xlink:href="#DejaVuSans-70" x="461.132812"/>
      <use xlink:href="#DejaVuSans-6c" x="524.609375"/>
      <use xlink:href="#DejaVuSans-61" x="552.392578"/>
      <use xlink:href="#DejaVuSans-63" x="613.671875"/>
      <use xlink:href="#DejaVuSans-65" x="668.652344"/>
      <use xlink:href="#DejaVuSans-6d" x="730.175781"/>
      <use xlink:href="#DejaVuSans-65" x="827.587891"/>
      <use xlink:href="#DejaVuSans-6e" x="889.111328"/>
      <use xlink:href="#DejaVuSans-74" x="952.490234"/>
     </g>
    </g>
    <g id="line2d_54">
     <g>
      <use xlink:href="#me810dead69" x="660.501507" y="217.27125" style="fill: #ff0000; stroke: #ff0000"/>
     </g>
    </g>
    <g id="text_27">
     <!-- Ratio Disp/Sqz -->
     <g transform="translate(682.101507 221.47125) scale(0.12 -0.12)">
      <defs>
       <path id="DejaVuSans-52" d="M 2841 2188 
Q 3044 2119 3236 1894 
Q 3428 1669 3622 1275 
L 4263 0 
L 3584 0 
L 2988 1197 
Q 2756 1666 2539 1819 
Q 2322 1972 1947 1972 
L 1259 1972 
L 1259 0 
L 628 0 
L 628 4666 
L 2053 4666 
Q 2853 4666 3247 4331 
Q 3641 3997 3641 3322 
Q 3641 2881 3436 2590 
Q 3231 2300 2841 2188 
z
M 1259 4147 
L 1259 2491 
L 2053 2491 
Q 2509 2491 2742 2702 
Q 2975 2913 2975 3322 
Q 2975 3731 2742 3939 
Q 2509 4147 2053 4147 
L 1259 4147 
z
" transform="scale(0.015625)"/>
       <path id="DejaVuSans-6f" d="M 1959 3097 
Q 1497 3097 1228 2736 
Q 959 2375 959 1747 
Q 959 1119 1226 758 
Q 1494 397 1959 397 
Q 2419 397 2687 759 
Q 2956 1122 2956 1747 
Q 2956 2369 2687 2733 
Q 2419 3097 1959 3097 
z
M 1959 3584 
Q 2709 3584 3137 3096 
Q 3566 2609 3566 1747 
Q 3566 888 3137 398 
Q 2709 -91 1959 -91 
Q 1206 -91 779 398 
Q 353 888 353 1747 
Q 353 2609 779 3096 
Q 1206 3584 1959 3584 
z
" transform="scale(0.015625)"/>
       <path id="DejaVuSans-2f" d="M 1625 4666 
L 2156 4666 
L 531 -594 
L 0 -594 
L 1625 4666 
z
" transform="scale(0.015625)"/>
       <path id="DejaVuSans-53" d="M 3425 4513 
L 3425 3897 
Q 3066 4069 2747 4153 
Q 2428 4238 2131 4238 
Q 1616 4238 1336 4038 
Q 1056 3838 1056 3469 
Q 1056 3159 1242 3001 
Q 1428 2844 1947 2747 
L 2328 2669 
Q 3034 2534 3370 2195 
Q 3706 1856 3706 1288 
Q 3706 609 3251 259 
Q 2797 -91 1919 -91 
Q 1588 -91 1214 -16 
Q 841 59 441 206 
L 441 856 
Q 825 641 1194 531 
Q 1563 422 1919 422 
Q 2459 422 2753 634 
Q 3047 847 3047 1241 
Q 3047 1584 2836 1778 
Q 2625 1972 2144 2069 
L 1759 2144 
Q 1053 2284 737 2584 
Q 422 2884 422 3419 
Q 422 4038 858 4394 
Q 1294 4750 2059 4750 
Q 2388 4750 2728 4690 
Q 3069 4631 3425 4513 
z
" transform="scale(0.015625)"/>
       <path id="DejaVuSans-71" d="M 947 1747 
Q 947 1113 1208 752 
Q 1469 391 1925 391 
Q 2381 391 2643 752 
Q 2906 1113 2906 1747 
Q 2906 2381 2643 2742 
Q 2381 3103 1925 3103 
Q 1469 3103 1208 2742 
Q 947 2381 947 1747 
z
M 2906 525 
Q 2725 213 2448 61 
Q 2172 -91 1784 -91 
Q 1150 -91 751 415 
Q 353 922 353 1747 
Q 353 2572 751 3078 
Q 1150 3584 1784 3584 
Q 2172 3584 2448 3432 
Q 2725 3281 2906 2969 
L 2906 3500 
L 3481 3500 
L 3481 -1331 
L 2906 -1331 
L 2906 525 
z
" transform="scale(0.015625)"/>
       <path id="DejaVuSans-7a" d="M 353 3500 
L 3084 3500 
L 3084 2975 
L 922 459 
L 3084 459 
L 3084 0 
L 275 0 
L 275 525 
L 2438 3041 
L 353 3041 
L 353 3500 
z
" transform="scale(0.015625)"/>
      </defs>
      <use xlink:href="#DejaVuSans-52"/>
      <use xlink:href="#DejaVuSans-61" x="67.232422"/>
      <use xlink:href="#DejaVuSans-74" x="128.511719"/>
      <use xlink:href="#DejaVuSans-69" x="167.720703"/>
      <use xlink:href="#DejaVuSans-6f" x="195.503906"/>
      <use xlink:href="#DejaVuSans-20" x="256.685547"/>
      <use xlink:href="#DejaVuSans-44" x="288.472656"/>
      <use xlink:href="#DejaVuSans-69" x="365.474609"/>
      <use xlink:href="#DejaVuSans-73" x="393.257812"/>
      <use xlink:href="#DejaVuSans-70" x="445.357422"/>
      <use xlink:href="#DejaVuSans-2f" x="508.833984"/>
      <use xlink:href="#DejaVuSans-53" x="542.525391"/>
      <use xlink:href="#DejaVuSans-71" x="606.001953"/>
      <use xlink:href="#DejaVuSans-7a" x="669.478516"/>
     </g>
    </g>
    <g id="LineCollection_4">
     <path d="M 660.501507 240.885 
L 660.501507 228.885 
" style="fill: none; stroke: #008000; stroke-width: 1.5"/>
    </g>
    <g id="line2d_55">
     <g>
      <use xlink:href="#mac0a30e717" x="660.501507" y="240.885" style="fill: #008000; stroke: #008000"/>
     </g>
    </g>
    <g id="line2d_56">
     <g>
      <use xlink:href="#mac0a30e717" x="660.501507" y="228.885" style="fill: #008000; stroke: #008000"/>
     </g>
    </g>
    <g id="line2d_57">
     <path d="M 648.501507 234.885 
L 672.501507 234.885 
" style="fill: none; stroke: #008000; stroke-width: 1.5; stroke-linecap: square"/>
    </g>
    <g id="line2d_58">
     <g>
      <use xlink:href="#m2fe783075f" x="660.501507" y="234.885" style="fill: #008000; stroke: #008000"/>
     </g>
    </g>
    <g id="text_28">
     <!-- Mean Squeezing -->
     <g transform="translate(682.101507 239.085) scale(0.12 -0.12)">
      <use xlink:href="#DejaVuSans-4d"/>
      <use xlink:href="#DejaVuSans-65" x="86.279297"/>
      <use xlink:href="#DejaVuSans-61" x="147.802734"/>
      <use xlink:href="#DejaVuSans-6e" x="209.082031"/>
      <use xlink:href="#DejaVuSans-20" x="272.460938"/>
      <use xlink:href="#DejaVuSans-53" x="304.248047"/>
      <use xlink:href="#DejaVuSans-71" x="367.724609"/>
      <use xlink:href="#DejaVuSans-75" x="431.201172"/>
      <use xlink:href="#DejaVuSans-65" x="494.580078"/>
      <use xlink:href="#DejaVuSans-65" x="556.103516"/>
      <use xlink:href="#DejaVuSans-7a" x="617.626953"/>
      <use xlink:href="#DejaVuSans-69" x="670.117188"/>
      <use xlink:href="#DejaVuSans-6e" x="697.900391"/>
      <use xlink:href="#DejaVuSans-67" x="761.279297"/>
     </g>
    </g>
   </g>
  </g>
  <g id="axes_3">
   <g id="patch_14">
    <path d="M 870.988235 384.48 
L 1166.4 384.48 
L 1166.4 51.84 
L 870.988235 51.84 
z
" style="fill: #ffffff"/>
   </g>
   <g id="matplotlib.axis_5">
    <g id="xtick_5">
     <g id="line2d_59">
      <path d="M 1063.453476 384.48 
L 1063.453476 51.84 
" clip-path="url(#p53eb7c847f)" style="fill: none; stroke: #b0b0b0; stroke-width: 0.8; stroke-linecap: square"/>
     </g>
     <g id="line2d_60">
      <g>
       <use xlink:href="#mb3199dc300" x="1063.453476" y="384.48" style="stroke: #000000; stroke-width: 0.8"/>
      </g>
     </g>
     <g id="text_29">
      <!-- 12 -->
      <g transform="translate(1055.818476 400.598125) scale(0.12 -0.12)">
       <use xlink:href="#DejaVuSans-31"/>
       <use xlink:href="#DejaVuSans-32" x="63.623047"/>
      </g>
     </g>
    </g>
    <g id="xtick_6">
     <g id="line2d_61">
      <path d="M 1152.972193 384.48 
L 1152.972193 51.84 
" clip-path="url(#p53eb7c847f)" style="fill: none; stroke: #b0b0b0; stroke-width: 0.8; stroke-linecap: square"/>
     </g>
     <g id="line2d_62">
      <g>
       <use xlink:href="#mb3199dc300" x="1152.972193" y="384.48" style="stroke: #000000; stroke-width: 0.8"/>
      </g>
     </g>
     <g id="text_30">
      <!-- 13 -->
      <g transform="translate(1145.337193 400.598125) scale(0.12 -0.12)">
       <use xlink:href="#DejaVuSans-31"/>
       <use xlink:href="#DejaVuSans-33" x="63.623047"/>
      </g>
     </g>
    </g>
    <g id="text_31">
     <!-- M -->
     <g transform="translate(1010.928805 420.770938) scale(0.18 -0.18)">
      <use xlink:href="#DejaVuSans-4d"/>
     </g>
    </g>
   </g>
   <g id="matplotlib.axis_6">
    <g id="ytick_17">
     <g id="line2d_63">
      <path d="M 870.988235 377.21257 
L 1166.4 377.21257 
" clip-path="url(#p53eb7c847f)" style="fill: none; stroke: #b0b0b0; stroke-width: 0.8; stroke-linecap: square"/>
     </g>
     <g id="line2d_64">
      <g>
       <use xlink:href="#m9802d898f8" x="870.988235" y="377.21257" style="stroke: #000000; stroke-width: 0.8"/>
      </g>
     </g>
     <g id="text_32">
      <!-- 4.0 -->
      <g transform="translate(844.904485 381.771633) scale(0.12 -0.12)">
       <use xlink:href="#DejaVuSans-34"/>
       <use xlink:href="#DejaVuSans-2e" x="63.623047"/>
       <use xlink:href="#DejaVuSans-30" x="95.410156"/>
      </g>
     </g>
    </g>
    <g id="ytick_18">
     <g id="line2d_65">
      <path d="M 870.988235 318.383896 
L 1166.4 318.383896 
" clip-path="url(#p53eb7c847f)" style="fill: none; stroke: #b0b0b0; stroke-width: 0.8; stroke-linecap: square"/>
     </g>
     <g id="line2d_66">
      <g>
       <use xlink:href="#m9802d898f8" x="870.988235" y="318.383896" style="stroke: #000000; stroke-width: 0.8"/>
      </g>
     </g>
     <g id="text_33">
      <!-- 4.5 -->
      <g transform="translate(844.904485 322.942958) scale(0.12 -0.12)">
       <use xlink:href="#DejaVuSans-34"/>
       <use xlink:href="#DejaVuSans-2e" x="63.623047"/>
       <use xlink:href="#DejaVuSans-35" x="95.410156"/>
      </g>
     </g>
    </g>
    <g id="ytick_19">
     <g id="line2d_67">
      <path d="M 870.988235 259.555237 
L 1166.4 259.555237 
" clip-path="url(#p53eb7c847f)" style="fill: none; stroke: #b0b0b0; stroke-width: 0.8; stroke-linecap: square"/>
     </g>
     <g id="line2d_68">
      <g>
       <use xlink:href="#m9802d898f8" x="870.988235" y="259.555237" style="stroke: #000000; stroke-width: 0.8"/>
      </g>
     </g>
     <g id="text_34">
      <!-- 5.0 -->
      <g transform="translate(844.904485 264.114299) scale(0.12 -0.12)">
       <use xlink:href="#DejaVuSans-35"/>
       <use xlink:href="#DejaVuSans-2e" x="63.623047"/>
       <use xlink:href="#DejaVuSans-30" x="95.410156"/>
      </g>
     </g>
    </g>
    <g id="ytick_20">
     <g id="line2d_69">
      <path d="M 870.988235 200.72657 
L 1166.4 200.72657 
" clip-path="url(#p53eb7c847f)" style="fill: none; stroke: #b0b0b0; stroke-width: 0.8; stroke-linecap: square"/>
     </g>
     <g id="line2d_70">
      <g>
       <use xlink:href="#m9802d898f8" x="870.988235" y="200.72657" style="stroke: #000000; stroke-width: 0.8"/>
      </g>
     </g>
     <g id="text_35">
      <!-- 5.5 -->
      <g transform="translate(844.904485 205.285633) scale(0.12 -0.12)">
       <use xlink:href="#DejaVuSans-35"/>
       <use xlink:href="#DejaVuSans-2e" x="63.623047"/>
       <use xlink:href="#DejaVuSans-35" x="95.410156"/>
      </g>
     </g>
    </g>
    <g id="ytick_21">
     <g id="line2d_71">
      <path d="M 870.988235 141.897911 
L 1166.4 141.897911 
" clip-path="url(#p53eb7c847f)" style="fill: none; stroke: #b0b0b0; stroke-width: 0.8; stroke-linecap: square"/>
     </g>
     <g id="line2d_72">
      <g>
       <use xlink:href="#m9802d898f8" x="870.988235" y="141.897911" style="stroke: #000000; stroke-width: 0.8"/>
      </g>
     </g>
     <g id="text_36">
      <!-- 6.0 -->
      <g transform="translate(844.904485 146.456974) scale(0.12 -0.12)">
       <use xlink:href="#DejaVuSans-36"/>
       <use xlink:href="#DejaVuSans-2e" x="63.623047"/>
       <use xlink:href="#DejaVuSans-30" x="95.410156"/>
      </g>
     </g>
    </g>
    <g id="ytick_22">
     <g id="line2d_73">
      <path d="M 870.988235 83.069237 
L 1166.4 83.069237 
" clip-path="url(#p53eb7c847f)" style="fill: none; stroke: #b0b0b0; stroke-width: 0.8; stroke-linecap: square"/>
     </g>
     <g id="line2d_74">
      <g>
       <use xlink:href="#m9802d898f8" x="870.988235" y="83.069237" style="stroke: #000000; stroke-width: 0.8"/>
      </g>
     </g>
     <g id="text_37">
      <!-- 6.5 -->
      <g transform="translate(844.904485 87.628299) scale(0.12 -0.12)">
       <use xlink:href="#DejaVuSans-36"/>
       <use xlink:href="#DejaVuSans-2e" x="63.623047"/>
       <use xlink:href="#DejaVuSans-35" x="95.410156"/>
      </g>
     </g>
    </g>
    <g id="text_38">
     <!-- Average optimal gamma -->
     <g transform="translate(837.161048 329.148281) rotate(-90) scale(0.18 -0.18)">
      <defs>
       <path id="DejaVuSans-72" d="M 2631 2963 
Q 2534 3019 2420 3045 
Q 2306 3072 2169 3072 
Q 1681 3072 1420 2755 
Q 1159 2438 1159 1844 
L 1159 0 
L 581 0 
L 581 3500 
L 1159 3500 
L 1159 2956 
Q 1341 3275 1631 3429 
Q 1922 3584 2338 3584 
Q 2397 3584 2469 3576 
Q 2541 3569 2628 3553 
L 2631 2963 
z
" transform="scale(0.015625)"/>
      </defs>
      <use xlink:href="#DejaVuSans-41"/>
      <use xlink:href="#DejaVuSans-76" x="62.533203"/>
      <use xlink:href="#DejaVuSans-65" x="121.712891"/>
      <use xlink:href="#DejaVuSans-72" x="183.236328"/>
      <use xlink:href="#DejaVuSans-61" x="224.349609"/>
      <use xlink:href="#DejaVuSans-67" x="285.628906"/>
      <use xlink:href="#DejaVuSans-65" x="349.105469"/>
      <use xlink:href="#DejaVuSans-20" x="410.628906"/>
      <use xlink:href="#DejaVuSans-6f" x="442.416016"/>
      <use xlink:href="#DejaVuSans-70" x="503.597656"/>
      <use xlink:href="#DejaVuSans-74" x="567.074219"/>
      <use xlink:href="#DejaVuSans-69" x="606.283203"/>
      <use xlink:href="#DejaVuSans-6d" x="634.066406"/>
      <use xlink:href="#DejaVuSans-61" x="731.478516"/>
      <use xlink:href="#DejaVuSans-6c" x="792.757812"/>
      <use xlink:href="#DejaVuSans-20" x="820.541016"/>
      <use xlink:href="#DejaVuSans-67" x="852.328125"/>
      <use xlink:href="#DejaVuSans-61" x="915.804688"/>
      <use xlink:href="#DejaVuSans-6d" x="977.083984"/>
      <use xlink:href="#DejaVuSans-6d" x="1074.496094"/>
      <use xlink:href="#DejaVuSans-61" x="1171.908203"/>
     </g>
    </g>
    <g id="text_39">
     <!-- 1e9+4.0816326e1 -->
     <g transform="translate(870.988235 48.84) scale(0.1 -0.1)">
      <defs>
       <path id="DejaVuSans-2212" d="M 678 2272 
L 4684 2272 
L 4684 1741 
L 678 1741 
L 678 2272 
z
" transform="scale(0.015625)"/>
       <path id="DejaVuSans-2b" d="M 2944 4013 
L 2944 2272 
L 4684 2272 
L 4684 1741 
L 2944 1741 
L 2944 0 
L 2419 0 
L 2419 1741 
L 678 1741 
L 678 2272 
L 2419 2272 
L 2419 4013 
L 2944 4013 
z
" transform="scale(0.015625)"/>
      </defs>
      <use xlink:href="#DejaVuSans-31"/>
      <use xlink:href="#DejaVuSans-65" x="63.623047"/>
      <use xlink:href="#DejaVuSans-2212" x="125.146484"/>
      <use xlink:href="#DejaVuSans-39" x="208.935547"/>
      <use xlink:href="#DejaVuSans-2b" x="272.558594"/>
      <use xlink:href="#DejaVuSans-34" x="356.347656"/>
      <use xlink:href="#DejaVuSans-2e" x="419.970703"/>
      <use xlink:href="#DejaVuSans-30" x="451.757812"/>
      <use xlink:href="#DejaVuSans-38" x="515.380859"/>
      <use xlink:href="#DejaVuSans-31" x="579.003906"/>
      <use xlink:href="#DejaVuSans-36" x="642.626953"/>
      <use xlink:href="#DejaVuSans-33" x="706.25"/>
      <use xlink:href="#DejaVuSans-32" x="769.873047"/>
      <use xlink:href="#DejaVuSans-36" x="833.496094"/>
      <use xlink:href="#DejaVuSans-65" x="897.119141"/>
      <use xlink:href="#DejaVuSans-2212" x="958.642578"/>
      <use xlink:href="#DejaVuSans-31" x="1042.431641"/>
     </g>
    </g>
   </g>
   <g id="LineCollection_5">
    <path d="M 884.416043 223.537689 
L 884.416043 223.537689 
" clip-path="url(#p53eb7c847f)" style="fill: none; stroke: #ff0000; stroke-width: 1.5"/>
    <path d="M 973.934759 223.537689 
L 973.934759 223.537689 
" clip-path="url(#p53eb7c847f)" style="fill: none; stroke: #ff0000; stroke-width: 1.5"/>
    <path d="M 1063.453476 223.537689 
L 1063.453476 223.537689 
" clip-path="url(#p53eb7c847f)" style="fill: none; stroke: #ff0000; stroke-width: 1.5"/>
    <path d="M 1152.972193 223.537689 
L 1152.972193 223.537689 
" clip-path="url(#p53eb7c847f)" style="fill: none; stroke: #ff0000; stroke-width: 1.5"/>
   </g>
   <g id="line2d_75">
    <defs>
     <path id="md74752f540" d="M 5 0 
L -5 -0 
" style="stroke: #ff0000"/>
    </defs>
    <g clip-path="url(#p53eb7c847f)">
     <use xlink:href="#md74752f540" x="884.416043" y="223.537689" style="fill: #ff0000; stroke: #ff0000"/>
     <use xlink:href="#md74752f540" x="973.934759" y="223.537689" style="fill: #ff0000; stroke: #ff0000"/>
     <use xlink:href="#md74752f540" x="1063.453476" y="223.537689" style="fill: #ff0000; stroke: #ff0000"/>
     <use xlink:href="#md74752f540" x="1152.972193" y="223.537689" style="fill: #ff0000; stroke: #ff0000"/>
    </g>
   </g>
   <g id="line2d_76">
    <g clip-path="url(#p53eb7c847f)">
     <use xlink:href="#md74752f540" x="884.416043" y="223.537689" style="fill: #ff0000; stroke: #ff0000"/>
     <use xlink:href="#md74752f540" x="973.934759" y="223.537689" style="fill: #ff0000; stroke: #ff0000"/>
     <use xlink:href="#md74752f540" x="1063.453476" y="223.537689" style="fill: #ff0000; stroke: #ff0000"/>
     <use xlink:href="#md74752f540" x="1152.972193" y="223.537689" style="fill: #ff0000; stroke: #ff0000"/>
    </g>
   </g>
   <g id="line2d_77">
    <path d="M 884.416043 369.360001 
L 887.128731 365.872574 
L 889.84142 362.395653 
L 892.554108 358.929192 
L 895.266796 355.473129 
L 897.979485 352.027397 
L 900.692173 348.591934 
L 903.404861 345.166695 
L 906.11755 341.751587 
L 908.830238 338.346581 
L 911.542927 334.951591 
L 914.255615 331.566574 
L 916.968303 328.191483 
L 919.680992 324.826233 
L 922.39368 321.470787 
L 925.106368 318.125084 
L 927.819057 314.789055 
L 930.531745 311.462646 
L 933.244434 308.145828 
L 935.957122 304.838524 
L 938.66981 301.540672 
L 941.382499 298.252235 
L 944.095187 294.973152 
L 946.807876 291.703377 
L 949.520564 288.442856 
L 952.233252 285.191521 
L 954.945941 281.949333 
L 957.658629 278.716248 
L 960.371317 275.492195 
L 963.084006 272.277153 
L 965.796694 269.071037 
L 968.509383 265.873817 
L 971.222071 262.685448 
L 973.934759 259.505867 
L 976.647448 256.33503 
L 979.360136 253.172905 
L 982.072825 250.019424 
L 984.785513 246.874557 
L 987.498201 243.738228 
L 990.21089 240.610428 
L 992.923578 237.491089 
L 995.636266 234.380165 
L 998.348955 231.277626 
L 1001.061643 228.183395 
L 1003.774332 225.097458 
L 1006.48702 222.01976 
L 1009.199708 218.950272 
L 1011.912397 215.888924 
L 1014.625085 212.835693 
L 1017.337773 209.790512 
L 1020.050462 206.75338 
L 1022.76315 203.724213 
L 1025.475839 200.702988 
L 1028.188527 197.689659 
L 1030.901215 194.684196 
L 1033.613904 191.686539 
L 1036.326592 188.696671 
L 1039.039281 185.714523 
L 1041.751969 182.740082 
L 1044.464657 179.7733 
L 1047.177346 176.814133 
L 1049.890034 173.862541 
L 1052.602722 170.918488 
L 1055.315411 167.981934 
L 1058.028099 165.052841 
L 1060.740788 162.131187 
L 1063.453476 159.216904 
L 1066.166164 156.309975 
L 1068.878853 153.41037 
L 1071.591541 150.518021 
L 1074.304229 147.632927 
L 1077.016918 144.755028 
L 1079.729606 141.884315 
L 1082.442295 139.020721 
L 1085.154983 136.164215 
L 1087.867671 133.314781 
L 1090.58036 130.472374 
L 1093.293048 127.636955 
L 1096.005737 124.808502 
L 1098.718425 121.986961 
L 1101.431113 119.172325 
L 1104.143802 116.364532 
L 1106.85649 113.563568 
L 1109.569178 110.769394 
L 1112.281867 107.981987 
L 1114.994555 105.201294 
L 1117.707244 102.427292 
L 1120.419932 99.65995 
L 1123.13262 96.899246 
L 1125.845309 94.145134 
L 1128.557997 91.397583 
L 1131.270685 88.656555 
L 1133.983374 85.922058 
L 1136.696062 83.194016 
L 1139.408751 80.472412 
L 1142.121439 77.757233 
L 1144.834127 75.048424 
L 1147.546816 72.345978 
L 1150.259504 69.649834 
L 1152.972193 66.959999 
" clip-path="url(#p53eb7c847f)" style="fill: none; stroke-dasharray: 5.55,2.4; stroke-dashoffset: 0; stroke: #0000ff; stroke-width: 1.5"/>
   </g>
   <g id="line2d_78">
    <path d="M 884.416043 223.537689 
L 973.934759 223.537689 
L 1063.453476 223.537689 
L 1152.972193 223.537689 
" clip-path="url(#p53eb7c847f)" style="fill: none; stroke: #ff0000; stroke-width: 1.5; stroke-linecap: square"/>
    <g clip-path="url(#p53eb7c847f)">
     <use xlink:href="#me810dead69" x="884.416043" y="223.537689" style="fill: #ff0000; stroke: #ff0000"/>
     <use xlink:href="#me810dead69" x="973.934759" y="223.537689" style="fill: #ff0000; stroke: #ff0000"/>
     <use xlink:href="#me810dead69" x="1063.453476" y="223.537689" style="fill: #ff0000; stroke: #ff0000"/>
     <use xlink:href="#me810dead69" x="1152.972193" y="223.537689" style="fill: #ff0000; stroke: #ff0000"/>
    </g>
   </g>
   <g id="patch_15">
    <path d="M 870.988235 384.480003 
L 870.988235 51.839996 
" style="fill: none; stroke: #000000; stroke-width: 0.8; stroke-linejoin: miter; stroke-linecap: square"/>
   </g>
   <g id="patch_16">
    <path d="M 1166.4 384.480003 
L 1166.4 51.839996 
" style="fill: none; stroke: #000000; stroke-width: 0.8; stroke-linejoin: miter; stroke-linecap: square"/>
   </g>
   <g id="patch_17">
    <path d="M 870.988235 384.48 
L 1166.4 384.48 
" style="fill: none; stroke: #000000; stroke-width: 0.8; stroke-linejoin: miter; stroke-linecap: square"/>
   </g>
   <g id="patch_18">
    <path d="M 870.988235 51.84 
L 1166.4 51.84 
" style="fill: none; stroke: #000000; stroke-width: 0.8; stroke-linejoin: miter; stroke-linecap: square"/>
   </g>
   <g id="legend_3">
    <g id="patch_19">
     <path d="M 879.388235 96.6675 
L 1090.051985 96.6675 
Q 1092.451985 96.6675 1092.451985 94.2675 
L 1092.451985 60.24 
Q 1092.451985 57.84 1090.051985 57.84 
L 879.388235 57.84 
Q 876.988235 57.84 876.988235 60.24 
L 876.988235 94.2675 
Q 876.988235 96.6675 879.388235 96.6675 
z
" style="fill: #ffffff; opacity: 0.8; stroke: #cccccc; stroke-linejoin: miter"/>
    </g>
    <g id="line2d_79">
     <path d="M 881.788235 67.558125 
L 893.788235 67.558125 
L 905.788235 67.558125 
" style="fill: none; stroke-dasharray: 5.55,2.4; stroke-dashoffset: 0; stroke: #0000ff; stroke-width: 1.5"/>
    </g>
    <g id="text_40">
     <!-- Gamma Value -->
     <g transform="translate(915.388235 71.758125) scale(0.12 -0.12)">
      <defs>
       <path id="DejaVuSans-47" d="M 3809 666 
L 3809 1919 
L 2778 1919 
L 2778 2438 
L 4434 2438 
L 4434 434 
Q 4069 175 3628 42 
Q 3188 -91 2688 -91 
Q 1594 -91 976 548 
Q 359 1188 359 2328 
Q 359 3472 976 4111 
Q 1594 4750 2688 4750 
Q 3144 4750 3555 4637 
Q 3966 4525 4313 4306 
L 4313 3634 
Q 3963 3931 3569 4081 
Q 3175 4231 2741 4231 
Q 1884 4231 1454 3753 
Q 1025 3275 1025 2328 
Q 1025 1384 1454 906 
Q 1884 428 2741 428 
Q 3075 428 3337 486 
Q 3600 544 3809 666 
z
" transform="scale(0.015625)"/>
      </defs>
      <use xlink:href="#DejaVuSans-47"/>
      <use xlink:href="#DejaVuSans-61" x="77.490234"/>
      <use xlink:href="#DejaVuSans-6d" x="138.769531"/>
      <use xlink:href="#DejaVuSans-6d" x="236.181641"/>
      <use xlink:href="#DejaVuSans-61" x="333.59375"/>
      <use xlink:href="#DejaVuSans-20" x="394.873047"/>
      <use xlink:href="#DejaVuSans-56" x="426.660156"/>
      <use xlink:href="#DejaVuSans-61" x="487.318359"/>
      <use xlink:href="#DejaVuSans-6c" x="548.597656"/>
      <use xlink:href="#DejaVuSans-75" x="576.380859"/>
      <use xlink:href="#DejaVuSans-65" x="639.759766"/>
     </g>
    </g>
    <g id="LineCollection_6">
     <path d="M 893.788235 91.171875 
L 893.788235 79.171875 
" style="fill: none; stroke: #ff0000; stroke-width: 1.5"/>
    </g>
    <g id="line2d_80">
     <g>
      <use xlink:href="#md74752f540" x="893.788235" y="91.171875" style="fill: #ff0000; stroke: #ff0000"/>
     </g>
    </g>
    <g id="line2d_81">
     <g>
      <use xlink:href="#md74752f540" x="893.788235" y="79.171875" style="fill: #ff0000; stroke: #ff0000"/>
     </g>
    </g>
    <g id="line2d_82">
     <path d="M 881.788235 85.171875 
L 905.788235 85.171875 
" style="fill: none; stroke: #ff0000; stroke-width: 1.5; stroke-linecap: square"/>
    </g>
    <g id="line2d_83">
     <g>
      <use xlink:href="#me810dead69" x="893.788235" y="85.171875" style="fill: #ff0000; stroke: #ff0000"/>
     </g>
    </g>
    <g id="text_41">
     <!-- Factor: 0.4082, Power0.0000 -->
     <g transform="translate(915.388235 89.371875) scale(0.12 -0.12)">
      <defs>
       <path id="DejaVuSans-46" d="M 628 4666 
L 3309 4666 
L 3309 4134 
L 1259 4134 
L 1259 2759 
L 3109 2759 
L 3109 2228 
L 1259 2228 
L 1259 0 
L 628 0 
L 628 4666 
z
" transform="scale(0.015625)"/>
       <path id="DejaVuSans-3a" d="M 750 794 
L 1409 794 
L 1409 0 
L 750 0 
L 750 794 
z
M 750 3309 
L 1409 3309 
L 1409 2516 
L 750 2516 
L 750 3309 
z
" transform="scale(0.015625)"/>
       <path id="DejaVuSans-2c" d="M 750 794 
L 1409 794 
L 1409 256 
L 897 -744 
L 494 -744 
L 750 256 
L 750 794 
z
" transform="scale(0.015625)"/>
       <path id="DejaVuSans-50" d="M 1259 4147 
L 1259 2394 
L 2053 2394 
Q 2494 2394 2734 2622 
Q 2975 2850 2975 3272 
Q 2975 3691 2734 3919 
Q 2494 4147 2053 4147 
L 1259 4147 
z
M 628 4666 
L 2053 4666 
Q 2838 4666 3239 4311 
Q 3641 3956 3641 3272 
Q 3641 2581 3239 2228 
Q 2838 1875 2053 1875 
L 1259 1875 
L 1259 0 
L 628 0 
L 628 4666 
z
" transform="scale(0.015625)"/>
       <path id="DejaVuSans-77" d="M 269 3500 
L 844 3500 
L 1563 769 
L 2278 3500 
L 2956 3500 
L 3675 769 
L 4391 3500 
L 4966 3500 
L 4050 0 
L 3372 0 
L 2619 2869 
L 1863 0 
L 1184 0 
L 269 3500 
z
" transform="scale(0.015625)"/>
      </defs>
      <use xlink:href="#DejaVuSans-46"/>
      <use xlink:href="#DejaVuSans-61" x="48.394531"/>
      <use xlink:href="#DejaVuSans-63" x="109.673828"/>
      <use xlink:href="#DejaVuSans-74" x="164.654297"/>
      <use xlink:href="#DejaVuSans-6f" x="203.863281"/>
      <use xlink:href="#DejaVuSans-72" x="265.044922"/>
      <use xlink:href="#DejaVuSans-3a" x="304.408203"/>
      <use xlink:href="#DejaVuSans-20" x="338.099609"/>
      <use xlink:href="#DejaVuSans-30" x="369.886719"/>
      <use xlink:href="#DejaVuSans-2e" x="433.509766"/>
      <use xlink:href="#DejaVuSans-34" x="465.296875"/>
      <use xlink:href="#DejaVuSans-30" x="528.919922"/>
      <use xlink:href="#DejaVuSans-38" x="592.542969"/>
      <use xlink:href="#DejaVuSans-32" x="656.166016"/>
      <use xlink:href="#DejaVuSans-2c" x="719.789062"/>
      <use xlink:href="#DejaVuSans-20" x="751.576172"/>
      <use xlink:href="#DejaVuSans-50" x="783.363281"/>
      <use xlink:href="#DejaVuSans-6f" x="840.041016"/>
      <use xlink:href="#DejaVuSans-77" x="901.222656"/>
      <use xlink:href="#DejaVuSans-65" x="983.009766"/>
      <use xlink:href="#DejaVuSans-72" x="1044.533203"/>
      <use xlink:href="#DejaVuSans-30" x="1085.646484"/>
      <use xlink:href="#DejaVuSans-2e" x="1149.269531"/>
      <use xlink:href="#DejaVuSans-30" x="1181.056641"/>
      <use xlink:href="#DejaVuSans-30" x="1244.679688"/>
      <use xlink:href="#DejaVuSans-30" x="1308.302734"/>
      <use xlink:href="#DejaVuSans-30" x="1371.925781"/>
     </g>
    </g>
   </g>
  </g>
  <g id="text_42">
   <!-- Results for c=0.50*c_max and 5 cliques -->
   <g transform="translate(408.6525 26.87625) scale(0.24 -0.24)">
    <defs>
     <path id="DejaVuSans-66" d="M 2375 4863 
L 2375 4384 
L 1825 4384 
Q 1516 4384 1395 4259 
Q 1275 4134 1275 3809 
L 1275 3500 
L 2222 3500 
L 2222 3053 
L 1275 3053 
L 1275 0 
L 697 0 
L 697 3053 
L 147 3053 
L 147 3500 
L 697 3500 
L 697 3744 
Q 697 4328 969 4595 
Q 1241 4863 1831 4863 
L 2375 4863 
z
" transform="scale(0.015625)"/>
     <path id="DejaVuSans-3d" d="M 678 2906 
L 4684 2906 
L 4684 2381 
L 678 2381 
L 678 2906 
z
M 678 1631 
L 4684 1631 
L 4684 1100 
L 678 1100 
L 678 1631 
z
" transform="scale(0.015625)"/>
     <path id="DejaVuSans-2a" d="M 3009 3897 
L 1888 3291 
L 3009 2681 
L 2828 2375 
L 1778 3009 
L 1778 1831 
L 1422 1831 
L 1422 3009 
L 372 2375 
L 191 2681 
L 1313 3291 
L 191 3897 
L 372 4206 
L 1422 3572 
L 1422 4750 
L 1778 4750 
L 1778 3572 
L 2828 4206 
L 3009 3897 
z
" transform="scale(0.015625)"/>
     <path id="DejaVuSans-5f" d="M 3263 -1063 
L 3263 -1509 
L -63 -1509 
L -63 -1063 
L 3263 -1063 
z
" transform="scale(0.015625)"/>
    </defs>
    <use xlink:href="#DejaVuSans-52"/>
    <use xlink:href="#DejaVuSans-65" x="64.982422"/>
    <use xlink:href="#DejaVuSans-73" x="126.505859"/>
    <use xlink:href="#DejaVuSans-75" x="178.605469"/>
    <use xlink:href="#DejaVuSans-6c" x="241.984375"/>
    <use xlink:href="#DejaVuSans-74" x="269.767578"/>
    <use xlink:href="#DejaVuSans-73" x="308.976562"/>
    <use xlink:href="#DejaVuSans-20" x="361.076172"/>
    <use xlink:href="#DejaVuSans-66" x="392.863281"/>
    <use xlink:href="#DejaVuSans-6f" x="428.068359"/>
    <use xlink:href="#DejaVuSans-72" x="489.25"/>
    <use xlink:href="#DejaVuSans-20" x="530.363281"/>
    <use xlink:href="#DejaVuSans-63" x="562.150391"/>
    <use xlink:href="#DejaVuSans-3d" x="617.130859"/>
    <use xlink:href="#DejaVuSans-30" x="700.919922"/>
    <use xlink:href="#DejaVuSans-2e" x="764.542969"/>
    <use xlink:href="#DejaVuSans-35" x="796.330078"/>
    <use xlink:href="#DejaVuSans-30" x="859.953125"/>
    <use xlink:href="#DejaVuSans-2a" x="923.576172"/>
    <use xlink:href="#DejaVuSans-63" x="973.576172"/>
    <use xlink:href="#DejaVuSans-5f" x="1028.556641"/>
    <use xlink:href="#DejaVuSans-6d" x="1078.556641"/>
    <use xlink:href="#DejaVuSans-61" x="1175.96875"/>
    <use xlink:href="#DejaVuSans-78" x="1237.248047"/>
    <use xlink:href="#DejaVuSans-20" x="1296.427734"/>
    <use xlink:href="#DejaVuSans-61" x="1328.214844"/>
    <use xlink:href="#DejaVuSans-6e" x="1389.494141"/>
    <use xlink:href="#DejaVuSans-64" x="1452.873047"/>
    <use xlink:href="#DejaVuSans-20" x="1516.349609"/>
    <use xlink:href="#DejaVuSans-35" x="1548.136719"/>
    <use xlink:href="#DejaVuSans-20" x="1611.759766"/>
    <use xlink:href="#DejaVuSans-63" x="1643.546875"/>
    <use xlink:href="#DejaVuSans-6c" x="1698.527344"/>
    <use xlink:href="#DejaVuSans-69" x="1726.310547"/>
    <use xlink:href="#DejaVuSans-71" x="1754.09375"/>
    <use xlink:href="#DejaVuSans-75" x="1817.570312"/>
    <use xlink:href="#DejaVuSans-65" x="1880.949219"/>
    <use xlink:href="#DejaVuSans-73" x="1942.472656"/>
   </g>
  </g>
 </g>
 <defs>
  <clipPath id="p61898aacce">
   <rect x="162" y="51.84" width="295.411765" height="332.64"/>
  </clipPath>
  <clipPath id="p66c5630bfc">
   <rect x="516.494118" y="51.84" width="295.411765" height="332.64"/>
  </clipPath>
  <clipPath id="p53eb7c847f">
   <rect x="870.988235" y="51.84" width="295.411765" height="332.64"/>
  </clipPath>
 </defs>
</svg>
