<?xml version="1.0" encoding="utf-8" standalone="no"?>
<!DOCTYPE svg PUBLIC "-//W3C//DTD SVG 1.1//EN"
  "http://www.w3.org/Graphics/SVG/1.1/DTD/svg11.dtd">
<svg xmlns:xlink="http://www.w3.org/1999/xlink" width="1296pt" height="432pt" viewBox="0 0 1296 432" xmlns="http://www.w3.org/2000/svg" version="1.1">
 <metadata>
  <rdf:RDF xmlns:dc="http://purl.org/dc/elements/1.1/" xmlns:cc="http://creativecommons.org/ns#" xmlns:rdf="http://www.w3.org/1999/02/22-rdf-syntax-ns#">
   <cc:Work>
    <dc:type rdf:resource="http://purl.org/dc/dcmitype/StillImage"/>
    <dc:date>2025-01-31T17:23:45.200427</dc:date>
    <dc:format>image/svg+xml</dc:format>
    <dc:creator>
     <cc:Agent>
      <dc:title>Matplotlib v3.9.4, https://matplotlib.org/</dc:title>
     </cc:Agent>
    </dc:creator>
   </cc:Work>
  </rdf:RDF>
 </metadata>
 <defs>
  <style type="text/css">*{stroke-linejoin: round; stroke-linecap: butt}</style>
 </defs>
 <g id="figure_1">
  <g id="patch_1">
   <path d="M 0 432 
L 1296 432 
L 1296 0 
L 0 0 
z
" style="fill: #ffffff"/>
  </g>
  <g id="axes_1">
   <g id="patch_2">
    <path d="M 162 384.48 
L 457.411765 384.48 
L 457.411765 51.84 
L 162 51.84 
z
" style="fill: #ffffff"/>
   </g>
   <g id="matplotlib.axis_1">
    <g id="xtick_1">
     <g id="line2d_1">
      <path d="M 175.427807 384.48 
L 175.427807 51.84 
" clip-path="url(#p3ecb9695bc)" style="fill: none; stroke: #b0b0b0; stroke-width: 0.8; stroke-linecap: square"/>
     </g>
     <g id="line2d_2">
      <defs>
       <path id="m7c6e940a73" d="M 0 0 
L 0 3.5 
" style="stroke: #000000; stroke-width: 0.8"/>
      </defs>
      <g>
       <use xlink:href="#m7c6e940a73" x="175.427807" y="384.48" style="stroke: #000000; stroke-width: 0.8"/>
      </g>
     </g>
     <g id="text_1">
      <!-- 16 -->
      <g transform="translate(167.792807 400.598125) scale(0.12 -0.12)">
       <defs>
        <path id="DejaVuSans-31" d="M 794 531 
L 1825 531 
L 1825 4091 
L 703 3866 
L 703 4441 
L 1819 4666 
L 2450 4666 
L 2450 531 
L 3481 531 
L 3481 0 
L 794 0 
L 794 531 
z
" transform="scale(0.015625)"/>
        <path id="DejaVuSans-36" d="M 2113 2584 
Q 1688 2584 1439 2293 
Q 1191 2003 1191 1497 
Q 1191 994 1439 701 
Q 1688 409 2113 409 
Q 2538 409 2786 701 
Q 3034 994 3034 1497 
Q 3034 2003 2786 2293 
Q 2538 2584 2113 2584 
z
M 3366 4563 
L 3366 3988 
Q 3128 4100 2886 4159 
Q 2644 4219 2406 4219 
Q 1781 4219 1451 3797 
Q 1122 3375 1075 2522 
Q 1259 2794 1537 2939 
Q 1816 3084 2150 3084 
Q 2853 3084 3261 2657 
Q 3669 2231 3669 1497 
Q 3669 778 3244 343 
Q 2819 -91 2113 -91 
Q 1303 -91 875 529 
Q 447 1150 447 2328 
Q 447 3434 972 4092 
Q 1497 4750 2381 4750 
Q 2619 4750 2861 4703 
Q 3103 4656 3366 4563 
z
" transform="scale(0.015625)"/>
       </defs>
       <use xlink:href="#DejaVuSans-31"/>
       <use xlink:href="#DejaVuSans-36" x="63.623047"/>
      </g>
     </g>
    </g>
    <g id="xtick_2">
     <g id="line2d_3">
      <path d="M 242.566845 384.48 
L 242.566845 51.84 
" clip-path="url(#p3ecb9695bc)" style="fill: none; stroke: #b0b0b0; stroke-width: 0.8; stroke-linecap: square"/>
     </g>
     <g id="line2d_4">
      <g>
       <use xlink:href="#m7c6e940a73" x="242.566845" y="384.48" style="stroke: #000000; stroke-width: 0.8"/>
      </g>
     </g>
     <g id="text_2">
      <!-- 18 -->
      <g transform="translate(234.931845 400.598125) scale(0.12 -0.12)">
       <defs>
        <path id="DejaVuSans-38" d="M 2034 2216 
Q 1584 2216 1326 1975 
Q 1069 1734 1069 1313 
Q 1069 891 1326 650 
Q 1584 409 2034 409 
Q 2484 409 2743 651 
Q 3003 894 3003 1313 
Q 3003 1734 2745 1975 
Q 2488 2216 2034 2216 
z
M 1403 2484 
Q 997 2584 770 2862 
Q 544 3141 544 3541 
Q 544 4100 942 4425 
Q 1341 4750 2034 4750 
Q 2731 4750 3128 4425 
Q 3525 4100 3525 3541 
Q 3525 3141 3298 2862 
Q 3072 2584 2669 2484 
Q 3125 2378 3379 2068 
Q 3634 1759 3634 1313 
Q 3634 634 3220 271 
Q 2806 -91 2034 -91 
Q 1263 -91 848 271 
Q 434 634 434 1313 
Q 434 1759 690 2068 
Q 947 2378 1403 2484 
z
M 1172 3481 
Q 1172 3119 1398 2916 
Q 1625 2713 2034 2713 
Q 2441 2713 2670 2916 
Q 2900 3119 2900 3481 
Q 2900 3844 2670 4047 
Q 2441 4250 2034 4250 
Q 1625 4250 1398 4047 
Q 1172 3844 1172 3481 
z
" transform="scale(0.015625)"/>
       </defs>
       <use xlink:href="#DejaVuSans-31"/>
       <use xlink:href="#DejaVuSans-38" x="63.623047"/>
      </g>
     </g>
    </g>
    <g id="xtick_3">
     <g id="line2d_5">
      <path d="M 309.705882 384.48 
L 309.705882 51.84 
" clip-path="url(#p3ecb9695bc)" style="fill: none; stroke: #b0b0b0; stroke-width: 0.8; stroke-linecap: square"/>
     </g>
     <g id="line2d_6">
      <g>
       <use xlink:href="#m7c6e940a73" x="309.705882" y="384.48" style="stroke: #000000; stroke-width: 0.8"/>
      </g>
     </g>
     <g id="text_3">
      <!-- 20 -->
      <g transform="translate(302.070882 400.598125) scale(0.12 -0.12)">
       <defs>
        <path id="DejaVuSans-32" d="M 1228 531 
L 3431 531 
L 3431 0 
L 469 0 
L 469 531 
Q 828 903 1448 1529 
Q 2069 2156 2228 2338 
Q 2531 2678 2651 2914 
Q 2772 3150 2772 3378 
Q 2772 3750 2511 3984 
Q 2250 4219 1831 4219 
Q 1534 4219 1204 4116 
Q 875 4013 500 3803 
L 500 4441 
Q 881 4594 1212 4672 
Q 1544 4750 1819 4750 
Q 2544 4750 2975 4387 
Q 3406 4025 3406 3419 
Q 3406 3131 3298 2873 
Q 3191 2616 2906 2266 
Q 2828 2175 2409 1742 
Q 1991 1309 1228 531 
z
" transform="scale(0.015625)"/>
        <path id="DejaVuSans-30" d="M 2034 4250 
Q 1547 4250 1301 3770 
Q 1056 3291 1056 2328 
Q 1056 1369 1301 889 
Q 1547 409 2034 409 
Q 2525 409 2770 889 
Q 3016 1369 3016 2328 
Q 3016 3291 2770 3770 
Q 2525 4250 2034 4250 
z
M 2034 4750 
Q 2819 4750 3233 4129 
Q 3647 3509 3647 2328 
Q 3647 1150 3233 529 
Q 2819 -91 2034 -91 
Q 1250 -91 836 529 
Q 422 1150 422 2328 
Q 422 3509 836 4129 
Q 1250 4750 2034 4750 
z
" transform="scale(0.015625)"/>
       </defs>
       <use xlink:href="#DejaVuSans-32"/>
       <use xlink:href="#DejaVuSans-30" x="63.623047"/>
      </g>
     </g>
    </g>
    <g id="xtick_4">
     <g id="line2d_7">
      <path d="M 376.84492 384.48 
L 376.84492 51.84 
" clip-path="url(#p3ecb9695bc)" style="fill: none; stroke: #b0b0b0; stroke-width: 0.8; stroke-linecap: square"/>
     </g>
     <g id="line2d_8">
      <g>
       <use xlink:href="#m7c6e940a73" x="376.84492" y="384.48" style="stroke: #000000; stroke-width: 0.8"/>
      </g>
     </g>
     <g id="text_4">
      <!-- 22 -->
      <g transform="translate(369.20992 400.598125) scale(0.12 -0.12)">
       <use xlink:href="#DejaVuSans-32"/>
       <use xlink:href="#DejaVuSans-32" x="63.623047"/>
      </g>
     </g>
    </g>
    <g id="xtick_5">
     <g id="line2d_9">
      <path d="M 443.983957 384.48 
L 443.983957 51.84 
" clip-path="url(#p3ecb9695bc)" style="fill: none; stroke: #b0b0b0; stroke-width: 0.8; stroke-linecap: square"/>
     </g>
     <g id="line2d_10">
      <g>
       <use xlink:href="#m7c6e940a73" x="443.983957" y="384.48" style="stroke: #000000; stroke-width: 0.8"/>
      </g>
     </g>
     <g id="text_5">
      <!-- 24 -->
      <g transform="translate(436.348957 400.598125) scale(0.12 -0.12)">
       <defs>
        <path id="DejaVuSans-34" d="M 2419 4116 
L 825 1625 
L 2419 1625 
L 2419 4116 
z
M 2253 4666 
L 3047 4666 
L 3047 1625 
L 3713 1625 
L 3713 1100 
L 3047 1100 
L 3047 0 
L 2419 0 
L 2419 1100 
L 313 1100 
L 313 1709 
L 2253 4666 
z
" transform="scale(0.015625)"/>
       </defs>
       <use xlink:href="#DejaVuSans-32"/>
       <use xlink:href="#DejaVuSans-34" x="63.623047"/>
      </g>
     </g>
    </g>
    <g id="text_6">
     <!-- M -->
     <g transform="translate(301.94057 420.770938) scale(0.18 -0.18)">
      <defs>
       <path id="DejaVuSans-4d" d="M 628 4666 
L 1569 4666 
L 2759 1491 
L 3956 4666 
L 4897 4666 
L 4897 0 
L 4281 0 
L 4281 4097 
L 3078 897 
L 2444 897 
L 1241 4097 
L 1241 0 
L 628 0 
L 628 4666 
z
" transform="scale(0.015625)"/>
      </defs>
      <use xlink:href="#DejaVuSans-4d"/>
     </g>
    </g>
   </g>
   <g id="matplotlib.axis_2">
    <g id="ytick_1">
     <g id="line2d_11">
      <path d="M 162 365.055581 
L 457.411765 365.055581 
" clip-path="url(#p3ecb9695bc)" style="fill: none; stroke: #b0b0b0; stroke-width: 0.8; stroke-linecap: square"/>
     </g>
     <g id="line2d_12">
      <defs>
       <path id="m495908e051" d="M 0 0 
L -3.5 0 
" style="stroke: #000000; stroke-width: 0.8"/>
      </defs>
      <g>
       <use xlink:href="#m495908e051" x="162" y="365.055581" style="stroke: #000000; stroke-width: 0.8"/>
      </g>
     </g>
     <g id="text_7">
      <!-- −2000 -->
      <g transform="translate(114.404375 369.614644) scale(0.12 -0.12)">
       <defs>
        <path id="DejaVuSans-2212" d="M 678 2272 
L 4684 2272 
L 4684 1741 
L 678 1741 
L 678 2272 
z
" transform="scale(0.015625)"/>
       </defs>
       <use xlink:href="#DejaVuSans-2212"/>
       <use xlink:href="#DejaVuSans-32" x="83.789062"/>
       <use xlink:href="#DejaVuSans-30" x="147.412109"/>
       <use xlink:href="#DejaVuSans-30" x="211.035156"/>
       <use xlink:href="#DejaVuSans-30" x="274.658203"/>
      </g>
     </g>
    </g>
    <g id="ytick_2">
     <g id="line2d_13">
      <path d="M 162 325.508946 
L 457.411765 325.508946 
" clip-path="url(#p3ecb9695bc)" style="fill: none; stroke: #b0b0b0; stroke-width: 0.8; stroke-linecap: square"/>
     </g>
     <g id="line2d_14">
      <g>
       <use xlink:href="#m495908e051" x="162" y="325.508946" style="stroke: #000000; stroke-width: 0.8"/>
      </g>
     </g>
     <g id="text_8">
      <!-- −1000 -->
      <g transform="translate(114.404375 330.068009) scale(0.12 -0.12)">
       <use xlink:href="#DejaVuSans-2212"/>
       <use xlink:href="#DejaVuSans-31" x="83.789062"/>
       <use xlink:href="#DejaVuSans-30" x="147.412109"/>
       <use xlink:href="#DejaVuSans-30" x="211.035156"/>
       <use xlink:href="#DejaVuSans-30" x="274.658203"/>
      </g>
     </g>
    </g>
    <g id="ytick_3">
     <g id="line2d_15">
      <path d="M 162 285.962312 
L 457.411765 285.962312 
" clip-path="url(#p3ecb9695bc)" style="fill: none; stroke: #b0b0b0; stroke-width: 0.8; stroke-linecap: square"/>
     </g>
     <g id="line2d_16">
      <g>
       <use xlink:href="#m495908e051" x="162" y="285.962312" style="stroke: #000000; stroke-width: 0.8"/>
      </g>
     </g>
     <g id="text_9">
      <!-- 0 -->
      <g transform="translate(147.365 290.521374) scale(0.12 -0.12)">
       <use xlink:href="#DejaVuSans-30"/>
      </g>
     </g>
    </g>
    <g id="ytick_4">
     <g id="line2d_17">
      <path d="M 162 246.415677 
L 457.411765 246.415677 
" clip-path="url(#p3ecb9695bc)" style="fill: none; stroke: #b0b0b0; stroke-width: 0.8; stroke-linecap: square"/>
     </g>
     <g id="line2d_18">
      <g>
       <use xlink:href="#m495908e051" x="162" y="246.415677" style="stroke: #000000; stroke-width: 0.8"/>
      </g>
     </g>
     <g id="text_10">
      <!-- 1000 -->
      <g transform="translate(124.46 250.974739) scale(0.12 -0.12)">
       <use xlink:href="#DejaVuSans-31"/>
       <use xlink:href="#DejaVuSans-30" x="63.623047"/>
       <use xlink:href="#DejaVuSans-30" x="127.246094"/>
       <use xlink:href="#DejaVuSans-30" x="190.869141"/>
      </g>
     </g>
    </g>
    <g id="ytick_5">
     <g id="line2d_19">
      <path d="M 162 206.869042 
L 457.411765 206.869042 
" clip-path="url(#p3ecb9695bc)" style="fill: none; stroke: #b0b0b0; stroke-width: 0.8; stroke-linecap: square"/>
     </g>
     <g id="line2d_20">
      <g>
       <use xlink:href="#m495908e051" x="162" y="206.869042" style="stroke: #000000; stroke-width: 0.8"/>
      </g>
     </g>
     <g id="text_11">
      <!-- 2000 -->
      <g transform="translate(124.46 211.428104) scale(0.12 -0.12)">
       <use xlink:href="#DejaVuSans-32"/>
       <use xlink:href="#DejaVuSans-30" x="63.623047"/>
       <use xlink:href="#DejaVuSans-30" x="127.246094"/>
       <use xlink:href="#DejaVuSans-30" x="190.869141"/>
      </g>
     </g>
    </g>
    <g id="ytick_6">
     <g id="line2d_21">
      <path d="M 162 167.322407 
L 457.411765 167.322407 
" clip-path="url(#p3ecb9695bc)" style="fill: none; stroke: #b0b0b0; stroke-width: 0.8; stroke-linecap: square"/>
     </g>
     <g id="line2d_22">
      <g>
       <use xlink:href="#m495908e051" x="162" y="167.322407" style="stroke: #000000; stroke-width: 0.8"/>
      </g>
     </g>
     <g id="text_12">
      <!-- 3000 -->
      <g transform="translate(124.46 171.881469) scale(0.12 -0.12)">
       <defs>
        <path id="DejaVuSans-33" d="M 2597 2516 
Q 3050 2419 3304 2112 
Q 3559 1806 3559 1356 
Q 3559 666 3084 287 
Q 2609 -91 1734 -91 
Q 1441 -91 1130 -33 
Q 819 25 488 141 
L 488 750 
Q 750 597 1062 519 
Q 1375 441 1716 441 
Q 2309 441 2620 675 
Q 2931 909 2931 1356 
Q 2931 1769 2642 2001 
Q 2353 2234 1838 2234 
L 1294 2234 
L 1294 2753 
L 1863 2753 
Q 2328 2753 2575 2939 
Q 2822 3125 2822 3475 
Q 2822 3834 2567 4026 
Q 2313 4219 1838 4219 
Q 1578 4219 1281 4162 
Q 984 4106 628 3988 
L 628 4550 
Q 988 4650 1302 4700 
Q 1616 4750 1894 4750 
Q 2613 4750 3031 4423 
Q 3450 4097 3450 3541 
Q 3450 3153 3228 2886 
Q 3006 2619 2597 2516 
z
" transform="scale(0.015625)"/>
       </defs>
       <use xlink:href="#DejaVuSans-33"/>
       <use xlink:href="#DejaVuSans-30" x="63.623047"/>
       <use xlink:href="#DejaVuSans-30" x="127.246094"/>
       <use xlink:href="#DejaVuSans-30" x="190.869141"/>
      </g>
     </g>
    </g>
    <g id="ytick_7">
     <g id="line2d_23">
      <path d="M 162 127.775772 
L 457.411765 127.775772 
" clip-path="url(#p3ecb9695bc)" style="fill: none; stroke: #b0b0b0; stroke-width: 0.8; stroke-linecap: square"/>
     </g>
     <g id="line2d_24">
      <g>
       <use xlink:href="#m495908e051" x="162" y="127.775772" style="stroke: #000000; stroke-width: 0.8"/>
      </g>
     </g>
     <g id="text_13">
      <!-- 4000 -->
      <g transform="translate(124.46 132.334835) scale(0.12 -0.12)">
       <use xlink:href="#DejaVuSans-34"/>
       <use xlink:href="#DejaVuSans-30" x="63.623047"/>
       <use xlink:href="#DejaVuSans-30" x="127.246094"/>
       <use xlink:href="#DejaVuSans-30" x="190.869141"/>
      </g>
     </g>
    </g>
    <g id="ytick_8">
     <g id="line2d_25">
      <path d="M 162 88.229137 
L 457.411765 88.229137 
" clip-path="url(#p3ecb9695bc)" style="fill: none; stroke: #b0b0b0; stroke-width: 0.8; stroke-linecap: square"/>
     </g>
     <g id="line2d_26">
      <g>
       <use xlink:href="#m495908e051" x="162" y="88.229137" style="stroke: #000000; stroke-width: 0.8"/>
      </g>
     </g>
     <g id="text_14">
      <!-- 5000 -->
      <g transform="translate(124.46 92.7882) scale(0.12 -0.12)">
       <defs>
        <path id="DejaVuSans-35" d="M 691 4666 
L 3169 4666 
L 3169 4134 
L 1269 4134 
L 1269 2991 
Q 1406 3038 1543 3061 
Q 1681 3084 1819 3084 
Q 2600 3084 3056 2656 
Q 3513 2228 3513 1497 
Q 3513 744 3044 326 
Q 2575 -91 1722 -91 
Q 1428 -91 1123 -41 
Q 819 9 494 109 
L 494 744 
Q 775 591 1075 516 
Q 1375 441 1709 441 
Q 2250 441 2565 725 
Q 2881 1009 2881 1497 
Q 2881 1984 2565 2268 
Q 2250 2553 1709 2553 
Q 1456 2553 1204 2497 
Q 953 2441 691 2322 
L 691 4666 
z
" transform="scale(0.015625)"/>
       </defs>
       <use xlink:href="#DejaVuSans-35"/>
       <use xlink:href="#DejaVuSans-30" x="63.623047"/>
       <use xlink:href="#DejaVuSans-30" x="127.246094"/>
       <use xlink:href="#DejaVuSans-30" x="190.869141"/>
      </g>
     </g>
    </g>
    <g id="text_15">
     <!-- Advantage -->
     <g transform="translate(106.660938 266.713594) rotate(-90) scale(0.18 -0.18)">
      <defs>
       <path id="DejaVuSans-41" d="M 2188 4044 
L 1331 1722 
L 3047 1722 
L 2188 4044 
z
M 1831 4666 
L 2547 4666 
L 4325 0 
L 3669 0 
L 3244 1197 
L 1141 1197 
L 716 0 
L 50 0 
L 1831 4666 
z
" transform="scale(0.015625)"/>
       <path id="DejaVuSans-64" d="M 2906 2969 
L 2906 4863 
L 3481 4863 
L 3481 0 
L 2906 0 
L 2906 525 
Q 2725 213 2448 61 
Q 2172 -91 1784 -91 
Q 1150 -91 751 415 
Q 353 922 353 1747 
Q 353 2572 751 3078 
Q 1150 3584 1784 3584 
Q 2172 3584 2448 3432 
Q 2725 3281 2906 2969 
z
M 947 1747 
Q 947 1113 1208 752 
Q 1469 391 1925 391 
Q 2381 391 2643 752 
Q 2906 1113 2906 1747 
Q 2906 2381 2643 2742 
Q 2381 3103 1925 3103 
Q 1469 3103 1208 2742 
Q 947 2381 947 1747 
z
" transform="scale(0.015625)"/>
       <path id="DejaVuSans-76" d="M 191 3500 
L 800 3500 
L 1894 563 
L 2988 3500 
L 3597 3500 
L 2284 0 
L 1503 0 
L 191 3500 
z
" transform="scale(0.015625)"/>
       <path id="DejaVuSans-61" d="M 2194 1759 
Q 1497 1759 1228 1600 
Q 959 1441 959 1056 
Q 959 750 1161 570 
Q 1363 391 1709 391 
Q 2188 391 2477 730 
Q 2766 1069 2766 1631 
L 2766 1759 
L 2194 1759 
z
M 3341 1997 
L 3341 0 
L 2766 0 
L 2766 531 
Q 2569 213 2275 61 
Q 1981 -91 1556 -91 
Q 1019 -91 701 211 
Q 384 513 384 1019 
Q 384 1609 779 1909 
Q 1175 2209 1959 2209 
L 2766 2209 
L 2766 2266 
Q 2766 2663 2505 2880 
Q 2244 3097 1772 3097 
Q 1472 3097 1187 3025 
Q 903 2953 641 2809 
L 641 3341 
Q 956 3463 1253 3523 
Q 1550 3584 1831 3584 
Q 2591 3584 2966 3190 
Q 3341 2797 3341 1997 
z
" transform="scale(0.015625)"/>
       <path id="DejaVuSans-6e" d="M 3513 2113 
L 3513 0 
L 2938 0 
L 2938 2094 
Q 2938 2591 2744 2837 
Q 2550 3084 2163 3084 
Q 1697 3084 1428 2787 
Q 1159 2491 1159 1978 
L 1159 0 
L 581 0 
L 581 3500 
L 1159 3500 
L 1159 2956 
Q 1366 3272 1645 3428 
Q 1925 3584 2291 3584 
Q 2894 3584 3203 3211 
Q 3513 2838 3513 2113 
z
" transform="scale(0.015625)"/>
       <path id="DejaVuSans-74" d="M 1172 4494 
L 1172 3500 
L 2356 3500 
L 2356 3053 
L 1172 3053 
L 1172 1153 
Q 1172 725 1289 603 
Q 1406 481 1766 481 
L 2356 481 
L 2356 0 
L 1766 0 
Q 1100 0 847 248 
Q 594 497 594 1153 
L 594 3053 
L 172 3053 
L 172 3500 
L 594 3500 
L 594 4494 
L 1172 4494 
z
" transform="scale(0.015625)"/>
       <path id="DejaVuSans-67" d="M 2906 1791 
Q 2906 2416 2648 2759 
Q 2391 3103 1925 3103 
Q 1463 3103 1205 2759 
Q 947 2416 947 1791 
Q 947 1169 1205 825 
Q 1463 481 1925 481 
Q 2391 481 2648 825 
Q 2906 1169 2906 1791 
z
M 3481 434 
Q 3481 -459 3084 -895 
Q 2688 -1331 1869 -1331 
Q 1566 -1331 1297 -1286 
Q 1028 -1241 775 -1147 
L 775 -588 
Q 1028 -725 1275 -790 
Q 1522 -856 1778 -856 
Q 2344 -856 2625 -561 
Q 2906 -266 2906 331 
L 2906 616 
Q 2728 306 2450 153 
Q 2172 0 1784 0 
Q 1141 0 747 490 
Q 353 981 353 1791 
Q 353 2603 747 3093 
Q 1141 3584 1784 3584 
Q 2172 3584 2450 3431 
Q 2728 3278 2906 2969 
L 2906 3500 
L 3481 3500 
L 3481 434 
z
" transform="scale(0.015625)"/>
       <path id="DejaVuSans-65" d="M 3597 1894 
L 3597 1613 
L 953 1613 
Q 991 1019 1311 708 
Q 1631 397 2203 397 
Q 2534 397 2845 478 
Q 3156 559 3463 722 
L 3463 178 
Q 3153 47 2828 -22 
Q 2503 -91 2169 -91 
Q 1331 -91 842 396 
Q 353 884 353 1716 
Q 353 2575 817 3079 
Q 1281 3584 2069 3584 
Q 2775 3584 3186 3129 
Q 3597 2675 3597 1894 
z
M 3022 2063 
Q 3016 2534 2758 2815 
Q 2500 3097 2075 3097 
Q 1594 3097 1305 2825 
Q 1016 2553 972 2059 
L 3022 2063 
z
" transform="scale(0.015625)"/>
      </defs>
      <use xlink:href="#DejaVuSans-41"/>
      <use xlink:href="#DejaVuSans-64" x="66.658203"/>
      <use xlink:href="#DejaVuSans-76" x="130.134766"/>
      <use xlink:href="#DejaVuSans-61" x="189.314453"/>
      <use xlink:href="#DejaVuSans-6e" x="250.59375"/>
      <use xlink:href="#DejaVuSans-74" x="313.972656"/>
      <use xlink:href="#DejaVuSans-61" x="353.181641"/>
      <use xlink:href="#DejaVuSans-67" x="414.460938"/>
      <use xlink:href="#DejaVuSans-65" x="477.9375"/>
     </g>
    </g>
   </g>
   <g id="LineCollection_1">
    <path d="M 175.427807 369.36 
L 175.427807 66.96 
" clip-path="url(#p3ecb9695bc)" style="fill: none; stroke: #0000ff; stroke-width: 1.5"/>
    <path d="M 242.566845 289.006844 
L 242.566845 200.068188 
" clip-path="url(#p3ecb9695bc)" style="fill: none; stroke: #0000ff; stroke-width: 1.5"/>
    <path d="M 309.705882 284.69646 
L 309.705882 232.411607 
" clip-path="url(#p3ecb9695bc)" style="fill: none; stroke: #0000ff; stroke-width: 1.5"/>
    <path d="M 376.84492 279.934183 
L 376.84492 256.450783 
" clip-path="url(#p3ecb9695bc)" style="fill: none; stroke: #0000ff; stroke-width: 1.5"/>
    <path d="M 443.983957 285.206009 
L 443.983957 263.863321 
" clip-path="url(#p3ecb9695bc)" style="fill: none; stroke: #0000ff; stroke-width: 1.5"/>
   </g>
   <g id="line2d_27">
    <defs>
     <path id="m962f1b99a6" d="M 5 0 
L -5 -0 
" style="stroke: #0000ff"/>
    </defs>
    <g clip-path="url(#p3ecb9695bc)">
     <use xlink:href="#m962f1b99a6" x="175.427807" y="369.36" style="fill: #0000ff; stroke: #0000ff"/>
     <use xlink:href="#m962f1b99a6" x="242.566845" y="289.006844" style="fill: #0000ff; stroke: #0000ff"/>
     <use xlink:href="#m962f1b99a6" x="309.705882" y="284.69646" style="fill: #0000ff; stroke: #0000ff"/>
     <use xlink:href="#m962f1b99a6" x="376.84492" y="279.934183" style="fill: #0000ff; stroke: #0000ff"/>
     <use xlink:href="#m962f1b99a6" x="443.983957" y="285.206009" style="fill: #0000ff; stroke: #0000ff"/>
    </g>
   </g>
   <g id="line2d_28">
    <g clip-path="url(#p3ecb9695bc)">
     <use xlink:href="#m962f1b99a6" x="175.427807" y="66.96" style="fill: #0000ff; stroke: #0000ff"/>
     <use xlink:href="#m962f1b99a6" x="242.566845" y="200.068188" style="fill: #0000ff; stroke: #0000ff"/>
     <use xlink:href="#m962f1b99a6" x="309.705882" y="232.411607" style="fill: #0000ff; stroke: #0000ff"/>
     <use xlink:href="#m962f1b99a6" x="376.84492" y="256.450783" style="fill: #0000ff; stroke: #0000ff"/>
     <use xlink:href="#m962f1b99a6" x="443.983957" y="263.863321" style="fill: #0000ff; stroke: #0000ff"/>
    </g>
   </g>
   <g id="line2d_29">
    <path d="M 175.427807 218.16 
L 242.566845 244.537516 
L 309.705882 258.554033 
L 376.84492 268.192483 
L 443.983957 274.534665 
" clip-path="url(#p3ecb9695bc)" style="fill: none; stroke: #0000ff; stroke-width: 1.5; stroke-linecap: square"/>
    <defs>
     <path id="m57179c0b07" d="M 0 3 
C 0.795609 3 1.55874 2.683901 2.12132 2.12132 
C 2.683901 1.55874 3 0.795609 3 0 
C 3 -0.795609 2.683901 -1.55874 2.12132 -2.12132 
C 1.55874 -2.683901 0.795609 -3 0 -3 
C -0.795609 -3 -1.55874 -2.683901 -2.12132 -2.12132 
C -2.683901 -1.55874 -3 -0.795609 -3 0 
C -3 0.795609 -2.683901 1.55874 -2.12132 2.12132 
C -1.55874 2.683901 -0.795609 3 0 3 
z
" style="stroke: #0000ff"/>
    </defs>
    <g clip-path="url(#p3ecb9695bc)">
     <use xlink:href="#m57179c0b07" x="175.427807" y="218.16" style="fill: #0000ff; stroke: #0000ff"/>
     <use xlink:href="#m57179c0b07" x="242.566845" y="244.537516" style="fill: #0000ff; stroke: #0000ff"/>
     <use xlink:href="#m57179c0b07" x="309.705882" y="258.554033" style="fill: #0000ff; stroke: #0000ff"/>
     <use xlink:href="#m57179c0b07" x="376.84492" y="268.192483" style="fill: #0000ff; stroke: #0000ff"/>
     <use xlink:href="#m57179c0b07" x="443.983957" y="274.534665" style="fill: #0000ff; stroke: #0000ff"/>
    </g>
   </g>
   <g id="patch_3">
    <path d="M 162 384.48 
L 162 51.84 
" style="fill: none; stroke: #000000; stroke-width: 0.8; stroke-linejoin: miter; stroke-linecap: square"/>
   </g>
   <g id="patch_4">
    <path d="M 457.411765 384.48 
L 457.411765 51.84 
" style="fill: none; stroke: #000000; stroke-width: 0.8; stroke-linejoin: miter; stroke-linecap: square"/>
   </g>
   <g id="patch_5">
    <path d="M 162 384.48 
L 457.411765 384.48 
" style="fill: none; stroke: #000000; stroke-width: 0.8; stroke-linejoin: miter; stroke-linecap: square"/>
   </g>
   <g id="patch_6">
    <path d="M 162 51.84 
L 457.411765 51.84 
" style="fill: none; stroke: #000000; stroke-width: 0.8; stroke-linejoin: miter; stroke-linecap: square"/>
   </g>
   <g id="legend_1">
    <g id="patch_7">
     <path d="M 317.24989 79.05375 
L 449.011765 79.05375 
Q 451.411765 79.05375 451.411765 76.65375 
L 451.411765 60.24 
Q 451.411765 57.84 449.011765 57.84 
L 317.24989 57.84 
Q 314.84989 57.84 314.84989 60.24 
L 314.84989 76.65375 
Q 314.84989 79.05375 317.24989 79.05375 
z
" style="fill: #ffffff; opacity: 0.8; stroke: #cccccc; stroke-linejoin: miter"/>
    </g>
    <g id="LineCollection_2">
     <path d="M 331.64989 73.558125 
L 331.64989 61.558125 
" style="fill: none; stroke: #0000ff; stroke-width: 1.5"/>
    </g>
    <g id="line2d_30">
     <g>
      <use xlink:href="#m962f1b99a6" x="331.64989" y="73.558125" style="fill: #0000ff; stroke: #0000ff"/>
     </g>
    </g>
    <g id="line2d_31">
     <g>
      <use xlink:href="#m962f1b99a6" x="331.64989" y="61.558125" style="fill: #0000ff; stroke: #0000ff"/>
     </g>
    </g>
    <g id="line2d_32">
     <path d="M 319.64989 67.558125 
L 343.64989 67.558125 
" style="fill: none; stroke: #0000ff; stroke-width: 1.5; stroke-linecap: square"/>
    </g>
    <g id="line2d_33">
     <g>
      <use xlink:href="#m57179c0b07" x="331.64989" y="67.558125" style="fill: #0000ff; stroke: #0000ff"/>
     </g>
    </g>
    <g id="text_16">
     <!-- Max Advantage -->
     <g transform="translate(353.24989 71.758125) scale(0.12 -0.12)">
      <defs>
       <path id="DejaVuSans-78" d="M 3513 3500 
L 2247 1797 
L 3578 0 
L 2900 0 
L 1881 1375 
L 863 0 
L 184 0 
L 1544 1831 
L 300 3500 
L 978 3500 
L 1906 2253 
L 2834 3500 
L 3513 3500 
z
" transform="scale(0.015625)"/>
       <path id="DejaVuSans-20" transform="scale(0.015625)"/>
      </defs>
      <use xlink:href="#DejaVuSans-4d"/>
      <use xlink:href="#DejaVuSans-61" x="86.279297"/>
      <use xlink:href="#DejaVuSans-78" x="147.558594"/>
      <use xlink:href="#DejaVuSans-20" x="206.738281"/>
      <use xlink:href="#DejaVuSans-41" x="238.525391"/>
      <use xlink:href="#DejaVuSans-64" x="305.183594"/>
      <use xlink:href="#DejaVuSans-76" x="368.660156"/>
      <use xlink:href="#DejaVuSans-61" x="427.839844"/>
      <use xlink:href="#DejaVuSans-6e" x="489.119141"/>
      <use xlink:href="#DejaVuSans-74" x="552.498047"/>
      <use xlink:href="#DejaVuSans-61" x="591.707031"/>
      <use xlink:href="#DejaVuSans-67" x="652.986328"/>
      <use xlink:href="#DejaVuSans-65" x="716.462891"/>
     </g>
    </g>
   </g>
  </g>
  <g id="axes_2">
   <g id="patch_8">
    <path d="M 516.494118 384.48 
L 811.905882 384.48 
L 811.905882 51.84 
L 516.494118 51.84 
z
" style="fill: #ffffff"/>
   </g>
   <g id="matplotlib.axis_3">
    <g id="xtick_6">
     <g id="line2d_34">
      <path d="M 529.921925 384.48 
L 529.921925 51.84 
" clip-path="url(#p2811389b89)" style="fill: none; stroke: #b0b0b0; stroke-width: 0.8; stroke-linecap: square"/>
     </g>
     <g id="line2d_35">
      <g>
       <use xlink:href="#m7c6e940a73" x="529.921925" y="384.48" style="stroke: #000000; stroke-width: 0.8"/>
      </g>
     </g>
     <g id="text_17">
      <!-- 16 -->
      <g transform="translate(522.286925 400.598125) scale(0.12 -0.12)">
       <use xlink:href="#DejaVuSans-31"/>
       <use xlink:href="#DejaVuSans-36" x="63.623047"/>
      </g>
     </g>
    </g>
    <g id="xtick_7">
     <g id="line2d_36">
      <path d="M 597.060963 384.48 
L 597.060963 51.84 
" clip-path="url(#p2811389b89)" style="fill: none; stroke: #b0b0b0; stroke-width: 0.8; stroke-linecap: square"/>
     </g>
     <g id="line2d_37">
      <g>
       <use xlink:href="#m7c6e940a73" x="597.060963" y="384.48" style="stroke: #000000; stroke-width: 0.8"/>
      </g>
     </g>
     <g id="text_18">
      <!-- 18 -->
      <g transform="translate(589.425963 400.598125) scale(0.12 -0.12)">
       <use xlink:href="#DejaVuSans-31"/>
       <use xlink:href="#DejaVuSans-38" x="63.623047"/>
      </g>
     </g>
    </g>
    <g id="xtick_8">
     <g id="line2d_38">
      <path d="M 664.2 384.48 
L 664.2 51.84 
" clip-path="url(#p2811389b89)" style="fill: none; stroke: #b0b0b0; stroke-width: 0.8; stroke-linecap: square"/>
     </g>
     <g id="line2d_39">
      <g>
       <use xlink:href="#m7c6e940a73" x="664.2" y="384.48" style="stroke: #000000; stroke-width: 0.8"/>
      </g>
     </g>
     <g id="text_19">
      <!-- 20 -->
      <g transform="translate(656.565 400.598125) scale(0.12 -0.12)">
       <use xlink:href="#DejaVuSans-32"/>
       <use xlink:href="#DejaVuSans-30" x="63.623047"/>
      </g>
     </g>
    </g>
    <g id="xtick_9">
     <g id="line2d_40">
      <path d="M 731.339037 384.48 
L 731.339037 51.84 
" clip-path="url(#p2811389b89)" style="fill: none; stroke: #b0b0b0; stroke-width: 0.8; stroke-linecap: square"/>
     </g>
     <g id="line2d_41">
      <g>
       <use xlink:href="#m7c6e940a73" x="731.339037" y="384.48" style="stroke: #000000; stroke-width: 0.8"/>
      </g>
     </g>
     <g id="text_20">
      <!-- 22 -->
      <g transform="translate(723.704037 400.598125) scale(0.12 -0.12)">
       <use xlink:href="#DejaVuSans-32"/>
       <use xlink:href="#DejaVuSans-32" x="63.623047"/>
      </g>
     </g>
    </g>
    <g id="xtick_10">
     <g id="line2d_42">
      <path d="M 798.478075 384.48 
L 798.478075 51.84 
" clip-path="url(#p2811389b89)" style="fill: none; stroke: #b0b0b0; stroke-width: 0.8; stroke-linecap: square"/>
     </g>
     <g id="line2d_43">
      <g>
       <use xlink:href="#m7c6e940a73" x="798.478075" y="384.48" style="stroke: #000000; stroke-width: 0.8"/>
      </g>
     </g>
     <g id="text_21">
      <!-- 24 -->
      <g transform="translate(790.843075 400.598125) scale(0.12 -0.12)">
       <use xlink:href="#DejaVuSans-32"/>
       <use xlink:href="#DejaVuSans-34" x="63.623047"/>
      </g>
     </g>
    </g>
    <g id="text_22">
     <!-- M -->
     <g transform="translate(656.434687 420.770938) scale(0.18 -0.18)">
      <use xlink:href="#DejaVuSans-4d"/>
     </g>
    </g>
   </g>
   <g id="matplotlib.axis_4">
    <g id="ytick_9">
     <g id="line2d_44">
      <path d="M 516.494118 371.997439 
L 811.905882 371.997439 
" clip-path="url(#p2811389b89)" style="fill: none; stroke: #b0b0b0; stroke-width: 0.8; stroke-linecap: square"/>
     </g>
     <g id="line2d_45">
      <g>
       <use xlink:href="#m495908e051" x="516.494118" y="371.997439" style="stroke: #000000; stroke-width: 0.8"/>
      </g>
     </g>
     <g id="text_23">
      <!-- 0 -->
      <g transform="translate(501.859118 376.556502) scale(0.12 -0.12)">
       <use xlink:href="#DejaVuSans-30"/>
      </g>
     </g>
    </g>
    <g id="ytick_10">
     <g id="line2d_46">
      <path d="M 516.494118 299.58832 
L 811.905882 299.58832 
" clip-path="url(#p2811389b89)" style="fill: none; stroke: #b0b0b0; stroke-width: 0.8; stroke-linecap: square"/>
     </g>
     <g id="line2d_47">
      <g>
       <use xlink:href="#m495908e051" x="516.494118" y="299.58832" style="stroke: #000000; stroke-width: 0.8"/>
      </g>
     </g>
     <g id="text_24">
      <!-- 10 -->
      <g transform="translate(494.224118 304.147382) scale(0.12 -0.12)">
       <use xlink:href="#DejaVuSans-31"/>
       <use xlink:href="#DejaVuSans-30" x="63.623047"/>
      </g>
     </g>
    </g>
    <g id="ytick_11">
     <g id="line2d_48">
      <path d="M 516.494118 227.1792 
L 811.905882 227.1792 
" clip-path="url(#p2811389b89)" style="fill: none; stroke: #b0b0b0; stroke-width: 0.8; stroke-linecap: square"/>
     </g>
     <g id="line2d_49">
      <g>
       <use xlink:href="#m495908e051" x="516.494118" y="227.1792" style="stroke: #000000; stroke-width: 0.8"/>
      </g>
     </g>
     <g id="text_25">
      <!-- 20 -->
      <g transform="translate(494.224118 231.738263) scale(0.12 -0.12)">
       <use xlink:href="#DejaVuSans-32"/>
       <use xlink:href="#DejaVuSans-30" x="63.623047"/>
      </g>
     </g>
    </g>
    <g id="ytick_12">
     <g id="line2d_50">
      <path d="M 516.494118 154.770081 
L 811.905882 154.770081 
" clip-path="url(#p2811389b89)" style="fill: none; stroke: #b0b0b0; stroke-width: 0.8; stroke-linecap: square"/>
     </g>
     <g id="line2d_51">
      <g>
       <use xlink:href="#m495908e051" x="516.494118" y="154.770081" style="stroke: #000000; stroke-width: 0.8"/>
      </g>
     </g>
     <g id="text_26">
      <!-- 30 -->
      <g transform="translate(494.224118 159.329144) scale(0.12 -0.12)">
       <use xlink:href="#DejaVuSans-33"/>
       <use xlink:href="#DejaVuSans-30" x="63.623047"/>
      </g>
     </g>
    </g>
    <g id="ytick_13">
     <g id="line2d_52">
      <path d="M 516.494118 82.360962 
L 811.905882 82.360962 
" clip-path="url(#p2811389b89)" style="fill: none; stroke: #b0b0b0; stroke-width: 0.8; stroke-linecap: square"/>
     </g>
     <g id="line2d_53">
      <g>
       <use xlink:href="#m495908e051" x="516.494118" y="82.360962" style="stroke: #000000; stroke-width: 0.8"/>
      </g>
     </g>
     <g id="text_27">
      <!-- 40 -->
      <g transform="translate(494.224118 86.920024) scale(0.12 -0.12)">
       <use xlink:href="#DejaVuSans-34"/>
       <use xlink:href="#DejaVuSans-30" x="63.623047"/>
      </g>
     </g>
    </g>
    <g id="text_28">
     <!-- Values -->
     <g transform="translate(486.48068 247.564687) rotate(-90) scale(0.18 -0.18)">
      <defs>
       <path id="DejaVuSans-56" d="M 1831 0 
L 50 4666 
L 709 4666 
L 2188 738 
L 3669 4666 
L 4325 4666 
L 2547 0 
L 1831 0 
z
" transform="scale(0.015625)"/>
       <path id="DejaVuSans-6c" d="M 603 4863 
L 1178 4863 
L 1178 0 
L 603 0 
L 603 4863 
z
" transform="scale(0.015625)"/>
       <path id="DejaVuSans-75" d="M 544 1381 
L 544 3500 
L 1119 3500 
L 1119 1403 
Q 1119 906 1312 657 
Q 1506 409 1894 409 
Q 2359 409 2629 706 
Q 2900 1003 2900 1516 
L 2900 3500 
L 3475 3500 
L 3475 0 
L 2900 0 
L 2900 538 
Q 2691 219 2414 64 
Q 2138 -91 1772 -91 
Q 1169 -91 856 284 
Q 544 659 544 1381 
z
M 1991 3584 
L 1991 3584 
z
" transform="scale(0.015625)"/>
       <path id="DejaVuSans-73" d="M 2834 3397 
L 2834 2853 
Q 2591 2978 2328 3040 
Q 2066 3103 1784 3103 
Q 1356 3103 1142 2972 
Q 928 2841 928 2578 
Q 928 2378 1081 2264 
Q 1234 2150 1697 2047 
L 1894 2003 
Q 2506 1872 2764 1633 
Q 3022 1394 3022 966 
Q 3022 478 2636 193 
Q 2250 -91 1575 -91 
Q 1294 -91 989 -36 
Q 684 19 347 128 
L 347 722 
Q 666 556 975 473 
Q 1284 391 1588 391 
Q 1994 391 2212 530 
Q 2431 669 2431 922 
Q 2431 1156 2273 1281 
Q 2116 1406 1581 1522 
L 1381 1569 
Q 847 1681 609 1914 
Q 372 2147 372 2553 
Q 372 3047 722 3315 
Q 1072 3584 1716 3584 
Q 2034 3584 2315 3537 
Q 2597 3491 2834 3397 
z
" transform="scale(0.015625)"/>
      </defs>
      <use xlink:href="#DejaVuSans-56"/>
      <use xlink:href="#DejaVuSans-61" x="60.658203"/>
      <use xlink:href="#DejaVuSans-6c" x="121.9375"/>
      <use xlink:href="#DejaVuSans-75" x="149.720703"/>
      <use xlink:href="#DejaVuSans-65" x="213.099609"/>
      <use xlink:href="#DejaVuSans-73" x="274.623047"/>
     </g>
    </g>
   </g>
   <g id="line2d_54">
    <defs>
     <path id="mfe6116aa3f" d="M 0 3 
C 0.795609 3 1.55874 2.683901 2.12132 2.12132 
C 2.683901 1.55874 3 0.795609 3 0 
C 3 -0.795609 2.683901 -1.55874 2.12132 -2.12132 
C 1.55874 -2.683901 0.795609 -3 0 -3 
C -0.795609 -3 -1.55874 -2.683901 -2.12132 -2.12132 
C -2.683901 -1.55874 -3 -0.795609 -3 0 
C -3 0.795609 -2.683901 1.55874 -2.12132 2.12132 
C -1.55874 2.683901 -0.795609 3 0 3 
z
" style="stroke: #bfbf00"/>
    </defs>
    <g clip-path="url(#p2811389b89)">
     <use xlink:href="#mfe6116aa3f" x="529.921925" y="260.877683" style="fill: #bfbf00; stroke: #bfbf00"/>
     <use xlink:href="#mfe6116aa3f" x="597.060963" y="294.935672" style="fill: #bfbf00; stroke: #bfbf00"/>
     <use xlink:href="#mfe6116aa3f" x="664.2" y="289.921426" style="fill: #bfbf00; stroke: #bfbf00"/>
     <use xlink:href="#mfe6116aa3f" x="731.339037" y="284.087913" style="fill: #bfbf00; stroke: #bfbf00"/>
     <use xlink:href="#mfe6116aa3f" x="798.478075" y="278.376753" style="fill: #bfbf00; stroke: #bfbf00"/>
    </g>
   </g>
   <g id="line2d_55">
    <defs>
     <path id="m957282cd14" d="M 0 3 
C 0.795609 3 1.55874 2.683901 2.12132 2.12132 
C 2.683901 1.55874 3 0.795609 3 0 
C 3 -0.795609 2.683901 -1.55874 2.12132 -2.12132 
C 1.55874 -2.683901 0.795609 -3 0 -3 
C -0.795609 -3 -1.55874 -2.683901 -2.12132 -2.12132 
C -2.683901 -1.55874 -3 -0.795609 -3 0 
C -3 0.795609 -2.683901 1.55874 -2.12132 2.12132 
C -1.55874 2.683901 -0.795609 3 0 3 
z
" style="stroke: #ff0000"/>
    </defs>
    <g clip-path="url(#p2811389b89)">
     <use xlink:href="#m957282cd14" x="529.921925" y="66.96" style="fill: #ff0000; stroke: #ff0000"/>
     <use xlink:href="#m957282cd14" x="597.060963" y="169.639238" style="fill: #ff0000; stroke: #ff0000"/>
     <use xlink:href="#m957282cd14" x="664.2" y="163.748061" style="fill: #ff0000; stroke: #ff0000"/>
     <use xlink:href="#m957282cd14" x="731.339037" y="157.933684" style="fill: #ff0000; stroke: #ff0000"/>
     <use xlink:href="#m957282cd14" x="798.478075" y="153.500326" style="fill: #ff0000; stroke: #ff0000"/>
    </g>
   </g>
   <g id="LineCollection_3">
    <path d="M 529.921925 369.36 
L 529.921925 369.359405 
" clip-path="url(#p2811389b89)" style="fill: none; stroke: #008000; stroke-width: 1.5"/>
    <path d="M 597.060963 369.240421 
L 597.060963 369.239509 
" clip-path="url(#p2811389b89)" style="fill: none; stroke: #008000; stroke-width: 1.5"/>
    <path d="M 664.2 369.144489 
L 664.2 369.14276 
" clip-path="url(#p2811389b89)" style="fill: none; stroke: #008000; stroke-width: 1.5"/>
    <path d="M 731.339037 369.024768 
L 731.339037 369.022863 
" clip-path="url(#p2811389b89)" style="fill: none; stroke: #008000; stroke-width: 1.5"/>
    <path d="M 798.478075 368.896508 
L 798.478075 368.893262 
" clip-path="url(#p2811389b89)" style="fill: none; stroke: #008000; stroke-width: 1.5"/>
   </g>
   <g id="line2d_56">
    <defs>
     <path id="m4184ecf156" d="M 5 0 
L -5 -0 
" style="stroke: #008000"/>
    </defs>
    <g clip-path="url(#p2811389b89)">
     <use xlink:href="#m4184ecf156" x="529.921925" y="369.36" style="fill: #008000; stroke: #008000"/>
     <use xlink:href="#m4184ecf156" x="597.060963" y="369.240421" style="fill: #008000; stroke: #008000"/>
     <use xlink:href="#m4184ecf156" x="664.2" y="369.144489" style="fill: #008000; stroke: #008000"/>
     <use xlink:href="#m4184ecf156" x="731.339037" y="369.024768" style="fill: #008000; stroke: #008000"/>
     <use xlink:href="#m4184ecf156" x="798.478075" y="368.896508" style="fill: #008000; stroke: #008000"/>
    </g>
   </g>
   <g id="line2d_57">
    <g clip-path="url(#p2811389b89)">
     <use xlink:href="#m4184ecf156" x="529.921925" y="369.359405" style="fill: #008000; stroke: #008000"/>
     <use xlink:href="#m4184ecf156" x="597.060963" y="369.239509" style="fill: #008000; stroke: #008000"/>
     <use xlink:href="#m4184ecf156" x="664.2" y="369.14276" style="fill: #008000; stroke: #008000"/>
     <use xlink:href="#m4184ecf156" x="731.339037" y="369.022863" style="fill: #008000; stroke: #008000"/>
     <use xlink:href="#m4184ecf156" x="798.478075" y="368.893262" style="fill: #008000; stroke: #008000"/>
    </g>
   </g>
   <g id="line2d_58">
    <path d="M 529.921925 369.359703 
L 597.060963 369.239965 
L 664.2 369.143624 
L 731.339037 369.023815 
L 798.478075 368.894885 
" clip-path="url(#p2811389b89)" style="fill: none; stroke: #008000; stroke-width: 1.5; stroke-linecap: square"/>
    <defs>
     <path id="m6c738bb8a1" d="M 0 3 
C 0.795609 3 1.55874 2.683901 2.12132 2.12132 
C 2.683901 1.55874 3 0.795609 3 0 
C 3 -0.795609 2.683901 -1.55874 2.12132 -2.12132 
C 1.55874 -2.683901 0.795609 -3 0 -3 
C -0.795609 -3 -1.55874 -2.683901 -2.12132 -2.12132 
C -2.683901 -1.55874 -3 -0.795609 -3 0 
C -3 0.795609 -2.683901 1.55874 -2.12132 2.12132 
C -1.55874 2.683901 -0.795609 3 0 3 
z
" style="stroke: #008000"/>
    </defs>
    <g clip-path="url(#p2811389b89)">
     <use xlink:href="#m6c738bb8a1" x="529.921925" y="369.359703" style="fill: #008000; stroke: #008000"/>
     <use xlink:href="#m6c738bb8a1" x="597.060963" y="369.239965" style="fill: #008000; stroke: #008000"/>
     <use xlink:href="#m6c738bb8a1" x="664.2" y="369.143624" style="fill: #008000; stroke: #008000"/>
     <use xlink:href="#m6c738bb8a1" x="731.339037" y="369.023815" style="fill: #008000; stroke: #008000"/>
     <use xlink:href="#m6c738bb8a1" x="798.478075" y="368.894885" style="fill: #008000; stroke: #008000"/>
    </g>
   </g>
   <g id="patch_9">
    <path d="M 516.494118 384.48 
L 516.494118 51.84 
" style="fill: none; stroke: #000000; stroke-width: 0.8; stroke-linejoin: miter; stroke-linecap: square"/>
   </g>
   <g id="patch_10">
    <path d="M 811.905882 384.48 
L 811.905882 51.84 
" style="fill: none; stroke: #000000; stroke-width: 0.8; stroke-linejoin: miter; stroke-linecap: square"/>
   </g>
   <g id="patch_11">
    <path d="M 516.494118 384.48 
L 811.905882 384.48 
" style="fill: none; stroke: #000000; stroke-width: 0.8; stroke-linejoin: miter; stroke-linecap: square"/>
   </g>
   <g id="patch_12">
    <path d="M 516.494118 51.84 
L 811.905882 51.84 
" style="fill: none; stroke: #000000; stroke-width: 0.8; stroke-linejoin: miter; stroke-linecap: square"/>
   </g>
   <g id="legend_2">
    <g id="patch_13">
     <path d="M 646.101507 114.28125 
L 803.505882 114.28125 
Q 805.905882 114.28125 805.905882 111.88125 
L 805.905882 60.24 
Q 805.905882 57.84 803.505882 57.84 
L 646.101507 57.84 
Q 643.701507 57.84 643.701507 60.24 
L 643.701507 111.88125 
Q 643.701507 114.28125 646.101507 114.28125 
z
" style="fill: #ffffff; opacity: 0.8; stroke: #cccccc; stroke-linejoin: miter"/>
    </g>
    <g id="line2d_59">
     <g>
      <use xlink:href="#mfe6116aa3f" x="660.501507" y="67.558125" style="fill: #bfbf00; stroke: #bfbf00"/>
     </g>
    </g>
    <g id="text_29">
     <!-- Mean Displacement -->
     <g transform="translate(682.101507 71.758125) scale(0.12 -0.12)">
      <defs>
       <path id="DejaVuSans-44" d="M 1259 4147 
L 1259 519 
L 2022 519 
Q 2988 519 3436 956 
Q 3884 1394 3884 2338 
Q 3884 3275 3436 3711 
Q 2988 4147 2022 4147 
L 1259 4147 
z
M 628 4666 
L 1925 4666 
Q 3281 4666 3915 4102 
Q 4550 3538 4550 2338 
Q 4550 1131 3912 565 
Q 3275 0 1925 0 
L 628 0 
L 628 4666 
z
" transform="scale(0.015625)"/>
       <path id="DejaVuSans-69" d="M 603 3500 
L 1178 3500 
L 1178 0 
L 603 0 
L 603 3500 
z
M 603 4863 
L 1178 4863 
L 1178 4134 
L 603 4134 
L 603 4863 
z
" transform="scale(0.015625)"/>
       <path id="DejaVuSans-70" d="M 1159 525 
L 1159 -1331 
L 581 -1331 
L 581 3500 
L 1159 3500 
L 1159 2969 
Q 1341 3281 1617 3432 
Q 1894 3584 2278 3584 
Q 2916 3584 3314 3078 
Q 3713 2572 3713 1747 
Q 3713 922 3314 415 
Q 2916 -91 2278 -91 
Q 1894 -91 1617 61 
Q 1341 213 1159 525 
z
M 3116 1747 
Q 3116 2381 2855 2742 
Q 2594 3103 2138 3103 
Q 1681 3103 1420 2742 
Q 1159 2381 1159 1747 
Q 1159 1113 1420 752 
Q 1681 391 2138 391 
Q 2594 391 2855 752 
Q 3116 1113 3116 1747 
z
" transform="scale(0.015625)"/>
       <path id="DejaVuSans-63" d="M 3122 3366 
L 3122 2828 
Q 2878 2963 2633 3030 
Q 2388 3097 2138 3097 
Q 1578 3097 1268 2742 
Q 959 2388 959 1747 
Q 959 1106 1268 751 
Q 1578 397 2138 397 
Q 2388 397 2633 464 
Q 2878 531 3122 666 
L 3122 134 
Q 2881 22 2623 -34 
Q 2366 -91 2075 -91 
Q 1284 -91 818 406 
Q 353 903 353 1747 
Q 353 2603 823 3093 
Q 1294 3584 2113 3584 
Q 2378 3584 2631 3529 
Q 2884 3475 3122 3366 
z
" transform="scale(0.015625)"/>
       <path id="DejaVuSans-6d" d="M 3328 2828 
Q 3544 3216 3844 3400 
Q 4144 3584 4550 3584 
Q 5097 3584 5394 3201 
Q 5691 2819 5691 2113 
L 5691 0 
L 5113 0 
L 5113 2094 
Q 5113 2597 4934 2840 
Q 4756 3084 4391 3084 
Q 3944 3084 3684 2787 
Q 3425 2491 3425 1978 
L 3425 0 
L 2847 0 
L 2847 2094 
Q 2847 2600 2669 2842 
Q 2491 3084 2119 3084 
Q 1678 3084 1418 2786 
Q 1159 2488 1159 1978 
L 1159 0 
L 581 0 
L 581 3500 
L 1159 3500 
L 1159 2956 
Q 1356 3278 1631 3431 
Q 1906 3584 2284 3584 
Q 2666 3584 2933 3390 
Q 3200 3197 3328 2828 
z
" transform="scale(0.015625)"/>
      </defs>
      <use xlink:href="#DejaVuSans-4d"/>
      <use xlink:href="#DejaVuSans-65" x="86.279297"/>
      <use xlink:href="#DejaVuSans-61" x="147.802734"/>
      <use xlink:href="#DejaVuSans-6e" x="209.082031"/>
      <use xlink:href="#DejaVuSans-20" x="272.460938"/>
      <use xlink:href="#DejaVuSans-44" x="304.248047"/>
      <use xlink:href="#DejaVuSans-69" x="381.25"/>
      <use xlink:href="#DejaVuSans-73" x="409.033203"/>
      <use xlink:href="#DejaVuSans-70" x="461.132812"/>
      <use xlink:href="#DejaVuSans-6c" x="524.609375"/>
      <use xlink:href="#DejaVuSans-61" x="552.392578"/>
      <use xlink:href="#DejaVuSans-63" x="613.671875"/>
      <use xlink:href="#DejaVuSans-65" x="668.652344"/>
      <use xlink:href="#DejaVuSans-6d" x="730.175781"/>
      <use xlink:href="#DejaVuSans-65" x="827.587891"/>
      <use xlink:href="#DejaVuSans-6e" x="889.111328"/>
      <use xlink:href="#DejaVuSans-74" x="952.490234"/>
     </g>
    </g>
    <g id="line2d_60">
     <g>
      <use xlink:href="#m957282cd14" x="660.501507" y="85.171875" style="fill: #ff0000; stroke: #ff0000"/>
     </g>
    </g>
    <g id="text_30">
     <!-- Ratio Disp/Sqz -->
     <g transform="translate(682.101507 89.371875) scale(0.12 -0.12)">
      <defs>
       <path id="DejaVuSans-52" d="M 2841 2188 
Q 3044 2119 3236 1894 
Q 3428 1669 3622 1275 
L 4263 0 
L 3584 0 
L 2988 1197 
Q 2756 1666 2539 1819 
Q 2322 1972 1947 1972 
L 1259 1972 
L 1259 0 
L 628 0 
L 628 4666 
L 2053 4666 
Q 2853 4666 3247 4331 
Q 3641 3997 3641 3322 
Q 3641 2881 3436 2590 
Q 3231 2300 2841 2188 
z
M 1259 4147 
L 1259 2491 
L 2053 2491 
Q 2509 2491 2742 2702 
Q 2975 2913 2975 3322 
Q 2975 3731 2742 3939 
Q 2509 4147 2053 4147 
L 1259 4147 
z
" transform="scale(0.015625)"/>
       <path id="DejaVuSans-6f" d="M 1959 3097 
Q 1497 3097 1228 2736 
Q 959 2375 959 1747 
Q 959 1119 1226 758 
Q 1494 397 1959 397 
Q 2419 397 2687 759 
Q 2956 1122 2956 1747 
Q 2956 2369 2687 2733 
Q 2419 3097 1959 3097 
z
M 1959 3584 
Q 2709 3584 3137 3096 
Q 3566 2609 3566 1747 
Q 3566 888 3137 398 
Q 2709 -91 1959 -91 
Q 1206 -91 779 398 
Q 353 888 353 1747 
Q 353 2609 779 3096 
Q 1206 3584 1959 3584 
z
" transform="scale(0.015625)"/>
       <path id="DejaVuSans-2f" d="M 1625 4666 
L 2156 4666 
L 531 -594 
L 0 -594 
L 1625 4666 
z
" transform="scale(0.015625)"/>
       <path id="DejaVuSans-53" d="M 3425 4513 
L 3425 3897 
Q 3066 4069 2747 4153 
Q 2428 4238 2131 4238 
Q 1616 4238 1336 4038 
Q 1056 3838 1056 3469 
Q 1056 3159 1242 3001 
Q 1428 2844 1947 2747 
L 2328 2669 
Q 3034 2534 3370 2195 
Q 3706 1856 3706 1288 
Q 3706 609 3251 259 
Q 2797 -91 1919 -91 
Q 1588 -91 1214 -16 
Q 841 59 441 206 
L 441 856 
Q 825 641 1194 531 
Q 1563 422 1919 422 
Q 2459 422 2753 634 
Q 3047 847 3047 1241 
Q 3047 1584 2836 1778 
Q 2625 1972 2144 2069 
L 1759 2144 
Q 1053 2284 737 2584 
Q 422 2884 422 3419 
Q 422 4038 858 4394 
Q 1294 4750 2059 4750 
Q 2388 4750 2728 4690 
Q 3069 4631 3425 4513 
z
" transform="scale(0.015625)"/>
       <path id="DejaVuSans-71" d="M 947 1747 
Q 947 1113 1208 752 
Q 1469 391 1925 391 
Q 2381 391 2643 752 
Q 2906 1113 2906 1747 
Q 2906 2381 2643 2742 
Q 2381 3103 1925 3103 
Q 1469 3103 1208 2742 
Q 947 2381 947 1747 
z
M 2906 525 
Q 2725 213 2448 61 
Q 2172 -91 1784 -91 
Q 1150 -91 751 415 
Q 353 922 353 1747 
Q 353 2572 751 3078 
Q 1150 3584 1784 3584 
Q 2172 3584 2448 3432 
Q 2725 3281 2906 2969 
L 2906 3500 
L 3481 3500 
L 3481 -1331 
L 2906 -1331 
L 2906 525 
z
" transform="scale(0.015625)"/>
       <path id="DejaVuSans-7a" d="M 353 3500 
L 3084 3500 
L 3084 2975 
L 922 459 
L 3084 459 
L 3084 0 
L 275 0 
L 275 525 
L 2438 3041 
L 353 3041 
L 353 3500 
z
" transform="scale(0.015625)"/>
      </defs>
      <use xlink:href="#DejaVuSans-52"/>
      <use xlink:href="#DejaVuSans-61" x="67.232422"/>
      <use xlink:href="#DejaVuSans-74" x="128.511719"/>
      <use xlink:href="#DejaVuSans-69" x="167.720703"/>
      <use xlink:href="#DejaVuSans-6f" x="195.503906"/>
      <use xlink:href="#DejaVuSans-20" x="256.685547"/>
      <use xlink:href="#DejaVuSans-44" x="288.472656"/>
      <use xlink:href="#DejaVuSans-69" x="365.474609"/>
      <use xlink:href="#DejaVuSans-73" x="393.257812"/>
      <use xlink:href="#DejaVuSans-70" x="445.357422"/>
      <use xlink:href="#DejaVuSans-2f" x="508.833984"/>
      <use xlink:href="#DejaVuSans-53" x="542.525391"/>
      <use xlink:href="#DejaVuSans-71" x="606.001953"/>
      <use xlink:href="#DejaVuSans-7a" x="669.478516"/>
     </g>
    </g>
    <g id="LineCollection_4">
     <path d="M 660.501507 108.785625 
L 660.501507 96.785625 
" style="fill: none; stroke: #008000; stroke-width: 1.5"/>
    </g>
    <g id="line2d_61">
     <g>
      <use xlink:href="#m4184ecf156" x="660.501507" y="108.785625" style="fill: #008000; stroke: #008000"/>
     </g>
    </g>
    <g id="line2d_62">
     <g>
      <use xlink:href="#m4184ecf156" x="660.501507" y="96.785625" style="fill: #008000; stroke: #008000"/>
     </g>
    </g>
    <g id="line2d_63">
     <path d="M 648.501507 102.785625 
L 672.501507 102.785625 
" style="fill: none; stroke: #008000; stroke-width: 1.5; stroke-linecap: square"/>
    </g>
    <g id="line2d_64">
     <g>
      <use xlink:href="#m6c738bb8a1" x="660.501507" y="102.785625" style="fill: #008000; stroke: #008000"/>
     </g>
    </g>
    <g id="text_31">
     <!-- Mean Squeezing -->
     <g transform="translate(682.101507 106.985625) scale(0.12 -0.12)">
      <use xlink:href="#DejaVuSans-4d"/>
      <use xlink:href="#DejaVuSans-65" x="86.279297"/>
      <use xlink:href="#DejaVuSans-61" x="147.802734"/>
      <use xlink:href="#DejaVuSans-6e" x="209.082031"/>
      <use xlink:href="#DejaVuSans-20" x="272.460938"/>
      <use xlink:href="#DejaVuSans-53" x="304.248047"/>
      <use xlink:href="#DejaVuSans-71" x="367.724609"/>
      <use xlink:href="#DejaVuSans-75" x="431.201172"/>
      <use xlink:href="#DejaVuSans-65" x="494.580078"/>
      <use xlink:href="#DejaVuSans-65" x="556.103516"/>
      <use xlink:href="#DejaVuSans-7a" x="617.626953"/>
      <use xlink:href="#DejaVuSans-69" x="670.117188"/>
      <use xlink:href="#DejaVuSans-6e" x="697.900391"/>
      <use xlink:href="#DejaVuSans-67" x="761.279297"/>
     </g>
    </g>
   </g>
  </g>
  <g id="axes_3">
   <g id="patch_14">
    <path d="M 870.988235 384.48 
L 1166.4 384.48 
L 1166.4 51.84 
L 870.988235 51.84 
z
" style="fill: #ffffff"/>
   </g>
   <g id="matplotlib.axis_5">
    <g id="xtick_11">
     <g id="line2d_65">
      <path d="M 884.416043 384.48 
L 884.416043 51.84 
" clip-path="url(#pda77c130c8)" style="fill: none; stroke: #b0b0b0; stroke-width: 0.8; stroke-linecap: square"/>
     </g>
     <g id="line2d_66">
      <g>
       <use xlink:href="#m7c6e940a73" x="884.416043" y="384.48" style="stroke: #000000; stroke-width: 0.8"/>
      </g>
     </g>
     <g id="text_32">
      <!-- 16 -->
      <g transform="translate(876.781043 400.598125) scale(0.12 -0.12)">
       <use xlink:href="#DejaVuSans-31"/>
       <use xlink:href="#DejaVuSans-36" x="63.623047"/>
      </g>
     </g>
    </g>
    <g id="xtick_12">
     <g id="line2d_67">
      <path d="M 951.55508 384.48 
L 951.55508 51.84 
" clip-path="url(#pda77c130c8)" style="fill: none; stroke: #b0b0b0; stroke-width: 0.8; stroke-linecap: square"/>
     </g>
     <g id="line2d_68">
      <g>
       <use xlink:href="#m7c6e940a73" x="951.55508" y="384.48" style="stroke: #000000; stroke-width: 0.8"/>
      </g>
     </g>
     <g id="text_33">
      <!-- 18 -->
      <g transform="translate(943.92008 400.598125) scale(0.12 -0.12)">
       <use xlink:href="#DejaVuSans-31"/>
       <use xlink:href="#DejaVuSans-38" x="63.623047"/>
      </g>
     </g>
    </g>
    <g id="xtick_13">
     <g id="line2d_69">
      <path d="M 1018.694118 384.48 
L 1018.694118 51.84 
" clip-path="url(#pda77c130c8)" style="fill: none; stroke: #b0b0b0; stroke-width: 0.8; stroke-linecap: square"/>
     </g>
     <g id="line2d_70">
      <g>
       <use xlink:href="#m7c6e940a73" x="1018.694118" y="384.48" style="stroke: #000000; stroke-width: 0.8"/>
      </g>
     </g>
     <g id="text_34">
      <!-- 20 -->
      <g transform="translate(1011.059118 400.598125) scale(0.12 -0.12)">
       <use xlink:href="#DejaVuSans-32"/>
       <use xlink:href="#DejaVuSans-30" x="63.623047"/>
      </g>
     </g>
    </g>
    <g id="xtick_14">
     <g id="line2d_71">
      <path d="M 1085.833155 384.48 
L 1085.833155 51.84 
" clip-path="url(#pda77c130c8)" style="fill: none; stroke: #b0b0b0; stroke-width: 0.8; stroke-linecap: square"/>
     </g>
     <g id="line2d_72">
      <g>
       <use xlink:href="#m7c6e940a73" x="1085.833155" y="384.48" style="stroke: #000000; stroke-width: 0.8"/>
      </g>
     </g>
     <g id="text_35">
      <!-- 22 -->
      <g transform="translate(1078.198155 400.598125) scale(0.12 -0.12)">
       <use xlink:href="#DejaVuSans-32"/>
       <use xlink:href="#DejaVuSans-32" x="63.623047"/>
      </g>
     </g>
    </g>
    <g id="xtick_15">
     <g id="line2d_73">
      <path d="M 1152.972193 384.48 
L 1152.972193 51.84 
" clip-path="url(#pda77c130c8)" style="fill: none; stroke: #b0b0b0; stroke-width: 0.8; stroke-linecap: square"/>
     </g>
     <g id="line2d_74">
      <g>
       <use xlink:href="#m7c6e940a73" x="1152.972193" y="384.48" style="stroke: #000000; stroke-width: 0.8"/>
      </g>
     </g>
     <g id="text_36">
      <!-- 24 -->
      <g transform="translate(1145.337193 400.598125) scale(0.12 -0.12)">
       <use xlink:href="#DejaVuSans-32"/>
       <use xlink:href="#DejaVuSans-34" x="63.623047"/>
      </g>
     </g>
    </g>
    <g id="text_37">
     <!-- M -->
     <g transform="translate(1010.928805 420.770938) scale(0.18 -0.18)">
      <use xlink:href="#DejaVuSans-4d"/>
     </g>
    </g>
   </g>
   <g id="matplotlib.axis_6">
    <g id="ytick_14">
     <g id="line2d_75">
      <path d="M 870.988235 377.073012 
L 1166.4 377.073012 
" clip-path="url(#pda77c130c8)" style="fill: none; stroke: #b0b0b0; stroke-width: 0.8; stroke-linecap: square"/>
     </g>
     <g id="line2d_76">
      <g>
       <use xlink:href="#m495908e051" x="870.988235" y="377.073012" style="stroke: #000000; stroke-width: 0.8"/>
      </g>
     </g>
     <g id="text_38">
      <!-- 0.38 -->
      <g transform="translate(837.269485 381.632075) scale(0.12 -0.12)">
       <defs>
        <path id="DejaVuSans-2e" d="M 684 794 
L 1344 794 
L 1344 0 
L 684 0 
L 684 794 
z
" transform="scale(0.015625)"/>
       </defs>
       <use xlink:href="#DejaVuSans-30"/>
       <use xlink:href="#DejaVuSans-2e" x="63.623047"/>
       <use xlink:href="#DejaVuSans-33" x="95.410156"/>
       <use xlink:href="#DejaVuSans-38" x="159.033203"/>
      </g>
     </g>
    </g>
    <g id="ytick_15">
     <g id="line2d_77">
      <path d="M 870.988235 327.47497 
L 1166.4 327.47497 
" clip-path="url(#pda77c130c8)" style="fill: none; stroke: #b0b0b0; stroke-width: 0.8; stroke-linecap: square"/>
     </g>
     <g id="line2d_78">
      <g>
       <use xlink:href="#m495908e051" x="870.988235" y="327.47497" style="stroke: #000000; stroke-width: 0.8"/>
      </g>
     </g>
     <g id="text_39">
      <!-- 0.40 -->
      <g transform="translate(837.269485 332.034033) scale(0.12 -0.12)">
       <use xlink:href="#DejaVuSans-30"/>
       <use xlink:href="#DejaVuSans-2e" x="63.623047"/>
       <use xlink:href="#DejaVuSans-34" x="95.410156"/>
       <use xlink:href="#DejaVuSans-30" x="159.033203"/>
      </g>
     </g>
    </g>
    <g id="ytick_16">
     <g id="line2d_79">
      <path d="M 870.988235 277.876928 
L 1166.4 277.876928 
" clip-path="url(#pda77c130c8)" style="fill: none; stroke: #b0b0b0; stroke-width: 0.8; stroke-linecap: square"/>
     </g>
     <g id="line2d_80">
      <g>
       <use xlink:href="#m495908e051" x="870.988235" y="277.876928" style="stroke: #000000; stroke-width: 0.8"/>
      </g>
     </g>
     <g id="text_40">
      <!-- 0.42 -->
      <g transform="translate(837.269485 282.43599) scale(0.12 -0.12)">
       <use xlink:href="#DejaVuSans-30"/>
       <use xlink:href="#DejaVuSans-2e" x="63.623047"/>
       <use xlink:href="#DejaVuSans-34" x="95.410156"/>
       <use xlink:href="#DejaVuSans-32" x="159.033203"/>
      </g>
     </g>
    </g>
    <g id="ytick_17">
     <g id="line2d_81">
      <path d="M 870.988235 228.278885 
L 1166.4 228.278885 
" clip-path="url(#pda77c130c8)" style="fill: none; stroke: #b0b0b0; stroke-width: 0.8; stroke-linecap: square"/>
     </g>
     <g id="line2d_82">
      <g>
       <use xlink:href="#m495908e051" x="870.988235" y="228.278885" style="stroke: #000000; stroke-width: 0.8"/>
      </g>
     </g>
     <g id="text_41">
      <!-- 0.44 -->
      <g transform="translate(837.269485 232.837948) scale(0.12 -0.12)">
       <use xlink:href="#DejaVuSans-30"/>
       <use xlink:href="#DejaVuSans-2e" x="63.623047"/>
       <use xlink:href="#DejaVuSans-34" x="95.410156"/>
       <use xlink:href="#DejaVuSans-34" x="159.033203"/>
      </g>
     </g>
    </g>
    <g id="ytick_18">
     <g id="line2d_83">
      <path d="M 870.988235 178.680843 
L 1166.4 178.680843 
" clip-path="url(#pda77c130c8)" style="fill: none; stroke: #b0b0b0; stroke-width: 0.8; stroke-linecap: square"/>
     </g>
     <g id="line2d_84">
      <g>
       <use xlink:href="#m495908e051" x="870.988235" y="178.680843" style="stroke: #000000; stroke-width: 0.8"/>
      </g>
     </g>
     <g id="text_42">
      <!-- 0.46 -->
      <g transform="translate(837.269485 183.239905) scale(0.12 -0.12)">
       <use xlink:href="#DejaVuSans-30"/>
       <use xlink:href="#DejaVuSans-2e" x="63.623047"/>
       <use xlink:href="#DejaVuSans-34" x="95.410156"/>
       <use xlink:href="#DejaVuSans-36" x="159.033203"/>
      </g>
     </g>
    </g>
    <g id="ytick_19">
     <g id="line2d_85">
      <path d="M 870.988235 129.082801 
L 1166.4 129.082801 
" clip-path="url(#pda77c130c8)" style="fill: none; stroke: #b0b0b0; stroke-width: 0.8; stroke-linecap: square"/>
     </g>
     <g id="line2d_86">
      <g>
       <use xlink:href="#m495908e051" x="870.988235" y="129.082801" style="stroke: #000000; stroke-width: 0.8"/>
      </g>
     </g>
     <g id="text_43">
      <!-- 0.48 -->
      <g transform="translate(837.269485 133.641863) scale(0.12 -0.12)">
       <use xlink:href="#DejaVuSans-30"/>
       <use xlink:href="#DejaVuSans-2e" x="63.623047"/>
       <use xlink:href="#DejaVuSans-34" x="95.410156"/>
       <use xlink:href="#DejaVuSans-38" x="159.033203"/>
      </g>
     </g>
    </g>
    <g id="ytick_20">
     <g id="line2d_87">
      <path d="M 870.988235 79.484758 
L 1166.4 79.484758 
" clip-path="url(#pda77c130c8)" style="fill: none; stroke: #b0b0b0; stroke-width: 0.8; stroke-linecap: square"/>
     </g>
     <g id="line2d_88">
      <g>
       <use xlink:href="#m495908e051" x="870.988235" y="79.484758" style="stroke: #000000; stroke-width: 0.8"/>
      </g>
     </g>
     <g id="text_44">
      <!-- 0.50 -->
      <g transform="translate(837.269485 84.043821) scale(0.12 -0.12)">
       <use xlink:href="#DejaVuSans-30"/>
       <use xlink:href="#DejaVuSans-2e" x="63.623047"/>
       <use xlink:href="#DejaVuSans-35" x="95.410156"/>
       <use xlink:href="#DejaVuSans-30" x="159.033203"/>
      </g>
     </g>
    </g>
    <g id="text_45">
     <!-- Average optimal gamma -->
     <g transform="translate(829.526048 329.148281) rotate(-90) scale(0.18 -0.18)">
      <defs>
       <path id="DejaVuSans-72" d="M 2631 2963 
Q 2534 3019 2420 3045 
Q 2306 3072 2169 3072 
Q 1681 3072 1420 2755 
Q 1159 2438 1159 1844 
L 1159 0 
L 581 0 
L 581 3500 
L 1159 3500 
L 1159 2956 
Q 1341 3275 1631 3429 
Q 1922 3584 2338 3584 
Q 2397 3584 2469 3576 
Q 2541 3569 2628 3553 
L 2631 2963 
z
" transform="scale(0.015625)"/>
      </defs>
      <use xlink:href="#DejaVuSans-41"/>
      <use xlink:href="#DejaVuSans-76" x="62.533203"/>
      <use xlink:href="#DejaVuSans-65" x="121.712891"/>
      <use xlink:href="#DejaVuSans-72" x="183.236328"/>
      <use xlink:href="#DejaVuSans-61" x="224.349609"/>
      <use xlink:href="#DejaVuSans-67" x="285.628906"/>
      <use xlink:href="#DejaVuSans-65" x="349.105469"/>
      <use xlink:href="#DejaVuSans-20" x="410.628906"/>
      <use xlink:href="#DejaVuSans-6f" x="442.416016"/>
      <use xlink:href="#DejaVuSans-70" x="503.597656"/>
      <use xlink:href="#DejaVuSans-74" x="567.074219"/>
      <use xlink:href="#DejaVuSans-69" x="606.283203"/>
      <use xlink:href="#DejaVuSans-6d" x="634.066406"/>
      <use xlink:href="#DejaVuSans-61" x="731.478516"/>
      <use xlink:href="#DejaVuSans-6c" x="792.757812"/>
      <use xlink:href="#DejaVuSans-20" x="820.541016"/>
      <use xlink:href="#DejaVuSans-67" x="852.328125"/>
      <use xlink:href="#DejaVuSans-61" x="915.804688"/>
      <use xlink:href="#DejaVuSans-6d" x="977.083984"/>
      <use xlink:href="#DejaVuSans-6d" x="1074.496094"/>
      <use xlink:href="#DejaVuSans-61" x="1171.908203"/>
     </g>
    </g>
   </g>
   <g id="LineCollection_5">
    <path d="M 884.416043 66.96 
L 884.416043 66.96 
" clip-path="url(#pda77c130c8)" style="fill: none; stroke: #ff0000; stroke-width: 1.5"/>
    <path d="M 951.55508 317.455164 
L 951.55508 317.455164 
" clip-path="url(#pda77c130c8)" style="fill: none; stroke: #ff0000; stroke-width: 1.5"/>
    <path d="M 1018.694118 317.455164 
L 1018.694118 317.455164 
" clip-path="url(#pda77c130c8)" style="fill: none; stroke: #ff0000; stroke-width: 1.5"/>
    <path d="M 1085.833155 317.455164 
L 1085.833155 317.455164 
" clip-path="url(#pda77c130c8)" style="fill: none; stroke: #ff0000; stroke-width: 1.5"/>
    <path d="M 1152.972193 317.455164 
L 1152.972193 317.455164 
" clip-path="url(#pda77c130c8)" style="fill: none; stroke: #ff0000; stroke-width: 1.5"/>
   </g>
   <g id="line2d_89">
    <defs>
     <path id="meebcb93ba4" d="M 5 0 
L -5 -0 
" style="stroke: #ff0000"/>
    </defs>
    <g clip-path="url(#pda77c130c8)">
     <use xlink:href="#meebcb93ba4" x="884.416043" y="66.96" style="fill: #ff0000; stroke: #ff0000"/>
     <use xlink:href="#meebcb93ba4" x="951.55508" y="317.455164" style="fill: #ff0000; stroke: #ff0000"/>
     <use xlink:href="#meebcb93ba4" x="1018.694118" y="317.455164" style="fill: #ff0000; stroke: #ff0000"/>
     <use xlink:href="#meebcb93ba4" x="1085.833155" y="317.455164" style="fill: #ff0000; stroke: #ff0000"/>
     <use xlink:href="#meebcb93ba4" x="1152.972193" y="317.455164" style="fill: #ff0000; stroke: #ff0000"/>
    </g>
   </g>
   <g id="line2d_90">
    <g clip-path="url(#pda77c130c8)">
     <use xlink:href="#meebcb93ba4" x="884.416043" y="66.96" style="fill: #ff0000; stroke: #ff0000"/>
     <use xlink:href="#meebcb93ba4" x="951.55508" y="317.455164" style="fill: #ff0000; stroke: #ff0000"/>
     <use xlink:href="#meebcb93ba4" x="1018.694118" y="317.455164" style="fill: #ff0000; stroke: #ff0000"/>
     <use xlink:href="#meebcb93ba4" x="1085.833155" y="317.455164" style="fill: #ff0000; stroke: #ff0000"/>
     <use xlink:href="#meebcb93ba4" x="1152.972193" y="317.455164" style="fill: #ff0000; stroke: #ff0000"/>
    </g>
   </g>
   <g id="line2d_91">
    <path d="M 884.416043 148.76045 
L 887.128731 151.793495 
L 889.84142 154.803538 
L 892.554108 157.790866 
L 895.266796 160.755763 
L 897.979485 163.698507 
L 900.692173 166.619371 
L 903.404861 169.518625 
L 906.11755 172.396532 
L 908.830238 175.253352 
L 911.542927 178.08934 
L 914.255615 180.904747 
L 916.968303 183.699821 
L 919.680992 186.474803 
L 922.39368 189.229932 
L 925.106368 191.965443 
L 927.819057 194.681567 
L 930.531745 197.378531 
L 933.244434 200.056557 
L 935.957122 202.715867 
L 938.66981 205.356676 
L 941.382499 207.979196 
L 944.095187 210.583637 
L 946.807876 213.170206 
L 949.520564 215.739104 
L 952.233252 218.290531 
L 954.945941 220.824684 
L 957.658629 223.341755 
L 960.371317 225.841936 
L 963.084006 228.325413 
L 965.796694 230.792371 
L 968.509383 233.242991 
L 971.222071 235.677453 
L 973.934759 238.095932 
L 976.647448 240.498602 
L 979.360136 242.885634 
L 982.072825 245.257195 
L 984.785513 247.613453 
L 987.498201 249.954569 
L 990.21089 252.280705 
L 992.923578 254.592019 
L 995.636266 256.888668 
L 998.348955 259.170805 
L 1001.061643 261.438582 
L 1003.774332 263.692147 
L 1006.48702 265.93165 
L 1009.199708 268.157233 
L 1011.912397 270.369042 
L 1014.625085 272.567215 
L 1017.337773 274.751893 
L 1020.050462 276.923213 
L 1022.76315 279.081309 
L 1025.475839 281.226315 
L 1028.188527 283.358361 
L 1030.901215 285.477579 
L 1033.613904 287.584094 
L 1036.326592 289.678033 
L 1039.039281 291.75952 
L 1041.751969 293.828677 
L 1044.464657 295.885626 
L 1047.177346 297.930486 
L 1049.890034 299.963373 
L 1052.602722 301.984404 
L 1055.315411 303.993693 
L 1058.028099 305.991354 
L 1060.740788 307.977496 
L 1063.453476 309.952231 
L 1066.166164 311.915666 
L 1068.878853 313.867909 
L 1071.591541 315.809065 
L 1074.304229 317.739237 
L 1077.016918 319.65853 
L 1079.729606 321.567044 
L 1082.442295 323.464879 
L 1085.154983 325.352134 
L 1087.867671 327.228908 
L 1090.58036 329.095295 
L 1093.293048 330.951392 
L 1096.005737 332.797291 
L 1098.718425 334.633086 
L 1101.431113 336.458869 
L 1104.143802 338.274728 
L 1106.85649 340.080755 
L 1109.569178 341.877036 
L 1112.281867 343.663659 
L 1114.994555 345.44071 
L 1117.707244 347.208273 
L 1120.419932 348.966433 
L 1123.13262 350.715272 
L 1125.845309 352.454871 
L 1128.557997 354.185312 
L 1131.270685 355.906674 
L 1133.983374 357.619037 
L 1136.696062 359.322477 
L 1139.408751 361.017072 
L 1142.121439 362.702899 
L 1144.834127 364.380031 
L 1147.546816 366.048543 
L 1150.259504 367.708509 
L 1152.972193 369.36 
" clip-path="url(#pda77c130c8)" style="fill: none; stroke-dasharray: 5.55,2.4; stroke-dashoffset: 0; stroke: #0000ff; stroke-width: 1.5"/>
   </g>
   <g id="line2d_92">
    <path d="M 884.416043 66.96 
L 951.55508 317.455164 
L 1018.694118 317.455164 
L 1085.833155 317.455164 
L 1152.972193 317.455164 
" clip-path="url(#pda77c130c8)" style="fill: none; stroke: #ff0000; stroke-width: 1.5; stroke-linecap: square"/>
    <g clip-path="url(#pda77c130c8)">
     <use xlink:href="#m957282cd14" x="884.416043" y="66.96" style="fill: #ff0000; stroke: #ff0000"/>
     <use xlink:href="#m957282cd14" x="951.55508" y="317.455164" style="fill: #ff0000; stroke: #ff0000"/>
     <use xlink:href="#m957282cd14" x="1018.694118" y="317.455164" style="fill: #ff0000; stroke: #ff0000"/>
     <use xlink:href="#m957282cd14" x="1085.833155" y="317.455164" style="fill: #ff0000; stroke: #ff0000"/>
     <use xlink:href="#m957282cd14" x="1152.972193" y="317.455164" style="fill: #ff0000; stroke: #ff0000"/>
    </g>
   </g>
   <g id="patch_15">
    <path d="M 870.988235 384.48 
L 870.988235 51.84 
" style="fill: none; stroke: #000000; stroke-width: 0.8; stroke-linejoin: miter; stroke-linecap: square"/>
   </g>
   <g id="patch_16">
    <path d="M 1166.4 384.48 
L 1166.4 51.84 
" style="fill: none; stroke: #000000; stroke-width: 0.8; stroke-linejoin: miter; stroke-linecap: square"/>
   </g>
   <g id="patch_17">
    <path d="M 870.988235 384.48 
L 1166.4 384.48 
" style="fill: none; stroke: #000000; stroke-width: 0.8; stroke-linejoin: miter; stroke-linecap: square"/>
   </g>
   <g id="patch_18">
    <path d="M 870.988235 51.84 
L 1166.4 51.84 
" style="fill: none; stroke: #000000; stroke-width: 0.8; stroke-linejoin: miter; stroke-linecap: square"/>
   </g>
   <g id="legend_3">
    <g id="patch_19">
     <path d="M 943.771875 96.6675 
L 1158 96.6675 
Q 1160.4 96.6675 1160.4 94.2675 
L 1160.4 60.24 
Q 1160.4 57.84 1158 57.84 
L 943.771875 57.84 
Q 941.371875 57.84 941.371875 60.24 
L 941.371875 94.2675 
Q 941.371875 96.6675 943.771875 96.6675 
z
" style="fill: #ffffff; opacity: 0.8; stroke: #cccccc; stroke-linejoin: miter"/>
    </g>
    <g id="line2d_93">
     <path d="M 946.171875 67.558125 
L 958.171875 67.558125 
L 970.171875 67.558125 
" style="fill: none; stroke-dasharray: 5.55,2.4; stroke-dashoffset: 0; stroke: #0000ff; stroke-width: 1.5"/>
    </g>
    <g id="text_46">
     <!-- Gamma Value -->
     <g transform="translate(979.771875 71.758125) scale(0.12 -0.12)">
      <defs>
       <path id="DejaVuSans-47" d="M 3809 666 
L 3809 1919 
L 2778 1919 
L 2778 2438 
L 4434 2438 
L 4434 434 
Q 4069 175 3628 42 
Q 3188 -91 2688 -91 
Q 1594 -91 976 548 
Q 359 1188 359 2328 
Q 359 3472 976 4111 
Q 1594 4750 2688 4750 
Q 3144 4750 3555 4637 
Q 3966 4525 4313 4306 
L 4313 3634 
Q 3963 3931 3569 4081 
Q 3175 4231 2741 4231 
Q 1884 4231 1454 3753 
Q 1025 3275 1025 2328 
Q 1025 1384 1454 906 
Q 1884 428 2741 428 
Q 3075 428 3337 486 
Q 3600 544 3809 666 
z
" transform="scale(0.015625)"/>
      </defs>
      <use xlink:href="#DejaVuSans-47"/>
      <use xlink:href="#DejaVuSans-61" x="77.490234"/>
      <use xlink:href="#DejaVuSans-6d" x="138.769531"/>
      <use xlink:href="#DejaVuSans-6d" x="236.181641"/>
      <use xlink:href="#DejaVuSans-61" x="333.59375"/>
      <use xlink:href="#DejaVuSans-20" x="394.873047"/>
      <use xlink:href="#DejaVuSans-56" x="426.660156"/>
      <use xlink:href="#DejaVuSans-61" x="487.318359"/>
      <use xlink:href="#DejaVuSans-6c" x="548.597656"/>
      <use xlink:href="#DejaVuSans-75" x="576.380859"/>
      <use xlink:href="#DejaVuSans-65" x="639.759766"/>
     </g>
    </g>
    <g id="LineCollection_6">
     <path d="M 958.171875 91.171875 
L 958.171875 79.171875 
" style="fill: none; stroke: #ff0000; stroke-width: 1.5"/>
    </g>
    <g id="line2d_94">
     <g>
      <use xlink:href="#meebcb93ba4" x="958.171875" y="91.171875" style="fill: #ff0000; stroke: #ff0000"/>
     </g>
    </g>
    <g id="line2d_95">
     <g>
      <use xlink:href="#meebcb93ba4" x="958.171875" y="79.171875" style="fill: #ff0000; stroke: #ff0000"/>
     </g>
    </g>
    <g id="line2d_96">
     <path d="M 946.171875 85.171875 
L 970.171875 85.171875 
" style="fill: none; stroke: #ff0000; stroke-width: 1.5; stroke-linecap: square"/>
    </g>
    <g id="line2d_97">
     <g>
      <use xlink:href="#m957282cd14" x="958.171875" y="85.171875" style="fill: #ff0000; stroke: #ff0000"/>
     </g>
    </g>
    <g id="text_47">
     <!-- Factor: 1.9682, Power-0.5150 -->
     <g transform="translate(979.771875 89.371875) scale(0.12 -0.12)">
      <defs>
       <path id="DejaVuSans-46" d="M 628 4666 
L 3309 4666 
L 3309 4134 
L 1259 4134 
L 1259 2759 
L 3109 2759 
L 3109 2228 
L 1259 2228 
L 1259 0 
L 628 0 
L 628 4666 
z
" transform="scale(0.015625)"/>
       <path id="DejaVuSans-3a" d="M 750 794 
L 1409 794 
L 1409 0 
L 750 0 
L 750 794 
z
M 750 3309 
L 1409 3309 
L 1409 2516 
L 750 2516 
L 750 3309 
z
" transform="scale(0.015625)"/>
       <path id="DejaVuSans-39" d="M 703 97 
L 703 672 
Q 941 559 1184 500 
Q 1428 441 1663 441 
Q 2288 441 2617 861 
Q 2947 1281 2994 2138 
Q 2813 1869 2534 1725 
Q 2256 1581 1919 1581 
Q 1219 1581 811 2004 
Q 403 2428 403 3163 
Q 403 3881 828 4315 
Q 1253 4750 1959 4750 
Q 2769 4750 3195 4129 
Q 3622 3509 3622 2328 
Q 3622 1225 3098 567 
Q 2575 -91 1691 -91 
Q 1453 -91 1209 -44 
Q 966 3 703 97 
z
M 1959 2075 
Q 2384 2075 2632 2365 
Q 2881 2656 2881 3163 
Q 2881 3666 2632 3958 
Q 2384 4250 1959 4250 
Q 1534 4250 1286 3958 
Q 1038 3666 1038 3163 
Q 1038 2656 1286 2365 
Q 1534 2075 1959 2075 
z
" transform="scale(0.015625)"/>
       <path id="DejaVuSans-2c" d="M 750 794 
L 1409 794 
L 1409 256 
L 897 -744 
L 494 -744 
L 750 256 
L 750 794 
z
" transform="scale(0.015625)"/>
       <path id="DejaVuSans-50" d="M 1259 4147 
L 1259 2394 
L 2053 2394 
Q 2494 2394 2734 2622 
Q 2975 2850 2975 3272 
Q 2975 3691 2734 3919 
Q 2494 4147 2053 4147 
L 1259 4147 
z
M 628 4666 
L 2053 4666 
Q 2838 4666 3239 4311 
Q 3641 3956 3641 3272 
Q 3641 2581 3239 2228 
Q 2838 1875 2053 1875 
L 1259 1875 
L 1259 0 
L 628 0 
L 628 4666 
z
" transform="scale(0.015625)"/>
       <path id="DejaVuSans-77" d="M 269 3500 
L 844 3500 
L 1563 769 
L 2278 3500 
L 2956 3500 
L 3675 769 
L 4391 3500 
L 4966 3500 
L 4050 0 
L 3372 0 
L 2619 2869 
L 1863 0 
L 1184 0 
L 269 3500 
z
" transform="scale(0.015625)"/>
       <path id="DejaVuSans-2d" d="M 313 2009 
L 1997 2009 
L 1997 1497 
L 313 1497 
L 313 2009 
z
" transform="scale(0.015625)"/>
      </defs>
      <use xlink:href="#DejaVuSans-46"/>
      <use xlink:href="#DejaVuSans-61" x="48.394531"/>
      <use xlink:href="#DejaVuSans-63" x="109.673828"/>
      <use xlink:href="#DejaVuSans-74" x="164.654297"/>
      <use xlink:href="#DejaVuSans-6f" x="203.863281"/>
      <use xlink:href="#DejaVuSans-72" x="265.044922"/>
      <use xlink:href="#DejaVuSans-3a" x="304.408203"/>
      <use xlink:href="#DejaVuSans-20" x="338.099609"/>
      <use xlink:href="#DejaVuSans-31" x="369.886719"/>
      <use xlink:href="#DejaVuSans-2e" x="433.509766"/>
      <use xlink:href="#DejaVuSans-39" x="465.296875"/>
      <use xlink:href="#DejaVuSans-36" x="528.919922"/>
      <use xlink:href="#DejaVuSans-38" x="592.542969"/>
      <use xlink:href="#DejaVuSans-32" x="656.166016"/>
      <use xlink:href="#DejaVuSans-2c" x="719.789062"/>
      <use xlink:href="#DejaVuSans-20" x="751.576172"/>
      <use xlink:href="#DejaVuSans-50" x="783.363281"/>
      <use xlink:href="#DejaVuSans-6f" x="840.041016"/>
      <use xlink:href="#DejaVuSans-77" x="901.222656"/>
      <use xlink:href="#DejaVuSans-65" x="983.009766"/>
      <use xlink:href="#DejaVuSans-72" x="1044.533203"/>
      <use xlink:href="#DejaVuSans-2d" x="1079.271484"/>
      <use xlink:href="#DejaVuSans-30" x="1115.355469"/>
      <use xlink:href="#DejaVuSans-2e" x="1178.978516"/>
      <use xlink:href="#DejaVuSans-35" x="1210.765625"/>
      <use xlink:href="#DejaVuSans-31" x="1274.388672"/>
      <use xlink:href="#DejaVuSans-35" x="1338.011719"/>
      <use xlink:href="#DejaVuSans-30" x="1401.634766"/>
     </g>
    </g>
   </g>
  </g>
  <g id="text_48">
   <!-- Results for c=0.50*c_max and 50 cliques -->
   <g transform="translate(401.0175 26.87625) scale(0.24 -0.24)">
    <defs>
     <path id="DejaVuSans-66" d="M 2375 4863 
L 2375 4384 
L 1825 4384 
Q 1516 4384 1395 4259 
Q 1275 4134 1275 3809 
L 1275 3500 
L 2222 3500 
L 2222 3053 
L 1275 3053 
L 1275 0 
L 697 0 
L 697 3053 
L 147 3053 
L 147 3500 
L 697 3500 
L 697 3744 
Q 697 4328 969 4595 
Q 1241 4863 1831 4863 
L 2375 4863 
z
" transform="scale(0.015625)"/>
     <path id="DejaVuSans-3d" d="M 678 2906 
L 4684 2906 
L 4684 2381 
L 678 2381 
L 678 2906 
z
M 678 1631 
L 4684 1631 
L 4684 1100 
L 678 1100 
L 678 1631 
z
" transform="scale(0.015625)"/>
     <path id="DejaVuSans-2a" d="M 3009 3897 
L 1888 3291 
L 3009 2681 
L 2828 2375 
L 1778 3009 
L 1778 1831 
L 1422 1831 
L 1422 3009 
L 372 2375 
L 191 2681 
L 1313 3291 
L 191 3897 
L 372 4206 
L 1422 3572 
L 1422 4750 
L 1778 4750 
L 1778 3572 
L 2828 4206 
L 3009 3897 
z
" transform="scale(0.015625)"/>
     <path id="DejaVuSans-5f" d="M 3263 -1063 
L 3263 -1509 
L -63 -1509 
L -63 -1063 
L 3263 -1063 
z
" transform="scale(0.015625)"/>
    </defs>
    <use xlink:href="#DejaVuSans-52"/>
    <use xlink:href="#DejaVuSans-65" x="64.982422"/>
    <use xlink:href="#DejaVuSans-73" x="126.505859"/>
    <use xlink:href="#DejaVuSans-75" x="178.605469"/>
    <use xlink:href="#DejaVuSans-6c" x="241.984375"/>
    <use xlink:href="#DejaVuSans-74" x="269.767578"/>
    <use xlink:href="#DejaVuSans-73" x="308.976562"/>
    <use xlink:href="#DejaVuSans-20" x="361.076172"/>
    <use xlink:href="#DejaVuSans-66" x="392.863281"/>
    <use xlink:href="#DejaVuSans-6f" x="428.068359"/>
    <use xlink:href="#DejaVuSans-72" x="489.25"/>
    <use xlink:href="#DejaVuSans-20" x="530.363281"/>
    <use xlink:href="#DejaVuSans-63" x="562.150391"/>
    <use xlink:href="#DejaVuSans-3d" x="617.130859"/>
    <use xlink:href="#DejaVuSans-30" x="700.919922"/>
    <use xlink:href="#DejaVuSans-2e" x="764.542969"/>
    <use xlink:href="#DejaVuSans-35" x="796.330078"/>
    <use xlink:href="#DejaVuSans-30" x="859.953125"/>
    <use xlink:href="#DejaVuSans-2a" x="923.576172"/>
    <use xlink:href="#DejaVuSans-63" x="973.576172"/>
    <use xlink:href="#DejaVuSans-5f" x="1028.556641"/>
    <use xlink:href="#DejaVuSans-6d" x="1078.556641"/>
    <use xlink:href="#DejaVuSans-61" x="1175.96875"/>
    <use xlink:href="#DejaVuSans-78" x="1237.248047"/>
    <use xlink:href="#DejaVuSans-20" x="1296.427734"/>
    <use xlink:href="#DejaVuSans-61" x="1328.214844"/>
    <use xlink:href="#DejaVuSans-6e" x="1389.494141"/>
    <use xlink:href="#DejaVuSans-64" x="1452.873047"/>
    <use xlink:href="#DejaVuSans-20" x="1516.349609"/>
    <use xlink:href="#DejaVuSans-35" x="1548.136719"/>
    <use xlink:href="#DejaVuSans-30" x="1611.759766"/>
    <use xlink:href="#DejaVuSans-20" x="1675.382812"/>
    <use xlink:href="#DejaVuSans-63" x="1707.169922"/>
    <use xlink:href="#DejaVuSans-6c" x="1762.150391"/>
    <use xlink:href="#DejaVuSans-69" x="1789.933594"/>
    <use xlink:href="#DejaVuSans-71" x="1817.716797"/>
    <use xlink:href="#DejaVuSans-75" x="1881.193359"/>
    <use xlink:href="#DejaVuSans-65" x="1944.572266"/>
    <use xlink:href="#DejaVuSans-73" x="2006.095703"/>
   </g>
  </g>
 </g>
 <defs>
  <clipPath id="p3ecb9695bc">
   <rect x="162" y="51.84" width="295.411765" height="332.64"/>
  </clipPath>
  <clipPath id="p2811389b89">
   <rect x="516.494118" y="51.84" width="295.411765" height="332.64"/>
  </clipPath>
  <clipPath id="pda77c130c8">
   <rect x="870.988235" y="51.84" width="295.411765" height="332.64"/>
  </clipPath>
 </defs>
</svg>
