<?xml version="1.0" encoding="utf-8" standalone="no"?>
<!DOCTYPE svg PUBLIC "-//W3C//DTD SVG 1.1//EN"
  "http://www.w3.org/Graphics/SVG/1.1/DTD/svg11.dtd">
<svg xmlns:xlink="http://www.w3.org/1999/xlink" width="1440pt" height="864pt" viewBox="0 0 1440 864" xmlns="http://www.w3.org/2000/svg" version="1.1">
 <metadata>
  <rdf:RDF xmlns:dc="http://purl.org/dc/elements/1.1/" xmlns:cc="http://creativecommons.org/ns#" xmlns:rdf="http://www.w3.org/1999/02/22-rdf-syntax-ns#">
   <cc:Work>
    <dc:type rdf:resource="http://purl.org/dc/dcmitype/StillImage"/>
    <dc:date>2025-04-08T19:18:25.180692</dc:date>
    <dc:format>image/svg+xml</dc:format>
    <dc:creator>
     <cc:Agent>
      <dc:title>Matplotlib v3.9.4, https://matplotlib.org/</dc:title>
     </cc:Agent>
    </dc:creator>
   </cc:Work>
  </rdf:RDF>
 </metadata>
 <defs>
  <style type="text/css">*{stroke-linejoin: round; stroke-linecap: butt}</style>
 </defs>
 <g id="figure_1">
  <g id="patch_1">
   <path d="M 0 864 
L 1440 864 
L 1440 0 
L 0 0 
z
" style="fill: #ffffff"/>
  </g>
  <g id="axes_1">
   <g id="patch_2">
    <path d="M 180 768.96 
L 1296 768.96 
L 1296 103.68 
L 180 103.68 
z
" style="fill: #ffffff"/>
   </g>
   <g id="matplotlib.axis_1">
    <g id="xtick_1">
     <g id="line2d_1">
      <path d="M 230.727273 768.96 
L 230.727273 103.68 
" clip-path="url(#p30f87d391a)" style="fill: none; stroke: #b0b0b0; stroke-width: 0.8; stroke-linecap: square"/>
     </g>
     <g id="line2d_2">
      <defs>
       <path id="m52e62abcaf" d="M 0 0 
L 0 3.5 
" style="stroke: #000000; stroke-width: 0.8"/>
      </defs>
      <g>
       <use xlink:href="#m52e62abcaf" x="230.727273" y="768.96" style="stroke: #000000; stroke-width: 0.8"/>
      </g>
     </g>
     <g id="text_1">
      <!-- 0.0 -->
      <g transform="translate(205.282273 800.275) scale(0.32 -0.32)">
       <defs>
        <path id="DejaVuSans-30" d="M 2034 4250 
Q 1547 4250 1301 3770 
Q 1056 3291 1056 2328 
Q 1056 1369 1301 889 
Q 1547 409 2034 409 
Q 2525 409 2770 889 
Q 3016 1369 3016 2328 
Q 3016 3291 2770 3770 
Q 2525 4250 2034 4250 
z
M 2034 4750 
Q 2819 4750 3233 4129 
Q 3647 3509 3647 2328 
Q 3647 1150 3233 529 
Q 2819 -91 2034 -91 
Q 1250 -91 836 529 
Q 422 1150 422 2328 
Q 422 3509 836 4129 
Q 1250 4750 2034 4750 
z
" transform="scale(0.015625)"/>
        <path id="DejaVuSans-2e" d="M 684 794 
L 1344 794 
L 1344 0 
L 684 0 
L 684 794 
z
" transform="scale(0.015625)"/>
       </defs>
       <use xlink:href="#DejaVuSans-30"/>
       <use xlink:href="#DejaVuSans-2e" x="63.623047"/>
       <use xlink:href="#DejaVuSans-30" x="95.410156"/>
      </g>
     </g>
    </g>
    <g id="xtick_2">
     <g id="line2d_3">
      <path d="M 433.636364 768.96 
L 433.636364 103.68 
" clip-path="url(#p30f87d391a)" style="fill: none; stroke: #b0b0b0; stroke-width: 0.8; stroke-linecap: square"/>
     </g>
     <g id="line2d_4">
      <g>
       <use xlink:href="#m52e62abcaf" x="433.636364" y="768.96" style="stroke: #000000; stroke-width: 0.8"/>
      </g>
     </g>
     <g id="text_2">
      <!-- 0.2 -->
      <g transform="translate(408.191364 800.275) scale(0.32 -0.32)">
       <defs>
        <path id="DejaVuSans-32" d="M 1228 531 
L 3431 531 
L 3431 0 
L 469 0 
L 469 531 
Q 828 903 1448 1529 
Q 2069 2156 2228 2338 
Q 2531 2678 2651 2914 
Q 2772 3150 2772 3378 
Q 2772 3750 2511 3984 
Q 2250 4219 1831 4219 
Q 1534 4219 1204 4116 
Q 875 4013 500 3803 
L 500 4441 
Q 881 4594 1212 4672 
Q 1544 4750 1819 4750 
Q 2544 4750 2975 4387 
Q 3406 4025 3406 3419 
Q 3406 3131 3298 2873 
Q 3191 2616 2906 2266 
Q 2828 2175 2409 1742 
Q 1991 1309 1228 531 
z
" transform="scale(0.015625)"/>
       </defs>
       <use xlink:href="#DejaVuSans-30"/>
       <use xlink:href="#DejaVuSans-2e" x="63.623047"/>
       <use xlink:href="#DejaVuSans-32" x="95.410156"/>
      </g>
     </g>
    </g>
    <g id="xtick_3">
     <g id="line2d_5">
      <path d="M 636.545455 768.96 
L 636.545455 103.68 
" clip-path="url(#p30f87d391a)" style="fill: none; stroke: #b0b0b0; stroke-width: 0.8; stroke-linecap: square"/>
     </g>
     <g id="line2d_6">
      <g>
       <use xlink:href="#m52e62abcaf" x="636.545455" y="768.96" style="stroke: #000000; stroke-width: 0.8"/>
      </g>
     </g>
     <g id="text_3">
      <!-- 0.4 -->
      <g transform="translate(611.100455 800.275) scale(0.32 -0.32)">
       <defs>
        <path id="DejaVuSans-34" d="M 2419 4116 
L 825 1625 
L 2419 1625 
L 2419 4116 
z
M 2253 4666 
L 3047 4666 
L 3047 1625 
L 3713 1625 
L 3713 1100 
L 3047 1100 
L 3047 0 
L 2419 0 
L 2419 1100 
L 313 1100 
L 313 1709 
L 2253 4666 
z
" transform="scale(0.015625)"/>
       </defs>
       <use xlink:href="#DejaVuSans-30"/>
       <use xlink:href="#DejaVuSans-2e" x="63.623047"/>
       <use xlink:href="#DejaVuSans-34" x="95.410156"/>
      </g>
     </g>
    </g>
    <g id="xtick_4">
     <g id="line2d_7">
      <path d="M 839.454545 768.96 
L 839.454545 103.68 
" clip-path="url(#p30f87d391a)" style="fill: none; stroke: #b0b0b0; stroke-width: 0.8; stroke-linecap: square"/>
     </g>
     <g id="line2d_8">
      <g>
       <use xlink:href="#m52e62abcaf" x="839.454545" y="768.96" style="stroke: #000000; stroke-width: 0.8"/>
      </g>
     </g>
     <g id="text_4">
      <!-- 0.6 -->
      <g transform="translate(814.009545 800.275) scale(0.32 -0.32)">
       <defs>
        <path id="DejaVuSans-36" d="M 2113 2584 
Q 1688 2584 1439 2293 
Q 1191 2003 1191 1497 
Q 1191 994 1439 701 
Q 1688 409 2113 409 
Q 2538 409 2786 701 
Q 3034 994 3034 1497 
Q 3034 2003 2786 2293 
Q 2538 2584 2113 2584 
z
M 3366 4563 
L 3366 3988 
Q 3128 4100 2886 4159 
Q 2644 4219 2406 4219 
Q 1781 4219 1451 3797 
Q 1122 3375 1075 2522 
Q 1259 2794 1537 2939 
Q 1816 3084 2150 3084 
Q 2853 3084 3261 2657 
Q 3669 2231 3669 1497 
Q 3669 778 3244 343 
Q 2819 -91 2113 -91 
Q 1303 -91 875 529 
Q 447 1150 447 2328 
Q 447 3434 972 4092 
Q 1497 4750 2381 4750 
Q 2619 4750 2861 4703 
Q 3103 4656 3366 4563 
z
" transform="scale(0.015625)"/>
       </defs>
       <use xlink:href="#DejaVuSans-30"/>
       <use xlink:href="#DejaVuSans-2e" x="63.623047"/>
       <use xlink:href="#DejaVuSans-36" x="95.410156"/>
      </g>
     </g>
    </g>
    <g id="xtick_5">
     <g id="line2d_9">
      <path d="M 1042.363636 768.96 
L 1042.363636 103.68 
" clip-path="url(#p30f87d391a)" style="fill: none; stroke: #b0b0b0; stroke-width: 0.8; stroke-linecap: square"/>
     </g>
     <g id="line2d_10">
      <g>
       <use xlink:href="#m52e62abcaf" x="1042.363636" y="768.96" style="stroke: #000000; stroke-width: 0.8"/>
      </g>
     </g>
     <g id="text_5">
      <!-- 0.8 -->
      <g transform="translate(1016.918636 800.275) scale(0.32 -0.32)">
       <defs>
        <path id="DejaVuSans-38" d="M 2034 2216 
Q 1584 2216 1326 1975 
Q 1069 1734 1069 1313 
Q 1069 891 1326 650 
Q 1584 409 2034 409 
Q 2484 409 2743 651 
Q 3003 894 3003 1313 
Q 3003 1734 2745 1975 
Q 2488 2216 2034 2216 
z
M 1403 2484 
Q 997 2584 770 2862 
Q 544 3141 544 3541 
Q 544 4100 942 4425 
Q 1341 4750 2034 4750 
Q 2731 4750 3128 4425 
Q 3525 4100 3525 3541 
Q 3525 3141 3298 2862 
Q 3072 2584 2669 2484 
Q 3125 2378 3379 2068 
Q 3634 1759 3634 1313 
Q 3634 634 3220 271 
Q 2806 -91 2034 -91 
Q 1263 -91 848 271 
Q 434 634 434 1313 
Q 434 1759 690 2068 
Q 947 2378 1403 2484 
z
M 1172 3481 
Q 1172 3119 1398 2916 
Q 1625 2713 2034 2713 
Q 2441 2713 2670 2916 
Q 2900 3119 2900 3481 
Q 2900 3844 2670 4047 
Q 2441 4250 2034 4250 
Q 1625 4250 1398 4047 
Q 1172 3844 1172 3481 
z
" transform="scale(0.015625)"/>
       </defs>
       <use xlink:href="#DejaVuSans-30"/>
       <use xlink:href="#DejaVuSans-2e" x="63.623047"/>
       <use xlink:href="#DejaVuSans-38" x="95.410156"/>
      </g>
     </g>
    </g>
    <g id="xtick_6">
     <g id="line2d_11">
      <path d="M 1245.272727 768.96 
L 1245.272727 103.68 
" clip-path="url(#p30f87d391a)" style="fill: none; stroke: #b0b0b0; stroke-width: 0.8; stroke-linecap: square"/>
     </g>
     <g id="line2d_12">
      <g>
       <use xlink:href="#m52e62abcaf" x="1245.272727" y="768.96" style="stroke: #000000; stroke-width: 0.8"/>
      </g>
     </g>
     <g id="text_6">
      <!-- 1.0 -->
      <g transform="translate(1219.827727 800.275) scale(0.32 -0.32)">
       <defs>
        <path id="DejaVuSans-31" d="M 794 531 
L 1825 531 
L 1825 4091 
L 703 3866 
L 703 4441 
L 1819 4666 
L 2450 4666 
L 2450 531 
L 3481 531 
L 3481 0 
L 794 0 
L 794 531 
z
" transform="scale(0.015625)"/>
       </defs>
       <use xlink:href="#DejaVuSans-31"/>
       <use xlink:href="#DejaVuSans-2e" x="63.623047"/>
       <use xlink:href="#DejaVuSans-30" x="95.410156"/>
      </g>
     </g>
    </g>
    <g id="text_7">
     <!-- Loss -->
     <g transform="translate(702.905 835.245) scale(0.32 -0.32)">
      <defs>
       <path id="DejaVuSans-4c" d="M 628 4666 
L 1259 4666 
L 1259 531 
L 3531 531 
L 3531 0 
L 628 0 
L 628 4666 
z
" transform="scale(0.015625)"/>
       <path id="DejaVuSans-6f" d="M 1959 3097 
Q 1497 3097 1228 2736 
Q 959 2375 959 1747 
Q 959 1119 1226 758 
Q 1494 397 1959 397 
Q 2419 397 2687 759 
Q 2956 1122 2956 1747 
Q 2956 2369 2687 2733 
Q 2419 3097 1959 3097 
z
M 1959 3584 
Q 2709 3584 3137 3096 
Q 3566 2609 3566 1747 
Q 3566 888 3137 398 
Q 2709 -91 1959 -91 
Q 1206 -91 779 398 
Q 353 888 353 1747 
Q 353 2609 779 3096 
Q 1206 3584 1959 3584 
z
" transform="scale(0.015625)"/>
       <path id="DejaVuSans-73" d="M 2834 3397 
L 2834 2853 
Q 2591 2978 2328 3040 
Q 2066 3103 1784 3103 
Q 1356 3103 1142 2972 
Q 928 2841 928 2578 
Q 928 2378 1081 2264 
Q 1234 2150 1697 2047 
L 1894 2003 
Q 2506 1872 2764 1633 
Q 3022 1394 3022 966 
Q 3022 478 2636 193 
Q 2250 -91 1575 -91 
Q 1294 -91 989 -36 
Q 684 19 347 128 
L 347 722 
Q 666 556 975 473 
Q 1284 391 1588 391 
Q 1994 391 2212 530 
Q 2431 669 2431 922 
Q 2431 1156 2273 1281 
Q 2116 1406 1581 1522 
L 1381 1569 
Q 847 1681 609 1914 
Q 372 2147 372 2553 
Q 372 3047 722 3315 
Q 1072 3584 1716 3584 
Q 2034 3584 2315 3537 
Q 2597 3491 2834 3397 
z
" transform="scale(0.015625)"/>
      </defs>
      <use xlink:href="#DejaVuSans-4c"/>
      <use xlink:href="#DejaVuSans-6f" x="53.962891"/>
      <use xlink:href="#DejaVuSans-73" x="115.144531"/>
      <use xlink:href="#DejaVuSans-73" x="167.244141"/>
     </g>
    </g>
   </g>
   <g id="matplotlib.axis_2">
    <g id="ytick_1">
     <g id="line2d_13">
      <path d="M 180 738.72 
L 1296 738.72 
" clip-path="url(#p30f87d391a)" style="fill: none; stroke: #b0b0b0; stroke-width: 0.8; stroke-linecap: square"/>
     </g>
     <g id="line2d_14">
      <defs>
       <path id="m452580d165" d="M 0 0 
L -3.5 0 
" style="stroke: #000000; stroke-width: 0.8"/>
      </defs>
      <g>
       <use xlink:href="#m452580d165" x="180" y="738.72" style="stroke: #000000; stroke-width: 0.8"/>
      </g>
     </g>
     <g id="text_8">
      <!-- 0.000 -->
      <g transform="translate(81.39 750.8775) scale(0.32 -0.32)">
       <use xlink:href="#DejaVuSans-30"/>
       <use xlink:href="#DejaVuSans-2e" x="63.623047"/>
       <use xlink:href="#DejaVuSans-30" x="95.410156"/>
       <use xlink:href="#DejaVuSans-30" x="159.033203"/>
       <use xlink:href="#DejaVuSans-30" x="222.65625"/>
      </g>
     </g>
    </g>
    <g id="ytick_2">
     <g id="line2d_15">
      <path d="M 180 644.075539 
L 1296 644.075539 
" clip-path="url(#p30f87d391a)" style="fill: none; stroke: #b0b0b0; stroke-width: 0.8; stroke-linecap: square"/>
     </g>
     <g id="line2d_16">
      <g>
       <use xlink:href="#m452580d165" x="180" y="644.075539" style="stroke: #000000; stroke-width: 0.8"/>
      </g>
     </g>
     <g id="text_9">
      <!-- 0.001 -->
      <g transform="translate(81.39 656.233039) scale(0.32 -0.32)">
       <use xlink:href="#DejaVuSans-30"/>
       <use xlink:href="#DejaVuSans-2e" x="63.623047"/>
       <use xlink:href="#DejaVuSans-30" x="95.410156"/>
       <use xlink:href="#DejaVuSans-30" x="159.033203"/>
       <use xlink:href="#DejaVuSans-31" x="222.65625"/>
      </g>
     </g>
    </g>
    <g id="ytick_3">
     <g id="line2d_17">
      <path d="M 180 549.431078 
L 1296 549.431078 
" clip-path="url(#p30f87d391a)" style="fill: none; stroke: #b0b0b0; stroke-width: 0.8; stroke-linecap: square"/>
     </g>
     <g id="line2d_18">
      <g>
       <use xlink:href="#m452580d165" x="180" y="549.431078" style="stroke: #000000; stroke-width: 0.8"/>
      </g>
     </g>
     <g id="text_10">
      <!-- 0.002 -->
      <g transform="translate(81.39 561.588578) scale(0.32 -0.32)">
       <use xlink:href="#DejaVuSans-30"/>
       <use xlink:href="#DejaVuSans-2e" x="63.623047"/>
       <use xlink:href="#DejaVuSans-30" x="95.410156"/>
       <use xlink:href="#DejaVuSans-30" x="159.033203"/>
       <use xlink:href="#DejaVuSans-32" x="222.65625"/>
      </g>
     </g>
    </g>
    <g id="ytick_4">
     <g id="line2d_19">
      <path d="M 180 454.786617 
L 1296 454.786617 
" clip-path="url(#p30f87d391a)" style="fill: none; stroke: #b0b0b0; stroke-width: 0.8; stroke-linecap: square"/>
     </g>
     <g id="line2d_20">
      <g>
       <use xlink:href="#m452580d165" x="180" y="454.786617" style="stroke: #000000; stroke-width: 0.8"/>
      </g>
     </g>
     <g id="text_11">
      <!-- 0.003 -->
      <g transform="translate(81.39 466.944117) scale(0.32 -0.32)">
       <defs>
        <path id="DejaVuSans-33" d="M 2597 2516 
Q 3050 2419 3304 2112 
Q 3559 1806 3559 1356 
Q 3559 666 3084 287 
Q 2609 -91 1734 -91 
Q 1441 -91 1130 -33 
Q 819 25 488 141 
L 488 750 
Q 750 597 1062 519 
Q 1375 441 1716 441 
Q 2309 441 2620 675 
Q 2931 909 2931 1356 
Q 2931 1769 2642 2001 
Q 2353 2234 1838 2234 
L 1294 2234 
L 1294 2753 
L 1863 2753 
Q 2328 2753 2575 2939 
Q 2822 3125 2822 3475 
Q 2822 3834 2567 4026 
Q 2313 4219 1838 4219 
Q 1578 4219 1281 4162 
Q 984 4106 628 3988 
L 628 4550 
Q 988 4650 1302 4700 
Q 1616 4750 1894 4750 
Q 2613 4750 3031 4423 
Q 3450 4097 3450 3541 
Q 3450 3153 3228 2886 
Q 3006 2619 2597 2516 
z
" transform="scale(0.015625)"/>
       </defs>
       <use xlink:href="#DejaVuSans-30"/>
       <use xlink:href="#DejaVuSans-2e" x="63.623047"/>
       <use xlink:href="#DejaVuSans-30" x="95.410156"/>
       <use xlink:href="#DejaVuSans-30" x="159.033203"/>
       <use xlink:href="#DejaVuSans-33" x="222.65625"/>
      </g>
     </g>
    </g>
    <g id="ytick_5">
     <g id="line2d_21">
      <path d="M 180 360.142156 
L 1296 360.142156 
" clip-path="url(#p30f87d391a)" style="fill: none; stroke: #b0b0b0; stroke-width: 0.8; stroke-linecap: square"/>
     </g>
     <g id="line2d_22">
      <g>
       <use xlink:href="#m452580d165" x="180" y="360.142156" style="stroke: #000000; stroke-width: 0.8"/>
      </g>
     </g>
     <g id="text_12">
      <!-- 0.004 -->
      <g transform="translate(81.39 372.299656) scale(0.32 -0.32)">
       <use xlink:href="#DejaVuSans-30"/>
       <use xlink:href="#DejaVuSans-2e" x="63.623047"/>
       <use xlink:href="#DejaVuSans-30" x="95.410156"/>
       <use xlink:href="#DejaVuSans-30" x="159.033203"/>
       <use xlink:href="#DejaVuSans-34" x="222.65625"/>
      </g>
     </g>
    </g>
    <g id="ytick_6">
     <g id="line2d_23">
      <path d="M 180 265.497695 
L 1296 265.497695 
" clip-path="url(#p30f87d391a)" style="fill: none; stroke: #b0b0b0; stroke-width: 0.8; stroke-linecap: square"/>
     </g>
     <g id="line2d_24">
      <g>
       <use xlink:href="#m452580d165" x="180" y="265.497695" style="stroke: #000000; stroke-width: 0.8"/>
      </g>
     </g>
     <g id="text_13">
      <!-- 0.005 -->
      <g transform="translate(81.39 277.655195) scale(0.32 -0.32)">
       <defs>
        <path id="DejaVuSans-35" d="M 691 4666 
L 3169 4666 
L 3169 4134 
L 1269 4134 
L 1269 2991 
Q 1406 3038 1543 3061 
Q 1681 3084 1819 3084 
Q 2600 3084 3056 2656 
Q 3513 2228 3513 1497 
Q 3513 744 3044 326 
Q 2575 -91 1722 -91 
Q 1428 -91 1123 -41 
Q 819 9 494 109 
L 494 744 
Q 775 591 1075 516 
Q 1375 441 1709 441 
Q 2250 441 2565 725 
Q 2881 1009 2881 1497 
Q 2881 1984 2565 2268 
Q 2250 2553 1709 2553 
Q 1456 2553 1204 2497 
Q 953 2441 691 2322 
L 691 4666 
z
" transform="scale(0.015625)"/>
       </defs>
       <use xlink:href="#DejaVuSans-30"/>
       <use xlink:href="#DejaVuSans-2e" x="63.623047"/>
       <use xlink:href="#DejaVuSans-30" x="95.410156"/>
       <use xlink:href="#DejaVuSans-30" x="159.033203"/>
       <use xlink:href="#DejaVuSans-35" x="222.65625"/>
      </g>
     </g>
    </g>
    <g id="ytick_7">
     <g id="line2d_25">
      <path d="M 180 170.853234 
L 1296 170.853234 
" clip-path="url(#p30f87d391a)" style="fill: none; stroke: #b0b0b0; stroke-width: 0.8; stroke-linecap: square"/>
     </g>
     <g id="line2d_26">
      <g>
       <use xlink:href="#m452580d165" x="180" y="170.853234" style="stroke: #000000; stroke-width: 0.8"/>
      </g>
     </g>
     <g id="text_14">
      <!-- 0.006 -->
      <g transform="translate(81.39 183.010734) scale(0.32 -0.32)">
       <use xlink:href="#DejaVuSans-30"/>
       <use xlink:href="#DejaVuSans-2e" x="63.623047"/>
       <use xlink:href="#DejaVuSans-30" x="95.410156"/>
       <use xlink:href="#DejaVuSans-30" x="159.033203"/>
       <use xlink:href="#DejaVuSans-36" x="222.65625"/>
      </g>
     </g>
    </g>
    <g id="text_15">
     <!-- Probability -->
     <g transform="translate(70.735 520.8925) rotate(-90) scale(0.32 -0.32)">
      <defs>
       <path id="DejaVuSans-50" d="M 1259 4147 
L 1259 2394 
L 2053 2394 
Q 2494 2394 2734 2622 
Q 2975 2850 2975 3272 
Q 2975 3691 2734 3919 
Q 2494 4147 2053 4147 
L 1259 4147 
z
M 628 4666 
L 2053 4666 
Q 2838 4666 3239 4311 
Q 3641 3956 3641 3272 
Q 3641 2581 3239 2228 
Q 2838 1875 2053 1875 
L 1259 1875 
L 1259 0 
L 628 0 
L 628 4666 
z
" transform="scale(0.015625)"/>
       <path id="DejaVuSans-72" d="M 2631 2963 
Q 2534 3019 2420 3045 
Q 2306 3072 2169 3072 
Q 1681 3072 1420 2755 
Q 1159 2438 1159 1844 
L 1159 0 
L 581 0 
L 581 3500 
L 1159 3500 
L 1159 2956 
Q 1341 3275 1631 3429 
Q 1922 3584 2338 3584 
Q 2397 3584 2469 3576 
Q 2541 3569 2628 3553 
L 2631 2963 
z
" transform="scale(0.015625)"/>
       <path id="DejaVuSans-62" d="M 3116 1747 
Q 3116 2381 2855 2742 
Q 2594 3103 2138 3103 
Q 1681 3103 1420 2742 
Q 1159 2381 1159 1747 
Q 1159 1113 1420 752 
Q 1681 391 2138 391 
Q 2594 391 2855 752 
Q 3116 1113 3116 1747 
z
M 1159 2969 
Q 1341 3281 1617 3432 
Q 1894 3584 2278 3584 
Q 2916 3584 3314 3078 
Q 3713 2572 3713 1747 
Q 3713 922 3314 415 
Q 2916 -91 2278 -91 
Q 1894 -91 1617 61 
Q 1341 213 1159 525 
L 1159 0 
L 581 0 
L 581 4863 
L 1159 4863 
L 1159 2969 
z
" transform="scale(0.015625)"/>
       <path id="DejaVuSans-61" d="M 2194 1759 
Q 1497 1759 1228 1600 
Q 959 1441 959 1056 
Q 959 750 1161 570 
Q 1363 391 1709 391 
Q 2188 391 2477 730 
Q 2766 1069 2766 1631 
L 2766 1759 
L 2194 1759 
z
M 3341 1997 
L 3341 0 
L 2766 0 
L 2766 531 
Q 2569 213 2275 61 
Q 1981 -91 1556 -91 
Q 1019 -91 701 211 
Q 384 513 384 1019 
Q 384 1609 779 1909 
Q 1175 2209 1959 2209 
L 2766 2209 
L 2766 2266 
Q 2766 2663 2505 2880 
Q 2244 3097 1772 3097 
Q 1472 3097 1187 3025 
Q 903 2953 641 2809 
L 641 3341 
Q 956 3463 1253 3523 
Q 1550 3584 1831 3584 
Q 2591 3584 2966 3190 
Q 3341 2797 3341 1997 
z
" transform="scale(0.015625)"/>
       <path id="DejaVuSans-69" d="M 603 3500 
L 1178 3500 
L 1178 0 
L 603 0 
L 603 3500 
z
M 603 4863 
L 1178 4863 
L 1178 4134 
L 603 4134 
L 603 4863 
z
" transform="scale(0.015625)"/>
       <path id="DejaVuSans-6c" d="M 603 4863 
L 1178 4863 
L 1178 0 
L 603 0 
L 603 4863 
z
" transform="scale(0.015625)"/>
       <path id="DejaVuSans-74" d="M 1172 4494 
L 1172 3500 
L 2356 3500 
L 2356 3053 
L 1172 3053 
L 1172 1153 
Q 1172 725 1289 603 
Q 1406 481 1766 481 
L 2356 481 
L 2356 0 
L 1766 0 
Q 1100 0 847 248 
Q 594 497 594 1153 
L 594 3053 
L 172 3053 
L 172 3500 
L 594 3500 
L 594 4494 
L 1172 4494 
z
" transform="scale(0.015625)"/>
       <path id="DejaVuSans-79" d="M 2059 -325 
Q 1816 -950 1584 -1140 
Q 1353 -1331 966 -1331 
L 506 -1331 
L 506 -850 
L 844 -850 
Q 1081 -850 1212 -737 
Q 1344 -625 1503 -206 
L 1606 56 
L 191 3500 
L 800 3500 
L 1894 763 
L 2988 3500 
L 3597 3500 
L 2059 -325 
z
" transform="scale(0.015625)"/>
      </defs>
      <use xlink:href="#DejaVuSans-50"/>
      <use xlink:href="#DejaVuSans-72" x="58.552734"/>
      <use xlink:href="#DejaVuSans-6f" x="97.416016"/>
      <use xlink:href="#DejaVuSans-62" x="158.597656"/>
      <use xlink:href="#DejaVuSans-61" x="222.074219"/>
      <use xlink:href="#DejaVuSans-62" x="283.353516"/>
      <use xlink:href="#DejaVuSans-69" x="346.830078"/>
      <use xlink:href="#DejaVuSans-6c" x="374.613281"/>
      <use xlink:href="#DejaVuSans-69" x="402.396484"/>
      <use xlink:href="#DejaVuSans-74" x="430.179688"/>
      <use xlink:href="#DejaVuSans-79" x="469.388672"/>
     </g>
    </g>
   </g>
   <g id="line2d_27">
    <path d="M 230.727273 355.6112 
L 251.432282 385.635305 
L 272.137291 413.308042 
L 292.842301 438.8364 
L 313.54731 462.407466 
L 334.252319 484.190373 
L 354.957328 504.338049 
L 375.662338 522.988787 
L 396.367347 540.267648 
L 417.072356 556.28773 
L 437.777365 571.15131 
L 458.482375 584.950866 
L 479.187384 597.770006 
L 499.892393 609.684305 
L 520.597403 620.762058 
L 541.302412 631.06497 
L 562.007421 640.648773 
L 582.71243 649.563795 
L 603.41744 657.855474 
L 624.122449 665.564826 
L 644.827458 672.728882 
L 665.532468 679.381081 
L 686.237477 685.551636 
L 706.942486 691.267876 
L 727.647495 696.554561 
L 748.352505 701.434181 
L 769.057514 705.927234 
L 789.762523 710.052494 
L 810.467532 713.827263 
L 831.172542 717.267619 
L 851.877551 720.388649 
L 872.58256 723.204685 
L 893.28757 725.729524 
L 913.992579 727.976653 
L 934.697588 729.959466 
L 955.402597 731.691475 
L 976.107607 733.186516 
L 996.812616 734.458944 
L 1017.517625 735.523814 
L 1038.222635 736.39704 
L 1058.927644 737.095521 
L 1079.632653 737.63722 
L 1100.337662 738.041179 
L 1121.042672 738.327434 
L 1141.747681 738.516806 
L 1162.45269 738.630507 
L 1183.157699 738.689495 
L 1203.862709 738.713496 
L 1224.567718 738.71956 
L 1245.272727 738.72 
" clip-path="url(#p30f87d391a)" style="fill: none; stroke: #1f77b4; stroke-width: 1.5; stroke-linecap: square"/>
    <defs>
     <path id="mc90f36d154" d="M 0 3 
C 0.795609 3 1.55874 2.683901 2.12132 2.12132 
C 2.683901 1.55874 3 0.795609 3 0 
C 3 -0.795609 2.683901 -1.55874 2.12132 -2.12132 
C 1.55874 -2.683901 0.795609 -3 0 -3 
C -0.795609 -3 -1.55874 -2.683901 -2.12132 -2.12132 
C -2.683901 -1.55874 -3 -0.795609 -3 0 
C -3 0.795609 -2.683901 1.55874 -2.12132 2.12132 
C -1.55874 2.683901 -0.795609 3 0 3 
z
" style="stroke: #1f77b4"/>
    </defs>
    <g clip-path="url(#p30f87d391a)">
     <use xlink:href="#mc90f36d154" x="230.727273" y="355.6112" style="fill: #1f77b4; stroke: #1f77b4"/>
     <use xlink:href="#mc90f36d154" x="251.432282" y="385.635305" style="fill: #1f77b4; stroke: #1f77b4"/>
     <use xlink:href="#mc90f36d154" x="272.137291" y="413.308042" style="fill: #1f77b4; stroke: #1f77b4"/>
     <use xlink:href="#mc90f36d154" x="292.842301" y="438.8364" style="fill: #1f77b4; stroke: #1f77b4"/>
     <use xlink:href="#mc90f36d154" x="313.54731" y="462.407466" style="fill: #1f77b4; stroke: #1f77b4"/>
     <use xlink:href="#mc90f36d154" x="334.252319" y="484.190373" style="fill: #1f77b4; stroke: #1f77b4"/>
     <use xlink:href="#mc90f36d154" x="354.957328" y="504.338049" style="fill: #1f77b4; stroke: #1f77b4"/>
     <use xlink:href="#mc90f36d154" x="375.662338" y="522.988787" style="fill: #1f77b4; stroke: #1f77b4"/>
     <use xlink:href="#mc90f36d154" x="396.367347" y="540.267648" style="fill: #1f77b4; stroke: #1f77b4"/>
     <use xlink:href="#mc90f36d154" x="417.072356" y="556.28773" style="fill: #1f77b4; stroke: #1f77b4"/>
     <use xlink:href="#mc90f36d154" x="437.777365" y="571.15131" style="fill: #1f77b4; stroke: #1f77b4"/>
     <use xlink:href="#mc90f36d154" x="458.482375" y="584.950866" style="fill: #1f77b4; stroke: #1f77b4"/>
     <use xlink:href="#mc90f36d154" x="479.187384" y="597.770006" style="fill: #1f77b4; stroke: #1f77b4"/>
     <use xlink:href="#mc90f36d154" x="499.892393" y="609.684305" style="fill: #1f77b4; stroke: #1f77b4"/>
     <use xlink:href="#mc90f36d154" x="520.597403" y="620.762058" style="fill: #1f77b4; stroke: #1f77b4"/>
     <use xlink:href="#mc90f36d154" x="541.302412" y="631.06497" style="fill: #1f77b4; stroke: #1f77b4"/>
     <use xlink:href="#mc90f36d154" x="562.007421" y="640.648773" style="fill: #1f77b4; stroke: #1f77b4"/>
     <use xlink:href="#mc90f36d154" x="582.71243" y="649.563795" style="fill: #1f77b4; stroke: #1f77b4"/>
     <use xlink:href="#mc90f36d154" x="603.41744" y="657.855474" style="fill: #1f77b4; stroke: #1f77b4"/>
     <use xlink:href="#mc90f36d154" x="624.122449" y="665.564826" style="fill: #1f77b4; stroke: #1f77b4"/>
     <use xlink:href="#mc90f36d154" x="644.827458" y="672.728882" style="fill: #1f77b4; stroke: #1f77b4"/>
     <use xlink:href="#mc90f36d154" x="665.532468" y="679.381081" style="fill: #1f77b4; stroke: #1f77b4"/>
     <use xlink:href="#mc90f36d154" x="686.237477" y="685.551636" style="fill: #1f77b4; stroke: #1f77b4"/>
     <use xlink:href="#mc90f36d154" x="706.942486" y="691.267876" style="fill: #1f77b4; stroke: #1f77b4"/>
     <use xlink:href="#mc90f36d154" x="727.647495" y="696.554561" style="fill: #1f77b4; stroke: #1f77b4"/>
     <use xlink:href="#mc90f36d154" x="748.352505" y="701.434181" style="fill: #1f77b4; stroke: #1f77b4"/>
     <use xlink:href="#mc90f36d154" x="769.057514" y="705.927234" style="fill: #1f77b4; stroke: #1f77b4"/>
     <use xlink:href="#mc90f36d154" x="789.762523" y="710.052494" style="fill: #1f77b4; stroke: #1f77b4"/>
     <use xlink:href="#mc90f36d154" x="810.467532" y="713.827263" style="fill: #1f77b4; stroke: #1f77b4"/>
     <use xlink:href="#mc90f36d154" x="831.172542" y="717.267619" style="fill: #1f77b4; stroke: #1f77b4"/>
     <use xlink:href="#mc90f36d154" x="851.877551" y="720.388649" style="fill: #1f77b4; stroke: #1f77b4"/>
     <use xlink:href="#mc90f36d154" x="872.58256" y="723.204685" style="fill: #1f77b4; stroke: #1f77b4"/>
     <use xlink:href="#mc90f36d154" x="893.28757" y="725.729524" style="fill: #1f77b4; stroke: #1f77b4"/>
     <use xlink:href="#mc90f36d154" x="913.992579" y="727.976653" style="fill: #1f77b4; stroke: #1f77b4"/>
     <use xlink:href="#mc90f36d154" x="934.697588" y="729.959466" style="fill: #1f77b4; stroke: #1f77b4"/>
     <use xlink:href="#mc90f36d154" x="955.402597" y="731.691475" style="fill: #1f77b4; stroke: #1f77b4"/>
     <use xlink:href="#mc90f36d154" x="976.107607" y="733.186516" style="fill: #1f77b4; stroke: #1f77b4"/>
     <use xlink:href="#mc90f36d154" x="996.812616" y="734.458944" style="fill: #1f77b4; stroke: #1f77b4"/>
     <use xlink:href="#mc90f36d154" x="1017.517625" y="735.523814" style="fill: #1f77b4; stroke: #1f77b4"/>
     <use xlink:href="#mc90f36d154" x="1038.222635" y="736.39704" style="fill: #1f77b4; stroke: #1f77b4"/>
     <use xlink:href="#mc90f36d154" x="1058.927644" y="737.095521" style="fill: #1f77b4; stroke: #1f77b4"/>
     <use xlink:href="#mc90f36d154" x="1079.632653" y="737.63722" style="fill: #1f77b4; stroke: #1f77b4"/>
     <use xlink:href="#mc90f36d154" x="1100.337662" y="738.041179" style="fill: #1f77b4; stroke: #1f77b4"/>
     <use xlink:href="#mc90f36d154" x="1121.042672" y="738.327434" style="fill: #1f77b4; stroke: #1f77b4"/>
     <use xlink:href="#mc90f36d154" x="1141.747681" y="738.516806" style="fill: #1f77b4; stroke: #1f77b4"/>
     <use xlink:href="#mc90f36d154" x="1162.45269" y="738.630507" style="fill: #1f77b4; stroke: #1f77b4"/>
     <use xlink:href="#mc90f36d154" x="1183.157699" y="738.689495" style="fill: #1f77b4; stroke: #1f77b4"/>
     <use xlink:href="#mc90f36d154" x="1203.862709" y="738.713496" style="fill: #1f77b4; stroke: #1f77b4"/>
     <use xlink:href="#mc90f36d154" x="1224.567718" y="738.71956" style="fill: #1f77b4; stroke: #1f77b4"/>
     <use xlink:href="#mc90f36d154" x="1245.272727" y="738.72" style="fill: #1f77b4; stroke: #1f77b4"/>
    </g>
   </g>
   <g id="line2d_28">
    <path d="M 230.727273 165.928332 
L 251.432282 191.185648 
L 272.137291 215.278714 
L 292.842301 238.316984 
L 313.54731 260.399189 
L 334.252319 281.61429 
L 354.957328 302.042313 
L 375.662338 321.755095 
L 396.367347 340.816945 
L 417.072356 359.285223 
L 437.777365 377.210852 
L 458.482375 394.63877 
L 479.187384 411.608318 
L 499.892393 428.153586 
L 520.597403 444.303708 
L 541.302412 460.083113 
L 562.007421 475.511743 
L 582.71243 490.605241 
L 603.41744 505.375102 
L 624.122449 519.828807 
L 644.827458 533.969931 
L 665.532468 547.798244 
L 686.237477 561.30979 
L 706.942486 574.496975 
L 727.647495 587.348646 
L 748.352505 599.850186 
L 769.057514 611.983626 
L 789.762523 623.727789 
L 810.467532 635.05847 
L 831.172542 645.948683 
L 851.877551 656.368969 
L 872.58256 666.28781 
L 893.28757 675.672149 
L 913.992579 684.488062 
L 934.697588 692.701592 
L 955.402597 700.279794 
L 976.107607 707.192009 
L 996.812616 713.411404 
L 1017.517625 718.916799 
L 1038.222635 723.6948 
L 1058.927644 727.742213 
L 1079.632653 731.068698 
L 1100.337662 733.699535 
L 1121.042672 735.678264 
L 1141.747681 737.068818 
L 1162.45269 737.956454 
L 1183.157699 738.446414 
L 1203.862709 738.658605 
L 1224.567718 738.715626 
L 1245.272727 738.72 
" clip-path="url(#p30f87d391a)" style="fill: none; stroke: #ff7f0e; stroke-width: 1.5; stroke-linecap: square"/>
    <defs>
     <path id="ma722a617f5" d="M 0 3 
C 0.795609 3 1.55874 2.683901 2.12132 2.12132 
C 2.683901 1.55874 3 0.795609 3 0 
C 3 -0.795609 2.683901 -1.55874 2.12132 -2.12132 
C 1.55874 -2.683901 0.795609 -3 0 -3 
C -0.795609 -3 -1.55874 -2.683901 -2.12132 -2.12132 
C -2.683901 -1.55874 -3 -0.795609 -3 0 
C -3 0.795609 -2.683901 1.55874 -2.12132 2.12132 
C -1.55874 2.683901 -0.795609 3 0 3 
z
" style="stroke: #ff7f0e"/>
    </defs>
    <g clip-path="url(#p30f87d391a)">
     <use xlink:href="#ma722a617f5" x="230.727273" y="165.928332" style="fill: #ff7f0e; stroke: #ff7f0e"/>
     <use xlink:href="#ma722a617f5" x="251.432282" y="191.185648" style="fill: #ff7f0e; stroke: #ff7f0e"/>
     <use xlink:href="#ma722a617f5" x="272.137291" y="215.278714" style="fill: #ff7f0e; stroke: #ff7f0e"/>
     <use xlink:href="#ma722a617f5" x="292.842301" y="238.316984" style="fill: #ff7f0e; stroke: #ff7f0e"/>
     <use xlink:href="#ma722a617f5" x="313.54731" y="260.399189" style="fill: #ff7f0e; stroke: #ff7f0e"/>
     <use xlink:href="#ma722a617f5" x="334.252319" y="281.61429" style="fill: #ff7f0e; stroke: #ff7f0e"/>
     <use xlink:href="#ma722a617f5" x="354.957328" y="302.042313" style="fill: #ff7f0e; stroke: #ff7f0e"/>
     <use xlink:href="#ma722a617f5" x="375.662338" y="321.755095" style="fill: #ff7f0e; stroke: #ff7f0e"/>
     <use xlink:href="#ma722a617f5" x="396.367347" y="340.816945" style="fill: #ff7f0e; stroke: #ff7f0e"/>
     <use xlink:href="#ma722a617f5" x="417.072356" y="359.285223" style="fill: #ff7f0e; stroke: #ff7f0e"/>
     <use xlink:href="#ma722a617f5" x="437.777365" y="377.210852" style="fill: #ff7f0e; stroke: #ff7f0e"/>
     <use xlink:href="#ma722a617f5" x="458.482375" y="394.63877" style="fill: #ff7f0e; stroke: #ff7f0e"/>
     <use xlink:href="#ma722a617f5" x="479.187384" y="411.608318" style="fill: #ff7f0e; stroke: #ff7f0e"/>
     <use xlink:href="#ma722a617f5" x="499.892393" y="428.153586" style="fill: #ff7f0e; stroke: #ff7f0e"/>
     <use xlink:href="#ma722a617f5" x="520.597403" y="444.303708" style="fill: #ff7f0e; stroke: #ff7f0e"/>
     <use xlink:href="#ma722a617f5" x="541.302412" y="460.083113" style="fill: #ff7f0e; stroke: #ff7f0e"/>
     <use xlink:href="#ma722a617f5" x="562.007421" y="475.511743" style="fill: #ff7f0e; stroke: #ff7f0e"/>
     <use xlink:href="#ma722a617f5" x="582.71243" y="490.605241" style="fill: #ff7f0e; stroke: #ff7f0e"/>
     <use xlink:href="#ma722a617f5" x="603.41744" y="505.375102" style="fill: #ff7f0e; stroke: #ff7f0e"/>
     <use xlink:href="#ma722a617f5" x="624.122449" y="519.828807" style="fill: #ff7f0e; stroke: #ff7f0e"/>
     <use xlink:href="#ma722a617f5" x="644.827458" y="533.969931" style="fill: #ff7f0e; stroke: #ff7f0e"/>
     <use xlink:href="#ma722a617f5" x="665.532468" y="547.798244" style="fill: #ff7f0e; stroke: #ff7f0e"/>
     <use xlink:href="#ma722a617f5" x="686.237477" y="561.30979" style="fill: #ff7f0e; stroke: #ff7f0e"/>
     <use xlink:href="#ma722a617f5" x="706.942486" y="574.496975" style="fill: #ff7f0e; stroke: #ff7f0e"/>
     <use xlink:href="#ma722a617f5" x="727.647495" y="587.348646" style="fill: #ff7f0e; stroke: #ff7f0e"/>
     <use xlink:href="#ma722a617f5" x="748.352505" y="599.850186" style="fill: #ff7f0e; stroke: #ff7f0e"/>
     <use xlink:href="#ma722a617f5" x="769.057514" y="611.983626" style="fill: #ff7f0e; stroke: #ff7f0e"/>
     <use xlink:href="#ma722a617f5" x="789.762523" y="623.727789" style="fill: #ff7f0e; stroke: #ff7f0e"/>
     <use xlink:href="#ma722a617f5" x="810.467532" y="635.05847" style="fill: #ff7f0e; stroke: #ff7f0e"/>
     <use xlink:href="#ma722a617f5" x="831.172542" y="645.948683" style="fill: #ff7f0e; stroke: #ff7f0e"/>
     <use xlink:href="#ma722a617f5" x="851.877551" y="656.368969" style="fill: #ff7f0e; stroke: #ff7f0e"/>
     <use xlink:href="#ma722a617f5" x="872.58256" y="666.28781" style="fill: #ff7f0e; stroke: #ff7f0e"/>
     <use xlink:href="#ma722a617f5" x="893.28757" y="675.672149" style="fill: #ff7f0e; stroke: #ff7f0e"/>
     <use xlink:href="#ma722a617f5" x="913.992579" y="684.488062" style="fill: #ff7f0e; stroke: #ff7f0e"/>
     <use xlink:href="#ma722a617f5" x="934.697588" y="692.701592" style="fill: #ff7f0e; stroke: #ff7f0e"/>
     <use xlink:href="#ma722a617f5" x="955.402597" y="700.279794" style="fill: #ff7f0e; stroke: #ff7f0e"/>
     <use xlink:href="#ma722a617f5" x="976.107607" y="707.192009" style="fill: #ff7f0e; stroke: #ff7f0e"/>
     <use xlink:href="#ma722a617f5" x="996.812616" y="713.411404" style="fill: #ff7f0e; stroke: #ff7f0e"/>
     <use xlink:href="#ma722a617f5" x="1017.517625" y="718.916799" style="fill: #ff7f0e; stroke: #ff7f0e"/>
     <use xlink:href="#ma722a617f5" x="1038.222635" y="723.6948" style="fill: #ff7f0e; stroke: #ff7f0e"/>
     <use xlink:href="#ma722a617f5" x="1058.927644" y="727.742213" style="fill: #ff7f0e; stroke: #ff7f0e"/>
     <use xlink:href="#ma722a617f5" x="1079.632653" y="731.068698" style="fill: #ff7f0e; stroke: #ff7f0e"/>
     <use xlink:href="#ma722a617f5" x="1100.337662" y="733.699535" style="fill: #ff7f0e; stroke: #ff7f0e"/>
     <use xlink:href="#ma722a617f5" x="1121.042672" y="735.678264" style="fill: #ff7f0e; stroke: #ff7f0e"/>
     <use xlink:href="#ma722a617f5" x="1141.747681" y="737.068818" style="fill: #ff7f0e; stroke: #ff7f0e"/>
     <use xlink:href="#ma722a617f5" x="1162.45269" y="737.956454" style="fill: #ff7f0e; stroke: #ff7f0e"/>
     <use xlink:href="#ma722a617f5" x="1183.157699" y="738.446414" style="fill: #ff7f0e; stroke: #ff7f0e"/>
     <use xlink:href="#ma722a617f5" x="1203.862709" y="738.658605" style="fill: #ff7f0e; stroke: #ff7f0e"/>
     <use xlink:href="#ma722a617f5" x="1224.567718" y="738.715626" style="fill: #ff7f0e; stroke: #ff7f0e"/>
     <use xlink:href="#ma722a617f5" x="1245.272727" y="738.72" style="fill: #ff7f0e; stroke: #ff7f0e"/>
    </g>
   </g>
   <g id="line2d_29">
    <path d="M 230.727273 735.809223 
L 251.432282 735.450486 
L 272.137291 735.041407 
L 292.842301 734.574155 
L 313.54731 734.039578 
L 334.252319 733.426962 
L 354.957328 732.72375 
L 375.662338 731.915208 
L 396.367347 730.984024 
L 417.072356 729.909835 
L 437.777365 728.668665 
L 458.482375 727.232259 
L 479.187384 725.567298 
L 499.892393 723.63446 
L 520.597403 721.387329 
L 541.302412 718.771104 
L 562.007421 715.721095 
L 582.71243 712.160982 
L 603.41744 708.000804 
L 624.122449 703.134687 
L 644.827458 697.43829 
L 665.532468 690.766023 
L 686.237477 682.948096 
L 706.942486 673.787548 
L 727.647495 663.057514 
L 748.352505 650.499117 
L 769.057514 635.820638 
L 789.762523 618.698914 
L 810.467532 598.784379 
L 831.172542 575.711811 
L 851.877551 549.119637 
L 872.58256 518.681762 
L 893.28757 484.157106 
L 913.992579 445.4634 
L 934.697588 402.782922 
L 955.402597 356.707984 
L 976.107607 308.431897 
L 996.812616 259.984208 
L 1017.517625 214.493213 
L 1038.222635 176.427708 
L 1058.927644 151.715223 
L 1079.632653 147.547718 
L 1100.337662 171.569705 
L 1121.042672 230.034506 
L 1141.747681 324.540189 
L 1162.45269 447.444385 
L 1183.157699 577.66037 
L 1203.862709 682.074857 
L 1224.567718 732.291036 
L 1245.272727 738.72 
" clip-path="url(#p30f87d391a)" style="fill: none; stroke: #2ca02c; stroke-width: 1.5; stroke-linecap: square"/>
    <defs>
     <path id="m75f4889d9f" d="M 0 3 
C 0.795609 3 1.55874 2.683901 2.12132 2.12132 
C 2.683901 1.55874 3 0.795609 3 0 
C 3 -0.795609 2.683901 -1.55874 2.12132 -2.12132 
C 1.55874 -2.683901 0.795609 -3 0 -3 
C -0.795609 -3 -1.55874 -2.683901 -2.12132 -2.12132 
C -2.683901 -1.55874 -3 -0.795609 -3 0 
C -3 0.795609 -2.683901 1.55874 -2.12132 2.12132 
C -1.55874 2.683901 -0.795609 3 0 3 
z
" style="stroke: #2ca02c"/>
    </defs>
    <g clip-path="url(#p30f87d391a)">
     <use xlink:href="#m75f4889d9f" x="230.727273" y="735.809223" style="fill: #2ca02c; stroke: #2ca02c"/>
     <use xlink:href="#m75f4889d9f" x="251.432282" y="735.450486" style="fill: #2ca02c; stroke: #2ca02c"/>
     <use xlink:href="#m75f4889d9f" x="272.137291" y="735.041407" style="fill: #2ca02c; stroke: #2ca02c"/>
     <use xlink:href="#m75f4889d9f" x="292.842301" y="734.574155" style="fill: #2ca02c; stroke: #2ca02c"/>
     <use xlink:href="#m75f4889d9f" x="313.54731" y="734.039578" style="fill: #2ca02c; stroke: #2ca02c"/>
     <use xlink:href="#m75f4889d9f" x="334.252319" y="733.426962" style="fill: #2ca02c; stroke: #2ca02c"/>
     <use xlink:href="#m75f4889d9f" x="354.957328" y="732.72375" style="fill: #2ca02c; stroke: #2ca02c"/>
     <use xlink:href="#m75f4889d9f" x="375.662338" y="731.915208" style="fill: #2ca02c; stroke: #2ca02c"/>
     <use xlink:href="#m75f4889d9f" x="396.367347" y="730.984024" style="fill: #2ca02c; stroke: #2ca02c"/>
     <use xlink:href="#m75f4889d9f" x="417.072356" y="729.909835" style="fill: #2ca02c; stroke: #2ca02c"/>
     <use xlink:href="#m75f4889d9f" x="437.777365" y="728.668665" style="fill: #2ca02c; stroke: #2ca02c"/>
     <use xlink:href="#m75f4889d9f" x="458.482375" y="727.232259" style="fill: #2ca02c; stroke: #2ca02c"/>
     <use xlink:href="#m75f4889d9f" x="479.187384" y="725.567298" style="fill: #2ca02c; stroke: #2ca02c"/>
     <use xlink:href="#m75f4889d9f" x="499.892393" y="723.63446" style="fill: #2ca02c; stroke: #2ca02c"/>
     <use xlink:href="#m75f4889d9f" x="520.597403" y="721.387329" style="fill: #2ca02c; stroke: #2ca02c"/>
     <use xlink:href="#m75f4889d9f" x="541.302412" y="718.771104" style="fill: #2ca02c; stroke: #2ca02c"/>
     <use xlink:href="#m75f4889d9f" x="562.007421" y="715.721095" style="fill: #2ca02c; stroke: #2ca02c"/>
     <use xlink:href="#m75f4889d9f" x="582.71243" y="712.160982" style="fill: #2ca02c; stroke: #2ca02c"/>
     <use xlink:href="#m75f4889d9f" x="603.41744" y="708.000804" style="fill: #2ca02c; stroke: #2ca02c"/>
     <use xlink:href="#m75f4889d9f" x="624.122449" y="703.134687" style="fill: #2ca02c; stroke: #2ca02c"/>
     <use xlink:href="#m75f4889d9f" x="644.827458" y="697.43829" style="fill: #2ca02c; stroke: #2ca02c"/>
     <use xlink:href="#m75f4889d9f" x="665.532468" y="690.766023" style="fill: #2ca02c; stroke: #2ca02c"/>
     <use xlink:href="#m75f4889d9f" x="686.237477" y="682.948096" style="fill: #2ca02c; stroke: #2ca02c"/>
     <use xlink:href="#m75f4889d9f" x="706.942486" y="673.787548" style="fill: #2ca02c; stroke: #2ca02c"/>
     <use xlink:href="#m75f4889d9f" x="727.647495" y="663.057514" style="fill: #2ca02c; stroke: #2ca02c"/>
     <use xlink:href="#m75f4889d9f" x="748.352505" y="650.499117" style="fill: #2ca02c; stroke: #2ca02c"/>
     <use xlink:href="#m75f4889d9f" x="769.057514" y="635.820638" style="fill: #2ca02c; stroke: #2ca02c"/>
     <use xlink:href="#m75f4889d9f" x="789.762523" y="618.698914" style="fill: #2ca02c; stroke: #2ca02c"/>
     <use xlink:href="#m75f4889d9f" x="810.467532" y="598.784379" style="fill: #2ca02c; stroke: #2ca02c"/>
     <use xlink:href="#m75f4889d9f" x="831.172542" y="575.711811" style="fill: #2ca02c; stroke: #2ca02c"/>
     <use xlink:href="#m75f4889d9f" x="851.877551" y="549.119637" style="fill: #2ca02c; stroke: #2ca02c"/>
     <use xlink:href="#m75f4889d9f" x="872.58256" y="518.681762" style="fill: #2ca02c; stroke: #2ca02c"/>
     <use xlink:href="#m75f4889d9f" x="893.28757" y="484.157106" style="fill: #2ca02c; stroke: #2ca02c"/>
     <use xlink:href="#m75f4889d9f" x="913.992579" y="445.4634" style="fill: #2ca02c; stroke: #2ca02c"/>
     <use xlink:href="#m75f4889d9f" x="934.697588" y="402.782922" style="fill: #2ca02c; stroke: #2ca02c"/>
     <use xlink:href="#m75f4889d9f" x="955.402597" y="356.707984" style="fill: #2ca02c; stroke: #2ca02c"/>
     <use xlink:href="#m75f4889d9f" x="976.107607" y="308.431897" style="fill: #2ca02c; stroke: #2ca02c"/>
     <use xlink:href="#m75f4889d9f" x="996.812616" y="259.984208" style="fill: #2ca02c; stroke: #2ca02c"/>
     <use xlink:href="#m75f4889d9f" x="1017.517625" y="214.493213" style="fill: #2ca02c; stroke: #2ca02c"/>
     <use xlink:href="#m75f4889d9f" x="1038.222635" y="176.427708" style="fill: #2ca02c; stroke: #2ca02c"/>
     <use xlink:href="#m75f4889d9f" x="1058.927644" y="151.715223" style="fill: #2ca02c; stroke: #2ca02c"/>
     <use xlink:href="#m75f4889d9f" x="1079.632653" y="147.547718" style="fill: #2ca02c; stroke: #2ca02c"/>
     <use xlink:href="#m75f4889d9f" x="1100.337662" y="171.569705" style="fill: #2ca02c; stroke: #2ca02c"/>
     <use xlink:href="#m75f4889d9f" x="1121.042672" y="230.034506" style="fill: #2ca02c; stroke: #2ca02c"/>
     <use xlink:href="#m75f4889d9f" x="1141.747681" y="324.540189" style="fill: #2ca02c; stroke: #2ca02c"/>
     <use xlink:href="#m75f4889d9f" x="1162.45269" y="447.444385" style="fill: #2ca02c; stroke: #2ca02c"/>
     <use xlink:href="#m75f4889d9f" x="1183.157699" y="577.66037" style="fill: #2ca02c; stroke: #2ca02c"/>
     <use xlink:href="#m75f4889d9f" x="1203.862709" y="682.074857" style="fill: #2ca02c; stroke: #2ca02c"/>
     <use xlink:href="#m75f4889d9f" x="1224.567718" y="732.291036" style="fill: #2ca02c; stroke: #2ca02c"/>
     <use xlink:href="#m75f4889d9f" x="1245.272727" y="738.72" style="fill: #2ca02c; stroke: #2ca02c"/>
    </g>
   </g>
   <g id="line2d_30">
    <path d="M 230.727273 738.72 
L 251.432282 738.72 
L 272.137291 738.72 
L 292.842301 738.72 
L 313.54731 738.72 
L 334.252319 738.72 
L 354.957328 738.72 
L 375.662338 738.72 
L 396.367347 738.72 
L 417.072356 738.72 
L 437.777365 738.72 
L 458.482375 738.72 
L 479.187384 738.72 
L 499.892393 738.72 
L 520.597403 738.72 
L 541.302412 738.72 
L 562.007421 738.72 
L 582.71243 738.72 
L 603.41744 738.72 
L 624.122449 738.72 
L 644.827458 738.72 
L 665.532468 738.72 
L 686.237477 738.72 
L 706.942486 738.72 
L 727.647495 738.719999 
L 748.352505 738.719998 
L 769.057514 738.719996 
L 789.762523 738.719991 
L 810.467532 738.719978 
L 831.172542 738.719948 
L 851.877551 738.719875 
L 872.58256 738.719693 
L 893.28757 738.719229 
L 913.992579 738.718028 
L 934.697588 738.714866 
L 955.402597 738.7064 
L 976.107607 738.683374 
L 996.812616 738.619873 
L 1017.517625 738.442777 
L 1038.222635 737.945203 
L 1058.927644 736.544714 
L 1079.632653 732.628978 
L 1100.337662 721.893312 
L 1121.042672 693.62553 
L 1141.747681 624.649637 
L 1162.45269 479.009961 
L 1183.157699 253.106949 
L 1203.862709 133.92 
L 1224.567718 483.474181 
L 1245.272727 738.72 
" clip-path="url(#p30f87d391a)" style="fill: none; stroke: #d62728; stroke-width: 1.5; stroke-linecap: square"/>
    <defs>
     <path id="m0250147c2f" d="M 0 3 
C 0.795609 3 1.55874 2.683901 2.12132 2.12132 
C 2.683901 1.55874 3 0.795609 3 0 
C 3 -0.795609 2.683901 -1.55874 2.12132 -2.12132 
C 1.55874 -2.683901 0.795609 -3 0 -3 
C -0.795609 -3 -1.55874 -2.683901 -2.12132 -2.12132 
C -2.683901 -1.55874 -3 -0.795609 -3 0 
C -3 0.795609 -2.683901 1.55874 -2.12132 2.12132 
C -1.55874 2.683901 -0.795609 3 0 3 
z
" style="stroke: #d62728"/>
    </defs>
    <g clip-path="url(#p30f87d391a)">
     <use xlink:href="#m0250147c2f" x="230.727273" y="738.72" style="fill: #d62728; stroke: #d62728"/>
     <use xlink:href="#m0250147c2f" x="251.432282" y="738.72" style="fill: #d62728; stroke: #d62728"/>
     <use xlink:href="#m0250147c2f" x="272.137291" y="738.72" style="fill: #d62728; stroke: #d62728"/>
     <use xlink:href="#m0250147c2f" x="292.842301" y="738.72" style="fill: #d62728; stroke: #d62728"/>
     <use xlink:href="#m0250147c2f" x="313.54731" y="738.72" style="fill: #d62728; stroke: #d62728"/>
     <use xlink:href="#m0250147c2f" x="334.252319" y="738.72" style="fill: #d62728; stroke: #d62728"/>
     <use xlink:href="#m0250147c2f" x="354.957328" y="738.72" style="fill: #d62728; stroke: #d62728"/>
     <use xlink:href="#m0250147c2f" x="375.662338" y="738.72" style="fill: #d62728; stroke: #d62728"/>
     <use xlink:href="#m0250147c2f" x="396.367347" y="738.72" style="fill: #d62728; stroke: #d62728"/>
     <use xlink:href="#m0250147c2f" x="417.072356" y="738.72" style="fill: #d62728; stroke: #d62728"/>
     <use xlink:href="#m0250147c2f" x="437.777365" y="738.72" style="fill: #d62728; stroke: #d62728"/>
     <use xlink:href="#m0250147c2f" x="458.482375" y="738.72" style="fill: #d62728; stroke: #d62728"/>
     <use xlink:href="#m0250147c2f" x="479.187384" y="738.72" style="fill: #d62728; stroke: #d62728"/>
     <use xlink:href="#m0250147c2f" x="499.892393" y="738.72" style="fill: #d62728; stroke: #d62728"/>
     <use xlink:href="#m0250147c2f" x="520.597403" y="738.72" style="fill: #d62728; stroke: #d62728"/>
     <use xlink:href="#m0250147c2f" x="541.302412" y="738.72" style="fill: #d62728; stroke: #d62728"/>
     <use xlink:href="#m0250147c2f" x="562.007421" y="738.72" style="fill: #d62728; stroke: #d62728"/>
     <use xlink:href="#m0250147c2f" x="582.71243" y="738.72" style="fill: #d62728; stroke: #d62728"/>
     <use xlink:href="#m0250147c2f" x="603.41744" y="738.72" style="fill: #d62728; stroke: #d62728"/>
     <use xlink:href="#m0250147c2f" x="624.122449" y="738.72" style="fill: #d62728; stroke: #d62728"/>
     <use xlink:href="#m0250147c2f" x="644.827458" y="738.72" style="fill: #d62728; stroke: #d62728"/>
     <use xlink:href="#m0250147c2f" x="665.532468" y="738.72" style="fill: #d62728; stroke: #d62728"/>
     <use xlink:href="#m0250147c2f" x="686.237477" y="738.72" style="fill: #d62728; stroke: #d62728"/>
     <use xlink:href="#m0250147c2f" x="706.942486" y="738.72" style="fill: #d62728; stroke: #d62728"/>
     <use xlink:href="#m0250147c2f" x="727.647495" y="738.719999" style="fill: #d62728; stroke: #d62728"/>
     <use xlink:href="#m0250147c2f" x="748.352505" y="738.719998" style="fill: #d62728; stroke: #d62728"/>
     <use xlink:href="#m0250147c2f" x="769.057514" y="738.719996" style="fill: #d62728; stroke: #d62728"/>
     <use xlink:href="#m0250147c2f" x="789.762523" y="738.719991" style="fill: #d62728; stroke: #d62728"/>
     <use xlink:href="#m0250147c2f" x="810.467532" y="738.719978" style="fill: #d62728; stroke: #d62728"/>
     <use xlink:href="#m0250147c2f" x="831.172542" y="738.719948" style="fill: #d62728; stroke: #d62728"/>
     <use xlink:href="#m0250147c2f" x="851.877551" y="738.719875" style="fill: #d62728; stroke: #d62728"/>
     <use xlink:href="#m0250147c2f" x="872.58256" y="738.719693" style="fill: #d62728; stroke: #d62728"/>
     <use xlink:href="#m0250147c2f" x="893.28757" y="738.719229" style="fill: #d62728; stroke: #d62728"/>
     <use xlink:href="#m0250147c2f" x="913.992579" y="738.718028" style="fill: #d62728; stroke: #d62728"/>
     <use xlink:href="#m0250147c2f" x="934.697588" y="738.714866" style="fill: #d62728; stroke: #d62728"/>
     <use xlink:href="#m0250147c2f" x="955.402597" y="738.7064" style="fill: #d62728; stroke: #d62728"/>
     <use xlink:href="#m0250147c2f" x="976.107607" y="738.683374" style="fill: #d62728; stroke: #d62728"/>
     <use xlink:href="#m0250147c2f" x="996.812616" y="738.619873" style="fill: #d62728; stroke: #d62728"/>
     <use xlink:href="#m0250147c2f" x="1017.517625" y="738.442777" style="fill: #d62728; stroke: #d62728"/>
     <use xlink:href="#m0250147c2f" x="1038.222635" y="737.945203" style="fill: #d62728; stroke: #d62728"/>
     <use xlink:href="#m0250147c2f" x="1058.927644" y="736.544714" style="fill: #d62728; stroke: #d62728"/>
     <use xlink:href="#m0250147c2f" x="1079.632653" y="732.628978" style="fill: #d62728; stroke: #d62728"/>
     <use xlink:href="#m0250147c2f" x="1100.337662" y="721.893312" style="fill: #d62728; stroke: #d62728"/>
     <use xlink:href="#m0250147c2f" x="1121.042672" y="693.62553" style="fill: #d62728; stroke: #d62728"/>
     <use xlink:href="#m0250147c2f" x="1141.747681" y="624.649637" style="fill: #d62728; stroke: #d62728"/>
     <use xlink:href="#m0250147c2f" x="1162.45269" y="479.009961" style="fill: #d62728; stroke: #d62728"/>
     <use xlink:href="#m0250147c2f" x="1183.157699" y="253.106949" style="fill: #d62728; stroke: #d62728"/>
     <use xlink:href="#m0250147c2f" x="1203.862709" y="133.92" style="fill: #d62728; stroke: #d62728"/>
     <use xlink:href="#m0250147c2f" x="1224.567718" y="483.474181" style="fill: #d62728; stroke: #d62728"/>
     <use xlink:href="#m0250147c2f" x="1245.272727" y="738.72" style="fill: #d62728; stroke: #d62728"/>
    </g>
   </g>
   <g id="patch_3">
    <path d="M 180 768.96 
L 180 103.68 
" style="fill: none; stroke: #000000; stroke-width: 0.8; stroke-linejoin: miter; stroke-linecap: square"/>
   </g>
   <g id="patch_4">
    <path d="M 1296 768.96 
L 1296 103.68 
" style="fill: none; stroke: #000000; stroke-width: 0.8; stroke-linejoin: miter; stroke-linecap: square"/>
   </g>
   <g id="patch_5">
    <path d="M 180 768.96 
L 1296 768.96 
" style="fill: none; stroke: #000000; stroke-width: 0.8; stroke-linejoin: miter; stroke-linecap: square"/>
   </g>
   <g id="patch_6">
    <path d="M 180 103.68 
L 1296 103.68 
" style="fill: none; stroke: #000000; stroke-width: 0.8; stroke-linejoin: miter; stroke-linecap: square"/>
   </g>
   <g id="text_16">
    <!-- Probability Loss as a function of Loss grouped by Gamma Value -->
    <g transform="translate(128.943 95.694) scale(0.384 -0.384)">
     <defs>
      <path id="DejaVuSans-20" transform="scale(0.015625)"/>
      <path id="DejaVuSans-66" d="M 2375 4863 
L 2375 4384 
L 1825 4384 
Q 1516 4384 1395 4259 
Q 1275 4134 1275 3809 
L 1275 3500 
L 2222 3500 
L 2222 3053 
L 1275 3053 
L 1275 0 
L 697 0 
L 697 3053 
L 147 3053 
L 147 3500 
L 697 3500 
L 697 3744 
Q 697 4328 969 4595 
Q 1241 4863 1831 4863 
L 2375 4863 
z
" transform="scale(0.015625)"/>
      <path id="DejaVuSans-75" d="M 544 1381 
L 544 3500 
L 1119 3500 
L 1119 1403 
Q 1119 906 1312 657 
Q 1506 409 1894 409 
Q 2359 409 2629 706 
Q 2900 1003 2900 1516 
L 2900 3500 
L 3475 3500 
L 3475 0 
L 2900 0 
L 2900 538 
Q 2691 219 2414 64 
Q 2138 -91 1772 -91 
Q 1169 -91 856 284 
Q 544 659 544 1381 
z
M 1991 3584 
L 1991 3584 
z
" transform="scale(0.015625)"/>
      <path id="DejaVuSans-6e" d="M 3513 2113 
L 3513 0 
L 2938 0 
L 2938 2094 
Q 2938 2591 2744 2837 
Q 2550 3084 2163 3084 
Q 1697 3084 1428 2787 
Q 1159 2491 1159 1978 
L 1159 0 
L 581 0 
L 581 3500 
L 1159 3500 
L 1159 2956 
Q 1366 3272 1645 3428 
Q 1925 3584 2291 3584 
Q 2894 3584 3203 3211 
Q 3513 2838 3513 2113 
z
" transform="scale(0.015625)"/>
      <path id="DejaVuSans-63" d="M 3122 3366 
L 3122 2828 
Q 2878 2963 2633 3030 
Q 2388 3097 2138 3097 
Q 1578 3097 1268 2742 
Q 959 2388 959 1747 
Q 959 1106 1268 751 
Q 1578 397 2138 397 
Q 2388 397 2633 464 
Q 2878 531 3122 666 
L 3122 134 
Q 2881 22 2623 -34 
Q 2366 -91 2075 -91 
Q 1284 -91 818 406 
Q 353 903 353 1747 
Q 353 2603 823 3093 
Q 1294 3584 2113 3584 
Q 2378 3584 2631 3529 
Q 2884 3475 3122 3366 
z
" transform="scale(0.015625)"/>
      <path id="DejaVuSans-67" d="M 2906 1791 
Q 2906 2416 2648 2759 
Q 2391 3103 1925 3103 
Q 1463 3103 1205 2759 
Q 947 2416 947 1791 
Q 947 1169 1205 825 
Q 1463 481 1925 481 
Q 2391 481 2648 825 
Q 2906 1169 2906 1791 
z
M 3481 434 
Q 3481 -459 3084 -895 
Q 2688 -1331 1869 -1331 
Q 1566 -1331 1297 -1286 
Q 1028 -1241 775 -1147 
L 775 -588 
Q 1028 -725 1275 -790 
Q 1522 -856 1778 -856 
Q 2344 -856 2625 -561 
Q 2906 -266 2906 331 
L 2906 616 
Q 2728 306 2450 153 
Q 2172 0 1784 0 
Q 1141 0 747 490 
Q 353 981 353 1791 
Q 353 2603 747 3093 
Q 1141 3584 1784 3584 
Q 2172 3584 2450 3431 
Q 2728 3278 2906 2969 
L 2906 3500 
L 3481 3500 
L 3481 434 
z
" transform="scale(0.015625)"/>
      <path id="DejaVuSans-70" d="M 1159 525 
L 1159 -1331 
L 581 -1331 
L 581 3500 
L 1159 3500 
L 1159 2969 
Q 1341 3281 1617 3432 
Q 1894 3584 2278 3584 
Q 2916 3584 3314 3078 
Q 3713 2572 3713 1747 
Q 3713 922 3314 415 
Q 2916 -91 2278 -91 
Q 1894 -91 1617 61 
Q 1341 213 1159 525 
z
M 3116 1747 
Q 3116 2381 2855 2742 
Q 2594 3103 2138 3103 
Q 1681 3103 1420 2742 
Q 1159 2381 1159 1747 
Q 1159 1113 1420 752 
Q 1681 391 2138 391 
Q 2594 391 2855 752 
Q 3116 1113 3116 1747 
z
" transform="scale(0.015625)"/>
      <path id="DejaVuSans-65" d="M 3597 1894 
L 3597 1613 
L 953 1613 
Q 991 1019 1311 708 
Q 1631 397 2203 397 
Q 2534 397 2845 478 
Q 3156 559 3463 722 
L 3463 178 
Q 3153 47 2828 -22 
Q 2503 -91 2169 -91 
Q 1331 -91 842 396 
Q 353 884 353 1716 
Q 353 2575 817 3079 
Q 1281 3584 2069 3584 
Q 2775 3584 3186 3129 
Q 3597 2675 3597 1894 
z
M 3022 2063 
Q 3016 2534 2758 2815 
Q 2500 3097 2075 3097 
Q 1594 3097 1305 2825 
Q 1016 2553 972 2059 
L 3022 2063 
z
" transform="scale(0.015625)"/>
      <path id="DejaVuSans-64" d="M 2906 2969 
L 2906 4863 
L 3481 4863 
L 3481 0 
L 2906 0 
L 2906 525 
Q 2725 213 2448 61 
Q 2172 -91 1784 -91 
Q 1150 -91 751 415 
Q 353 922 353 1747 
Q 353 2572 751 3078 
Q 1150 3584 1784 3584 
Q 2172 3584 2448 3432 
Q 2725 3281 2906 2969 
z
M 947 1747 
Q 947 1113 1208 752 
Q 1469 391 1925 391 
Q 2381 391 2643 752 
Q 2906 1113 2906 1747 
Q 2906 2381 2643 2742 
Q 2381 3103 1925 3103 
Q 1469 3103 1208 2742 
Q 947 2381 947 1747 
z
" transform="scale(0.015625)"/>
      <path id="DejaVuSans-47" d="M 3809 666 
L 3809 1919 
L 2778 1919 
L 2778 2438 
L 4434 2438 
L 4434 434 
Q 4069 175 3628 42 
Q 3188 -91 2688 -91 
Q 1594 -91 976 548 
Q 359 1188 359 2328 
Q 359 3472 976 4111 
Q 1594 4750 2688 4750 
Q 3144 4750 3555 4637 
Q 3966 4525 4313 4306 
L 4313 3634 
Q 3963 3931 3569 4081 
Q 3175 4231 2741 4231 
Q 1884 4231 1454 3753 
Q 1025 3275 1025 2328 
Q 1025 1384 1454 906 
Q 1884 428 2741 428 
Q 3075 428 3337 486 
Q 3600 544 3809 666 
z
" transform="scale(0.015625)"/>
      <path id="DejaVuSans-6d" d="M 3328 2828 
Q 3544 3216 3844 3400 
Q 4144 3584 4550 3584 
Q 5097 3584 5394 3201 
Q 5691 2819 5691 2113 
L 5691 0 
L 5113 0 
L 5113 2094 
Q 5113 2597 4934 2840 
Q 4756 3084 4391 3084 
Q 3944 3084 3684 2787 
Q 3425 2491 3425 1978 
L 3425 0 
L 2847 0 
L 2847 2094 
Q 2847 2600 2669 2842 
Q 2491 3084 2119 3084 
Q 1678 3084 1418 2786 
Q 1159 2488 1159 1978 
L 1159 0 
L 581 0 
L 581 3500 
L 1159 3500 
L 1159 2956 
Q 1356 3278 1631 3431 
Q 1906 3584 2284 3584 
Q 2666 3584 2933 3390 
Q 3200 3197 3328 2828 
z
" transform="scale(0.015625)"/>
      <path id="DejaVuSans-56" d="M 1831 0 
L 50 4666 
L 709 4666 
L 2188 738 
L 3669 4666 
L 4325 4666 
L 2547 0 
L 1831 0 
z
" transform="scale(0.015625)"/>
     </defs>
     <use xlink:href="#DejaVuSans-50"/>
     <use xlink:href="#DejaVuSans-72" x="58.552734"/>
     <use xlink:href="#DejaVuSans-6f" x="97.416016"/>
     <use xlink:href="#DejaVuSans-62" x="158.597656"/>
     <use xlink:href="#DejaVuSans-61" x="222.074219"/>
     <use xlink:href="#DejaVuSans-62" x="283.353516"/>
     <use xlink:href="#DejaVuSans-69" x="346.830078"/>
     <use xlink:href="#DejaVuSans-6c" x="374.613281"/>
     <use xlink:href="#DejaVuSans-69" x="402.396484"/>
     <use xlink:href="#DejaVuSans-74" x="430.179688"/>
     <use xlink:href="#DejaVuSans-79" x="469.388672"/>
     <use xlink:href="#DejaVuSans-20" x="528.568359"/>
     <use xlink:href="#DejaVuSans-4c" x="560.355469"/>
     <use xlink:href="#DejaVuSans-6f" x="614.318359"/>
     <use xlink:href="#DejaVuSans-73" x="675.5"/>
     <use xlink:href="#DejaVuSans-73" x="727.599609"/>
     <use xlink:href="#DejaVuSans-20" x="779.699219"/>
     <use xlink:href="#DejaVuSans-61" x="811.486328"/>
     <use xlink:href="#DejaVuSans-73" x="872.765625"/>
     <use xlink:href="#DejaVuSans-20" x="924.865234"/>
     <use xlink:href="#DejaVuSans-61" x="956.652344"/>
     <use xlink:href="#DejaVuSans-20" x="1017.931641"/>
     <use xlink:href="#DejaVuSans-66" x="1049.71875"/>
     <use xlink:href="#DejaVuSans-75" x="1084.923828"/>
     <use xlink:href="#DejaVuSans-6e" x="1148.302734"/>
     <use xlink:href="#DejaVuSans-63" x="1211.681641"/>
     <use xlink:href="#DejaVuSans-74" x="1266.662109"/>
     <use xlink:href="#DejaVuSans-69" x="1305.871094"/>
     <use xlink:href="#DejaVuSans-6f" x="1333.654297"/>
     <use xlink:href="#DejaVuSans-6e" x="1394.835938"/>
     <use xlink:href="#DejaVuSans-20" x="1458.214844"/>
     <use xlink:href="#DejaVuSans-6f" x="1490.001953"/>
     <use xlink:href="#DejaVuSans-66" x="1551.183594"/>
     <use xlink:href="#DejaVuSans-20" x="1586.388672"/>
     <use xlink:href="#DejaVuSans-4c" x="1618.175781"/>
     <use xlink:href="#DejaVuSans-6f" x="1672.138672"/>
     <use xlink:href="#DejaVuSans-73" x="1733.320312"/>
     <use xlink:href="#DejaVuSans-73" x="1785.419922"/>
     <use xlink:href="#DejaVuSans-20" x="1837.519531"/>
     <use xlink:href="#DejaVuSans-67" x="1869.306641"/>
     <use xlink:href="#DejaVuSans-72" x="1932.783203"/>
     <use xlink:href="#DejaVuSans-6f" x="1971.646484"/>
     <use xlink:href="#DejaVuSans-75" x="2032.828125"/>
     <use xlink:href="#DejaVuSans-70" x="2096.207031"/>
     <use xlink:href="#DejaVuSans-65" x="2159.683594"/>
     <use xlink:href="#DejaVuSans-64" x="2221.207031"/>
     <use xlink:href="#DejaVuSans-20" x="2284.683594"/>
     <use xlink:href="#DejaVuSans-62" x="2316.470703"/>
     <use xlink:href="#DejaVuSans-79" x="2379.947266"/>
     <use xlink:href="#DejaVuSans-20" x="2439.126953"/>
     <use xlink:href="#DejaVuSans-47" x="2470.914062"/>
     <use xlink:href="#DejaVuSans-61" x="2548.404297"/>
     <use xlink:href="#DejaVuSans-6d" x="2609.683594"/>
     <use xlink:href="#DejaVuSans-6d" x="2707.095703"/>
     <use xlink:href="#DejaVuSans-61" x="2804.507812"/>
     <use xlink:href="#DejaVuSans-20" x="2865.787109"/>
     <use xlink:href="#DejaVuSans-56" x="2897.574219"/>
     <use xlink:href="#DejaVuSans-61" x="2958.232422"/>
     <use xlink:href="#DejaVuSans-6c" x="3019.511719"/>
     <use xlink:href="#DejaVuSans-75" x="3047.294922"/>
     <use xlink:href="#DejaVuSans-65" x="3110.673828"/>
    </g>
   </g>
   <g id="legend_1">
    <g id="patch_7">
     <path d="M 202.4 317.16 
L 699.78 317.16 
Q 706.18 317.16 706.18 310.76 
L 706.18 126.08 
Q 706.18 119.68 699.78 119.68 
L 202.4 119.68 
Q 196 119.68 196 126.08 
L 196 310.76 
Q 196 317.16 202.4 317.16 
z
" style="fill: #ffffff; opacity: 0.8; stroke: #cccccc; stroke-linejoin: miter"/>
    </g>
    <g id="line2d_31">
     <path d="M 208.8 145.595 
L 240.8 145.595 
L 272.8 145.595 
" style="fill: none; stroke: #1f77b4; stroke-width: 1.5; stroke-linecap: square"/>
     <g>
      <use xlink:href="#mc90f36d154" x="240.8" y="145.595" style="fill: #1f77b4; stroke: #1f77b4"/>
     </g>
    </g>
    <g id="text_17">
     <!-- \gamma = {gamma:.2f} -->
     <g transform="translate(298.4 156.795) scale(0.32 -0.32)">
      <defs>
       <path id="DejaVuSans-5c" d="M 531 4666 
L 2156 -594 
L 1625 -594 
L 0 4666 
L 531 4666 
z
" transform="scale(0.015625)"/>
       <path id="DejaVuSans-3d" d="M 678 2906 
L 4684 2906 
L 4684 2381 
L 678 2381 
L 678 2906 
z
M 678 1631 
L 4684 1631 
L 4684 1100 
L 678 1100 
L 678 1631 
z
" transform="scale(0.015625)"/>
       <path id="DejaVuSans-7b" d="M 3272 -594 
L 3272 -1044 
L 3078 -1044 
Q 2300 -1044 2036 -812 
Q 1772 -581 1772 109 
L 1772 856 
Q 1772 1328 1603 1509 
Q 1434 1691 991 1691 
L 800 1691 
L 800 2138 
L 991 2138 
Q 1438 2138 1605 2317 
Q 1772 2497 1772 2963 
L 1772 3713 
Q 1772 4403 2036 4633 
Q 2300 4863 3078 4863 
L 3272 4863 
L 3272 4416 
L 3059 4416 
Q 2619 4416 2484 4278 
Q 2350 4141 2350 3700 
L 2350 2925 
Q 2350 2434 2208 2212 
Q 2066 1991 1722 1913 
Q 2069 1828 2209 1606 
Q 2350 1384 2350 897 
L 2350 122 
Q 2350 -319 2484 -456 
Q 2619 -594 3059 -594 
L 3272 -594 
z
" transform="scale(0.015625)"/>
       <path id="DejaVuSans-3a" d="M 750 794 
L 1409 794 
L 1409 0 
L 750 0 
L 750 794 
z
M 750 3309 
L 1409 3309 
L 1409 2516 
L 750 2516 
L 750 3309 
z
" transform="scale(0.015625)"/>
       <path id="DejaVuSans-7d" d="M 800 -594 
L 1019 -594 
Q 1456 -594 1589 -459 
Q 1722 -325 1722 122 
L 1722 897 
Q 1722 1384 1862 1606 
Q 2003 1828 2350 1913 
Q 2003 1991 1862 2212 
Q 1722 2434 1722 2925 
L 1722 3700 
Q 1722 4144 1589 4280 
Q 1456 4416 1019 4416 
L 800 4416 
L 800 4863 
L 997 4863 
Q 1775 4863 2036 4633 
Q 2297 4403 2297 3713 
L 2297 2963 
Q 2297 2497 2465 2317 
Q 2634 2138 3078 2138 
L 3272 2138 
L 3272 1691 
L 3078 1691 
Q 2634 1691 2465 1509 
Q 2297 1328 2297 856 
L 2297 109 
Q 2297 -581 2036 -812 
Q 1775 -1044 997 -1044 
L 800 -1044 
L 800 -594 
z
" transform="scale(0.015625)"/>
      </defs>
      <use xlink:href="#DejaVuSans-5c"/>
      <use xlink:href="#DejaVuSans-67" x="33.691406"/>
      <use xlink:href="#DejaVuSans-61" x="97.167969"/>
      <use xlink:href="#DejaVuSans-6d" x="158.447266"/>
      <use xlink:href="#DejaVuSans-6d" x="255.859375"/>
      <use xlink:href="#DejaVuSans-61" x="353.271484"/>
      <use xlink:href="#DejaVuSans-20" x="414.550781"/>
      <use xlink:href="#DejaVuSans-3d" x="446.337891"/>
      <use xlink:href="#DejaVuSans-20" x="530.126953"/>
      <use xlink:href="#DejaVuSans-7b" x="561.914062"/>
      <use xlink:href="#DejaVuSans-67" x="625.537109"/>
      <use xlink:href="#DejaVuSans-61" x="689.013672"/>
      <use xlink:href="#DejaVuSans-6d" x="750.292969"/>
      <use xlink:href="#DejaVuSans-6d" x="847.705078"/>
      <use xlink:href="#DejaVuSans-61" x="945.117188"/>
      <use xlink:href="#DejaVuSans-3a" x="1006.396484"/>
      <use xlink:href="#DejaVuSans-2e" x="1040.087891"/>
      <use xlink:href="#DejaVuSans-32" x="1071.875"/>
      <use xlink:href="#DejaVuSans-66" x="1135.498047"/>
      <use xlink:href="#DejaVuSans-7d" x="1170.703125"/>
     </g>
    </g>
    <g id="line2d_32">
     <path d="M 208.8 192.565 
L 240.8 192.565 
L 272.8 192.565 
" style="fill: none; stroke: #ff7f0e; stroke-width: 1.5; stroke-linecap: square"/>
     <g>
      <use xlink:href="#ma722a617f5" x="240.8" y="192.565" style="fill: #ff7f0e; stroke: #ff7f0e"/>
     </g>
    </g>
    <g id="text_18">
     <!-- \gamma = {gamma:.2f} -->
     <g transform="translate(298.4 203.765) scale(0.32 -0.32)">
      <use xlink:href="#DejaVuSans-5c"/>
      <use xlink:href="#DejaVuSans-67" x="33.691406"/>
      <use xlink:href="#DejaVuSans-61" x="97.167969"/>
      <use xlink:href="#DejaVuSans-6d" x="158.447266"/>
      <use xlink:href="#DejaVuSans-6d" x="255.859375"/>
      <use xlink:href="#DejaVuSans-61" x="353.271484"/>
      <use xlink:href="#DejaVuSans-20" x="414.550781"/>
      <use xlink:href="#DejaVuSans-3d" x="446.337891"/>
      <use xlink:href="#DejaVuSans-20" x="530.126953"/>
      <use xlink:href="#DejaVuSans-7b" x="561.914062"/>
      <use xlink:href="#DejaVuSans-67" x="625.537109"/>
      <use xlink:href="#DejaVuSans-61" x="689.013672"/>
      <use xlink:href="#DejaVuSans-6d" x="750.292969"/>
      <use xlink:href="#DejaVuSans-6d" x="847.705078"/>
      <use xlink:href="#DejaVuSans-61" x="945.117188"/>
      <use xlink:href="#DejaVuSans-3a" x="1006.396484"/>
      <use xlink:href="#DejaVuSans-2e" x="1040.087891"/>
      <use xlink:href="#DejaVuSans-32" x="1071.875"/>
      <use xlink:href="#DejaVuSans-66" x="1135.498047"/>
      <use xlink:href="#DejaVuSans-7d" x="1170.703125"/>
     </g>
    </g>
    <g id="line2d_33">
     <path d="M 208.8 239.535 
L 240.8 239.535 
L 272.8 239.535 
" style="fill: none; stroke: #2ca02c; stroke-width: 1.5; stroke-linecap: square"/>
     <g>
      <use xlink:href="#m75f4889d9f" x="240.8" y="239.535" style="fill: #2ca02c; stroke: #2ca02c"/>
     </g>
    </g>
    <g id="text_19">
     <!-- \gamma = {gamma:.2f} -->
     <g transform="translate(298.4 250.735) scale(0.32 -0.32)">
      <use xlink:href="#DejaVuSans-5c"/>
      <use xlink:href="#DejaVuSans-67" x="33.691406"/>
      <use xlink:href="#DejaVuSans-61" x="97.167969"/>
      <use xlink:href="#DejaVuSans-6d" x="158.447266"/>
      <use xlink:href="#DejaVuSans-6d" x="255.859375"/>
      <use xlink:href="#DejaVuSans-61" x="353.271484"/>
      <use xlink:href="#DejaVuSans-20" x="414.550781"/>
      <use xlink:href="#DejaVuSans-3d" x="446.337891"/>
      <use xlink:href="#DejaVuSans-20" x="530.126953"/>
      <use xlink:href="#DejaVuSans-7b" x="561.914062"/>
      <use xlink:href="#DejaVuSans-67" x="625.537109"/>
      <use xlink:href="#DejaVuSans-61" x="689.013672"/>
      <use xlink:href="#DejaVuSans-6d" x="750.292969"/>
      <use xlink:href="#DejaVuSans-6d" x="847.705078"/>
      <use xlink:href="#DejaVuSans-61" x="945.117188"/>
      <use xlink:href="#DejaVuSans-3a" x="1006.396484"/>
      <use xlink:href="#DejaVuSans-2e" x="1040.087891"/>
      <use xlink:href="#DejaVuSans-32" x="1071.875"/>
      <use xlink:href="#DejaVuSans-66" x="1135.498047"/>
      <use xlink:href="#DejaVuSans-7d" x="1170.703125"/>
     </g>
    </g>
    <g id="line2d_34">
     <path d="M 208.8 286.505 
L 240.8 286.505 
L 272.8 286.505 
" style="fill: none; stroke: #d62728; stroke-width: 1.5; stroke-linecap: square"/>
     <g>
      <use xlink:href="#m0250147c2f" x="240.8" y="286.505" style="fill: #d62728; stroke: #d62728"/>
     </g>
    </g>
    <g id="text_20">
     <!-- \gamma = {gamma:.2f} -->
     <g transform="translate(298.4 297.705) scale(0.32 -0.32)">
      <use xlink:href="#DejaVuSans-5c"/>
      <use xlink:href="#DejaVuSans-67" x="33.691406"/>
      <use xlink:href="#DejaVuSans-61" x="97.167969"/>
      <use xlink:href="#DejaVuSans-6d" x="158.447266"/>
      <use xlink:href="#DejaVuSans-6d" x="255.859375"/>
      <use xlink:href="#DejaVuSans-61" x="353.271484"/>
      <use xlink:href="#DejaVuSans-20" x="414.550781"/>
      <use xlink:href="#DejaVuSans-3d" x="446.337891"/>
      <use xlink:href="#DejaVuSans-20" x="530.126953"/>
      <use xlink:href="#DejaVuSans-7b" x="561.914062"/>
      <use xlink:href="#DejaVuSans-67" x="625.537109"/>
      <use xlink:href="#DejaVuSans-61" x="689.013672"/>
      <use xlink:href="#DejaVuSans-6d" x="750.292969"/>
      <use xlink:href="#DejaVuSans-6d" x="847.705078"/>
      <use xlink:href="#DejaVuSans-61" x="945.117188"/>
      <use xlink:href="#DejaVuSans-3a" x="1006.396484"/>
      <use xlink:href="#DejaVuSans-2e" x="1040.087891"/>
      <use xlink:href="#DejaVuSans-32" x="1071.875"/>
      <use xlink:href="#DejaVuSans-66" x="1135.498047"/>
      <use xlink:href="#DejaVuSans-7d" x="1170.703125"/>
     </g>
    </g>
   </g>
  </g>
 </g>
 <defs>
  <clipPath id="p30f87d391a">
   <rect x="180" y="103.68" width="1116" height="665.28"/>
  </clipPath>
 </defs>
</svg>
