<?xml version="1.0" encoding="utf-8" standalone="no"?>
<!DOCTYPE svg PUBLIC "-//W3C//DTD SVG 1.1//EN"
  "http://www.w3.org/Graphics/SVG/1.1/DTD/svg11.dtd">
<svg xmlns:xlink="http://www.w3.org/1999/xlink" width="720pt" height="432pt" viewBox="0 0 720 432" xmlns="http://www.w3.org/2000/svg" version="1.1">
 <metadata>
  <rdf:RDF xmlns:dc="http://purl.org/dc/elements/1.1/" xmlns:cc="http://creativecommons.org/ns#" xmlns:rdf="http://www.w3.org/1999/02/22-rdf-syntax-ns#">
   <cc:Work>
    <dc:type rdf:resource="http://purl.org/dc/dcmitype/StillImage"/>
    <dc:date>2025-01-21T18:40:16.668179</dc:date>
    <dc:format>image/svg+xml</dc:format>
    <dc:creator>
     <cc:Agent>
      <dc:title>Matplotlib v3.9.4, https://matplotlib.org/</dc:title>
     </cc:Agent>
    </dc:creator>
   </cc:Work>
  </rdf:RDF>
 </metadata>
 <defs>
  <style type="text/css">*{stroke-linejoin: round; stroke-linecap: butt}</style>
 </defs>
 <g id="figure_1">
  <g id="patch_1">
   <path d="M 0 432 
L 720 432 
L 720 0 
L 0 0 
z
" style="fill: #ffffff"/>
  </g>
  <g id="axes_1">
   <g id="patch_2">
    <path d="M 90 384.48 
L 648 384.48 
L 648 51.84 
L 90 51.84 
z
" style="fill: #ffffff"/>
   </g>
   <g id="matplotlib.axis_1">
    <g id="xtick_1">
     <g id="line2d_1">
      <path d="M 115.363636 384.48 
L 115.363636 51.84 
" clip-path="url(#p6a7452d4ad)" style="fill: none; stroke: #b0b0b0; stroke-width: 0.8; stroke-linecap: square"/>
     </g>
     <g id="line2d_2">
      <defs>
       <path id="mb870a82a33" d="M 0 0 
L 0 3.5 
" style="stroke: #000000; stroke-width: 0.8"/>
      </defs>
      <g>
       <use xlink:href="#mb870a82a33" x="115.363636" y="384.48" style="stroke: #000000; stroke-width: 0.8"/>
      </g>
     </g>
     <g id="text_1">
      <!-- 0.0 -->
      <g transform="translate(107.412074 399.078438) scale(0.1 -0.1)">
       <defs>
        <path id="DejaVuSans-30" d="M 2034 4250 
Q 1547 4250 1301 3770 
Q 1056 3291 1056 2328 
Q 1056 1369 1301 889 
Q 1547 409 2034 409 
Q 2525 409 2770 889 
Q 3016 1369 3016 2328 
Q 3016 3291 2770 3770 
Q 2525 4250 2034 4250 
z
M 2034 4750 
Q 2819 4750 3233 4129 
Q 3647 3509 3647 2328 
Q 3647 1150 3233 529 
Q 2819 -91 2034 -91 
Q 1250 -91 836 529 
Q 422 1150 422 2328 
Q 422 3509 836 4129 
Q 1250 4750 2034 4750 
z
" transform="scale(0.015625)"/>
        <path id="DejaVuSans-2e" d="M 684 794 
L 1344 794 
L 1344 0 
L 684 0 
L 684 794 
z
" transform="scale(0.015625)"/>
       </defs>
       <use xlink:href="#DejaVuSans-30"/>
       <use xlink:href="#DejaVuSans-2e" x="63.623047"/>
       <use xlink:href="#DejaVuSans-30" x="95.410156"/>
      </g>
     </g>
    </g>
    <g id="xtick_2">
     <g id="line2d_3">
      <path d="M 216.818182 384.48 
L 216.818182 51.84 
" clip-path="url(#p6a7452d4ad)" style="fill: none; stroke: #b0b0b0; stroke-width: 0.8; stroke-linecap: square"/>
     </g>
     <g id="line2d_4">
      <g>
       <use xlink:href="#mb870a82a33" x="216.818182" y="384.48" style="stroke: #000000; stroke-width: 0.8"/>
      </g>
     </g>
     <g id="text_2">
      <!-- 0.2 -->
      <g transform="translate(208.866619 399.078438) scale(0.1 -0.1)">
       <defs>
        <path id="DejaVuSans-32" d="M 1228 531 
L 3431 531 
L 3431 0 
L 469 0 
L 469 531 
Q 828 903 1448 1529 
Q 2069 2156 2228 2338 
Q 2531 2678 2651 2914 
Q 2772 3150 2772 3378 
Q 2772 3750 2511 3984 
Q 2250 4219 1831 4219 
Q 1534 4219 1204 4116 
Q 875 4013 500 3803 
L 500 4441 
Q 881 4594 1212 4672 
Q 1544 4750 1819 4750 
Q 2544 4750 2975 4387 
Q 3406 4025 3406 3419 
Q 3406 3131 3298 2873 
Q 3191 2616 2906 2266 
Q 2828 2175 2409 1742 
Q 1991 1309 1228 531 
z
" transform="scale(0.015625)"/>
       </defs>
       <use xlink:href="#DejaVuSans-30"/>
       <use xlink:href="#DejaVuSans-2e" x="63.623047"/>
       <use xlink:href="#DejaVuSans-32" x="95.410156"/>
      </g>
     </g>
    </g>
    <g id="xtick_3">
     <g id="line2d_5">
      <path d="M 318.272727 384.48 
L 318.272727 51.84 
" clip-path="url(#p6a7452d4ad)" style="fill: none; stroke: #b0b0b0; stroke-width: 0.8; stroke-linecap: square"/>
     </g>
     <g id="line2d_6">
      <g>
       <use xlink:href="#mb870a82a33" x="318.272727" y="384.48" style="stroke: #000000; stroke-width: 0.8"/>
      </g>
     </g>
     <g id="text_3">
      <!-- 0.4 -->
      <g transform="translate(310.321165 399.078438) scale(0.1 -0.1)">
       <defs>
        <path id="DejaVuSans-34" d="M 2419 4116 
L 825 1625 
L 2419 1625 
L 2419 4116 
z
M 2253 4666 
L 3047 4666 
L 3047 1625 
L 3713 1625 
L 3713 1100 
L 3047 1100 
L 3047 0 
L 2419 0 
L 2419 1100 
L 313 1100 
L 313 1709 
L 2253 4666 
z
" transform="scale(0.015625)"/>
       </defs>
       <use xlink:href="#DejaVuSans-30"/>
       <use xlink:href="#DejaVuSans-2e" x="63.623047"/>
       <use xlink:href="#DejaVuSans-34" x="95.410156"/>
      </g>
     </g>
    </g>
    <g id="xtick_4">
     <g id="line2d_7">
      <path d="M 419.727273 384.48 
L 419.727273 51.84 
" clip-path="url(#p6a7452d4ad)" style="fill: none; stroke: #b0b0b0; stroke-width: 0.8; stroke-linecap: square"/>
     </g>
     <g id="line2d_8">
      <g>
       <use xlink:href="#mb870a82a33" x="419.727273" y="384.48" style="stroke: #000000; stroke-width: 0.8"/>
      </g>
     </g>
     <g id="text_4">
      <!-- 0.6 -->
      <g transform="translate(411.77571 399.078438) scale(0.1 -0.1)">
       <defs>
        <path id="DejaVuSans-36" d="M 2113 2584 
Q 1688 2584 1439 2293 
Q 1191 2003 1191 1497 
Q 1191 994 1439 701 
Q 1688 409 2113 409 
Q 2538 409 2786 701 
Q 3034 994 3034 1497 
Q 3034 2003 2786 2293 
Q 2538 2584 2113 2584 
z
M 3366 4563 
L 3366 3988 
Q 3128 4100 2886 4159 
Q 2644 4219 2406 4219 
Q 1781 4219 1451 3797 
Q 1122 3375 1075 2522 
Q 1259 2794 1537 2939 
Q 1816 3084 2150 3084 
Q 2853 3084 3261 2657 
Q 3669 2231 3669 1497 
Q 3669 778 3244 343 
Q 2819 -91 2113 -91 
Q 1303 -91 875 529 
Q 447 1150 447 2328 
Q 447 3434 972 4092 
Q 1497 4750 2381 4750 
Q 2619 4750 2861 4703 
Q 3103 4656 3366 4563 
z
" transform="scale(0.015625)"/>
       </defs>
       <use xlink:href="#DejaVuSans-30"/>
       <use xlink:href="#DejaVuSans-2e" x="63.623047"/>
       <use xlink:href="#DejaVuSans-36" x="95.410156"/>
      </g>
     </g>
    </g>
    <g id="xtick_5">
     <g id="line2d_9">
      <path d="M 521.181818 384.48 
L 521.181818 51.84 
" clip-path="url(#p6a7452d4ad)" style="fill: none; stroke: #b0b0b0; stroke-width: 0.8; stroke-linecap: square"/>
     </g>
     <g id="line2d_10">
      <g>
       <use xlink:href="#mb870a82a33" x="521.181818" y="384.48" style="stroke: #000000; stroke-width: 0.8"/>
      </g>
     </g>
     <g id="text_5">
      <!-- 0.8 -->
      <g transform="translate(513.230256 399.078438) scale(0.1 -0.1)">
       <defs>
        <path id="DejaVuSans-38" d="M 2034 2216 
Q 1584 2216 1326 1975 
Q 1069 1734 1069 1313 
Q 1069 891 1326 650 
Q 1584 409 2034 409 
Q 2484 409 2743 651 
Q 3003 894 3003 1313 
Q 3003 1734 2745 1975 
Q 2488 2216 2034 2216 
z
M 1403 2484 
Q 997 2584 770 2862 
Q 544 3141 544 3541 
Q 544 4100 942 4425 
Q 1341 4750 2034 4750 
Q 2731 4750 3128 4425 
Q 3525 4100 3525 3541 
Q 3525 3141 3298 2862 
Q 3072 2584 2669 2484 
Q 3125 2378 3379 2068 
Q 3634 1759 3634 1313 
Q 3634 634 3220 271 
Q 2806 -91 2034 -91 
Q 1263 -91 848 271 
Q 434 634 434 1313 
Q 434 1759 690 2068 
Q 947 2378 1403 2484 
z
M 1172 3481 
Q 1172 3119 1398 2916 
Q 1625 2713 2034 2713 
Q 2441 2713 2670 2916 
Q 2900 3119 2900 3481 
Q 2900 3844 2670 4047 
Q 2441 4250 2034 4250 
Q 1625 4250 1398 4047 
Q 1172 3844 1172 3481 
z
" transform="scale(0.015625)"/>
       </defs>
       <use xlink:href="#DejaVuSans-30"/>
       <use xlink:href="#DejaVuSans-2e" x="63.623047"/>
       <use xlink:href="#DejaVuSans-38" x="95.410156"/>
      </g>
     </g>
    </g>
    <g id="xtick_6">
     <g id="line2d_11">
      <path d="M 622.636364 384.48 
L 622.636364 51.84 
" clip-path="url(#p6a7452d4ad)" style="fill: none; stroke: #b0b0b0; stroke-width: 0.8; stroke-linecap: square"/>
     </g>
     <g id="line2d_12">
      <g>
       <use xlink:href="#mb870a82a33" x="622.636364" y="384.48" style="stroke: #000000; stroke-width: 0.8"/>
      </g>
     </g>
     <g id="text_6">
      <!-- 1.0 -->
      <g transform="translate(614.684801 399.078438) scale(0.1 -0.1)">
       <defs>
        <path id="DejaVuSans-31" d="M 794 531 
L 1825 531 
L 1825 4091 
L 703 3866 
L 703 4441 
L 1819 4666 
L 2450 4666 
L 2450 531 
L 3481 531 
L 3481 0 
L 794 0 
L 794 531 
z
" transform="scale(0.015625)"/>
       </defs>
       <use xlink:href="#DejaVuSans-31"/>
       <use xlink:href="#DejaVuSans-2e" x="63.623047"/>
       <use xlink:href="#DejaVuSans-30" x="95.410156"/>
      </g>
     </g>
    </g>
    <g id="text_7">
     <!-- Loss -->
     <g transform="translate(358.032812 412.756563) scale(0.1 -0.1)">
      <defs>
       <path id="DejaVuSans-4c" d="M 628 4666 
L 1259 4666 
L 1259 531 
L 3531 531 
L 3531 0 
L 628 0 
L 628 4666 
z
" transform="scale(0.015625)"/>
       <path id="DejaVuSans-6f" d="M 1959 3097 
Q 1497 3097 1228 2736 
Q 959 2375 959 1747 
Q 959 1119 1226 758 
Q 1494 397 1959 397 
Q 2419 397 2687 759 
Q 2956 1122 2956 1747 
Q 2956 2369 2687 2733 
Q 2419 3097 1959 3097 
z
M 1959 3584 
Q 2709 3584 3137 3096 
Q 3566 2609 3566 1747 
Q 3566 888 3137 398 
Q 2709 -91 1959 -91 
Q 1206 -91 779 398 
Q 353 888 353 1747 
Q 353 2609 779 3096 
Q 1206 3584 1959 3584 
z
" transform="scale(0.015625)"/>
       <path id="DejaVuSans-73" d="M 2834 3397 
L 2834 2853 
Q 2591 2978 2328 3040 
Q 2066 3103 1784 3103 
Q 1356 3103 1142 2972 
Q 928 2841 928 2578 
Q 928 2378 1081 2264 
Q 1234 2150 1697 2047 
L 1894 2003 
Q 2506 1872 2764 1633 
Q 3022 1394 3022 966 
Q 3022 478 2636 193 
Q 2250 -91 1575 -91 
Q 1294 -91 989 -36 
Q 684 19 347 128 
L 347 722 
Q 666 556 975 473 
Q 1284 391 1588 391 
Q 1994 391 2212 530 
Q 2431 669 2431 922 
Q 2431 1156 2273 1281 
Q 2116 1406 1581 1522 
L 1381 1569 
Q 847 1681 609 1914 
Q 372 2147 372 2553 
Q 372 3047 722 3315 
Q 1072 3584 1716 3584 
Q 2034 3584 2315 3537 
Q 2597 3491 2834 3397 
z
" transform="scale(0.015625)"/>
      </defs>
      <use xlink:href="#DejaVuSans-4c"/>
      <use xlink:href="#DejaVuSans-6f" x="53.962891"/>
      <use xlink:href="#DejaVuSans-73" x="115.144531"/>
      <use xlink:href="#DejaVuSans-73" x="167.244141"/>
     </g>
    </g>
   </g>
   <g id="matplotlib.axis_2">
    <g id="ytick_1">
     <g id="line2d_13">
      <path d="M 90 369.36 
L 648 369.36 
" clip-path="url(#p6a7452d4ad)" style="fill: none; stroke: #b0b0b0; stroke-width: 0.8; stroke-linecap: square"/>
     </g>
     <g id="line2d_14">
      <defs>
       <path id="m1c5a56f81e" d="M 0 0 
L -3.5 0 
" style="stroke: #000000; stroke-width: 0.8"/>
      </defs>
      <g>
       <use xlink:href="#m1c5a56f81e" x="90" y="369.36" style="stroke: #000000; stroke-width: 0.8"/>
      </g>
     </g>
     <g id="text_8">
      <!-- 0.000 -->
      <g transform="translate(54.371875 373.159219) scale(0.1 -0.1)">
       <use xlink:href="#DejaVuSans-30"/>
       <use xlink:href="#DejaVuSans-2e" x="63.623047"/>
       <use xlink:href="#DejaVuSans-30" x="95.410156"/>
       <use xlink:href="#DejaVuSans-30" x="159.033203"/>
       <use xlink:href="#DejaVuSans-30" x="222.65625"/>
      </g>
     </g>
    </g>
    <g id="ytick_2">
     <g id="line2d_15">
      <path d="M 90 323.240685 
L 648 323.240685 
" clip-path="url(#p6a7452d4ad)" style="fill: none; stroke: #b0b0b0; stroke-width: 0.8; stroke-linecap: square"/>
     </g>
     <g id="line2d_16">
      <g>
       <use xlink:href="#m1c5a56f81e" x="90" y="323.240685" style="stroke: #000000; stroke-width: 0.8"/>
      </g>
     </g>
     <g id="text_9">
      <!-- 0.001 -->
      <g transform="translate(54.371875 327.039904) scale(0.1 -0.1)">
       <use xlink:href="#DejaVuSans-30"/>
       <use xlink:href="#DejaVuSans-2e" x="63.623047"/>
       <use xlink:href="#DejaVuSans-30" x="95.410156"/>
       <use xlink:href="#DejaVuSans-30" x="159.033203"/>
       <use xlink:href="#DejaVuSans-31" x="222.65625"/>
      </g>
     </g>
    </g>
    <g id="ytick_3">
     <g id="line2d_17">
      <path d="M 90 277.121371 
L 648 277.121371 
" clip-path="url(#p6a7452d4ad)" style="fill: none; stroke: #b0b0b0; stroke-width: 0.8; stroke-linecap: square"/>
     </g>
     <g id="line2d_18">
      <g>
       <use xlink:href="#m1c5a56f81e" x="90" y="277.121371" style="stroke: #000000; stroke-width: 0.8"/>
      </g>
     </g>
     <g id="text_10">
      <!-- 0.002 -->
      <g transform="translate(54.371875 280.920589) scale(0.1 -0.1)">
       <use xlink:href="#DejaVuSans-30"/>
       <use xlink:href="#DejaVuSans-2e" x="63.623047"/>
       <use xlink:href="#DejaVuSans-30" x="95.410156"/>
       <use xlink:href="#DejaVuSans-30" x="159.033203"/>
       <use xlink:href="#DejaVuSans-32" x="222.65625"/>
      </g>
     </g>
    </g>
    <g id="ytick_4">
     <g id="line2d_19">
      <path d="M 90 231.002056 
L 648 231.002056 
" clip-path="url(#p6a7452d4ad)" style="fill: none; stroke: #b0b0b0; stroke-width: 0.8; stroke-linecap: square"/>
     </g>
     <g id="line2d_20">
      <g>
       <use xlink:href="#m1c5a56f81e" x="90" y="231.002056" style="stroke: #000000; stroke-width: 0.8"/>
      </g>
     </g>
     <g id="text_11">
      <!-- 0.003 -->
      <g transform="translate(54.371875 234.801275) scale(0.1 -0.1)">
       <defs>
        <path id="DejaVuSans-33" d="M 2597 2516 
Q 3050 2419 3304 2112 
Q 3559 1806 3559 1356 
Q 3559 666 3084 287 
Q 2609 -91 1734 -91 
Q 1441 -91 1130 -33 
Q 819 25 488 141 
L 488 750 
Q 750 597 1062 519 
Q 1375 441 1716 441 
Q 2309 441 2620 675 
Q 2931 909 2931 1356 
Q 2931 1769 2642 2001 
Q 2353 2234 1838 2234 
L 1294 2234 
L 1294 2753 
L 1863 2753 
Q 2328 2753 2575 2939 
Q 2822 3125 2822 3475 
Q 2822 3834 2567 4026 
Q 2313 4219 1838 4219 
Q 1578 4219 1281 4162 
Q 984 4106 628 3988 
L 628 4550 
Q 988 4650 1302 4700 
Q 1616 4750 1894 4750 
Q 2613 4750 3031 4423 
Q 3450 4097 3450 3541 
Q 3450 3153 3228 2886 
Q 3006 2619 2597 2516 
z
" transform="scale(0.015625)"/>
       </defs>
       <use xlink:href="#DejaVuSans-30"/>
       <use xlink:href="#DejaVuSans-2e" x="63.623047"/>
       <use xlink:href="#DejaVuSans-30" x="95.410156"/>
       <use xlink:href="#DejaVuSans-30" x="159.033203"/>
       <use xlink:href="#DejaVuSans-33" x="222.65625"/>
      </g>
     </g>
    </g>
    <g id="ytick_5">
     <g id="line2d_21">
      <path d="M 90 184.882741 
L 648 184.882741 
" clip-path="url(#p6a7452d4ad)" style="fill: none; stroke: #b0b0b0; stroke-width: 0.8; stroke-linecap: square"/>
     </g>
     <g id="line2d_22">
      <g>
       <use xlink:href="#m1c5a56f81e" x="90" y="184.882741" style="stroke: #000000; stroke-width: 0.8"/>
      </g>
     </g>
     <g id="text_12">
      <!-- 0.004 -->
      <g transform="translate(54.371875 188.68196) scale(0.1 -0.1)">
       <use xlink:href="#DejaVuSans-30"/>
       <use xlink:href="#DejaVuSans-2e" x="63.623047"/>
       <use xlink:href="#DejaVuSans-30" x="95.410156"/>
       <use xlink:href="#DejaVuSans-30" x="159.033203"/>
       <use xlink:href="#DejaVuSans-34" x="222.65625"/>
      </g>
     </g>
    </g>
    <g id="ytick_6">
     <g id="line2d_23">
      <path d="M 90 138.763427 
L 648 138.763427 
" clip-path="url(#p6a7452d4ad)" style="fill: none; stroke: #b0b0b0; stroke-width: 0.8; stroke-linecap: square"/>
     </g>
     <g id="line2d_24">
      <g>
       <use xlink:href="#m1c5a56f81e" x="90" y="138.763427" style="stroke: #000000; stroke-width: 0.8"/>
      </g>
     </g>
     <g id="text_13">
      <!-- 0.005 -->
      <g transform="translate(54.371875 142.562645) scale(0.1 -0.1)">
       <defs>
        <path id="DejaVuSans-35" d="M 691 4666 
L 3169 4666 
L 3169 4134 
L 1269 4134 
L 1269 2991 
Q 1406 3038 1543 3061 
Q 1681 3084 1819 3084 
Q 2600 3084 3056 2656 
Q 3513 2228 3513 1497 
Q 3513 744 3044 326 
Q 2575 -91 1722 -91 
Q 1428 -91 1123 -41 
Q 819 9 494 109 
L 494 744 
Q 775 591 1075 516 
Q 1375 441 1709 441 
Q 2250 441 2565 725 
Q 2881 1009 2881 1497 
Q 2881 1984 2565 2268 
Q 2250 2553 1709 2553 
Q 1456 2553 1204 2497 
Q 953 2441 691 2322 
L 691 4666 
z
" transform="scale(0.015625)"/>
       </defs>
       <use xlink:href="#DejaVuSans-30"/>
       <use xlink:href="#DejaVuSans-2e" x="63.623047"/>
       <use xlink:href="#DejaVuSans-30" x="95.410156"/>
       <use xlink:href="#DejaVuSans-30" x="159.033203"/>
       <use xlink:href="#DejaVuSans-35" x="222.65625"/>
      </g>
     </g>
    </g>
    <g id="ytick_7">
     <g id="line2d_25">
      <path d="M 90 92.644112 
L 648 92.644112 
" clip-path="url(#p6a7452d4ad)" style="fill: none; stroke: #b0b0b0; stroke-width: 0.8; stroke-linecap: square"/>
     </g>
     <g id="line2d_26">
      <g>
       <use xlink:href="#m1c5a56f81e" x="90" y="92.644112" style="stroke: #000000; stroke-width: 0.8"/>
      </g>
     </g>
     <g id="text_14">
      <!-- 0.006 -->
      <g transform="translate(54.371875 96.443331) scale(0.1 -0.1)">
       <use xlink:href="#DejaVuSans-30"/>
       <use xlink:href="#DejaVuSans-2e" x="63.623047"/>
       <use xlink:href="#DejaVuSans-30" x="95.410156"/>
       <use xlink:href="#DejaVuSans-30" x="159.033203"/>
       <use xlink:href="#DejaVuSans-36" x="222.65625"/>
      </g>
     </g>
    </g>
    <g id="text_15">
     <!-- Probability -->
     <g transform="translate(48.292187 244.588906) rotate(-90) scale(0.1 -0.1)">
      <defs>
       <path id="DejaVuSans-50" d="M 1259 4147 
L 1259 2394 
L 2053 2394 
Q 2494 2394 2734 2622 
Q 2975 2850 2975 3272 
Q 2975 3691 2734 3919 
Q 2494 4147 2053 4147 
L 1259 4147 
z
M 628 4666 
L 2053 4666 
Q 2838 4666 3239 4311 
Q 3641 3956 3641 3272 
Q 3641 2581 3239 2228 
Q 2838 1875 2053 1875 
L 1259 1875 
L 1259 0 
L 628 0 
L 628 4666 
z
" transform="scale(0.015625)"/>
       <path id="DejaVuSans-72" d="M 2631 2963 
Q 2534 3019 2420 3045 
Q 2306 3072 2169 3072 
Q 1681 3072 1420 2755 
Q 1159 2438 1159 1844 
L 1159 0 
L 581 0 
L 581 3500 
L 1159 3500 
L 1159 2956 
Q 1341 3275 1631 3429 
Q 1922 3584 2338 3584 
Q 2397 3584 2469 3576 
Q 2541 3569 2628 3553 
L 2631 2963 
z
" transform="scale(0.015625)"/>
       <path id="DejaVuSans-62" d="M 3116 1747 
Q 3116 2381 2855 2742 
Q 2594 3103 2138 3103 
Q 1681 3103 1420 2742 
Q 1159 2381 1159 1747 
Q 1159 1113 1420 752 
Q 1681 391 2138 391 
Q 2594 391 2855 752 
Q 3116 1113 3116 1747 
z
M 1159 2969 
Q 1341 3281 1617 3432 
Q 1894 3584 2278 3584 
Q 2916 3584 3314 3078 
Q 3713 2572 3713 1747 
Q 3713 922 3314 415 
Q 2916 -91 2278 -91 
Q 1894 -91 1617 61 
Q 1341 213 1159 525 
L 1159 0 
L 581 0 
L 581 4863 
L 1159 4863 
L 1159 2969 
z
" transform="scale(0.015625)"/>
       <path id="DejaVuSans-61" d="M 2194 1759 
Q 1497 1759 1228 1600 
Q 959 1441 959 1056 
Q 959 750 1161 570 
Q 1363 391 1709 391 
Q 2188 391 2477 730 
Q 2766 1069 2766 1631 
L 2766 1759 
L 2194 1759 
z
M 3341 1997 
L 3341 0 
L 2766 0 
L 2766 531 
Q 2569 213 2275 61 
Q 1981 -91 1556 -91 
Q 1019 -91 701 211 
Q 384 513 384 1019 
Q 384 1609 779 1909 
Q 1175 2209 1959 2209 
L 2766 2209 
L 2766 2266 
Q 2766 2663 2505 2880 
Q 2244 3097 1772 3097 
Q 1472 3097 1187 3025 
Q 903 2953 641 2809 
L 641 3341 
Q 956 3463 1253 3523 
Q 1550 3584 1831 3584 
Q 2591 3584 2966 3190 
Q 3341 2797 3341 1997 
z
" transform="scale(0.015625)"/>
       <path id="DejaVuSans-69" d="M 603 3500 
L 1178 3500 
L 1178 0 
L 603 0 
L 603 3500 
z
M 603 4863 
L 1178 4863 
L 1178 4134 
L 603 4134 
L 603 4863 
z
" transform="scale(0.015625)"/>
       <path id="DejaVuSans-6c" d="M 603 4863 
L 1178 4863 
L 1178 0 
L 603 0 
L 603 4863 
z
" transform="scale(0.015625)"/>
       <path id="DejaVuSans-74" d="M 1172 4494 
L 1172 3500 
L 2356 3500 
L 2356 3053 
L 1172 3053 
L 1172 1153 
Q 1172 725 1289 603 
Q 1406 481 1766 481 
L 2356 481 
L 2356 0 
L 1766 0 
Q 1100 0 847 248 
Q 594 497 594 1153 
L 594 3053 
L 172 3053 
L 172 3500 
L 594 3500 
L 594 4494 
L 1172 4494 
z
" transform="scale(0.015625)"/>
       <path id="DejaVuSans-79" d="M 2059 -325 
Q 1816 -950 1584 -1140 
Q 1353 -1331 966 -1331 
L 506 -1331 
L 506 -850 
L 844 -850 
Q 1081 -850 1212 -737 
Q 1344 -625 1503 -206 
L 1606 56 
L 191 3500 
L 800 3500 
L 1894 763 
L 2988 3500 
L 3597 3500 
L 2059 -325 
z
" transform="scale(0.015625)"/>
      </defs>
      <use xlink:href="#DejaVuSans-50"/>
      <use xlink:href="#DejaVuSans-72" x="58.552734"/>
      <use xlink:href="#DejaVuSans-6f" x="97.416016"/>
      <use xlink:href="#DejaVuSans-62" x="158.597656"/>
      <use xlink:href="#DejaVuSans-61" x="222.074219"/>
      <use xlink:href="#DejaVuSans-62" x="283.353516"/>
      <use xlink:href="#DejaVuSans-69" x="346.830078"/>
      <use xlink:href="#DejaVuSans-6c" x="374.613281"/>
      <use xlink:href="#DejaVuSans-69" x="402.396484"/>
      <use xlink:href="#DejaVuSans-74" x="430.179688"/>
      <use xlink:href="#DejaVuSans-79" x="469.388672"/>
     </g>
    </g>
   </g>
   <g id="line2d_27">
    <path d="M 115.363636 182.674851 
L 125.716141 197.305302 
L 136.068646 210.789955 
L 146.42115 223.229672 
L 156.773655 234.715621 
L 167.12616 245.330217 
L 177.478664 255.147981 
L 187.831169 264.236302 
L 198.183673 272.656121 
L 208.536178 280.46255 
L 218.888683 287.705426 
L 229.241187 294.429814 
L 239.593692 300.676455 
L 249.946197 306.482175 
L 260.298701 311.880255 
L 270.651206 316.900763 
L 281.003711 321.570856 
L 291.356215 325.915059 
L 301.70872 329.955512 
L 312.061224 333.712203 
L 322.413729 337.203178 
L 332.766234 340.444729 
L 343.118738 343.451579 
L 353.471243 346.237047 
L 363.823748 348.813197 
L 374.176252 351.190987 
L 384.528757 353.380408 
L 394.881262 355.390606 
L 405.233766 357.230014 
L 415.586271 358.906466 
L 425.938776 360.427313 
L 436.29128 361.79954 
L 446.643785 363.029869 
L 456.996289 364.124873 
L 467.348794 365.091078 
L 477.701299 365.935069 
L 488.053803 366.663588 
L 498.406308 367.283629 
L 508.758813 367.80253 
L 519.111317 368.228045 
L 529.463822 368.568407 
L 539.816327 368.832372 
L 550.168831 369.029217 
L 560.521336 369.168706 
L 570.87384 369.260986 
L 581.226345 369.316391 
L 591.57885 369.345135 
L 601.931354 369.356831 
L 612.283859 369.359786 
L 622.636364 369.36 
" clip-path="url(#p6a7452d4ad)" style="fill: none; stroke: #1f77b4; stroke-width: 1.5; stroke-linecap: square"/>
    <defs>
     <path id="m122e0f7987" d="M 0 3 
C 0.795609 3 1.55874 2.683901 2.12132 2.12132 
C 2.683901 1.55874 3 0.795609 3 0 
C 3 -0.795609 2.683901 -1.55874 2.12132 -2.12132 
C 1.55874 -2.683901 0.795609 -3 0 -3 
C -0.795609 -3 -1.55874 -2.683901 -2.12132 -2.12132 
C -2.683901 -1.55874 -3 -0.795609 -3 0 
C -3 0.795609 -2.683901 1.55874 -2.12132 2.12132 
C -1.55874 2.683901 -0.795609 3 0 3 
z
" style="stroke: #1f77b4"/>
    </defs>
    <g clip-path="url(#p6a7452d4ad)">
     <use xlink:href="#m122e0f7987" x="115.363636" y="182.674851" style="fill: #1f77b4; stroke: #1f77b4"/>
     <use xlink:href="#m122e0f7987" x="125.716141" y="197.305302" style="fill: #1f77b4; stroke: #1f77b4"/>
     <use xlink:href="#m122e0f7987" x="136.068646" y="210.789955" style="fill: #1f77b4; stroke: #1f77b4"/>
     <use xlink:href="#m122e0f7987" x="146.42115" y="223.229672" style="fill: #1f77b4; stroke: #1f77b4"/>
     <use xlink:href="#m122e0f7987" x="156.773655" y="234.715621" style="fill: #1f77b4; stroke: #1f77b4"/>
     <use xlink:href="#m122e0f7987" x="167.12616" y="245.330217" style="fill: #1f77b4; stroke: #1f77b4"/>
     <use xlink:href="#m122e0f7987" x="177.478664" y="255.147981" style="fill: #1f77b4; stroke: #1f77b4"/>
     <use xlink:href="#m122e0f7987" x="187.831169" y="264.236302" style="fill: #1f77b4; stroke: #1f77b4"/>
     <use xlink:href="#m122e0f7987" x="198.183673" y="272.656121" style="fill: #1f77b4; stroke: #1f77b4"/>
     <use xlink:href="#m122e0f7987" x="208.536178" y="280.46255" style="fill: #1f77b4; stroke: #1f77b4"/>
     <use xlink:href="#m122e0f7987" x="218.888683" y="287.705426" style="fill: #1f77b4; stroke: #1f77b4"/>
     <use xlink:href="#m122e0f7987" x="229.241187" y="294.429814" style="fill: #1f77b4; stroke: #1f77b4"/>
     <use xlink:href="#m122e0f7987" x="239.593692" y="300.676455" style="fill: #1f77b4; stroke: #1f77b4"/>
     <use xlink:href="#m122e0f7987" x="249.946197" y="306.482175" style="fill: #1f77b4; stroke: #1f77b4"/>
     <use xlink:href="#m122e0f7987" x="260.298701" y="311.880255" style="fill: #1f77b4; stroke: #1f77b4"/>
     <use xlink:href="#m122e0f7987" x="270.651206" y="316.900763" style="fill: #1f77b4; stroke: #1f77b4"/>
     <use xlink:href="#m122e0f7987" x="281.003711" y="321.570856" style="fill: #1f77b4; stroke: #1f77b4"/>
     <use xlink:href="#m122e0f7987" x="291.356215" y="325.915059" style="fill: #1f77b4; stroke: #1f77b4"/>
     <use xlink:href="#m122e0f7987" x="301.70872" y="329.955512" style="fill: #1f77b4; stroke: #1f77b4"/>
     <use xlink:href="#m122e0f7987" x="312.061224" y="333.712203" style="fill: #1f77b4; stroke: #1f77b4"/>
     <use xlink:href="#m122e0f7987" x="322.413729" y="337.203178" style="fill: #1f77b4; stroke: #1f77b4"/>
     <use xlink:href="#m122e0f7987" x="332.766234" y="340.444729" style="fill: #1f77b4; stroke: #1f77b4"/>
     <use xlink:href="#m122e0f7987" x="343.118738" y="343.451579" style="fill: #1f77b4; stroke: #1f77b4"/>
     <use xlink:href="#m122e0f7987" x="353.471243" y="346.237047" style="fill: #1f77b4; stroke: #1f77b4"/>
     <use xlink:href="#m122e0f7987" x="363.823748" y="348.813197" style="fill: #1f77b4; stroke: #1f77b4"/>
     <use xlink:href="#m122e0f7987" x="374.176252" y="351.190987" style="fill: #1f77b4; stroke: #1f77b4"/>
     <use xlink:href="#m122e0f7987" x="384.528757" y="353.380408" style="fill: #1f77b4; stroke: #1f77b4"/>
     <use xlink:href="#m122e0f7987" x="394.881262" y="355.390606" style="fill: #1f77b4; stroke: #1f77b4"/>
     <use xlink:href="#m122e0f7987" x="405.233766" y="357.230014" style="fill: #1f77b4; stroke: #1f77b4"/>
     <use xlink:href="#m122e0f7987" x="415.586271" y="358.906466" style="fill: #1f77b4; stroke: #1f77b4"/>
     <use xlink:href="#m122e0f7987" x="425.938776" y="360.427313" style="fill: #1f77b4; stroke: #1f77b4"/>
     <use xlink:href="#m122e0f7987" x="436.29128" y="361.79954" style="fill: #1f77b4; stroke: #1f77b4"/>
     <use xlink:href="#m122e0f7987" x="446.643785" y="363.029869" style="fill: #1f77b4; stroke: #1f77b4"/>
     <use xlink:href="#m122e0f7987" x="456.996289" y="364.124873" style="fill: #1f77b4; stroke: #1f77b4"/>
     <use xlink:href="#m122e0f7987" x="467.348794" y="365.091078" style="fill: #1f77b4; stroke: #1f77b4"/>
     <use xlink:href="#m122e0f7987" x="477.701299" y="365.935069" style="fill: #1f77b4; stroke: #1f77b4"/>
     <use xlink:href="#m122e0f7987" x="488.053803" y="366.663588" style="fill: #1f77b4; stroke: #1f77b4"/>
     <use xlink:href="#m122e0f7987" x="498.406308" y="367.283629" style="fill: #1f77b4; stroke: #1f77b4"/>
     <use xlink:href="#m122e0f7987" x="508.758813" y="367.80253" style="fill: #1f77b4; stroke: #1f77b4"/>
     <use xlink:href="#m122e0f7987" x="519.111317" y="368.228045" style="fill: #1f77b4; stroke: #1f77b4"/>
     <use xlink:href="#m122e0f7987" x="529.463822" y="368.568407" style="fill: #1f77b4; stroke: #1f77b4"/>
     <use xlink:href="#m122e0f7987" x="539.816327" y="368.832372" style="fill: #1f77b4; stroke: #1f77b4"/>
     <use xlink:href="#m122e0f7987" x="550.168831" y="369.029217" style="fill: #1f77b4; stroke: #1f77b4"/>
     <use xlink:href="#m122e0f7987" x="560.521336" y="369.168706" style="fill: #1f77b4; stroke: #1f77b4"/>
     <use xlink:href="#m122e0f7987" x="570.87384" y="369.260986" style="fill: #1f77b4; stroke: #1f77b4"/>
     <use xlink:href="#m122e0f7987" x="581.226345" y="369.316391" style="fill: #1f77b4; stroke: #1f77b4"/>
     <use xlink:href="#m122e0f7987" x="591.57885" y="369.345135" style="fill: #1f77b4; stroke: #1f77b4"/>
     <use xlink:href="#m122e0f7987" x="601.931354" y="369.356831" style="fill: #1f77b4; stroke: #1f77b4"/>
     <use xlink:href="#m122e0f7987" x="612.283859" y="369.359786" style="fill: #1f77b4; stroke: #1f77b4"/>
     <use xlink:href="#m122e0f7987" x="622.636364" y="369.36" style="fill: #1f77b4; stroke: #1f77b4"/>
    </g>
   </g>
   <g id="line2d_28">
    <path d="M 115.363636 90.244256 
L 125.716141 102.551897 
L 136.068646 114.292211 
L 146.42115 125.518533 
L 156.773655 136.278975 
L 167.12616 146.616885 
L 177.478664 156.571259 
L 187.831169 166.177104 
L 198.183673 175.465756 
L 208.536178 184.465166 
L 218.888683 193.200149 
L 229.241187 201.692602 
L 239.593692 209.961696 
L 249.946197 218.024042 
L 260.298701 225.893838 
L 270.651206 233.582986 
L 281.003711 241.101206 
L 291.356215 248.456119 
L 301.70872 255.653327 
L 312.061224 262.696475 
L 322.413729 269.587306 
L 332.766234 276.325707 
L 343.118738 282.90975 
L 353.471243 289.335736 
L 363.823748 295.598229 
L 374.176252 301.690106 
L 384.528757 307.602612 
L 394.881262 313.325427 
L 405.233766 318.846756 
L 415.586271 324.15345 
L 425.938776 329.231153 
L 436.29128 334.064506 
L 446.643785 338.637403 
L 456.996289 342.93331 
L 467.348794 346.935682 
L 477.701299 350.628466 
L 488.053803 353.99672 
L 498.406308 357.02737 
L 508.758813 359.710095 
L 519.111317 362.038368 
L 529.463822 364.010632 
L 539.816327 365.631596 
L 550.168831 366.913577 
L 560.521336 367.877792 
L 570.87384 368.555395 
L 581.226345 368.987931 
L 591.57885 369.226684 
L 601.931354 369.330083 
L 612.283859 369.357869 
L 622.636364 369.36 
" clip-path="url(#p6a7452d4ad)" style="fill: none; stroke: #ff7f0e; stroke-width: 1.5; stroke-linecap: square"/>
    <defs>
     <path id="m6ebb37a0b9" d="M 0 3 
C 0.795609 3 1.55874 2.683901 2.12132 2.12132 
C 2.683901 1.55874 3 0.795609 3 0 
C 3 -0.795609 2.683901 -1.55874 2.12132 -2.12132 
C 1.55874 -2.683901 0.795609 -3 0 -3 
C -0.795609 -3 -1.55874 -2.683901 -2.12132 -2.12132 
C -2.683901 -1.55874 -3 -0.795609 -3 0 
C -3 0.795609 -2.683901 1.55874 -2.12132 2.12132 
C -1.55874 2.683901 -0.795609 3 0 3 
z
" style="stroke: #ff7f0e"/>
    </defs>
    <g clip-path="url(#p6a7452d4ad)">
     <use xlink:href="#m6ebb37a0b9" x="115.363636" y="90.244256" style="fill: #ff7f0e; stroke: #ff7f0e"/>
     <use xlink:href="#m6ebb37a0b9" x="125.716141" y="102.551897" style="fill: #ff7f0e; stroke: #ff7f0e"/>
     <use xlink:href="#m6ebb37a0b9" x="136.068646" y="114.292211" style="fill: #ff7f0e; stroke: #ff7f0e"/>
     <use xlink:href="#m6ebb37a0b9" x="146.42115" y="125.518533" style="fill: #ff7f0e; stroke: #ff7f0e"/>
     <use xlink:href="#m6ebb37a0b9" x="156.773655" y="136.278975" style="fill: #ff7f0e; stroke: #ff7f0e"/>
     <use xlink:href="#m6ebb37a0b9" x="167.12616" y="146.616885" style="fill: #ff7f0e; stroke: #ff7f0e"/>
     <use xlink:href="#m6ebb37a0b9" x="177.478664" y="156.571259" style="fill: #ff7f0e; stroke: #ff7f0e"/>
     <use xlink:href="#m6ebb37a0b9" x="187.831169" y="166.177104" style="fill: #ff7f0e; stroke: #ff7f0e"/>
     <use xlink:href="#m6ebb37a0b9" x="198.183673" y="175.465756" style="fill: #ff7f0e; stroke: #ff7f0e"/>
     <use xlink:href="#m6ebb37a0b9" x="208.536178" y="184.465166" style="fill: #ff7f0e; stroke: #ff7f0e"/>
     <use xlink:href="#m6ebb37a0b9" x="218.888683" y="193.200149" style="fill: #ff7f0e; stroke: #ff7f0e"/>
     <use xlink:href="#m6ebb37a0b9" x="229.241187" y="201.692602" style="fill: #ff7f0e; stroke: #ff7f0e"/>
     <use xlink:href="#m6ebb37a0b9" x="239.593692" y="209.961696" style="fill: #ff7f0e; stroke: #ff7f0e"/>
     <use xlink:href="#m6ebb37a0b9" x="249.946197" y="218.024042" style="fill: #ff7f0e; stroke: #ff7f0e"/>
     <use xlink:href="#m6ebb37a0b9" x="260.298701" y="225.893838" style="fill: #ff7f0e; stroke: #ff7f0e"/>
     <use xlink:href="#m6ebb37a0b9" x="270.651206" y="233.582986" style="fill: #ff7f0e; stroke: #ff7f0e"/>
     <use xlink:href="#m6ebb37a0b9" x="281.003711" y="241.101206" style="fill: #ff7f0e; stroke: #ff7f0e"/>
     <use xlink:href="#m6ebb37a0b9" x="291.356215" y="248.456119" style="fill: #ff7f0e; stroke: #ff7f0e"/>
     <use xlink:href="#m6ebb37a0b9" x="301.70872" y="255.653327" style="fill: #ff7f0e; stroke: #ff7f0e"/>
     <use xlink:href="#m6ebb37a0b9" x="312.061224" y="262.696475" style="fill: #ff7f0e; stroke: #ff7f0e"/>
     <use xlink:href="#m6ebb37a0b9" x="322.413729" y="269.587306" style="fill: #ff7f0e; stroke: #ff7f0e"/>
     <use xlink:href="#m6ebb37a0b9" x="332.766234" y="276.325707" style="fill: #ff7f0e; stroke: #ff7f0e"/>
     <use xlink:href="#m6ebb37a0b9" x="343.118738" y="282.90975" style="fill: #ff7f0e; stroke: #ff7f0e"/>
     <use xlink:href="#m6ebb37a0b9" x="353.471243" y="289.335736" style="fill: #ff7f0e; stroke: #ff7f0e"/>
     <use xlink:href="#m6ebb37a0b9" x="363.823748" y="295.598229" style="fill: #ff7f0e; stroke: #ff7f0e"/>
     <use xlink:href="#m6ebb37a0b9" x="374.176252" y="301.690106" style="fill: #ff7f0e; stroke: #ff7f0e"/>
     <use xlink:href="#m6ebb37a0b9" x="384.528757" y="307.602612" style="fill: #ff7f0e; stroke: #ff7f0e"/>
     <use xlink:href="#m6ebb37a0b9" x="394.881262" y="313.325427" style="fill: #ff7f0e; stroke: #ff7f0e"/>
     <use xlink:href="#m6ebb37a0b9" x="405.233766" y="318.846756" style="fill: #ff7f0e; stroke: #ff7f0e"/>
     <use xlink:href="#m6ebb37a0b9" x="415.586271" y="324.15345" style="fill: #ff7f0e; stroke: #ff7f0e"/>
     <use xlink:href="#m6ebb37a0b9" x="425.938776" y="329.231153" style="fill: #ff7f0e; stroke: #ff7f0e"/>
     <use xlink:href="#m6ebb37a0b9" x="436.29128" y="334.064506" style="fill: #ff7f0e; stroke: #ff7f0e"/>
     <use xlink:href="#m6ebb37a0b9" x="446.643785" y="338.637403" style="fill: #ff7f0e; stroke: #ff7f0e"/>
     <use xlink:href="#m6ebb37a0b9" x="456.996289" y="342.93331" style="fill: #ff7f0e; stroke: #ff7f0e"/>
     <use xlink:href="#m6ebb37a0b9" x="467.348794" y="346.935682" style="fill: #ff7f0e; stroke: #ff7f0e"/>
     <use xlink:href="#m6ebb37a0b9" x="477.701299" y="350.628466" style="fill: #ff7f0e; stroke: #ff7f0e"/>
     <use xlink:href="#m6ebb37a0b9" x="488.053803" y="353.99672" style="fill: #ff7f0e; stroke: #ff7f0e"/>
     <use xlink:href="#m6ebb37a0b9" x="498.406308" y="357.02737" style="fill: #ff7f0e; stroke: #ff7f0e"/>
     <use xlink:href="#m6ebb37a0b9" x="508.758813" y="359.710095" style="fill: #ff7f0e; stroke: #ff7f0e"/>
     <use xlink:href="#m6ebb37a0b9" x="519.111317" y="362.038368" style="fill: #ff7f0e; stroke: #ff7f0e"/>
     <use xlink:href="#m6ebb37a0b9" x="529.463822" y="364.010632" style="fill: #ff7f0e; stroke: #ff7f0e"/>
     <use xlink:href="#m6ebb37a0b9" x="539.816327" y="365.631596" style="fill: #ff7f0e; stroke: #ff7f0e"/>
     <use xlink:href="#m6ebb37a0b9" x="550.168831" y="366.913577" style="fill: #ff7f0e; stroke: #ff7f0e"/>
     <use xlink:href="#m6ebb37a0b9" x="560.521336" y="367.877792" style="fill: #ff7f0e; stroke: #ff7f0e"/>
     <use xlink:href="#m6ebb37a0b9" x="570.87384" y="368.555395" style="fill: #ff7f0e; stroke: #ff7f0e"/>
     <use xlink:href="#m6ebb37a0b9" x="581.226345" y="368.987931" style="fill: #ff7f0e; stroke: #ff7f0e"/>
     <use xlink:href="#m6ebb37a0b9" x="591.57885" y="369.226684" style="fill: #ff7f0e; stroke: #ff7f0e"/>
     <use xlink:href="#m6ebb37a0b9" x="601.931354" y="369.330083" style="fill: #ff7f0e; stroke: #ff7f0e"/>
     <use xlink:href="#m6ebb37a0b9" x="612.283859" y="369.357869" style="fill: #ff7f0e; stroke: #ff7f0e"/>
     <use xlink:href="#m6ebb37a0b9" x="622.636364" y="369.36" style="fill: #ff7f0e; stroke: #ff7f0e"/>
    </g>
   </g>
   <g id="line2d_29">
    <path d="M 115.363636 97.056892 
L 125.716141 94.435334 
L 136.068646 91.822345 
L 146.42115 89.23191 
L 156.773655 86.679271 
L 167.12616 84.181081 
L 177.478664 81.755551 
L 187.831169 79.422616 
L 198.183673 77.204101 
L 208.536178 75.1239 
L 218.888683 73.208153 
L 229.241187 71.485431 
L 239.593692 69.986919 
L 249.946197 68.746598 
L 260.298701 67.801414 
L 270.651206 67.191439 
L 281.003711 66.96 
L 291.356215 67.153778 
L 301.70872 67.822861 
L 312.061224 69.020721 
L 322.413729 70.804115 
L 332.766234 73.232858 
L 343.118738 76.369458 
L 353.471243 80.278557 
L 363.823748 85.026134 
L 374.176252 90.678415 
L 384.528757 97.300427 
L 394.881262 104.954102 
L 405.233766 113.695874 
L 415.586271 123.573642 
L 425.938776 134.623032 
L 436.29128 146.862852 
L 446.643785 160.289665 
L 456.996289 174.871456 
L 467.348794 190.540414 
L 477.701299 207.184993 
L 488.053803 224.641571 
L 498.406308 242.686332 
L 508.758813 261.028376 
L 519.111317 279.305639 
L 529.463822 297.085968 
L 539.816327 313.876624 
L 550.168831 329.146569 
L 560.521336 342.366806 
L 570.87384 353.074162 
L 581.226345 360.96181 
L 591.57885 365.99245 
L 601.931354 368.511127 
L 612.283859 369.291801 
L 622.636364 369.36 
" clip-path="url(#p6a7452d4ad)" style="fill: none; stroke: #2ca02c; stroke-width: 1.5; stroke-linecap: square"/>
    <defs>
     <path id="me7a04b254d" d="M 0 3 
C 0.795609 3 1.55874 2.683901 2.12132 2.12132 
C 2.683901 1.55874 3 0.795609 3 0 
C 3 -0.795609 2.683901 -1.55874 2.12132 -2.12132 
C 1.55874 -2.683901 0.795609 -3 0 -3 
C -0.795609 -3 -1.55874 -2.683901 -2.12132 -2.12132 
C -2.683901 -1.55874 -3 -0.795609 -3 0 
C -3 0.795609 -2.683901 1.55874 -2.12132 2.12132 
C -1.55874 2.683901 -0.795609 3 0 3 
z
" style="stroke: #2ca02c"/>
    </defs>
    <g clip-path="url(#p6a7452d4ad)">
     <use xlink:href="#me7a04b254d" x="115.363636" y="97.056892" style="fill: #2ca02c; stroke: #2ca02c"/>
     <use xlink:href="#me7a04b254d" x="125.716141" y="94.435334" style="fill: #2ca02c; stroke: #2ca02c"/>
     <use xlink:href="#me7a04b254d" x="136.068646" y="91.822345" style="fill: #2ca02c; stroke: #2ca02c"/>
     <use xlink:href="#me7a04b254d" x="146.42115" y="89.23191" style="fill: #2ca02c; stroke: #2ca02c"/>
     <use xlink:href="#me7a04b254d" x="156.773655" y="86.679271" style="fill: #2ca02c; stroke: #2ca02c"/>
     <use xlink:href="#me7a04b254d" x="167.12616" y="84.181081" style="fill: #2ca02c; stroke: #2ca02c"/>
     <use xlink:href="#me7a04b254d" x="177.478664" y="81.755551" style="fill: #2ca02c; stroke: #2ca02c"/>
     <use xlink:href="#me7a04b254d" x="187.831169" y="79.422616" style="fill: #2ca02c; stroke: #2ca02c"/>
     <use xlink:href="#me7a04b254d" x="198.183673" y="77.204101" style="fill: #2ca02c; stroke: #2ca02c"/>
     <use xlink:href="#me7a04b254d" x="208.536178" y="75.1239" style="fill: #2ca02c; stroke: #2ca02c"/>
     <use xlink:href="#me7a04b254d" x="218.888683" y="73.208153" style="fill: #2ca02c; stroke: #2ca02c"/>
     <use xlink:href="#me7a04b254d" x="229.241187" y="71.485431" style="fill: #2ca02c; stroke: #2ca02c"/>
     <use xlink:href="#me7a04b254d" x="239.593692" y="69.986919" style="fill: #2ca02c; stroke: #2ca02c"/>
     <use xlink:href="#me7a04b254d" x="249.946197" y="68.746598" style="fill: #2ca02c; stroke: #2ca02c"/>
     <use xlink:href="#me7a04b254d" x="260.298701" y="67.801414" style="fill: #2ca02c; stroke: #2ca02c"/>
     <use xlink:href="#me7a04b254d" x="270.651206" y="67.191439" style="fill: #2ca02c; stroke: #2ca02c"/>
     <use xlink:href="#me7a04b254d" x="281.003711" y="66.96" style="fill: #2ca02c; stroke: #2ca02c"/>
     <use xlink:href="#me7a04b254d" x="291.356215" y="67.153778" style="fill: #2ca02c; stroke: #2ca02c"/>
     <use xlink:href="#me7a04b254d" x="301.70872" y="67.822861" style="fill: #2ca02c; stroke: #2ca02c"/>
     <use xlink:href="#me7a04b254d" x="312.061224" y="69.020721" style="fill: #2ca02c; stroke: #2ca02c"/>
     <use xlink:href="#me7a04b254d" x="322.413729" y="70.804115" style="fill: #2ca02c; stroke: #2ca02c"/>
     <use xlink:href="#me7a04b254d" x="332.766234" y="73.232858" style="fill: #2ca02c; stroke: #2ca02c"/>
     <use xlink:href="#me7a04b254d" x="343.118738" y="76.369458" style="fill: #2ca02c; stroke: #2ca02c"/>
     <use xlink:href="#me7a04b254d" x="353.471243" y="80.278557" style="fill: #2ca02c; stroke: #2ca02c"/>
     <use xlink:href="#me7a04b254d" x="363.823748" y="85.026134" style="fill: #2ca02c; stroke: #2ca02c"/>
     <use xlink:href="#me7a04b254d" x="374.176252" y="90.678415" style="fill: #2ca02c; stroke: #2ca02c"/>
     <use xlink:href="#me7a04b254d" x="384.528757" y="97.300427" style="fill: #2ca02c; stroke: #2ca02c"/>
     <use xlink:href="#me7a04b254d" x="394.881262" y="104.954102" style="fill: #2ca02c; stroke: #2ca02c"/>
     <use xlink:href="#me7a04b254d" x="405.233766" y="113.695874" style="fill: #2ca02c; stroke: #2ca02c"/>
     <use xlink:href="#me7a04b254d" x="415.586271" y="123.573642" style="fill: #2ca02c; stroke: #2ca02c"/>
     <use xlink:href="#me7a04b254d" x="425.938776" y="134.623032" style="fill: #2ca02c; stroke: #2ca02c"/>
     <use xlink:href="#me7a04b254d" x="436.29128" y="146.862852" style="fill: #2ca02c; stroke: #2ca02c"/>
     <use xlink:href="#me7a04b254d" x="446.643785" y="160.289665" style="fill: #2ca02c; stroke: #2ca02c"/>
     <use xlink:href="#me7a04b254d" x="456.996289" y="174.871456" style="fill: #2ca02c; stroke: #2ca02c"/>
     <use xlink:href="#me7a04b254d" x="467.348794" y="190.540414" style="fill: #2ca02c; stroke: #2ca02c"/>
     <use xlink:href="#me7a04b254d" x="477.701299" y="207.184993" style="fill: #2ca02c; stroke: #2ca02c"/>
     <use xlink:href="#me7a04b254d" x="488.053803" y="224.641571" style="fill: #2ca02c; stroke: #2ca02c"/>
     <use xlink:href="#me7a04b254d" x="498.406308" y="242.686332" style="fill: #2ca02c; stroke: #2ca02c"/>
     <use xlink:href="#me7a04b254d" x="508.758813" y="261.028376" style="fill: #2ca02c; stroke: #2ca02c"/>
     <use xlink:href="#me7a04b254d" x="519.111317" y="279.305639" style="fill: #2ca02c; stroke: #2ca02c"/>
     <use xlink:href="#me7a04b254d" x="529.463822" y="297.085968" style="fill: #2ca02c; stroke: #2ca02c"/>
     <use xlink:href="#me7a04b254d" x="539.816327" y="313.876624" style="fill: #2ca02c; stroke: #2ca02c"/>
     <use xlink:href="#me7a04b254d" x="550.168831" y="329.146569" style="fill: #2ca02c; stroke: #2ca02c"/>
     <use xlink:href="#me7a04b254d" x="560.521336" y="342.366806" style="fill: #2ca02c; stroke: #2ca02c"/>
     <use xlink:href="#me7a04b254d" x="570.87384" y="353.074162" style="fill: #2ca02c; stroke: #2ca02c"/>
     <use xlink:href="#me7a04b254d" x="581.226345" y="360.96181" style="fill: #2ca02c; stroke: #2ca02c"/>
     <use xlink:href="#me7a04b254d" x="591.57885" y="365.99245" style="fill: #2ca02c; stroke: #2ca02c"/>
     <use xlink:href="#me7a04b254d" x="601.931354" y="368.511127" style="fill: #2ca02c; stroke: #2ca02c"/>
     <use xlink:href="#me7a04b254d" x="612.283859" y="369.291801" style="fill: #2ca02c; stroke: #2ca02c"/>
     <use xlink:href="#me7a04b254d" x="622.636364" y="369.36" style="fill: #2ca02c; stroke: #2ca02c"/>
    </g>
   </g>
   <g id="line2d_30">
    <path d="M 115.363636 367.941607 
L 125.716141 367.766798 
L 136.068646 367.567458 
L 146.42115 367.339771 
L 156.773655 367.079276 
L 167.12616 366.780754 
L 177.478664 366.438086 
L 187.831169 366.044092 
L 198.183673 365.590335 
L 208.536178 365.066893 
L 218.888683 364.462083 
L 229.241187 363.762137 
L 239.593692 362.950818 
L 249.946197 362.008965 
L 260.298701 360.91396 
L 270.651206 359.639099 
L 281.003711 358.15286 
L 291.356215 356.418052 
L 301.70872 354.390838 
L 312.061224 352.019627 
L 322.413729 349.243829 
L 332.766234 345.992499 
L 343.118738 342.1829 
L 353.471243 337.719055 
L 363.823748 332.490415 
L 374.176252 326.370832 
L 384.528757 319.218154 
L 394.881262 310.874906 
L 405.233766 301.170749 
L 415.586271 289.927713 
L 425.938776 276.969608 
L 436.29128 262.137532 
L 446.643785 245.314006 
L 456.996289 226.458944 
L 467.348794 205.661167 
L 477.701299 183.209303 
L 488.053803 159.684841 
L 498.406308 136.076759 
L 508.758813 113.909444 
L 519.111317 95.360498 
L 529.463822 83.318347 
L 539.816327 81.287563 
L 550.168831 92.993241 
L 560.521336 121.482564 
L 570.87384 167.534253 
L 581.226345 227.424259 
L 591.57885 290.877227 
L 601.931354 341.757379 
L 612.283859 366.227229 
L 622.636364 369.36 
" clip-path="url(#p6a7452d4ad)" style="fill: none; stroke: #d62728; stroke-width: 1.5; stroke-linecap: square"/>
    <defs>
     <path id="ma9eeb2e0bd" d="M 0 3 
C 0.795609 3 1.55874 2.683901 2.12132 2.12132 
C 2.683901 1.55874 3 0.795609 3 0 
C 3 -0.795609 2.683901 -1.55874 2.12132 -2.12132 
C 1.55874 -2.683901 0.795609 -3 0 -3 
C -0.795609 -3 -1.55874 -2.683901 -2.12132 -2.12132 
C -2.683901 -1.55874 -3 -0.795609 -3 0 
C -3 0.795609 -2.683901 1.55874 -2.12132 2.12132 
C -1.55874 2.683901 -0.795609 3 0 3 
z
" style="stroke: #d62728"/>
    </defs>
    <g clip-path="url(#p6a7452d4ad)">
     <use xlink:href="#ma9eeb2e0bd" x="115.363636" y="367.941607" style="fill: #d62728; stroke: #d62728"/>
     <use xlink:href="#ma9eeb2e0bd" x="125.716141" y="367.766798" style="fill: #d62728; stroke: #d62728"/>
     <use xlink:href="#ma9eeb2e0bd" x="136.068646" y="367.567458" style="fill: #d62728; stroke: #d62728"/>
     <use xlink:href="#ma9eeb2e0bd" x="146.42115" y="367.339771" style="fill: #d62728; stroke: #d62728"/>
     <use xlink:href="#ma9eeb2e0bd" x="156.773655" y="367.079276" style="fill: #d62728; stroke: #d62728"/>
     <use xlink:href="#ma9eeb2e0bd" x="167.12616" y="366.780754" style="fill: #d62728; stroke: #d62728"/>
     <use xlink:href="#ma9eeb2e0bd" x="177.478664" y="366.438086" style="fill: #d62728; stroke: #d62728"/>
     <use xlink:href="#ma9eeb2e0bd" x="187.831169" y="366.044092" style="fill: #d62728; stroke: #d62728"/>
     <use xlink:href="#ma9eeb2e0bd" x="198.183673" y="365.590335" style="fill: #d62728; stroke: #d62728"/>
     <use xlink:href="#ma9eeb2e0bd" x="208.536178" y="365.066893" style="fill: #d62728; stroke: #d62728"/>
     <use xlink:href="#ma9eeb2e0bd" x="218.888683" y="364.462083" style="fill: #d62728; stroke: #d62728"/>
     <use xlink:href="#ma9eeb2e0bd" x="229.241187" y="363.762137" style="fill: #d62728; stroke: #d62728"/>
     <use xlink:href="#ma9eeb2e0bd" x="239.593692" y="362.950818" style="fill: #d62728; stroke: #d62728"/>
     <use xlink:href="#ma9eeb2e0bd" x="249.946197" y="362.008965" style="fill: #d62728; stroke: #d62728"/>
     <use xlink:href="#ma9eeb2e0bd" x="260.298701" y="360.91396" style="fill: #d62728; stroke: #d62728"/>
     <use xlink:href="#ma9eeb2e0bd" x="270.651206" y="359.639099" style="fill: #d62728; stroke: #d62728"/>
     <use xlink:href="#ma9eeb2e0bd" x="281.003711" y="358.15286" style="fill: #d62728; stroke: #d62728"/>
     <use xlink:href="#ma9eeb2e0bd" x="291.356215" y="356.418052" style="fill: #d62728; stroke: #d62728"/>
     <use xlink:href="#ma9eeb2e0bd" x="301.70872" y="354.390838" style="fill: #d62728; stroke: #d62728"/>
     <use xlink:href="#ma9eeb2e0bd" x="312.061224" y="352.019627" style="fill: #d62728; stroke: #d62728"/>
     <use xlink:href="#ma9eeb2e0bd" x="322.413729" y="349.243829" style="fill: #d62728; stroke: #d62728"/>
     <use xlink:href="#ma9eeb2e0bd" x="332.766234" y="345.992499" style="fill: #d62728; stroke: #d62728"/>
     <use xlink:href="#ma9eeb2e0bd" x="343.118738" y="342.1829" style="fill: #d62728; stroke: #d62728"/>
     <use xlink:href="#ma9eeb2e0bd" x="353.471243" y="337.719055" style="fill: #d62728; stroke: #d62728"/>
     <use xlink:href="#ma9eeb2e0bd" x="363.823748" y="332.490415" style="fill: #d62728; stroke: #d62728"/>
     <use xlink:href="#ma9eeb2e0bd" x="374.176252" y="326.370832" style="fill: #d62728; stroke: #d62728"/>
     <use xlink:href="#ma9eeb2e0bd" x="384.528757" y="319.218154" style="fill: #d62728; stroke: #d62728"/>
     <use xlink:href="#ma9eeb2e0bd" x="394.881262" y="310.874906" style="fill: #d62728; stroke: #d62728"/>
     <use xlink:href="#ma9eeb2e0bd" x="405.233766" y="301.170749" style="fill: #d62728; stroke: #d62728"/>
     <use xlink:href="#ma9eeb2e0bd" x="415.586271" y="289.927713" style="fill: #d62728; stroke: #d62728"/>
     <use xlink:href="#ma9eeb2e0bd" x="425.938776" y="276.969608" style="fill: #d62728; stroke: #d62728"/>
     <use xlink:href="#ma9eeb2e0bd" x="436.29128" y="262.137532" style="fill: #d62728; stroke: #d62728"/>
     <use xlink:href="#ma9eeb2e0bd" x="446.643785" y="245.314006" style="fill: #d62728; stroke: #d62728"/>
     <use xlink:href="#ma9eeb2e0bd" x="456.996289" y="226.458944" style="fill: #d62728; stroke: #d62728"/>
     <use xlink:href="#ma9eeb2e0bd" x="467.348794" y="205.661167" style="fill: #d62728; stroke: #d62728"/>
     <use xlink:href="#ma9eeb2e0bd" x="477.701299" y="183.209303" style="fill: #d62728; stroke: #d62728"/>
     <use xlink:href="#ma9eeb2e0bd" x="488.053803" y="159.684841" style="fill: #d62728; stroke: #d62728"/>
     <use xlink:href="#ma9eeb2e0bd" x="498.406308" y="136.076759" style="fill: #d62728; stroke: #d62728"/>
     <use xlink:href="#ma9eeb2e0bd" x="508.758813" y="113.909444" style="fill: #d62728; stroke: #d62728"/>
     <use xlink:href="#ma9eeb2e0bd" x="519.111317" y="95.360498" style="fill: #d62728; stroke: #d62728"/>
     <use xlink:href="#ma9eeb2e0bd" x="529.463822" y="83.318347" style="fill: #d62728; stroke: #d62728"/>
     <use xlink:href="#ma9eeb2e0bd" x="539.816327" y="81.287563" style="fill: #d62728; stroke: #d62728"/>
     <use xlink:href="#ma9eeb2e0bd" x="550.168831" y="92.993241" style="fill: #d62728; stroke: #d62728"/>
     <use xlink:href="#ma9eeb2e0bd" x="560.521336" y="121.482564" style="fill: #d62728; stroke: #d62728"/>
     <use xlink:href="#ma9eeb2e0bd" x="570.87384" y="167.534253" style="fill: #d62728; stroke: #d62728"/>
     <use xlink:href="#ma9eeb2e0bd" x="581.226345" y="227.424259" style="fill: #d62728; stroke: #d62728"/>
     <use xlink:href="#ma9eeb2e0bd" x="591.57885" y="290.877227" style="fill: #d62728; stroke: #d62728"/>
     <use xlink:href="#ma9eeb2e0bd" x="601.931354" y="341.757379" style="fill: #d62728; stroke: #d62728"/>
     <use xlink:href="#ma9eeb2e0bd" x="612.283859" y="366.227229" style="fill: #d62728; stroke: #d62728"/>
     <use xlink:href="#ma9eeb2e0bd" x="622.636364" y="369.36" style="fill: #d62728; stroke: #d62728"/>
    </g>
   </g>
   <g id="patch_3">
    <path d="M 90 384.48 
L 90 51.84 
" style="fill: none; stroke: #000000; stroke-width: 0.8; stroke-linejoin: miter; stroke-linecap: square"/>
   </g>
   <g id="patch_4">
    <path d="M 648 384.48 
L 648 51.84 
" style="fill: none; stroke: #000000; stroke-width: 0.8; stroke-linejoin: miter; stroke-linecap: square"/>
   </g>
   <g id="patch_5">
    <path d="M 90 384.48 
L 648 384.48 
" style="fill: none; stroke: #000000; stroke-width: 0.8; stroke-linejoin: miter; stroke-linecap: square"/>
   </g>
   <g id="patch_6">
    <path d="M 90 51.84 
L 648 51.84 
" style="fill: none; stroke: #000000; stroke-width: 0.8; stroke-linejoin: miter; stroke-linecap: square"/>
   </g>
   <g id="text_16">
    <!-- Probability Loss as a function of Loss grouped by Gamma Value -->
    <g transform="translate(178.669688 45.84) scale(0.12 -0.12)">
     <defs>
      <path id="DejaVuSans-20" transform="scale(0.015625)"/>
      <path id="DejaVuSans-66" d="M 2375 4863 
L 2375 4384 
L 1825 4384 
Q 1516 4384 1395 4259 
Q 1275 4134 1275 3809 
L 1275 3500 
L 2222 3500 
L 2222 3053 
L 1275 3053 
L 1275 0 
L 697 0 
L 697 3053 
L 147 3053 
L 147 3500 
L 697 3500 
L 697 3744 
Q 697 4328 969 4595 
Q 1241 4863 1831 4863 
L 2375 4863 
z
" transform="scale(0.015625)"/>
      <path id="DejaVuSans-75" d="M 544 1381 
L 544 3500 
L 1119 3500 
L 1119 1403 
Q 1119 906 1312 657 
Q 1506 409 1894 409 
Q 2359 409 2629 706 
Q 2900 1003 2900 1516 
L 2900 3500 
L 3475 3500 
L 3475 0 
L 2900 0 
L 2900 538 
Q 2691 219 2414 64 
Q 2138 -91 1772 -91 
Q 1169 -91 856 284 
Q 544 659 544 1381 
z
M 1991 3584 
L 1991 3584 
z
" transform="scale(0.015625)"/>
      <path id="DejaVuSans-6e" d="M 3513 2113 
L 3513 0 
L 2938 0 
L 2938 2094 
Q 2938 2591 2744 2837 
Q 2550 3084 2163 3084 
Q 1697 3084 1428 2787 
Q 1159 2491 1159 1978 
L 1159 0 
L 581 0 
L 581 3500 
L 1159 3500 
L 1159 2956 
Q 1366 3272 1645 3428 
Q 1925 3584 2291 3584 
Q 2894 3584 3203 3211 
Q 3513 2838 3513 2113 
z
" transform="scale(0.015625)"/>
      <path id="DejaVuSans-63" d="M 3122 3366 
L 3122 2828 
Q 2878 2963 2633 3030 
Q 2388 3097 2138 3097 
Q 1578 3097 1268 2742 
Q 959 2388 959 1747 
Q 959 1106 1268 751 
Q 1578 397 2138 397 
Q 2388 397 2633 464 
Q 2878 531 3122 666 
L 3122 134 
Q 2881 22 2623 -34 
Q 2366 -91 2075 -91 
Q 1284 -91 818 406 
Q 353 903 353 1747 
Q 353 2603 823 3093 
Q 1294 3584 2113 3584 
Q 2378 3584 2631 3529 
Q 2884 3475 3122 3366 
z
" transform="scale(0.015625)"/>
      <path id="DejaVuSans-67" d="M 2906 1791 
Q 2906 2416 2648 2759 
Q 2391 3103 1925 3103 
Q 1463 3103 1205 2759 
Q 947 2416 947 1791 
Q 947 1169 1205 825 
Q 1463 481 1925 481 
Q 2391 481 2648 825 
Q 2906 1169 2906 1791 
z
M 3481 434 
Q 3481 -459 3084 -895 
Q 2688 -1331 1869 -1331 
Q 1566 -1331 1297 -1286 
Q 1028 -1241 775 -1147 
L 775 -588 
Q 1028 -725 1275 -790 
Q 1522 -856 1778 -856 
Q 2344 -856 2625 -561 
Q 2906 -266 2906 331 
L 2906 616 
Q 2728 306 2450 153 
Q 2172 0 1784 0 
Q 1141 0 747 490 
Q 353 981 353 1791 
Q 353 2603 747 3093 
Q 1141 3584 1784 3584 
Q 2172 3584 2450 3431 
Q 2728 3278 2906 2969 
L 2906 3500 
L 3481 3500 
L 3481 434 
z
" transform="scale(0.015625)"/>
      <path id="DejaVuSans-70" d="M 1159 525 
L 1159 -1331 
L 581 -1331 
L 581 3500 
L 1159 3500 
L 1159 2969 
Q 1341 3281 1617 3432 
Q 1894 3584 2278 3584 
Q 2916 3584 3314 3078 
Q 3713 2572 3713 1747 
Q 3713 922 3314 415 
Q 2916 -91 2278 -91 
Q 1894 -91 1617 61 
Q 1341 213 1159 525 
z
M 3116 1747 
Q 3116 2381 2855 2742 
Q 2594 3103 2138 3103 
Q 1681 3103 1420 2742 
Q 1159 2381 1159 1747 
Q 1159 1113 1420 752 
Q 1681 391 2138 391 
Q 2594 391 2855 752 
Q 3116 1113 3116 1747 
z
" transform="scale(0.015625)"/>
      <path id="DejaVuSans-65" d="M 3597 1894 
L 3597 1613 
L 953 1613 
Q 991 1019 1311 708 
Q 1631 397 2203 397 
Q 2534 397 2845 478 
Q 3156 559 3463 722 
L 3463 178 
Q 3153 47 2828 -22 
Q 2503 -91 2169 -91 
Q 1331 -91 842 396 
Q 353 884 353 1716 
Q 353 2575 817 3079 
Q 1281 3584 2069 3584 
Q 2775 3584 3186 3129 
Q 3597 2675 3597 1894 
z
M 3022 2063 
Q 3016 2534 2758 2815 
Q 2500 3097 2075 3097 
Q 1594 3097 1305 2825 
Q 1016 2553 972 2059 
L 3022 2063 
z
" transform="scale(0.015625)"/>
      <path id="DejaVuSans-64" d="M 2906 2969 
L 2906 4863 
L 3481 4863 
L 3481 0 
L 2906 0 
L 2906 525 
Q 2725 213 2448 61 
Q 2172 -91 1784 -91 
Q 1150 -91 751 415 
Q 353 922 353 1747 
Q 353 2572 751 3078 
Q 1150 3584 1784 3584 
Q 2172 3584 2448 3432 
Q 2725 3281 2906 2969 
z
M 947 1747 
Q 947 1113 1208 752 
Q 1469 391 1925 391 
Q 2381 391 2643 752 
Q 2906 1113 2906 1747 
Q 2906 2381 2643 2742 
Q 2381 3103 1925 3103 
Q 1469 3103 1208 2742 
Q 947 2381 947 1747 
z
" transform="scale(0.015625)"/>
      <path id="DejaVuSans-47" d="M 3809 666 
L 3809 1919 
L 2778 1919 
L 2778 2438 
L 4434 2438 
L 4434 434 
Q 4069 175 3628 42 
Q 3188 -91 2688 -91 
Q 1594 -91 976 548 
Q 359 1188 359 2328 
Q 359 3472 976 4111 
Q 1594 4750 2688 4750 
Q 3144 4750 3555 4637 
Q 3966 4525 4313 4306 
L 4313 3634 
Q 3963 3931 3569 4081 
Q 3175 4231 2741 4231 
Q 1884 4231 1454 3753 
Q 1025 3275 1025 2328 
Q 1025 1384 1454 906 
Q 1884 428 2741 428 
Q 3075 428 3337 486 
Q 3600 544 3809 666 
z
" transform="scale(0.015625)"/>
      <path id="DejaVuSans-6d" d="M 3328 2828 
Q 3544 3216 3844 3400 
Q 4144 3584 4550 3584 
Q 5097 3584 5394 3201 
Q 5691 2819 5691 2113 
L 5691 0 
L 5113 0 
L 5113 2094 
Q 5113 2597 4934 2840 
Q 4756 3084 4391 3084 
Q 3944 3084 3684 2787 
Q 3425 2491 3425 1978 
L 3425 0 
L 2847 0 
L 2847 2094 
Q 2847 2600 2669 2842 
Q 2491 3084 2119 3084 
Q 1678 3084 1418 2786 
Q 1159 2488 1159 1978 
L 1159 0 
L 581 0 
L 581 3500 
L 1159 3500 
L 1159 2956 
Q 1356 3278 1631 3431 
Q 1906 3584 2284 3584 
Q 2666 3584 2933 3390 
Q 3200 3197 3328 2828 
z
" transform="scale(0.015625)"/>
      <path id="DejaVuSans-56" d="M 1831 0 
L 50 4666 
L 709 4666 
L 2188 738 
L 3669 4666 
L 4325 4666 
L 2547 0 
L 1831 0 
z
" transform="scale(0.015625)"/>
     </defs>
     <use xlink:href="#DejaVuSans-50"/>
     <use xlink:href="#DejaVuSans-72" x="58.552734"/>
     <use xlink:href="#DejaVuSans-6f" x="97.416016"/>
     <use xlink:href="#DejaVuSans-62" x="158.597656"/>
     <use xlink:href="#DejaVuSans-61" x="222.074219"/>
     <use xlink:href="#DejaVuSans-62" x="283.353516"/>
     <use xlink:href="#DejaVuSans-69" x="346.830078"/>
     <use xlink:href="#DejaVuSans-6c" x="374.613281"/>
     <use xlink:href="#DejaVuSans-69" x="402.396484"/>
     <use xlink:href="#DejaVuSans-74" x="430.179688"/>
     <use xlink:href="#DejaVuSans-79" x="469.388672"/>
     <use xlink:href="#DejaVuSans-20" x="528.568359"/>
     <use xlink:href="#DejaVuSans-4c" x="560.355469"/>
     <use xlink:href="#DejaVuSans-6f" x="614.318359"/>
     <use xlink:href="#DejaVuSans-73" x="675.5"/>
     <use xlink:href="#DejaVuSans-73" x="727.599609"/>
     <use xlink:href="#DejaVuSans-20" x="779.699219"/>
     <use xlink:href="#DejaVuSans-61" x="811.486328"/>
     <use xlink:href="#DejaVuSans-73" x="872.765625"/>
     <use xlink:href="#DejaVuSans-20" x="924.865234"/>
     <use xlink:href="#DejaVuSans-61" x="956.652344"/>
     <use xlink:href="#DejaVuSans-20" x="1017.931641"/>
     <use xlink:href="#DejaVuSans-66" x="1049.71875"/>
     <use xlink:href="#DejaVuSans-75" x="1084.923828"/>
     <use xlink:href="#DejaVuSans-6e" x="1148.302734"/>
     <use xlink:href="#DejaVuSans-63" x="1211.681641"/>
     <use xlink:href="#DejaVuSans-74" x="1266.662109"/>
     <use xlink:href="#DejaVuSans-69" x="1305.871094"/>
     <use xlink:href="#DejaVuSans-6f" x="1333.654297"/>
     <use xlink:href="#DejaVuSans-6e" x="1394.835938"/>
     <use xlink:href="#DejaVuSans-20" x="1458.214844"/>
     <use xlink:href="#DejaVuSans-6f" x="1490.001953"/>
     <use xlink:href="#DejaVuSans-66" x="1551.183594"/>
     <use xlink:href="#DejaVuSans-20" x="1586.388672"/>
     <use xlink:href="#DejaVuSans-4c" x="1618.175781"/>
     <use xlink:href="#DejaVuSans-6f" x="1672.138672"/>
     <use xlink:href="#DejaVuSans-73" x="1733.320312"/>
     <use xlink:href="#DejaVuSans-73" x="1785.419922"/>
     <use xlink:href="#DejaVuSans-20" x="1837.519531"/>
     <use xlink:href="#DejaVuSans-67" x="1869.306641"/>
     <use xlink:href="#DejaVuSans-72" x="1932.783203"/>
     <use xlink:href="#DejaVuSans-6f" x="1971.646484"/>
     <use xlink:href="#DejaVuSans-75" x="2032.828125"/>
     <use xlink:href="#DejaVuSans-70" x="2096.207031"/>
     <use xlink:href="#DejaVuSans-65" x="2159.683594"/>
     <use xlink:href="#DejaVuSans-64" x="2221.207031"/>
     <use xlink:href="#DejaVuSans-20" x="2284.683594"/>
     <use xlink:href="#DejaVuSans-62" x="2316.470703"/>
     <use xlink:href="#DejaVuSans-79" x="2379.947266"/>
     <use xlink:href="#DejaVuSans-20" x="2439.126953"/>
     <use xlink:href="#DejaVuSans-47" x="2470.914062"/>
     <use xlink:href="#DejaVuSans-61" x="2548.404297"/>
     <use xlink:href="#DejaVuSans-6d" x="2609.683594"/>
     <use xlink:href="#DejaVuSans-6d" x="2707.095703"/>
     <use xlink:href="#DejaVuSans-61" x="2804.507812"/>
     <use xlink:href="#DejaVuSans-20" x="2865.787109"/>
     <use xlink:href="#DejaVuSans-56" x="2897.574219"/>
     <use xlink:href="#DejaVuSans-61" x="2958.232422"/>
     <use xlink:href="#DejaVuSans-6c" x="3019.511719"/>
     <use xlink:href="#DejaVuSans-75" x="3047.294922"/>
     <use xlink:href="#DejaVuSans-65" x="3110.673828"/>
    </g>
   </g>
   <g id="legend_1">
    <g id="patch_7">
     <path d="M 532.5125 118.5525 
L 641 118.5525 
Q 643 118.5525 643 116.5525 
L 643 58.84 
Q 643 56.84 641 56.84 
L 532.5125 56.84 
Q 530.5125 56.84 530.5125 58.84 
L 530.5125 116.5525 
Q 530.5125 118.5525 532.5125 118.5525 
z
" style="fill: #ffffff; opacity: 0.8; stroke: #cccccc; stroke-linejoin: miter"/>
    </g>
    <g id="line2d_31">
     <path d="M 534.5125 64.938438 
L 544.5125 64.938438 
L 554.5125 64.938438 
" style="fill: none; stroke: #1f77b4; stroke-width: 1.5; stroke-linecap: square"/>
     <g>
      <use xlink:href="#m122e0f7987" x="544.5125" y="64.938438" style="fill: #1f77b4; stroke: #1f77b4"/>
     </g>
    </g>
    <g id="text_17">
     <!-- Gamma = 0.00 -->
     <g transform="translate(562.5125 68.438438) scale(0.1 -0.1)">
      <defs>
       <path id="DejaVuSans-3d" d="M 678 2906 
L 4684 2906 
L 4684 2381 
L 678 2381 
L 678 2906 
z
M 678 1631 
L 4684 1631 
L 4684 1100 
L 678 1100 
L 678 1631 
z
" transform="scale(0.015625)"/>
      </defs>
      <use xlink:href="#DejaVuSans-47"/>
      <use xlink:href="#DejaVuSans-61" x="77.490234"/>
      <use xlink:href="#DejaVuSans-6d" x="138.769531"/>
      <use xlink:href="#DejaVuSans-6d" x="236.181641"/>
      <use xlink:href="#DejaVuSans-61" x="333.59375"/>
      <use xlink:href="#DejaVuSans-20" x="394.873047"/>
      <use xlink:href="#DejaVuSans-3d" x="426.660156"/>
      <use xlink:href="#DejaVuSans-20" x="510.449219"/>
      <use xlink:href="#DejaVuSans-30" x="542.236328"/>
      <use xlink:href="#DejaVuSans-2e" x="605.859375"/>
      <use xlink:href="#DejaVuSans-30" x="637.646484"/>
      <use xlink:href="#DejaVuSans-30" x="701.269531"/>
     </g>
    </g>
    <g id="line2d_32">
     <path d="M 534.5125 79.616563 
L 544.5125 79.616563 
L 554.5125 79.616563 
" style="fill: none; stroke: #ff7f0e; stroke-width: 1.5; stroke-linecap: square"/>
     <g>
      <use xlink:href="#m6ebb37a0b9" x="544.5125" y="79.616563" style="fill: #ff7f0e; stroke: #ff7f0e"/>
     </g>
    </g>
    <g id="text_18">
     <!-- Gamma = 0.20 -->
     <g transform="translate(562.5125 83.116563) scale(0.1 -0.1)">
      <use xlink:href="#DejaVuSans-47"/>
      <use xlink:href="#DejaVuSans-61" x="77.490234"/>
      <use xlink:href="#DejaVuSans-6d" x="138.769531"/>
      <use xlink:href="#DejaVuSans-6d" x="236.181641"/>
      <use xlink:href="#DejaVuSans-61" x="333.59375"/>
      <use xlink:href="#DejaVuSans-20" x="394.873047"/>
      <use xlink:href="#DejaVuSans-3d" x="426.660156"/>
      <use xlink:href="#DejaVuSans-20" x="510.449219"/>
      <use xlink:href="#DejaVuSans-30" x="542.236328"/>
      <use xlink:href="#DejaVuSans-2e" x="605.859375"/>
      <use xlink:href="#DejaVuSans-32" x="637.646484"/>
      <use xlink:href="#DejaVuSans-30" x="701.269531"/>
     </g>
    </g>
    <g id="line2d_33">
     <path d="M 534.5125 94.294688 
L 544.5125 94.294688 
L 554.5125 94.294688 
" style="fill: none; stroke: #2ca02c; stroke-width: 1.5; stroke-linecap: square"/>
     <g>
      <use xlink:href="#me7a04b254d" x="544.5125" y="94.294688" style="fill: #2ca02c; stroke: #2ca02c"/>
     </g>
    </g>
    <g id="text_19">
     <!-- Gamma = 0.50 -->
     <g transform="translate(562.5125 97.794688) scale(0.1 -0.1)">
      <use xlink:href="#DejaVuSans-47"/>
      <use xlink:href="#DejaVuSans-61" x="77.490234"/>
      <use xlink:href="#DejaVuSans-6d" x="138.769531"/>
      <use xlink:href="#DejaVuSans-6d" x="236.181641"/>
      <use xlink:href="#DejaVuSans-61" x="333.59375"/>
      <use xlink:href="#DejaVuSans-20" x="394.873047"/>
      <use xlink:href="#DejaVuSans-3d" x="426.660156"/>
      <use xlink:href="#DejaVuSans-20" x="510.449219"/>
      <use xlink:href="#DejaVuSans-30" x="542.236328"/>
      <use xlink:href="#DejaVuSans-2e" x="605.859375"/>
      <use xlink:href="#DejaVuSans-35" x="637.646484"/>
      <use xlink:href="#DejaVuSans-30" x="701.269531"/>
     </g>
    </g>
    <g id="line2d_34">
     <path d="M 534.5125 108.972813 
L 544.5125 108.972813 
L 554.5125 108.972813 
" style="fill: none; stroke: #d62728; stroke-width: 1.5; stroke-linecap: square"/>
     <g>
      <use xlink:href="#ma9eeb2e0bd" x="544.5125" y="108.972813" style="fill: #d62728; stroke: #d62728"/>
     </g>
    </g>
    <g id="text_20">
     <!-- Gamma = 1.00 -->
     <g transform="translate(562.5125 112.472813) scale(0.1 -0.1)">
      <use xlink:href="#DejaVuSans-47"/>
      <use xlink:href="#DejaVuSans-61" x="77.490234"/>
      <use xlink:href="#DejaVuSans-6d" x="138.769531"/>
      <use xlink:href="#DejaVuSans-6d" x="236.181641"/>
      <use xlink:href="#DejaVuSans-61" x="333.59375"/>
      <use xlink:href="#DejaVuSans-20" x="394.873047"/>
      <use xlink:href="#DejaVuSans-3d" x="426.660156"/>
      <use xlink:href="#DejaVuSans-20" x="510.449219"/>
      <use xlink:href="#DejaVuSans-31" x="542.236328"/>
      <use xlink:href="#DejaVuSans-2e" x="605.859375"/>
      <use xlink:href="#DejaVuSans-30" x="637.646484"/>
      <use xlink:href="#DejaVuSans-30" x="701.269531"/>
     </g>
    </g>
   </g>
  </g>
 </g>
 <defs>
  <clipPath id="p6a7452d4ad">
   <rect x="90" y="51.84" width="558" height="332.64"/>
  </clipPath>
 </defs>
</svg>
