<?xml version="1.0" encoding="UTF-8"?>
<svg id="Layer_1" xmlns="http://www.w3.org/2000/svg" version="1.1" xmlns:xlink="http://www.w3.org/1999/xlink" viewBox="0 0 1152 1152">
  <!-- Generator: Adobe Illustrator 29.0.0, SVG Export Plug-In . SVG Version: 2.1.0 Build 186)  -->
  <defs>
    <style>
      .st0 {
        clip-path: url(#clippath-6);
      }

      .st1 {
        clip-path: url(#clippath-7);
      }

      .st2 {
        clip-path: url(#clippath-4);
      }

      .st3, .st4, .st5, .st6, .st7, .st8, .st9, .st10, .st11, .st12 {
        fill: none;
      }

      .st3, .st4, .st5, .st7, .st8, .st9, .st10, .st11, .st12 {
        stroke-linecap: square;
      }

      .st3, .st13 {
        stroke: #000;
      }

      .st14 {
        opacity: .8;
        stroke: #ccc;
      }

      .st14, .st15 {
        fill: #fff;
      }

      .st14, .st16, .st17, .st18 {
        isolation: isolate;
      }

      .st19 {
        clip-path: url(#clippath-9);
      }

      .st20 {
        clip-path: url(#clippath-10);
      }

      .st4 {
        stroke: red;
      }

      .st4, .st5, .st7, .st8, .st9, .st10, .st11, .st13, .st12 {
        stroke-linejoin: round;
      }

      .st4, .st10, .st12 {
        stroke-width: 2px;
      }

      .st5 {
        stroke: #366239;
      }

      .st5, .st8, .st11 {
        stroke-width: 3px;
      }

      .st21 {
        clip-path: url(#clippath-11);
      }

      .st22 {
        clip-path: url(#clippath-1);
      }

      .st7 {
        stroke: #231f20;
      }

      .st8 {
        stroke: #980b0c;
      }

      .st23 {
        clip-path: url(#clippath-5);
      }

      .st24 {
        clip-path: url(#clippath-8);
      }

      .st25 {
        clip-path: url(#clippath-3);
      }

      .st26 {
        clip-path: url(#clippath-12);
      }

      .st17 {
        font-size: 30px;
      }

      .st17, .st18 {
        font-family: ImperialSansDisplay-Bold, 'Imperial Sans Display';
        font-weight: 700;
      }

      .st27 {
        clip-path: url(#clippath-14);
      }

      .st9 {
        stroke: #b0b0b0;
      }

      .st9, .st13 {
        stroke-width: .8px;
      }

      .st10 {
        stroke: blue;
      }

      .st11 {
        stroke: #44419a;
      }

      .st28 {
        clip-path: url(#clippath-2);
      }

      .st12 {
        stroke: green;
      }

      .st29 {
        clip-path: url(#clippath-13);
      }

      .st18 {
        font-size: 36px;
      }

      .st30 {
        clip-path: url(#clippath);
      }
    </style>
    <clipPath id="clippath">
      <rect class="st6" x="180" y="101.5" width="866.7" height="894.9"/>
    </clipPath>
    <clipPath id="clippath-1">
      <rect class="st6" x="180" y="101.5" width="866.7" height="894.9"/>
    </clipPath>
    <clipPath id="clippath-2">
      <rect class="st6" x="180" y="101.5" width="866.7" height="894.9"/>
    </clipPath>
    <clipPath id="clippath-3">
      <rect class="st6" x="180" y="101.5" width="866.7" height="894.9"/>
    </clipPath>
    <clipPath id="clippath-4">
      <rect class="st6" x="180" y="101.5" width="866.7" height="894.9"/>
    </clipPath>
    <clipPath id="clippath-5">
      <rect class="st6" x="180" y="101.5" width="866.7" height="894.9"/>
    </clipPath>
    <clipPath id="clippath-6">
      <rect class="st6" x="180" y="101.5" width="866.7" height="894.9"/>
    </clipPath>
    <clipPath id="clippath-7">
      <rect class="st6" x="180" y="101.5" width="866.7" height="894.9"/>
    </clipPath>
    <clipPath id="clippath-8">
      <rect class="st6" x="180" y="101.5" width="866.7" height="894.9"/>
    </clipPath>
    <clipPath id="clippath-9">
      <rect class="st6" x="180" y="101.5" width="866.7" height="894.9"/>
    </clipPath>
    <clipPath id="clippath-10">
      <rect class="st6" x="180" y="101.5" width="866.7" height="894.9"/>
    </clipPath>
    <clipPath id="clippath-11">
      <rect class="st6" x="180" y="101.5" width="866.7" height="894.9"/>
    </clipPath>
    <clipPath id="clippath-12">
      <rect class="st6" x="180" y="101.5" width="866.7" height="894.9"/>
    </clipPath>
    <clipPath id="clippath-13">
      <rect class="st6" x="180" y="101.5" width="866.7" height="894.9"/>
    </clipPath>
    <clipPath id="clippath-14">
      <rect class="st6" x="180" y="101.5" width="866.7" height="894.9"/>
    </clipPath>
  </defs>
  <g id="figure_1">
    <g id="patch_1">
      <path class="st15" d="M0,1152h1152V0H0v1152Z"/>
    </g>
    <g id="axes_1">
      <g id="patch_2">
        <path class="st15" d="M180,996.4h866.7V101.5H180v894.9Z"/>
      </g>
      <g id="matplotlib.axis_1">
        <g id="xtick_1">
          <g id="line2d_1">
            <g class="st30">
              <path class="st9" d="M219.4,996.4V101.5"/>
            </g>
          </g>
          <g id="line2d_2">
            <path id="mff22e29b5f" class="st13" d="M219.4,996.4v3.5"/>
          </g>
          <g id="text_1">
            <path id="DejaVuSans-30" d="M219.4,1005.6c-1.1,0-1.9.6-2.4,1.7-.5,1.1-.8,2.8-.8,5s.3,3.9.8,5,1.4,1.7,2.4,1.7,1.9-.6,2.5-1.7c.5-1.1.8-2.8.8-5s-.3-3.9-.8-5-1.4-1.7-2.5-1.7ZM219.4,1003.9c1.7,0,3.1.7,4,2.2.9,1.4,1.4,3.5,1.4,6.2s-.5,4.8-1.4,6.2-2.3,2.2-4,2.2-3.1-.7-4-2.2c-.9-1.4-1.4-3.5-1.4-6.2s.5-4.8,1.4-6.2,2.3-2.2,4-2.2Z"/>
          </g>
        </g>
        <g id="xtick_2">
          <g id="line2d_3">
            <g class="st22">
              <path class="st9" d="M350.7,996.4V101.5"/>
            </g>
          </g>
          <g id="line2d_4">
            <path id="mff22e29b5f1" class="st13" d="M350.7,996.4v3.5"/>
          </g>
          <g id="text_2">
            <path id="DejaVuSans-31" d="M346.6,1018.5h3.4v-12.3l-3.7.8v-2l3.7-.8h2.1v14.3h3.4v1.8h-9v-1.8h.1Z"/>
          </g>
        </g>
        <g id="xtick_3">
          <g id="line2d_5">
            <g class="st28">
              <path class="st9" d="M482.1,996.4V101.5"/>
            </g>
          </g>
          <g id="line2d_6">
            <path id="mff22e29b5f2" class="st13" d="M482.1,996.4v3.5"/>
          </g>
          <g id="text_3">
            <path id="DejaVuSans-32" d="M479.4,1018.5h7.4v1.8h-9.9v-1.8c.8-.9,1.9-2,3.3-3.5,1.4-1.4,2.2-2.4,2.6-2.8.7-.8,1.1-1.5,1.4-2s.4-1.1.4-1.6c0-.9-.3-1.6-.9-2.1s-1.3-.8-2.3-.8-1.4,0-2.1.4c-.7.2-1.5.6-2.3,1.1v-2.2c.8-.4,1.6-.6,2.4-.8.7-.2,1.4-.3,2-.3,1.6,0,2.9.4,3.9,1.3,1,.8,1.4,2,1.4,3.4s-.1,1.3-.4,1.9c-.2.6-.7,1.3-1.3,2.1-.2.2-.7.8-1.7,1.8-.9,1-2.2,2.4-3.9,4.2h0Z"/>
          </g>
        </g>
        <g id="xtick_4">
          <g id="line2d_7">
            <g class="st25">
              <path class="st9" d="M613.4,996.4V101.5"/>
            </g>
          </g>
          <g id="line2d_8">
            <path id="mff22e29b5f3" class="st13" d="M613.4,996.4v3.5"/>
          </g>
          <g id="text_4">
            <path id="DejaVuSans-33" d="M615.3,1011.6c1,.2,1.8.7,2.4,1.4.6.7.9,1.6.9,2.6,0,1.6-.5,2.8-1.6,3.7s-2.6,1.3-4.5,1.3-1.3,0-2-.2c-.7,0-1.4-.3-2.1-.6v-2.1c.6.4,1.2.6,1.9.8s1.4.3,2.2.3c1.3,0,2.3-.3,3-.8s1-1.3,1-2.4-.3-1.7-1-2.2c-.6-.5-1.5-.8-2.7-.8h-1.8v-1.8h1.9c1,0,1.8-.2,2.4-.6s.8-1,.8-1.9-.3-1.5-.9-1.9c-.6-.4-1.4-.7-2.4-.7s-1.2,0-1.9.2c-.7,0-1.4.3-2.2.6v-1.9c.8-.2,1.6-.4,2.2-.5s1.4-.2,2-.2c1.6,0,2.9.4,3.8,1.1.9.8,1.4,1.8,1.4,3.1s-.2,1.7-.7,2.3-1.2,1-2.1,1.3h0Z"/>
          </g>
        </g>
        <g id="xtick_5">
          <g id="line2d_9">
            <g class="st2">
              <path class="st9" d="M744.7,996.4V101.5"/>
            </g>
          </g>
          <g id="line2d_10">
            <path id="mff22e29b5f4" class="st13" d="M744.7,996.4v3.5"/>
          </g>
          <g id="text_5">
            <path id="DejaVuSans-34" d="M746,1006.1l-5.3,8.6h5.3v-8.6ZM745.4,1004.2h2.6v10.5h2.2v1.8h-2.2v3.8h-2.1v-3.8h-7v-2.1l6.5-10.3h0Z"/>
          </g>
        </g>
        <g id="xtick_6">
          <g id="line2d_11">
            <g class="st23">
              <path class="st9" d="M876,996.4V101.5"/>
            </g>
          </g>
          <g id="line2d_12">
            <path id="mff22e29b5f5" class="st13" d="M876,996.4v3.5"/>
          </g>
          <g id="text_6">
            <path id="DejaVuSans-35" d="M871.6,1004.2h8.3v1.8h-6.3v4c.3,0,.6-.2.9-.2h.9c1.7,0,3.1.5,4.1,1.5s1.5,2.3,1.5,4-.5,3.1-1.6,4.1c-1,1-2.5,1.4-4.4,1.4s-1.3,0-2-.2c-.7,0-1.4-.3-2.1-.5v-2.2c.6.4,1.3.6,1.9.8s1.4.3,2.1.3c1.2,0,2.2-.3,2.9-1s1.1-1.5,1.1-2.7-.4-2-1.1-2.7c-.7-.7-1.7-1-2.9-1s-1.1,0-1.7.2c-.6,0-1.1.3-1.7.6v-8.1h0Z"/>
          </g>
        </g>
        <g id="xtick_7">
          <g id="line2d_13">
            <g class="st0">
              <path class="st9" d="M1007.4,996.4V101.5"/>
            </g>
          </g>
          <g id="line2d_14">
            <path id="mff22e29b5f6" class="st13" d="M1007.4,996.4v3.5"/>
          </g>
          <g id="text_7">
            <path id="DejaVuSans-36" d="M1007.6,1011.4c-.9,0-1.7.3-2.2,1-.6.7-.8,1.6-.8,2.8s.3,2.1.8,2.8c.6.7,1.3,1,2.2,1s1.7-.3,2.2-1c.6-.7.8-1.6.8-2.8s-.3-2.1-.8-2.8c-.6-.7-1.3-1-2.2-1ZM1011.8,1004.5v2c-.5-.3-1.1-.5-1.6-.6s-1.1-.2-1.6-.2c-1.4,0-2.5.5-3.2,1.5s-1.2,2.4-1.3,4.4c.4-.6.9-1.1,1.5-1.4.6-.3,1.3-.5,2-.5,1.6,0,2.8.5,3.7,1.5s1.4,2.3,1.4,4-.5,3-1.4,4-2.2,1.5-3.8,1.5-3.2-.7-4.1-2.2c-1-1.4-1.4-3.5-1.4-6.2s.6-4.6,1.8-6.1,2.7-2.3,4.7-2.3,1.1,0,1.6.2,1.1.3,1.7.5h0Z"/>
          </g>
        </g>
      </g>
      <g id="matplotlib.axis_2">
        <g id="ytick_1">
          <g id="line2d_15">
            <g class="st1">
              <path class="st9" d="M180,955.8h866.7"/>
            </g>
          </g>
          <g id="line2d_16">
            <path id="mce67ab2e29" class="st13" d="M180,955.8h-3.4"/>
          </g>
          <g id="text_9">
            <path id="DejaVuSans-301" d="M166.4,949.4c-1.1,0-1.9.6-2.4,1.7-.5,1.1-.8,2.8-.8,5s.3,3.9.8,5,1.4,1.7,2.4,1.7,1.9-.6,2.5-1.7c.5-1.1.8-2.8.8-5s-.3-3.9-.8-5-1.4-1.7-2.5-1.7ZM166.4,947.7c1.7,0,3.1.7,4,2.2.9,1.4,1.4,3.5,1.4,6.2s-.5,4.8-1.4,6.2-2.3,2.2-4,2.2-3.1-.7-4-2.2c-.9-1.4-1.4-3.5-1.4-6.2s.5-4.8,1.4-6.2,2.3-2.2,4-2.2Z"/>
          </g>
        </g>
        <g id="ytick_2">
          <g id="line2d_17">
            <g class="st24">
              <path class="st9" d="M180,767.9h866.7"/>
            </g>
          </g>
          <g id="line2d_18">
            <path id="mce67ab2e291" class="st13" d="M180,767.9h-3.4"/>
          </g>
          <g id="text_10">
            <g>
              <path id="DejaVuSans-321" d="M150.2,774.5h7.4v1.8h-9.9v-1.8c.8-.9,1.9-2,3.3-3.5,1.4-1.4,2.2-2.4,2.6-2.8.7-.8,1.1-1.5,1.4-2,.3-.5.4-1.1.4-1.6,0-.9-.3-1.6-.9-2.1-.6-.5-1.3-.8-2.3-.8s-1.4,0-2.1.4c-.7.2-1.5.6-2.3,1.1v-2.2c.8-.4,1.6-.6,2.4-.8.7-.2,1.4-.3,2-.3,1.6,0,2.9.4,3.9,1.3,1,.8,1.4,2,1.4,3.4s-.1,1.3-.4,1.9c-.2.6-.7,1.3-1.3,2.1-.2.2-.7.8-1.7,1.8-.9,1-2.2,2.4-3.9,4.2h0Z"/>
              <path id="DejaVuSans-302" d="M166.4,761.6c-1.1,0-1.9.6-2.4,1.7-.5,1.1-.8,2.8-.8,5s.3,3.9.8,5,1.4,1.7,2.4,1.7,1.9-.6,2.5-1.7c.5-1.1.8-2.8.8-5s-.3-3.9-.8-5-1.4-1.7-2.5-1.7ZM166.4,759.8c1.7,0,3.1.7,4,2.2.9,1.4,1.4,3.5,1.4,6.2s-.5,4.8-1.4,6.2-2.3,2.2-4,2.2-3.1-.7-4-2.2c-.9-1.4-1.4-3.5-1.4-6.2s.5-4.8,1.4-6.2,2.3-2.2,4-2.2Z"/>
            </g>
          </g>
        </g>
        <g id="ytick_3">
          <g id="line2d_19">
            <g class="st19">
              <path class="st9" d="M180,580h866.7"/>
            </g>
          </g>
          <g id="line2d_20">
            <path id="mce67ab2e292" class="st13" d="M180,580h-3.4"/>
          </g>
          <g id="text_11">
            <g>
              <path id="DejaVuSans-341" d="M154.1,574.1l-5.3,8.6h5.3v-8.6ZM153.6,572.2h2.6v10.5h2.2v1.8h-2.2v3.8h-2.1v-3.8h-7v-2.1l6.5-10.3h0Z"/>
              <path id="DejaVuSans-303" d="M166.4,573.7c-1.1,0-1.9.6-2.4,1.7-.5,1.1-.8,2.8-.8,5s.3,3.9.8,5,1.4,1.7,2.4,1.7,1.9-.6,2.5-1.7c.5-1.1.8-2.8.8-5s-.3-3.9-.8-5-1.4-1.7-2.5-1.7ZM166.4,571.9c1.7,0,3.1.7,4,2.2.9,1.4,1.4,3.5,1.4,6.2s-.5,4.8-1.4,6.2-2.3,2.2-4,2.2-3.1-.7-4-2.2c-.9-1.4-1.4-3.5-1.4-6.2s.5-4.8,1.4-6.2,2.3-2.2,4-2.2Z"/>
            </g>
          </g>
        </g>
        <g id="ytick_4">
          <g id="line2d_21">
            <g class="st20">
              <path class="st9" d="M180,392.1h866.7"/>
            </g>
          </g>
          <g id="line2d_22">
            <path id="mce67ab2e293" class="st13" d="M180,392.1h-3.4"/>
          </g>
          <g id="text_12">
            <g>
              <path id="DejaVuSans-361" d="M153.1,391.5c-.9,0-1.7.3-2.2,1-.6.7-.8,1.6-.8,2.8s.3,2.1.8,2.8c.6.7,1.3,1,2.2,1s1.7-.3,2.2-1c.6-.7.8-1.6.8-2.8s-.3-2.1-.8-2.8c-.6-.7-1.3-1-2.2-1ZM157.3,384.7v2c-.5-.3-1.1-.5-1.6-.6s-1.1-.2-1.6-.2c-1.4,0-2.5.5-3.2,1.5s-1.2,2.4-1.3,4.4c.4-.6.9-1.1,1.5-1.4s1.3-.5,2-.5c1.6,0,2.8.5,3.7,1.5s1.4,2.3,1.4,4-.5,3-1.4,4-2.2,1.5-3.8,1.5-3.2-.7-4.1-2.2c-1-1.4-1.4-3.5-1.4-6.2s.6-4.6,1.8-6.1,2.7-2.3,4.7-2.3,1.1,0,1.6.2,1.1.3,1.7.5h0Z"/>
              <path id="DejaVuSans-304" d="M166.4,385.8c-1.1,0-1.9.6-2.4,1.7s-.8,2.8-.8,5,.3,3.9.8,5,1.4,1.7,2.4,1.7,1.9-.6,2.5-1.7c.5-1.1.8-2.8.8-5s-.3-3.9-.8-5-1.4-1.7-2.5-1.7ZM166.4,384c1.7,0,3.1.7,4,2.2.9,1.4,1.4,3.5,1.4,6.2s-.5,4.8-1.4,6.2c-.9,1.4-2.3,2.2-4,2.2s-3.1-.7-4-2.2c-.9-1.4-1.4-3.5-1.4-6.2s.5-4.8,1.4-6.2c.9-1.4,2.3-2.2,4-2.2Z"/>
            </g>
          </g>
        </g>
        <g id="ytick_5">
          <g id="line2d_23">
            <g class="st21">
              <path class="st9" d="M180,204.2h866.7"/>
            </g>
          </g>
          <g id="line2d_24">
            <path id="mce67ab2e294" class="st13" d="M180,204.2h-3.4"/>
          </g>
          <g id="text_13">
            <g>
              <path id="DejaVuSans-38" d="M152.8,204.9c-1,0-1.8.3-2.4.8-.6.6-.9,1.3-.9,2.3s.3,1.7.9,2.3c.6.6,1.4.8,2.4.8s1.8-.3,2.4-.8c.6-.6.9-1.3.9-2.3s-.3-1.7-.9-2.3c-.6-.6-1.4-.8-2.4-.8ZM150.7,204c-.9-.2-1.6-.7-2.1-1.3s-.8-1.4-.8-2.4.4-2.3,1.3-3.1c.9-.8,2.1-1.1,3.6-1.1s2.8.4,3.7,1.1,1.3,1.8,1.3,3.1-.3,1.7-.8,2.4c-.5.6-1.2,1.1-2.1,1.3,1,.2,1.8.7,2.4,1.4.6.7.9,1.6.9,2.6,0,1.6-.5,2.8-1.4,3.6s-2.2,1.3-4,1.3-3-.4-4-1.3c-.9-.8-1.4-2-1.4-3.6s.3-1.9.9-2.6c.6-.7,1.4-1.2,2.4-1.4h.1ZM150,200.5c0,.8.3,1.5.8,2s1.2.7,2.1.7,1.6-.2,2.1-.7.8-1.1.8-2-.3-1.5-.8-2-1.2-.7-2.1-.7-1.6.2-2.1.7-.8,1.1-.8,2Z"/>
              <path id="DejaVuSans-305" d="M166.4,197.9c-1.1,0-1.9.6-2.4,1.7-.5,1.1-.8,2.8-.8,5s.3,3.9.8,5,1.4,1.7,2.4,1.7,1.9-.6,2.5-1.7c.5-1.1.8-2.8.8-5s-.3-3.9-.8-5-1.4-1.7-2.5-1.7ZM166.4,196.1c1.7,0,3.1.7,4,2.2.9,1.4,1.4,3.5,1.4,6.2s-.5,4.8-1.4,6.2-2.3,2.2-4,2.2-3.1-.7-4-2.2c-.9-1.4-1.4-3.5-1.4-6.2s.5-4.8,1.4-6.2,2.3-2.2,4-2.2Z"/>
            </g>
          </g>
        </g>
        <g id="text_14">
          <g>
            <path id="DejaVuSans-75" d="M125.8,621.4h0Z"/>
            <path id="DejaVuSans-20" d="M137.7,553.1"/>
            <path id="DejaVuSans-201" d="M137.7,501"/>
            <path id="DejaVuSans-25" d="M126.1,482.3"/>
          </g>
        </g>
      </g>
      <g id="line2d_25">
        <g class="st26">
          <path class="st5" d="M219.4,953.9l131.3-84.6,131.3-268.7,131.3-264.9,131.3-159.7,131.3-33.8h131.3"/>
        </g>
      </g>
      <g id="line2d_26">
        <g class="st29">
          <path class="st8" d="M219.4,955.8l131.3-7.5,131.3-107.1,131.3-84.6,131.3-88.3,131.3-26.3h131.3"/>
        </g>
      </g>
      <g id="line2d_27">
        <g class="st27">
          <path class="st11" d="M219.4,955.8l131.3-11.4,131.3-110.3,131.3-129.3,131.3-76.1,131.3-30.4h131.3"/>
        </g>
      </g>
      <g id="patch_3">
        <path class="st3" d="M180,996.4V101.5"/>
      </g>
      <g id="patch_4">
        <path class="st3" d="M1046.8,996.4V101.5"/>
      </g>
      <g id="patch_5">
        <path class="st3" d="M180,996.4h866.7"/>
      </g>
      <g id="patch_6">
        <path class="st7" d="M180,101.5h866.7"/>
      </g>
      <g id="legend_1">
        <g id="patch_7">
          <path class="st14" d="M195,217h319.6c2.8,0,4.3-1.5,4.3-4.4v-95.5c0-3-1.4-4.4-4.3-4.4H195c-2.8,0-4.3,1.5-4.3,4.4v95.5c0,3,1.4,4.4,4.3,4.4Z"/>
        </g>
        <g id="line2d_28">
          <path class="st12" d="M199.3,130.6h42.7"/>
        </g>
        <g id="line2d_29">
          <path class="st4" d="M199.3,163.1h42.7"/>
        </g>
        <g id="line2d_30">
          <path class="st10" d="M199.3,195.7h42.7"/>
        </g>
      </g>
      <g class="st16">
        <text class="st17" transform="translate(257 200.5)"><tspan x="0" y="0">Oh sampler</tspan></text>
      </g>
      <g class="st16">
        <text class="st17" transform="translate(257 172)"><tspan x="0" y="0">Uniform sampler</tspan></text>
      </g>
      <g class="st16">
        <text class="st17" transform="translate(257 141.6)"><tspan x="0" y="0">DGBS sampler</tspan></text>
      </g>
    </g>
    <g class="st16">
      <text class="st18" transform="translate(125.8 658.3) rotate(-90)"><tspan x="0" y="0">Success rate (%)</tspan></text>
    </g>
    <g class="st16">
      <text class="st18" transform="translate(319.9 1061.8)"><tspan x="0" y="0">Iteration step of local search algorithm</tspan></text>
    </g>
  </g>
</svg>